<?xml version="1.0" encoding="UTF-8"?>
<svg version="1.1" xmlns="http://www.w3.org/2000/svg" width="192" height="192">
<path d="M0 0 C1.04986084 0.00563965 2.09972168 0.0112793 3.18139648 0.01708984 C25.80124277 0.36854042 46.06186106 8.68674694 63.25 23.3125 C64.26513672 24.10914063 64.26513672 24.10914063 65.30078125 24.921875 C82.04541384 38.47865169 91.94736182 59.76194198 95.859375 80.55078125 C98.59784984 106.92229395 94.24393472 132.43999107 77.875 154 C76.68037547 155.44891267 75.47148267 156.8861565 74.25 158.3125 C73.25033203 159.52873047 73.25033203 159.52873047 72.23046875 160.76953125 C57.35116983 178.22254674 35.80259693 188.98920066 13.25 192.3125 C-16.71965936 194.20832087 -41.8011655 187.52087804 -64.90600586 167.83935547 C-81.83301342 152.773538 -93.38253086 130.8981556 -95.75 108.3125 C-97.11047549 80.06103869 -91.64901631 55.24141873 -72.75 33.3125 C-72.22019531 32.63832031 -71.69039062 31.96414062 -71.14453125 31.26953125 C-54.35893886 10.50513178 -26.07624536 -0.14798031 0 0 Z " fill="#FEAB1F" transform="translate(95.75,-0.3125)"/>
<path d="M0 0 C3.0357552 1.31980569 4.73350361 2.56451397 6.6640625 5.24609375 C7.38045898 6.24056519 7.38045898 6.24056519 8.11132812 7.25512695 C8.61083984 7.97531006 9.11035156 8.69549316 9.625 9.4375 C10.14771484 10.18668701 10.67042969 10.93587402 11.20898438 11.70776367 C30.5866832 40.11958057 30.5866832 40.11958057 30 55 C53.77352482 45.18633668 68.77360263 32.56309778 80 9 C80.60126726 7.7902213 81.20494471 6.58163307 81.8125 5.375 C82.204375 4.59125 82.59625 3.8075 83 3 C85.54343685 5.53887053 88.08139143 8.08248967 90.60546875 10.640625 C91.45753906 11.50171875 92.30960938 12.3628125 93.1875 13.25 C94.04730469 14.12140625 94.90710938 14.9928125 95.79296875 15.890625 C97.81431066 18.02994238 97.81431066 18.02994238 100 19 C100.67980871 45.97620401 96.14725223 69.80918345 78 91 C77.00033203 92.21623047 77.00033203 92.21623047 75.98046875 93.45703125 C61.12339519 110.88397699 39.53971393 121.72213152 17 125 C12.64751342 125.23467373 8.29573366 125.23074773 3.9375 125.25 C2.18083008 125.2809375 2.18083008 125.2809375 0.38867188 125.3125 C-0.74119141 125.31765625 -1.87105469 125.3228125 -3.03515625 125.328125 C-4.0600415 125.3374707 -5.08492676 125.34681641 -6.14086914 125.35644531 C-11.54726741 124.68243443 -14.95510375 121.29612945 -18.69848633 117.56030273 C-19.59904251 116.66605087 -20.49959869 115.77179901 -21.42744446 114.85044861 C-22.39589602 113.87841861 -23.36408553 112.90612747 -24.33203125 111.93359375 C-25.33350411 110.93346904 -26.33527363 109.93364132 -27.33732605 108.93409729 C-29.42924073 106.8451227 -31.51751584 104.75259432 -33.60327148 102.6574707 C-36.28105427 99.96824964 -38.96777556 97.28816618 -41.65724659 94.61064053 C-43.72398761 92.55111047 -45.78596134 90.48686074 -47.8465023 88.42112923 C-48.83584357 87.43045164 -49.82667861 86.44126353 -50.81900978 85.45358086 C-52.20033047 84.07731745 -53.57459526 82.69398302 -54.94848633 81.31030273 C-55.73282547 80.52437241 -56.51716461 79.73844208 -57.32527161 78.92869568 C-59 77 -59 77 -59 75 C-59.9590625 74.5359375 -59.9590625 74.5359375 -60.9375 74.0625 C-63 73 -63 73 -64 72 C-64.42884611 68.80273792 -64.73757305 66.20244435 -62.99246407 63.35744286 C-61.48181138 61.62741676 -59.89416229 60.03973987 -58.23266602 58.45385742 C-57.61979736 57.84157288 -57.00692871 57.22928833 -56.37548828 56.59844971 C-54.35096009 54.58387549 -52.30291286 52.59511491 -50.25390625 50.60546875 C-48.84223379 49.20939757 -47.43217456 47.8116934 -46.02366638 46.41242981 C-42.3154685 42.73659579 -38.58718135 39.0818337 -34.85388184 35.43151855 C-30.31476022 30.98622141 -25.79845903 26.51776659 -21.27995968 22.05152607 C-17.76586607 18.57860501 -14.24808255 15.10972054 -10.71864319 11.65238953 C-10.07203232 11.01735001 -9.42542145 10.38231049 -8.75921631 9.72802734 C-7.54900003 8.53966357 -6.33685973 7.35325489 -5.1224823 6.16914368 C-2.19379508 3.36637578 -2.19379508 3.36637578 0 0 Z " fill="#F08A17" transform="translate(92,67)"/>
<path d="M0 0 C3.55960657 1.77980328 5.92865821 3.46623849 8.9375 6 C26.51297297 20.52595382 46.4941297 36.55977194 70 39 C66.45627299 50.81242338 61.23107427 60.78180428 53 70 C52.32195312 70.77214844 51.64390625 71.54429688 50.9453125 72.33984375 C42.22324052 81.68492087 31.02940953 87.86426912 19 92 C18.34 92 17.68 92 17 92 C16.8040625 91.18660156 16.608125 90.37320313 16.40625 89.53515625 C10.16279435 65.61088007 -3.47624941 46.01594617 -20.21484375 28.12890625 C-22 26 -22 26 -23 23 C-15.41 15.41 -7.82 7.82 0 0 Z " fill="#E6E6E7" transform="translate(105,30)"/>
<path d="M0 0 C17.33333333 17.33333333 34.66666667 34.66666667 52 52 C51.07323844 53.12134628 50.1405982 54.2378354 49.20556641 55.35229492 C48.68684967 55.97456467 48.16813293 56.59683441 47.63369751 57.23796082 C45.15290858 59.91363809 42.53086087 61.46850167 39.375 63.3125 C37.71597656 64.29669922 37.71597656 64.29669922 36.0234375 65.30078125 C34.52683594 66.14189453 34.52683594 66.14189453 33 67 C32.29101562 67.40605469 31.58203125 67.81210938 30.8515625 68.23046875 C29 69 29 69 25 69 C24.46632812 67.80246094 23.93265625 66.60492188 23.3828125 65.37109375 C15.07781617 47.08726974 4.52113616 31.80732046 -9.21484375 17.12890625 C-11 15 -11 15 -12 12 C-8.04 8.04 -4.08 4.08 0 0 Z " fill="#BCBBBF" transform="translate(94,41)"/>
<path d="M0 0 C4.55015893 1.51671964 6.50057264 5.16891053 9 9 C7.35320094 13.18376403 4.28939506 16.02051287 1.17675781 19.14550781 C0.58138214 19.75081329 -0.01399353 20.35611877 -0.62741089 20.97976685 C-2.59497665 22.9764986 -4.57021273 24.96540019 -6.546875 26.953125 C-7.91970278 28.33745871 -9.2925258 29.72179716 -10.66534424 31.10614014 C-13.54319656 34.00498809 -16.42566777 36.89916167 -19.31054688 39.79101562 C-23.00750424 43.4989607 -26.68553777 47.22509747 -30.35944748 50.95586014 C-33.18726246 53.82089752 -36.02838012 56.67245492 -38.87332916 59.52046967 C-40.235474 60.88867171 -41.59261022 62.26187909 -42.94460297 63.64011383 C-44.83560779 65.56519081 -46.74459611 67.47048215 -48.65917969 69.37207031 C-49.49172775 70.23226273 -49.49172775 70.23226273 -50.34109497 71.10983276 C-52.99559442 73.70823231 -54.5431647 74.94174446 -58.27911377 75.41815186 C-61 75 -61 75 -62.875 73.9375 C-64.68849334 70.81426147 -64.40434582 68.55566801 -64 65 C-62.4331009 62.45245887 -60.38790977 60.51101717 -58.23266602 58.45385742 C-57.61979736 57.84157288 -57.00692871 57.22928833 -56.37548828 56.59844971 C-54.35096009 54.58387549 -52.30291286 52.59511491 -50.25390625 50.60546875 C-48.84223379 49.20939757 -47.43217456 47.8116934 -46.02366638 46.41242981 C-42.3154685 42.73659579 -38.58718135 39.0818337 -34.85388184 35.43151855 C-30.31476022 30.98622141 -25.79845903 26.51776659 -21.27995968 22.05152607 C-17.76586607 18.57860501 -14.24808255 15.10972054 -10.71864319 11.65238953 C-10.07203232 11.01735001 -9.42542145 10.38231049 -8.75921631 9.72802734 C-7.54900003 8.53966357 -6.33685973 7.35325489 -5.1224823 6.16914368 C-2.19379508 3.36637578 -2.19379508 3.36637578 0 0 Z " fill="#E3031E" transform="translate(92,67)"/>
<path d="M0 0 C1.32 1.32 2.64 2.64 4 4 C2.35320094 8.18376403 -0.71060494 11.02051287 -3.82324219 14.14550781 C-4.41861786 14.75081329 -5.01399353 15.35611877 -5.62741089 15.97976685 C-7.59497665 17.9764986 -9.57021273 19.96540019 -11.546875 21.953125 C-12.91970278 23.33745871 -14.2925258 24.72179716 -15.66534424 26.10614014 C-18.54319656 29.00498809 -21.42566777 31.89916167 -24.31054688 34.79101562 C-28.00750424 38.4989607 -31.68553777 42.22509747 -35.35944748 45.95586014 C-38.18726246 48.82089752 -41.02838012 51.67245492 -43.87332916 54.52046967 C-45.235474 55.88867171 -46.59261022 57.26187909 -47.94460297 58.64011383 C-49.83560779 60.56519081 -51.74459611 62.47048215 -53.65917969 64.37207031 C-54.49172775 65.23226273 -54.49172775 65.23226273 -55.34109497 66.10983276 C-58.06786045 68.77897108 -59.54106054 69.9524689 -63.39630127 70.35174561 C-64.68513214 70.17763153 -64.68513214 70.17763153 -66 70 C-66 65.35176344 -64.95814261 64.49161798 -61.81155396 61.31387329 C-61.19440521 60.71110565 -60.57725647 60.10833801 -59.94140625 59.48730469 C-59.29767059 58.84298492 -58.65393494 58.19866516 -57.99069214 57.53482056 C-55.85730447 55.40422299 -53.71009092 53.28814744 -51.5625 51.171875 C-50.08189458 49.69872861 -48.60216894 48.2246975 -47.12329102 46.74981689 C-43.22592176 42.86773028 -39.3166902 38.99780404 -35.40490723 35.13024902 C-31.41638103 31.18261833 -27.43913483 27.22365954 -23.4609375 23.265625 C-15.65165287 15.49925774 -7.82979572 7.74568435 0 0 Z " fill="#AE1916" transform="translate(97,72)"/>
<path d="M0 0 C3.96 0.33 7.92 0.66 12 1 C8.68908689 12.03637703 3.35361184 27.25561418 -7.2421875 33.2734375 C-7.82226562 33.51320312 -8.40234375 33.75296875 -9 34 C-10.20205464 32.93283928 -11.38632333 31.84561663 -12.5625 30.75 C-13.22378906 30.14671875 -13.88507813 29.5434375 -14.56640625 28.921875 C-16 27 -16 27 -15.94140625 25.04296875 C-14.76230421 22.48417054 -13.22940781 20.68540315 -11.375 18.5625 C-6.60652683 12.80418132 -3.33959136 6.65831028 0 0 Z " fill="#FEFDFB" transform="translate(163,68)"/>
<path d="M0 0 C5.07859111 1.37722856 7.43804015 3.88581193 10.99926758 7.62670898 C11.65050095 8.28643204 12.30173431 8.94615509 12.97270203 9.62586975 C15.04169519 11.72832171 17.08882122 13.85067508 19.13598633 15.97436523 C20.53107185 17.39956401 21.92754263 18.82340818 23.32543945 20.24584961 C26.39361862 23.37291365 29.44815077 26.51261928 32.49116516 29.66416931 C33.59188565 30.79824611 34.70596322 31.91934213 35.82348633 33.03686523 C30.80924847 32.4797277 26.76311648 30.81917204 22.32348633 28.53686523 C21.62787598 28.18301758 20.93226563 27.82916992 20.21557617 27.46459961 C9.2670467 21.78518982 -0.75075954 15.00749142 -10.17651367 7.03686523 C-3.17651367 0.03686523 -3.17651367 0.03686523 0 0 Z " fill="#EF8A19" transform="translate(129.176513671875,33.963134765625)"/>
<path d="M0 0 C6.46153846 0.46153846 6.46153846 0.46153846 9 3 C9.5 6.3125 9.5 6.3125 9 10 C7.17823607 12.1289218 5.34031936 13.39103044 3 15 C-0.3 12.36 -3.6 9.72 -7 7 C-4.66666667 4.66666667 -2.33333333 2.33333333 0 0 Z " fill="#E4061F" transform="translate(126,34)"/>
<path d="M0 0 C0.66 0.33 1.32 0.66 2 1 C2.375 4.1875 2.375 4.1875 2 8 C0.18811972 10.1403498 -1.65801167 11.38988302 -4 13 C-5.32 12.01 -6.64 11.02 -8 10 C-6.34908222 5.70761377 -3.26245434 3.1206085 0 0 Z " fill="#AF1917" transform="translate(133,36)"/>
</svg>
