<?xml version="1.0" encoding="UTF-8"?>
<svg version="1.1" xmlns="http://www.w3.org/2000/svg" width="192" height="192">
<path d="M0 0 C1.04986084 0.00563965 2.09972168 0.0112793 3.18139648 0.01708984 C25.80124277 0.36854042 46.06186106 8.68674694 63.25 23.3125 C64.26513672 24.10914063 64.26513672 24.10914063 65.30078125 24.921875 C82.04541384 38.47865169 91.94736182 59.76194198 95.859375 80.55078125 C98.62129341 107.14805555 94.21404409 133.16564829 77.25 154.625 C75.92387201 156.19361996 74.59096793 157.75654723 73.25 159.3125 C72.45529297 160.32376953 72.45529297 160.32376953 71.64453125 161.35546875 C57.87928832 178.38358407 34.79374499 189.72931715 13.25 192.3125 C-15.6176327 193.69643293 -40.32121915 188.39762675 -62.75 169.3125 C-63.42675781 168.78140625 -64.10351562 168.2503125 -64.80078125 167.703125 C-81.54010812 154.15064393 -91.48789818 132.83584185 -95.359375 112.0390625 C-98.13455384 85.56385637 -93.61934257 59.33955521 -76.75 38 C-75.42387201 36.43138004 -74.09096793 34.86845277 -72.75 33.3125 C-72.22019531 32.63832031 -71.69039062 31.96414062 -71.14453125 31.26953125 C-54.35893886 10.50513178 -26.07624536 -0.14798031 0 0 Z " fill="#00F6FC" transform="translate(95.75,-0.3125)"/>
<path d="M0 0 C1.2669873 0.00966797 1.2669873 0.00966797 2.55957031 0.01953125 C10.47254842 0.25127936 15.96652454 1.97254919 21.828125 7.4375 C27.07563144 13.06897032 29.01389571 17.54783644 28.9453125 25.33203125 C28.93886719 26.62431641 28.93242188 27.91660156 28.92578125 29.24804688 C28.90907327 30.6028673 28.89214342 31.95768501 28.875 33.3125 C28.86496003 34.68684251 28.85583596 36.06119203 28.84765625 37.43554688 C28.82411242 40.79054317 28.79122567 44.14518199 28.75 47.5 C29.54583496 47.47381592 30.34166992 47.44763184 31.16162109 47.4206543 C34.81587471 47.31583003 38.46981079 47.25140191 42.125 47.1875 C43.37667969 47.14560547 44.62835938 47.10371094 45.91796875 47.06054688 C55.31564598 46.93754063 61.94066818 48.43056539 69.1875 54.5625 C69.9609375 55.5215625 69.9609375 55.5215625 70.75 56.5 C71.554375 57.4590625 71.554375 57.4590625 72.375 58.4375 C77.4218645 66.00779676 76.68496931 75.74424232 75.75 84.5 C73.49472356 92.89687747 68.22655595 97.88712778 60.92578125 102.1484375 C55.07911634 104.56643553 48.51313483 103.80957206 42.3125 103.6875 C41.00861328 103.67396484 39.70472656 103.66042969 38.36132812 103.64648438 C35.15712378 103.61127334 31.95377895 103.56202094 28.75 103.5 C28.77618408 104.29583496 28.80236816 105.09166992 28.8293457 105.91162109 C28.93416997 109.56587471 28.99859809 113.21981079 29.0625 116.875 C29.10439453 118.12667969 29.14628906 119.37835938 29.18945312 120.66796875 C29.305951 129.56840658 28.19173956 136.68106754 21.9934082 143.40576172 C15.6093514 149.44793586 8.92077076 151.06700902 0.375 151 C-0.46699951 150.99427979 -1.30899902 150.98855957 -2.17651367 150.98266602 C-9.75855462 150.76405946 -14.45246164 149.06072082 -20.00390625 143.85546875 C-27.68169234 135.65966336 -27.65056715 127.88521874 -27.4375 117.0625 C-27.41719727 115.10666992 -27.41719727 115.10666992 -27.39648438 113.11132812 C-27.36127334 109.90712378 -27.31202094 106.70377895 -27.25 103.5 C-28.50490234 103.5314209 -28.50490234 103.5314209 -29.78515625 103.56347656 C-32.92362309 103.63211966 -36.06170416 103.68202563 -39.20068359 103.71972656 C-41.21347627 103.74946045 -43.22592134 103.80031729 -45.23828125 103.8515625 C-54.0002556 103.93962254 -59.64495854 103.45300019 -66.45703125 97.60546875 C-66.98683594 96.97253906 -67.51664063 96.33960937 -68.0625 95.6875 C-68.60519531 95.06230469 -69.14789063 94.43710938 -69.70703125 93.79296875 C-73.85429215 87.62982408 -74.80719713 82.41944387 -74.75 75.125 C-74.74427979 74.28300049 -74.73855957 73.44100098 -74.73266602 72.57348633 C-74.51434476 65.00134067 -72.8388177 60.24739336 -67.5703125 54.74609375 C-62.08049654 49.68326348 -56.90218382 47.10638694 -49.3203125 47.20703125 C-47.38671875 47.2215332 -47.38671875 47.2215332 -45.4140625 47.23632812 C-44.06770214 47.26138812 -42.72134797 47.28678288 -41.375 47.3125 C-40.00522295 47.32756496 -38.63542998 47.34125018 -37.265625 47.35351562 C-33.92667642 47.38878621 -30.58854325 47.43808104 -27.25 47.5 C-27.27618408 46.66863525 -27.30236816 45.83727051 -27.3293457 44.98071289 C-27.41526271 41.85529141 -27.47758211 38.73047754 -27.5246582 35.60424805 C-27.56176249 33.60229199 -27.62534137 31.60088258 -27.68945312 29.59960938 C-27.80262777 20.61354232 -26.85323307 14.24167617 -20.46411133 7.66040039 C-14.23391707 1.86857605 -8.37625161 -0.066137 0 0 Z " fill="#FEAB1F" transform="translate(95.25,20.5)"/>
<path d="M0 0 C0 16.17 0 32.34 0 49 C-6.27 49 -12.54 49 -19 49 C-19 66.16 -19 83.32 -19 101 C-12.73 101 -6.46 101 0 101 C0 117.17 0 133.34 0 150 C-9.83230038 150 -13.86786513 149.71753009 -20.7890625 143.35546875 C-28.38157223 135.07103079 -28.40147289 127.43122557 -28.1875 116.5625 C-28.16719727 114.60666992 -28.16719727 114.60666992 -28.14648438 112.61132812 C-28.11127334 109.40712378 -28.06202094 106.20377895 -28 103 C-29.25490234 103.0314209 -29.25490234 103.0314209 -30.53515625 103.06347656 C-33.67362309 103.13211966 -36.81170416 103.18202563 -39.95068359 103.21972656 C-41.96347627 103.24946045 -43.97592134 103.30031729 -45.98828125 103.3515625 C-54.7502556 103.43962254 -60.39495854 102.95300019 -67.20703125 97.10546875 C-67.73683594 96.47253906 -68.26664063 95.83960937 -68.8125 95.1875 C-69.35519531 94.56230469 -69.89789063 93.93710938 -70.45703125 93.29296875 C-74.60429215 87.12982408 -75.55719713 81.91944387 -75.5 74.625 C-75.49427979 73.78300049 -75.48855957 72.94100098 -75.48266602 72.07348633 C-75.26434476 64.50134067 -73.5888177 59.74739336 -68.3203125 54.24609375 C-62.83049654 49.18326348 -57.65218382 46.60638694 -50.0703125 46.70703125 C-48.13671875 46.7215332 -48.13671875 46.7215332 -46.1640625 46.73632812 C-44.81770214 46.76138812 -43.47134797 46.78678288 -42.125 46.8125 C-40.75522295 46.82756496 -39.38542998 46.84125018 -38.015625 46.85351562 C-34.67667642 46.88878621 -31.33854325 46.93808104 -28 47 C-28.02618408 46.16863525 -28.05236816 45.33727051 -28.0793457 44.48071289 C-28.16526271 41.35529141 -28.22758211 38.23047754 -28.2746582 35.10424805 C-28.31176249 33.10229199 -28.37534137 31.10088258 -28.43945312 29.09960938 C-28.552645 20.11217463 -27.59805496 13.75820197 -21.2265625 7.16479492 C-14.25288503 0.71189237 -9.97007969 0 0 0 Z " fill="#FDC366" transform="translate(96,21)"/>
<path d="M0 0 C5.52454694 2.43209147 9.49424631 6.76298179 13.8125 10.875 C15.15731445 12.06996094 15.15731445 12.06996094 16.52929688 13.2890625 C22.76090869 19.27751272 22.76090869 19.27751272 23.41943359 24.02172852 C23.19913474 27.12227618 22.71347004 29.97683071 22 33 C21.78114136 34.12390137 21.78114136 34.12390137 21.55786133 35.27050781 C21.12762149 37.28072033 20.59717342 39.22078918 20 41.1875 C19.78706299 41.89527588 19.57412598 42.60305176 19.35473633 43.33227539 C15.32938216 55.88435091 8.7222848 67.15342901 0 77 C-0.52722656 77.66902344 -1.05445313 78.33804688 -1.59765625 79.02734375 C-12.53405164 92.59707267 -29.31410407 102.01790382 -45.8125 107 C-46.45670898 107.1956958 -47.10091797 107.3913916 -47.76464844 107.59301758 C-49.83147206 108.15908202 -51.89805834 108.58319272 -54 109 C-55.37019287 109.36049438 -55.37019287 109.36049438 -56.76806641 109.72827148 C-61.73884869 110.68685898 -64.69530461 110.85854925 -69.02075195 108.01220703 C-72.17816651 105.25908511 -74.95883294 102.17851742 -77.75 99.0625 C-78.75208746 97.99510833 -79.75727688 96.93061993 -80.765625 95.86914062 C-83.21380578 93.27864471 -85.61750567 90.65120865 -88 88 C-87.505 87.01 -87.505 87.01 -87 86 C-86.42652832 86.32234619 -85.85305664 86.64469238 -85.26220703 86.97680664 C-78.48017583 90.04431071 -67.71870214 89.02660853 -60.703125 87.08984375 C-53.94741094 83.9064694 -49.54579976 79.30814205 -46.63989258 72.35449219 C-45.1636876 66.92277879 -45.41131233 61.15527762 -45.3125 55.5625 C-45.27833984 54.25861328 -45.24417969 52.95472656 -45.20898438 51.61132812 C-45.12683847 48.40763802 -45.0575759 45.20421021 -45 42 C-43.80624756 41.99383667 -43.80624756 41.99383667 -42.58837891 41.98754883 C-38.93319812 41.95436817 -35.27963023 41.8836941 -31.625 41.8125 C-30.37332031 41.80669922 -29.12164062 41.80089844 -27.83203125 41.79492188 C-19.23460664 41.59236475 -12.04036581 40.41233056 -5.39331055 34.59350586 C0.47636476 28.11651137 1.45733832 21.65138813 1.25 13.3125 C1.24226563 12.05083008 1.24226563 12.05083008 1.234375 10.76367188 C1.18655603 6.99493958 1.02594948 3.64479347 0 0 Z " fill="#02D8DE" transform="translate(169,82)"/>
<path d="M0 0 C1.74385986 0.01123901 1.74385986 0.01123901 3.52294922 0.02270508 C4.9823291 0.05001709 6.44170898 0.0773291 7.9453125 0.10546875 C12.6065625 0.16734375 17.2678125 0.22921875 22.0703125 0.29296875 C22.0703125 18.77296875 22.0703125 37.25296875 22.0703125 56.29296875 C17.4503125 56.37546875 12.8303125 56.45796875 8.0703125 56.54296875 C6.62914063 56.57938477 5.18796875 56.61580078 3.703125 56.65332031 C-4.91794746 56.72772266 -10.44120724 56.14591198 -17.13671875 50.3984375 C-17.66652344 49.76550781 -18.19632813 49.13257813 -18.7421875 48.48046875 C-19.28488281 47.85527344 -19.82757813 47.23007813 -20.38671875 46.5859375 C-24.53397965 40.42279283 -25.48688463 35.21241262 -25.4296875 27.91796875 C-25.42396729 27.07596924 -25.41824707 26.23396973 -25.41235352 25.36645508 C-25.19403226 17.79430942 -23.5185052 13.04036211 -18.25 7.5390625 C-12.76018404 2.47623223 -7.58187132 -0.10064431 0 0 Z " fill="#FC990F" transform="translate(45.9296875,67.70703125)"/>
<path d="M0 0 C32.09090909 0 32.09090909 0 40.4375 7.0625 C41.2109375 8.0215625 41.2109375 8.0215625 42 9 C42.53625 9.639375 43.0725 10.27875 43.625 10.9375 C48.6718645 18.50779676 47.93496931 28.24424232 47 37 C45.14703231 43.89899578 41.09347369 49.25286388 35 53 C28 56 28 56 0 56 C0 37.52 0 19.04 0 0 Z " fill="#EF8A17" transform="translate(124,68)"/>
<path d="M0 0 C12.54 0 25.08 0 38 0 C38 17.16 38 34.32 38 52 C25.46 52 12.92 52 0 52 C0 34.84 0 17.68 0 0 Z " fill="#EF8916" transform="translate(77,70)"/>
<path d="M0 0 C6.27 0 12.54 0 19 0 C19.061875 2.578125 19.12375 5.15625 19.1875 7.8125 C19.21481201 8.62050049 19.24212402 9.42850098 19.27026367 10.26098633 C19.33254055 15.59871722 19.33254055 15.59871722 17.48828125 17.82421875 C16.99714844 18.21222656 16.50601563 18.60023437 16 19 C16 19.99 16 20.98 16 22 C16.99 22.66 17.98 23.32 19 24 C18.625 26.4375 18.625 26.4375 18 29 C17.34 29.33 16.68 29.66 16 30 C16.57344937 32.86724686 16.8614515 33.8614515 19 36 C19.14551875 38.75321475 19.18622113 41.37763422 19.125 44.125 C19.08375 46.72375 19.0425 49.3225 19 52 C12.73 52 6.46 52 0 52 C0 34.84 0 17.68 0 0 Z " fill="#FD980E" transform="translate(77,70)"/>
<path d="M0 0 C0.78165527 0.23771118 0.78165527 0.23771118 1.57910156 0.48022461 C4.65107932 1.13978902 7.59339747 1.21997273 10.734375 1.31640625 C12.02988281 1.35830078 13.32539062 1.40019531 14.66015625 1.44335938 C16.02343476 1.48316671 17.38671606 1.52287906 18.75 1.5625 C20.12891875 1.60572274 21.50782526 1.64933821 22.88671875 1.69335938 C26.2577119 1.79943958 29.62877826 1.9014985 33 2 C33.02505615 2.82201904 33.0501123 3.64403809 33.07592773 4.4909668 C33.19212655 8.22329374 33.31474505 11.95538317 33.4375 15.6875 C33.47681641 16.98107422 33.51613281 18.27464844 33.55664062 19.60742188 C33.59853516 20.85458984 33.64042969 22.10175781 33.68359375 23.38671875 C33.73858032 25.10701294 33.73858032 25.10701294 33.79467773 26.86206055 C33.97840298 29.66993278 34.3699382 32.26225814 35 35 C32.06254084 33.67365058 29.97856521 32.2306634 27.70019531 29.95898438 C27.07985413 29.34494751 26.45951294 28.73091064 25.82037354 28.0982666 C25.16293152 27.43677612 24.5054895 26.77528564 23.828125 26.09375 C23.1457074 25.41324585 22.46328979 24.7327417 21.76019287 24.03161621 C20.32220573 22.59498803 18.88673308 21.15583915 17.45361328 19.71435547 C15.25122972 17.50123571 13.03835067 15.29901528 10.82421875 13.09765625 C9.42904546 11.70116197 8.03449238 10.30404773 6.640625 8.90625 C5.97508606 8.24475952 5.30954712 7.58326904 4.62384033 6.9017334 C4.01610779 6.28769653 3.40837524 5.67365967 2.78222656 5.04101562 C2.24357971 4.50077759 1.70493286 3.96053955 1.14996338 3.40393066 C0 2 0 2 0 0 Z " fill="#06D7DC" transform="translate(35,122)"/>
<path d="M0 0 C2.93745916 1.32634942 5.02143479 2.7693366 7.29980469 5.04101562 C8.23031647 5.96207092 8.23031647 5.96207092 9.17962646 6.9017334 C9.83706848 7.56322388 10.4945105 8.22471436 11.171875 8.90625 C11.8542926 9.58675415 12.53671021 10.2672583 13.23980713 10.96838379 C14.67779427 12.40501197 16.11326692 13.84416085 17.54638672 15.28564453 C19.74877028 17.49876429 21.96164933 19.70098472 24.17578125 21.90234375 C25.57095454 23.29883803 26.96550762 24.69595227 28.359375 26.09375 C29.02491394 26.75524048 29.69045288 27.41673096 30.37615967 28.0982666 C30.98389221 28.71230347 31.59162476 29.32634033 32.21777344 29.95898438 C32.75642029 30.49922241 33.29506714 31.03946045 33.85003662 31.59606934 C35 33 35 33 35 35 C34.31139893 34.84152588 33.62279785 34.68305176 32.91333008 34.51977539 C29.70788437 33.94788283 26.64105877 33.78761375 23.38671875 33.68359375 C22.13955078 33.64169922 20.89238281 33.59980469 19.60742188 33.55664062 C18.31384766 33.51732422 17.02027344 33.47800781 15.6875 33.4375 C14.37458984 33.39431641 13.06167969 33.35113281 11.70898438 33.30664062 C8.47275712 33.20072773 5.23645542 33.09865115 2 33 C1.97494385 32.14245117 1.9498877 31.28490234 1.92407227 30.40136719 C1.82876588 27.2106563 1.72954249 24.02009781 1.62768555 20.82958984 C1.5844545 19.45040622 1.54277134 18.07117315 1.50268555 16.69189453 C1.44469597 14.70593062 1.38062277 12.72014731 1.31640625 10.734375 C1.27974854 9.54038086 1.24309082 8.34638672 1.20532227 7.11621094 C1.03791006 4.57536745 0.73682141 2.4228576 0 0 Z " fill="#07D6DB" transform="translate(122,35)"/>
<path d="M0 0 C2.625 0.375 2.625 0.375 5 1 C5.042721 2.66611905 5.04063832 4.33382885 5 6 C4 7 4 7 1.4375 7.0625 C0.2309375 7.0315625 0.2309375 7.0315625 -1 7 C-1.625 4.625 -1.625 4.625 -2 2 C-1.34 1.34 -0.68 0.68 0 0 Z " fill="#D07812" transform="translate(105,98)"/>
<path d="M0 0 C2.1875 0.3125 2.1875 0.3125 4 1 C5.125 4.75 5.125 4.75 4 7 C2.35 7 0.7 7 -1 7 C-1.66 5.68 -2.32 4.36 -3 3 C-1.75 1.4375 -1.75 1.4375 0 0 Z " fill="#F08A16" transform="translate(84,98)"/>
<path d="M0 0 C1.66611905 -0.042721 3.33382885 -0.04063832 5 0 C6 1 6 1 6.0625 3.5625 C6.041875 4.366875 6.02125 5.17125 6 6 C3.625 6.625 3.625 6.625 1 7 C0.34 6.34 -0.32 5.68 -1 5 C-0.625 2.375 -0.625 2.375 0 0 Z " fill="#D07712" transform="translate(104,87)"/>
<path d="M0 0 C0.78375 0.04125 1.5675 0.0825 2.375 0.125 C3 2.5 3 2.5 3.375 5.125 C2.715 5.785 2.055 6.445 1.375 7.125 C-1.25 6.75 -1.25 6.75 -3.625 6.125 C-4.25 4.25 -4.25 4.25 -4.625 2.125 C-2.625 0.125 -2.625 0.125 0 0 Z " fill="#F08A16" transform="translate(85.625,86.875)"/>
<path d="M0 0 C1.67542976 0.28604898 3.34385343 0.61781233 5 1 C5 2.65 5 4.3 5 6 C2.625 6.625 2.625 6.625 0 7 C-0.66 6.34 -1.32 5.68 -2 5 C-1.46428571 1.46428571 -1.46428571 1.46428571 0 0 Z " fill="#CF7712" transform="translate(105,110)"/>
<path d="M0 0 C1.67542976 0.28604898 3.34385343 0.61781233 5 1 C5.625 2.875 5.625 2.875 6 5 C5.34 5.66 4.68 6.32 4 7 C1.375 6.625 1.375 6.625 -1 6 C-1.042721 4.33388095 -1.04063832 2.66617115 -1 1 C-0.67 0.67 -0.34 0.34 0 0 Z " fill="#F08A16" transform="translate(83,110)"/>
<path d="M0 0 C1.67542976 0.28604898 3.34385343 0.61781233 5 1 C5 2.65 5 4.3 5 6 C2.625 6.625 2.625 6.625 0 7 C-0.66 6.34 -1.32 5.68 -2 5 C-1.46428571 1.46428571 -1.46428571 1.46428571 0 0 Z " fill="#CF7712" transform="translate(105,75)"/>
<path d="M0 0 C1.67542976 0.28604898 3.34385343 0.61781233 5 1 C5.625 2.875 5.625 2.875 6 5 C5.34 5.66 4.68 6.32 4 7 C1.375 6.625 1.375 6.625 -1 6 C-1.042721 4.33388095 -1.04063832 2.66617115 -1 1 C-0.67 0.67 -0.34 0.34 0 0 Z " fill="#F08A16" transform="translate(83,75)"/>
<path d="M0 0 C1.98 0.99 1.98 0.99 4 2 C3.6875 3.9375 3.6875 3.9375 3 6 C2.01 6.33 1.02 6.66 0 7 C0 4.69 0 2.38 0 0 Z " fill="#D07812" transform="translate(96,110)"/>
<path d="M0 0 C0.66 0 1.32 0 2 0 C2 2.31 2 4.62 2 7 C0.68 6.34 -0.64 5.68 -2 5 C-1.125 1.125 -1.125 1.125 0 0 Z " fill="#F08A16" transform="translate(94,110)"/>
<path d="M0 0 C1.98 0.99 1.98 0.99 4 2 C3.6875 3.9375 3.6875 3.9375 3 6 C2.01 6.33 1.02 6.66 0 7 C0 4.69 0 2.38 0 0 Z " fill="#D17812" transform="translate(96,98)"/>
<path d="M0 0 C1.98 0.99 1.98 0.99 4 2 C3.6875 3.9375 3.6875 3.9375 3 6 C2.01 6.33 1.02 6.66 0 7 C0 4.69 0 2.38 0 0 Z " fill="#D17812" transform="translate(96,87)"/>
<path d="M0 0 C1.98 0.99 1.98 0.99 4 2 C3.6875 3.9375 3.6875 3.9375 3 6 C2.01 6.33 1.02 6.66 0 7 C0 4.69 0 2.38 0 0 Z " fill="#D07812" transform="translate(96,75)"/>
<path d="M0 0 C0.66 0 1.32 0 2 0 C2 2.31 2 4.62 2 7 C0.68 6.34 -0.64 5.68 -2 5 C-1.125 1.125 -1.125 1.125 0 0 Z " fill="#F08A16" transform="translate(94,75)"/>
</svg>
