<?xml version="1.0" encoding="UTF-8"?>
<svg version="1.1" xmlns="http://www.w3.org/2000/svg" width="192" height="192">
<path d="M0 0 C1.04986084 0.00563965 2.09972168 0.0112793 3.18139648 0.01708984 C25.80124277 0.36854042 46.06186106 8.68674694 63.25 23.3125 C64.26513672 24.10914063 64.26513672 24.10914063 65.30078125 24.921875 C82.64656743 38.9653572 93.0707303 61.58805526 96.25 83.3125 C97.82446309 111.11847234 92.85944636 136.58197249 74.25 158.3125 C73.25033203 159.52873047 73.25033203 159.52873047 72.23046875 160.76953125 C57.66945028 177.84921238 35.60392149 189.63217368 13.25 192.3125 C-15.6176327 193.69643293 -40.32121915 188.39762675 -62.75 169.3125 C-63.42675781 168.78140625 -64.10351562 168.2503125 -64.80078125 167.703125 C-81.54010812 154.15064393 -91.48789818 132.83584185 -95.359375 112.0390625 C-98.13455384 85.56385637 -93.61934257 59.33955521 -76.75 38 C-75.42387201 36.43138004 -74.09096793 34.86845277 -72.75 33.3125 C-72.22019531 32.63832031 -71.69039062 31.96414062 -71.14453125 31.26953125 C-54.35893886 10.50513178 -26.07624536 -0.14798031 0 0 Z " fill="#E5021E" transform="translate(95.75,-0.3125)"/>
<path d="M0 0 C5.28 0 10.56 0 16 0 C13.87480548 6.76073208 11.27259746 13.1277108 8.3125 19.5625 C7.89677734 20.47580078 7.48105469 21.38910156 7.05273438 22.33007812 C6.03918569 24.55522523 5.02016541 26.7778787 4 29 C9.94 29 15.88 29 22 29 C22.39832031 27.73285156 22.79664062 26.46570313 23.20703125 25.16015625 C25.01070581 19.74913257 27.30588636 14.61475581 29.6875 9.4375 C30.31108398 8.06754883 30.31108398 8.06754883 30.94726562 6.66992188 C31.96081431 4.44477477 32.97983459 2.2221213 34 0 C39.61 0 45.22 0 51 0 C49.39787777 3.70922857 47.79338231 7.41739967 46.1875 11.125 C45.50977539 12.69507812 45.50977539 12.69507812 44.81835938 14.296875 C44.37685547 15.31523438 43.93535156 16.33359375 43.48046875 17.3828125 C43.07723389 18.31496582 42.67399902 19.24711914 42.25854492 20.20751953 C40.92048881 23.17642075 39.45634945 26.0873011 38 29 C43.61 29 49.22 29 55 29 C55 48.8 55 68.6 55 89 C61.27 89 67.54 89 74 89 C74 69.2 74 49.4 74 29 C79.94 29 85.88 29 92 29 C92 19.76 92 10.52 92 1 C99.86289308 7.73962264 99.86289308 7.73962264 102.45703125 10.39453125 C103.01197266 10.95720703 103.56691406 11.51988281 104.13867188 12.09960938 C104.9672168 12.94749023 104.9672168 12.94749023 105.8125 13.8125 C109.53424928 17.88999317 109.53424928 17.88999317 114 21 C120.27357331 43.6153813 112.79182677 69.29317521 101.8125 89.00390625 C99.20183703 93.31937715 96.2767176 97.17372809 93 101 C92.00033203 102.21623047 92.00033203 102.21623047 90.98046875 103.45703125 C76.34953831 120.61871723 54.40008446 132.17984548 32 135 C28.02067937 135.31141535 24.05214626 135.45846435 20.0625 135.5625 C19.00353516 135.62501953 17.94457031 135.68753906 16.85351562 135.75195312 C15.30374023 135.78385742 15.30374023 135.78385742 13.72265625 135.81640625 C12.79203369 135.85193604 11.86141113 135.88746582 10.90258789 135.92407227 C6.97051777 134.67225248 5.44425501 132.43628144 2.88270569 129.28669739 C-0.31487506 125.40297855 -3.92901763 121.92849972 -7.48828125 118.37890625 C-8.27269089 117.59353989 -9.05710052 116.80817352 -9.86528015 115.99900818 C-11.50864976 114.35496283 -13.15326375 112.71216047 -14.79907227 111.07055664 C-17.32620148 108.5488278 -19.84789288 106.02174836 -22.36914062 103.49414062 C-23.97103324 101.89290805 -25.57323563 100.29198529 -27.17578125 98.69140625 C-27.93095535 97.93420792 -28.68612946 97.17700958 -29.46418762 96.39686584 C-30.16218979 95.70201584 -30.86019196 95.00716583 -31.5793457 94.29125977 C-32.19332718 93.67807388 -32.80730865 93.064888 -33.43989563 92.43312073 C-34.95865847 90.90578197 -34.95865847 90.90578197 -37 90 C-36.94650391 88.75089844 -36.89300781 87.50179687 -36.83789062 86.21484375 C-34.646607 61.85511987 -34.646607 61.85511987 -41.62890625 39.55078125 C-44.86574384 36.08315831 -48.44367334 33.26364338 -52.54711914 30.8840332 C-53.02656982 30.59230225 -53.50602051 30.30057129 -54 30 C-54 29.67 -54 29.34 -54 29 C-48.06 29 -42.12 29 -36 29 C-36 48.8 -36 68.6 -36 89 C-29.73 89 -23.46 89 -17 89 C-17 69.2 -17 49.4 -17 29 C-15.35 29 -13.7 29 -12 29 C-11.8299646 27.94002808 -11.8299646 27.94002808 -11.65649414 26.85864258 C-10.94179735 23.74656198 -9.8424949 21.15570743 -8.49609375 18.26171875 C-7.75649414 16.66166992 -7.75649414 16.66166992 -7.00195312 15.02929688 C-6.48568359 13.92650391 -5.96941406 12.82371094 -5.4375 11.6875 C-4.91736328 10.56537109 -4.39722656 9.44324219 -3.86132812 8.28710938 C-2.57902284 5.52250623 -1.2901452 2.76095324 0 0 Z " fill="#AF1916" transform="translate(77,57)"/>
<path d="M0 0 C17.82 0 35.64 0 54 0 C50.625 10.125 50.625 10.125 48.73828125 14.25390625 C48.14370117 15.56391602 48.14370117 15.56391602 47.53710938 16.90039062 C47.13298828 17.77888672 46.72886719 18.65738281 46.3125 19.5625 C45.89677734 20.47580078 45.48105469 21.38910156 45.05273438 22.33007812 C44.03917098 24.55525752 43.02154784 26.77847781 42 29 C40.35 29 38.7 29 37 29 C37 48.8 37 68.6 37 89 C30.73 89 24.46 89 18 89 C18 69.2 18 49.4 18 29 C12.06 29 6.12 29 0 29 C0 19.43 0 9.86 0 0 Z " fill="#FECB26" transform="translate(23,57)"/>
<path d="M0 0 C0.74886475 0.00523682 1.49772949 0.01047363 2.26928711 0.01586914 C3.07817383 0.0190918 3.88706055 0.02231445 4.72045898 0.02563477 C5.5705957 0.03401367 6.42073242 0.04239258 7.29663086 0.05102539 C8.15063477 0.05553711 9.00463867 0.06004883 9.88452148 0.06469727 C12.00108749 0.07652166 14.11761771 0.0944577 16.23413086 0.11352539 C14.82159695 3.44862466 13.40334501 6.78126396 11.98413086 10.11352539 C11.58838867 11.0480957 11.19264648 11.98266602 10.78491211 12.94555664 C8.44225804 18.43735225 5.96432086 23.80343108 3.23413086 29.11352539 C8.51413086 28.78352539 13.79413086 28.45352539 19.23413086 28.11352539 C20.0887793 26.17606445 20.94342773 24.23860352 21.82397461 22.24243164 C22.65080993 20.37231135 23.47844166 18.50254549 24.30615234 16.6328125 C24.8821829 15.33044723 25.45738122 14.02771354 26.03173828 12.72460938 C26.85614421 10.85458075 27.68350723 8.98588563 28.51147461 7.11743164 C29.00897217 5.99151611 29.50646973 4.86560059 30.01904297 3.70556641 C31.23413086 1.11352539 31.23413086 1.11352539 32.23413086 0.11352539 C34.54413086 0.11352539 36.85413086 0.11352539 39.23413086 0.11352539 C39.23413086 9.68352539 39.23413086 19.25352539 39.23413086 29.11352539 C33.29413086 29.11352539 27.35413086 29.11352539 21.23413086 29.11352539 C21.23413086 48.91352539 21.23413086 68.71352539 21.23413086 89.11352539 C14.96413086 89.11352539 8.69413086 89.11352539 2.23413086 89.11352539 C2.23413086 69.31352539 2.23413086 49.51352539 2.23413086 29.11352539 C-3.37586914 29.11352539 -8.98586914 29.11352539 -14.76586914 29.11352539 C-12.69822391 22.49706066 -10.1568137 16.34972044 -7.14086914 10.11352539 C-6.73352539 9.25629883 -6.32618164 8.39907227 -5.90649414 7.51586914 C-2.38267085 0.15317876 -2.38267085 0.15317876 0 0 Z " fill="#F1C024" transform="translate(129.765869140625,56.886474609375)"/>
<path d="M0 0 C11.88 0 23.76 0 36 0 C34.67152535 3.98542395 33.37352018 7.57986579 31.65234375 11.36328125 C31.21212891 12.33201172 30.77191406 13.30074219 30.31835938 14.29882812 C29.86267578 15.29333984 29.40699219 16.28785156 28.9375 17.3125 C28.47794922 18.32634766 28.01839844 19.34019531 27.54492188 20.38476562 C24.13127309 27.86872691 24.13127309 27.86872691 23 29 C21.29227642 29.08713831 19.58101351 29.10700007 17.87109375 29.09765625 C16.93966553 29.09515869 16.0082373 29.09266113 15.04858398 29.09008789 C13.26109741 29.07643188 13.26109741 29.07643188 11.4375 29.0625 C7.663125 29.041875 3.88875 29.02125 0 29 C0 19.43 0 9.86 0 0 Z " fill="#6B686E" transform="translate(23,57)"/>
<path d="M0 0 C5.94 0 11.88 0 18 0 C17.16885872 4.15570642 16.24818163 6.97229925 14.49609375 10.73828125 C14.00302734 11.80498047 13.50996094 12.87167969 13.00195312 13.97070312 C12.48568359 15.07349609 11.96941406 16.17628906 11.4375 17.3125 C10.91736328 18.43462891 10.39722656 19.55675781 9.86132812 20.71289062 C8.57902284 23.47749377 7.2901452 26.23904676 6 29 C0.06 29 -5.88 29 -12 29 C-11.16885872 24.84429358 -10.24818163 22.02770075 -8.49609375 18.26171875 C-8.00302734 17.19501953 -7.50996094 16.12832031 -7.00195312 15.02929688 C-6.48568359 13.92650391 -5.96941406 12.82371094 -5.4375 11.6875 C-4.65729492 10.00430664 -4.65729492 10.00430664 -3.86132812 8.28710938 C-2.57902284 5.52250623 -1.2901452 2.76095324 0 0 Z " fill="#FBE371" transform="translate(93,57)"/>
<path d="M0 0 C5.94 0 11.88 0 18 0 C15.87480548 6.76073208 13.27259746 13.1277108 10.3125 19.5625 C9.89677734 20.47580078 9.48105469 21.38910156 9.05273438 22.33007812 C8.03918569 24.55522523 7.02016541 26.7778787 6 29 C-0.27 29 -6.54 29 -13 29 C-11.58639394 25.66533954 -10.16921834 22.33227127 -8.75 19 C-8.35425781 18.06542969 -7.95851563 17.13085938 -7.55078125 16.16796875 C-7.15761719 15.24628906 -6.76445313 14.32460937 -6.359375 13.375 C-6.00327148 12.53710938 -5.64716797 11.69921875 -5.28027344 10.8359375 C-3.62702532 7.17382267 -1.79690369 3.59380738 0 0 Z " fill="#FBE371" transform="translate(59,57)"/>
<path d="M0 0 C0.74886475 0.00523682 1.49772949 0.01047363 2.26928711 0.01586914 C3.07817383 0.0190918 3.88706055 0.02231445 4.72045898 0.02563477 C5.5705957 0.03401367 6.42073242 0.04239258 7.29663086 0.05102539 C8.15063477 0.05553711 9.00463867 0.06004883 9.88452148 0.06469727 C12.00108749 0.07652166 14.11761771 0.0944577 16.23413086 0.11352539 C14.8497079 3.45170904 13.44951584 6.7830631 12.04663086 10.11352539 C11.65926758 11.0480957 11.2719043 11.98266602 10.87280273 12.94555664 C9.70991641 15.69419704 8.49282603 18.4075194 7.23413086 21.11352539 C6.86892334 21.92370117 6.50371582 22.73387695 6.12744141 23.56860352 C4.99181107 25.75498898 4.01680404 27.41136753 2.23413086 29.11352539 C-0.77108005 30.04672441 -3.46943699 29.88454714 -6.57836914 29.61352539 C-7.36663086 29.57743164 -8.15489258 29.54133789 -8.96704102 29.50415039 C-10.90209125 29.41032977 -12.83462121 29.26683283 -14.76586914 29.11352539 C-12.74646176 22.49801871 -10.14991427 16.3354542 -7.14086914 10.11352539 C-6.73352539 9.25629883 -6.32618164 8.39907227 -5.90649414 7.51586914 C-2.38267085 0.15317876 -2.38267085 0.15317876 0 0 Z " fill="#FCC926" transform="translate(129.765869140625,56.886474609375)"/>
<path d="M0 0 C5.61 0 11.22 0 17 0 C15.39787777 3.70922857 13.79338231 7.41739967 12.1875 11.125 C11.73568359 12.17171875 11.28386719 13.2184375 10.81835938 14.296875 C10.37685547 15.31523438 9.93535156 16.33359375 9.48046875 17.3828125 C9.07723389 18.31496582 8.67399902 19.24711914 8.25854492 20.20751953 C6.92048881 23.17642075 5.45634945 26.0873011 4 29 C-1.28 29 -6.56 29 -12 29 C-9.87480548 22.23926792 -7.27259746 15.8722892 -4.3125 9.4375 C-3.89677734 8.52419922 -3.48105469 7.61089844 -3.05273438 6.66992188 C-2.03918569 4.44477477 -1.02016541 2.2221213 0 0 Z " fill="#3A3939" transform="translate(111,57)"/>
<path d="M0 0 C1.48831242 0.00667405 2.97660807 0.01863442 4.46484375 0.03515625 C5.22345703 0.03966797 5.98207031 0.04417969 6.76367188 0.04882812 C8.64326246 0.06064945 10.52281274 0.07858547 12.40234375 0.09765625 C10.98980984 3.43275552 9.5715579 6.76539482 8.15234375 10.09765625 C7.75660156 11.03222656 7.36085937 11.96679688 6.953125 12.9296875 C4.61047093 18.42148311 2.13253375 23.78756193 -0.59765625 29.09765625 C-5.87765625 29.09765625 -11.15765625 29.09765625 -16.59765625 29.09765625 C-15.2691816 25.1122323 -13.97117643 21.51779046 -12.25 17.734375 C-11.80978516 16.76564453 -11.36957031 15.79691406 -10.91601562 14.79882812 C-10.46033203 13.80431641 -10.00464844 12.80980469 -9.53515625 11.78515625 C-9.07560547 10.77130859 -8.61605469 9.75746094 -8.14257812 8.71289062 C-4.22063666 0.11456668 -4.22063666 0.11456668 0 0 Z " fill="#3A3939" transform="translate(149.59765625,56.90234375)"/>
<path d="M0 0 C5.28 0 10.56 0 16 0 C13.87480548 6.76073208 11.27259746 13.1277108 8.3125 19.5625 C7.89677734 20.47580078 7.48105469 21.38910156 7.05273438 22.33007812 C6.03918569 24.55522523 5.02016541 26.7778787 4 29 C-1.28 29 -6.56 29 -12 29 C-11.16885872 24.84429358 -10.24818163 22.02770075 -8.49609375 18.26171875 C-8.00302734 17.19501953 -7.50996094 16.12832031 -7.00195312 15.02929688 C-6.48568359 13.92650391 -5.96941406 12.82371094 -5.4375 11.6875 C-4.65729492 10.00430664 -4.65729492 10.00430664 -3.86132812 8.28710938 C-2.57902284 5.52250623 -1.2901452 2.76095324 0 0 Z " fill="#6B696E" transform="translate(77,57)"/>
<path d="M0 0 C6.6 0 13.2 0 20 0 C18.67152535 3.98542395 17.37352018 7.57986579 15.65234375 11.36328125 C15.21212891 12.33201172 14.77191406 13.30074219 14.31835938 14.29882812 C13.86267578 15.29333984 13.40699219 16.28785156 12.9375 17.3125 C12.47794922 18.32634766 12.01839844 19.34019531 11.54492188 20.38476562 C8.13127309 27.86872691 8.13127309 27.86872691 7 29 C4.69 29 2.38 29 0 29 C0 19.43 0 9.86 0 0 Z " fill="#FCE271" transform="translate(23,57)"/>
<path d="M0 0 C2.31 0 4.62 0 7 0 C7 9.57 7 19.14 7 29 C0.73 29 -5.54 29 -12 29 C-11.23223098 24.3933859 -10.61694733 21.68780244 -8.75 17.63671875 C-8.3065625 16.66798828 -7.863125 15.69925781 -7.40625 14.70117188 C-6.71015625 13.2094043 -6.71015625 13.2094043 -6 11.6875 C-5.5359375 10.67365234 -5.071875 9.65980469 -4.59375 8.61523438 C-1.15675466 1.15675466 -1.15675466 1.15675466 0 0 Z " fill="#FCC926" transform="translate(162,57)"/>
<path d="M0 0 C5.94 0 11.88 0 18 0 C18 19.8 18 39.6 18 60 C24.27 60 30.54 60 37 60 C37 40.2 37 20.4 37 0 C49.87 0 62.74 0 76 0 C76 0.33 76 0.66 76 1 C63.46 1 50.92 1 38 1 C38 20.8 38 40.6 38 61 C31.07 61 24.14 61 17 61 C17.1134375 58.009375 17.226875 55.01875 17.34375 51.9375 C19.13207889 28.56575731 19.13207889 28.56575731 10.20703125 8.23242188 C7.41496052 5.87045498 4.61909519 3.72013784 1.45288086 1.8840332 C0.97343018 1.59230225 0.49397949 1.30057129 0 1 C0 0.67 0 0.34 0 0 Z " fill="#BC2C1C" transform="translate(23,86)"/>
<path d="M0 0 C4.95 0 9.9 0 15 0 C14.16885872 4.15570642 13.24818163 6.97229925 11.49609375 10.73828125 C11.00302734 11.80498047 10.50996094 12.87167969 10.00195312 13.97070312 C9.48568359 15.07349609 8.96941406 16.17628906 8.4375 17.3125 C7.91736328 18.43462891 7.39722656 19.55675781 6.86132812 20.71289062 C5.57900626 23.47752951 4.29175153 26.23975766 3 29 C2.01 29 1.02 29 0 29 C0 19.43 0 9.86 0 0 Z " fill="#FCC926" transform="translate(96,57)"/>
</svg>
