<?xml version="1.0" encoding="UTF-8"?>
<svg version="1.1" xmlns="http://www.w3.org/2000/svg" width="192" height="192">
<path d="M0 0 C1.04986084 0.00563965 2.09972168 0.0112793 3.18139648 0.01708984 C25.80124277 0.36854042 46.06186106 8.68674694 63.25 23.3125 C64.26513672 24.10914063 64.26513672 24.10914063 65.30078125 24.921875 C82.64656743 38.9653572 93.0707303 61.58805526 96.25 83.3125 C97.82446309 111.11847234 92.85944636 136.58197249 74.25 158.3125 C73.25033203 159.52873047 73.25033203 159.52873047 72.23046875 160.76953125 C57.48509656 178.0654543 36.44634801 188.43356633 14.25 192.3125 C-13.50459782 194.19975532 -38.90447181 189.3677946 -60.75 171.3125 C-61.58789062 170.63703125 -62.42578125 169.9615625 -63.2890625 169.265625 C-81.09214135 154.16332282 -93.31024539 131.58775897 -95.75 108.3125 C-97.11047549 80.06103869 -91.64901631 55.24141873 -72.75 33.3125 C-72.22019531 32.63832031 -71.69039062 31.96414062 -71.14453125 31.26953125 C-54.35893886 10.50513178 -26.07624536 -0.14798031 0 0 Z " fill="#27488E" transform="translate(95.75,-0.3125)"/>
<path d="M0 0 C12.65630615 6.77379766 20.34644561 15.25418057 24.94140625 29.0390625 C25.81485903 41.39627155 24.90520581 52.90331761 16.94140625 63.0390625 C16.21953125 64.0290625 15.49765625 65.0190625 14.75390625 66.0390625 C8.26026349 73.53323632 -0.53087091 77.00680041 -10.05859375 79.0390625 C-12.03859375 79.0390625 -14.01859375 79.0390625 -16.05859375 79.0390625 C-16.05859375 91.9090625 -16.05859375 104.7790625 -16.05859375 118.0390625 C-27.18359375 118.2265625 -27.18359375 118.2265625 -30.65673828 118.24682617 C-37.29804877 118.45003653 -40.41148957 119.26244885 -45.05859375 124.0390625 C-45.71859375 124.0390625 -46.37859375 124.0390625 -47.05859375 124.0390625 C-47.02766202 126.45491824 -47.02766202 126.45491824 -46.05859375 129.0390625 C-43.10850002 130.76418715 -43.10850002 130.76418715 -40.05859375 132.0390625 C-39.72859375 132.6990625 -39.39859375 133.3590625 -39.05859375 134.0390625 C-37.05715386 134.7681811 -35.02199397 135.40536931 -32.9765625 136 C-31.73455078 136.39058594 -30.49253906 136.78117188 -29.21289062 137.18359375 C-27.23692478 137.80418542 -25.26191259 138.40960643 -23.26831055 138.97119141 C-12.2589426 142.10493378 -12.2589426 142.10493378 -9.24462891 146.96191406 C-6.57424285 154.58600981 -6.57424285 154.58600981 -8.05859375 159.0390625 C-25.84063387 166.98649149 -50.91347658 165.35005468 -68.87939453 158.88232422 C-78.85541143 155.02201026 -88.47522365 150.49493061 -97.05859375 144.0390625 C-96.05859375 141.0390625 -96.05859375 141.0390625 -94.23266602 140.0559082 C-93.06562134 139.6395813 -93.06562134 139.6395813 -91.875 139.21484375 C-91.03001953 138.90869141 -90.18503906 138.60253906 -89.31445312 138.28710938 C-88.42564453 137.97837891 -87.53683594 137.66964844 -86.62109375 137.3515625 C-85.73615234 137.03123047 -84.85121094 136.71089844 -83.93945312 136.38085938 C-77.38342051 134.0390625 -77.38342051 134.0390625 -75.05859375 134.0390625 C-75.05859375 133.3790625 -75.05859375 132.7190625 -75.05859375 132.0390625 C-72.05859375 130.0390625 -72.05859375 130.0390625 -68.05859375 130.0390625 C-68.08978785 127.17171729 -68.08978785 127.17171729 -69.05859375 124.0390625 C-71.92734914 121.7375586 -71.92734914 121.7375586 -75.05859375 120.0390625 C-75.71859375 119.3790625 -76.37859375 118.7190625 -77.05859375 118.0390625 C-79.28517529 117.66901956 -79.28517529 117.66901956 -81.84765625 117.625 C-82.78867188 117.58632812 -83.7296875 117.54765625 -84.69921875 117.5078125 C-85.6840625 117.476875 -86.66890625 117.4459375 -87.68359375 117.4140625 C-88.67617187 117.37539062 -89.66875 117.33671875 -90.69140625 117.296875 C-93.1469476 117.2024311 -95.60247785 117.11686375 -98.05859375 117.0390625 C-98.15815493 111.24077245 -98.23038721 105.44299008 -98.27832031 99.64404297 C-98.29832162 97.67520468 -98.32553177 95.70642494 -98.36035156 93.73779297 C-98.40937906 90.89275592 -98.43167757 88.04851035 -98.44921875 85.203125 C-98.46986389 84.33603912 -98.49050903 83.46895325 -98.51177979 82.57559204 C-98.51569879 71.6780224 -93.56020677 62.04851672 -86.28125 54.09765625 C-79.52887983 47.70430781 -70.27471202 42.85443759 -60.87109375 42.9765625 C-59.97003906 42.98558594 -59.06898437 42.99460938 -58.140625 43.00390625 C-57.45355469 43.01550781 -56.76648438 43.02710938 -56.05859375 43.0390625 C-56.09339844 42.36101562 -56.12820312 41.68296875 -56.1640625 40.984375 C-56.5121429 29.01703923 -53.2035618 18.76085705 -45.01953125 9.80859375 C-33.32178068 -1.20713249 -15.42762981 -6.46088606 0 0 Z " fill="#FEBCA7" transform="translate(134.05859375,28.9609375)"/>
<path d="M0 0 C0.66153076 0.6803833 1.32306152 1.3607666 2.00463867 2.06176758 C4.16220152 4.22055989 6.3955402 6.26222126 8.6887207 8.27612305 C39.08597515 34.97341554 39.08597515 34.97341554 41.34375 46.53515625 C41.69671356 52.93671436 40.57987746 58.82716008 39 65 C38.77121902 66.41481356 38.56029394 67.83274324 38.375 69.25390625 C35.80040725 85.54178123 27.65924479 101.5530412 17 114 C16.00033203 115.21623047 16.00033203 115.21623047 14.98046875 116.45703125 C5.52631067 127.54650316 -10.83182617 141.10026786 -26 143 C-26.67260351 141.23141309 -27.33788395 139.46003984 -28 137.6875 C-28.37125 136.70136719 -28.7425 135.71523437 -29.125 134.69921875 C-30 132 -30 132 -30 129 C-31.918125 128.61134766 -31.918125 128.61134766 -33.875 128.21484375 C-39.07372118 127.05674305 -44.00578498 125.39734811 -49 123.5625 C-49.85722656 123.26279297 -50.71445313 122.96308594 -51.59765625 122.65429688 C-52.41105469 122.35716797 -53.22445312 122.06003906 -54.0625 121.75390625 C-54.79597656 121.48908447 -55.52945313 121.2242627 -56.28515625 120.95141602 C-58 120 -58 120 -59 117 C-61.97503122 115.84164327 -61.97503122 115.84164327 -65 115 C-66 114 -66 114 -66.265625 111.64306641 C-66 109 -66 109 -64.671875 107.21240234 C-58.58218132 102.45482916 -53.53824193 102.25993371 -46 102.625 C-40.555 102.810625 -40.555 102.810625 -35 103 C-35 90.13 -35 77.26 -35 64 C-29.72 62.68 -24.44 61.36 -19 60 C-8.54731873 55.62117406 -2.51132138 49.45613922 2.265625 39.3125 C6.32751339 28.78591601 6.90418726 17.58965006 2.5 7.125 C1.80390625 5.70574219 1.80390625 5.70574219 1.09375 4.2578125 C0 2 0 2 0 0 Z " fill="#12254C" transform="translate(153,44)"/>
<path d="M0 0 C12.65630615 6.77379766 20.34644561 15.25418057 24.94140625 29.0390625 C25.81485903 41.39627155 24.90520581 52.90331761 16.94140625 63.0390625 C16.21953125 64.0290625 15.49765625 65.0190625 14.75390625 66.0390625 C7.64185181 74.24693198 -2.61823574 78.22655715 -13.2421875 79.38671875 C-19.00476004 79.55555845 -23.51225027 78.74179026 -28.8671875 76.7109375 C-36.9273031 74.23974341 -46.82762466 76.37489208 -55.05859375 77.0390625 C-54.33310263 72.65524384 -52.80645648 69.24866951 -50.80078125 65.3203125 C-49.36589492 60.90992506 -51.31990306 57.13009942 -53.05859375 53.0390625 C-56.9936173 43.78018356 -57.35875751 34.0611844 -54.08984375 24.51171875 C-48.8836937 12.02879079 -40.45603355 4.25314819 -28.05859375 -0.9609375 C-20.14908249 -3.59744125 -7.74999016 -3.24559275 0 0 Z " fill="#FDFDFD" transform="translate(134.05859375,28.9609375)"/>
<path d="M0 0 C0.99386719 0.00902344 1.98773438 0.01804687 3.01171875 0.02734375 C4.15060547 0.04474609 4.15060547 0.04474609 5.3125 0.0625 C5.49425781 0.78695312 5.67601562 1.51140625 5.86328125 2.2578125 C7.48100423 8.49404625 7.48100423 8.49404625 10.0625 14.375 C11.72435193 17.94798166 11.45398206 19.28134069 10.3125 23.0625 C8.74486749 26.77856001 7.06415826 30.4299098 5.3125 34.0625 C6.20710938 33.918125 7.10171875 33.77375 8.0234375 33.625 C27.00311872 30.71127495 27.00311872 30.71127495 36.109375 34.30859375 C38.88887684 35.32693086 38.88887684 35.32693086 44.3125 36.0625 C44.3125 48.9325 44.3125 61.8025 44.3125 75.0625 C37.0525 75.0625 29.7925 75.0625 22.3125 75.0625 C23.58203125 72.36067708 24.8515625 69.65885417 26.12109375 66.95703125 C27.40187281 64.14545642 27.40187281 64.14545642 27.78515625 61.3046875 C27.95917969 60.56476563 28.13320312 59.82484375 28.3125 59.0625 C31.3125 57.375 31.3125 57.375 34.3125 56.0625 C35.83741998 53.01266004 35.54812548 50.4201631 35.3125 47.0625 C34.22575006 44.97265769 34.22575006 44.97265769 32.3125 44.0625 C29.33852384 44.33286147 28.45803974 44.91696026 26.3125 47.0625 C24.35256958 47.32319641 24.35256958 47.32319641 21.92626953 47.3371582 C21.01837677 47.34669022 20.11048401 47.35622223 19.17507935 47.36604309 C18.19175629 47.36513168 17.20843323 47.36422028 16.1953125 47.36328125 C15.18661102 47.36756638 14.17790955 47.3718515 13.13864136 47.37626648 C11.00177766 47.38201712 8.86489439 47.38250467 6.72802734 47.37817383 C3.45766735 47.37501945 0.18821643 47.39844489 -3.08203125 47.42382812 C-5.15624886 47.42610159 -7.2304689 47.4268044 -9.3046875 47.42578125 C-10.2839621 47.434991 -11.26323669 47.44420074 -12.27218628 47.45368958 C-13.18638336 47.44746078 -14.10058044 47.44123199 -15.04248047 47.43481445 C-15.84475067 47.43544388 -16.64702087 47.4360733 -17.47360229 47.4367218 C-20.20557561 46.97492812 -21.54811779 45.76810586 -23.6875 44.0625 C-25.8352633 44.05771963 -25.8352633 44.05771963 -27.6875 45.0625 C-30.01499345 48.55374017 -30.19049316 49.95472251 -29.6875 54.0625 C-27.45543569 56.91030619 -26.13757001 57.91247666 -22.6875 59.0625 C-21.5546875 61.6796875 -21.5546875 61.6796875 -20.5625 64.9375 C-20.22992188 66.00742188 -19.89734375 67.07734375 -19.5546875 68.1796875 C-19.26851562 69.13101563 -18.98234375 70.08234375 -18.6875 71.0625 C-18.3575 72.0525 -18.0275 73.0425 -17.6875 74.0625 C-24.2875 74.0625 -30.8875 74.0625 -37.6875 74.0625 C-37.77979421 68.26334687 -37.8592905 62.4667854 -37.90722656 56.66748047 C-37.92722787 54.69864218 -37.95443802 52.72986244 -37.98925781 50.76123047 C-38.03828531 47.91619342 -38.06058382 45.07194785 -38.078125 42.2265625 C-38.09877014 41.35947662 -38.11941528 40.49239075 -38.14068604 39.59902954 C-38.14460504 28.7014599 -33.18911302 19.07195422 -25.91015625 11.12109375 C-18.94526407 4.52652303 -9.65383834 -0.11357457 0 0 Z " fill="#FC6916" transform="translate(73.6875,71.9375)"/>
<path d="M0 0 C9.53200733 6.51972796 15.07316578 14.9499661 18.70703125 25.8515625 C19.58048403 38.20877155 18.67083081 49.71581761 10.70703125 59.8515625 C9.98515625 60.8415625 9.26328125 61.8315625 8.51953125 62.8515625 C3.41088601 68.80383722 -4.44872785 73.77418991 -12.29296875 74.8515625 C-15.26296875 74.5215625 -18.23296875 74.1915625 -21.29296875 73.8515625 C-21.29296875 48.1115625 -21.29296875 22.3715625 -21.29296875 -4.1484375 C-13.18756275 -6.174789 -7.10843277 -4.19546661 0 0 Z " fill="#E8ECF4" transform="translate(140.29296875,32.1484375)"/>
<path d="M0 0 C4.26271544 1.93028624 7.68568063 4.57277016 11.3125 7.5 C14.88253885 5.50077824 18.17356283 3.60559225 21.4375 1.125 C24.3125 -0.5 24.3125 -0.5 27.125 0.125 C29.3125 1.5 29.3125 1.5 30.3125 3.5 C32.31393989 4.2291186 34.34909978 4.86630681 36.39453125 5.4609375 C37.63654297 5.85152344 38.87855469 6.24210938 40.15820312 6.64453125 C42.13416897 7.26512292 44.10918116 7.87054393 46.1027832 8.43212891 C57.11215115 11.56587128 57.11215115 11.56587128 60.12646484 16.42285156 C62.7968509 24.04694731 62.7968509 24.04694731 61.3125 28.5 C43.53045988 36.44742899 18.45761717 34.81099218 0.49169922 28.34326172 C-9.48431768 24.48294776 -19.1041299 19.95586811 -27.6875 13.5 C-26.6875 10.5 -26.6875 10.5 -24.86157227 9.5168457 C-23.69452759 9.1005188 -23.69452759 9.1005188 -22.50390625 8.67578125 C-21.65892578 8.36962891 -20.81394531 8.06347656 -19.94335938 7.74804688 C-19.05455078 7.43931641 -18.16574219 7.13058594 -17.25 6.8125 C-16.36505859 6.49216797 -15.48011719 6.17183594 -14.56835938 5.84179688 C-8.01232676 3.5 -8.01232676 3.5 -5.6875 3.5 C-5.6875 2.84 -5.6875 2.18 -5.6875 1.5 C-2.6875 -0.5 -2.6875 -0.5 0 0 Z " fill="#BCDEFB" transform="translate(64.6875,159.5)"/>
<path d="M0 0 C0.66 0 1.32 0 2 0 C2.18175781 0.72445312 2.36351563 1.44890625 2.55078125 2.1953125 C4.16850423 8.43154625 4.16850423 8.43154625 6.75 14.3125 C8.41185193 17.88548166 8.14148206 19.21884069 7 23 C5.43236749 26.71606001 3.75165826 30.3674098 2 34 C2.89460938 33.855625 3.78921875 33.71125 4.7109375 33.5625 C23.69061872 30.64877495 23.69061872 30.64877495 32.796875 34.24609375 C35.57637684 35.26443086 35.57637684 35.26443086 41 36 C41 48.87 41 61.74 41 75 C33.74 75 26.48 75 19 75 C20.26953125 72.29817708 21.5390625 69.59635417 22.80859375 66.89453125 C24.08937281 64.08295642 24.08937281 64.08295642 24.47265625 61.2421875 C24.64667969 60.50226563 24.82070312 59.76234375 25 59 C28 57.3125 28 57.3125 31 56 C32.52491998 52.95016004 32.23562548 50.3576631 32 47 C30.91325006 44.91015769 30.91325006 44.91015769 29 44 C26.02602384 44.27036147 25.14553974 44.85446026 23 47 C15.41 47 7.82 47 0 47 C0 31.49 0 15.98 0 0 Z " fill="#F84330" transform="translate(77,72)"/>
<path d="M0 0 C4.26271544 1.93028624 7.68568063 4.57277016 11.3125 7.5 C15.78264404 4.99671934 20.08196537 2.3891456 24.3125 -0.5 C25.6325 0.16 26.9525 0.82 28.3125 1.5 C27.80737476 7.72987798 24.98645877 12.95474233 22.3125 18.5 C18.94501488 16.98052501 17.70409663 15.97899158 16.3125 12.5 C15.6525 12.5 14.9925 12.5 14.3125 12.5 C14.3125 18.77 14.3125 25.04 14.3125 31.5 C-0.99488989 28.19029408 -15.04800881 23.00662585 -27.6875 13.5 C-26.6875 10.5 -26.6875 10.5 -24.86157227 9.5168457 C-23.69452759 9.1005188 -23.69452759 9.1005188 -22.50390625 8.67578125 C-21.65892578 8.36962891 -20.81394531 8.06347656 -19.94335938 7.74804688 C-19.05455078 7.43931641 -18.16574219 7.13058594 -17.25 6.8125 C-16.36505859 6.49216797 -15.48011719 6.17183594 -14.56835938 5.84179688 C-8.01232676 3.5 -8.01232676 3.5 -5.6875 3.5 C-5.6875 2.84 -5.6875 2.18 -5.6875 1.5 C-2.6875 -0.5 -2.6875 -0.5 0 0 Z " fill="#D8E8F9" transform="translate(64.6875,159.5)"/>
<path d="M0 0 C2.47559028 0.44206969 3.85851 0.88223755 5.81542969 2.51098633 C8.45911752 4.31293672 10.02853368 4.41943412 13.203125 4.51171875 C14.52812012 4.56138794 14.52812012 4.56138794 15.87988281 4.61206055 C16.99202148 4.63695557 18.10416016 4.66185059 19.25 4.6875 C22.7975 4.790625 26.345 4.89375 30 5 C30 17.21 30 29.42 30 42 C20.93166866 40.70452409 13.92844544 37.24078471 8.18359375 29.93359375 C5.55915028 25.64613659 4 21.0254118 4 16 C3.236875 15.9175 2.47375 15.835 1.6875 15.75 C-1 15 -1 15 -2.8125 13.3125 C-4.3863876 10.24756099 -4.48701495 8.40910465 -4 5 C-2 2.125 -2 2.125 0 0 Z " fill="#FECCBD" transform="translate(47,115)"/>
<path d="M0 0 C3.39554235 -0.11660824 6.79056679 -0.18738372 10.1875 -0.25 C11.14720703 -0.28351563 12.10691406 -0.31703125 13.09570312 -0.3515625 C20.28700717 -0.45109612 20.28700717 -0.45109612 23.98828125 1.890625 C24.98408203 2.93476563 24.98408203 2.93476563 26 4 C26.99 4.66 27.98 5.32 29 6 C29.1875 9.125 29.1875 9.125 29 12 C26.69 12.66 24.38 13.32 22 14 C22 14.66 22 15.32 22 16 C19.5234375 16.9921875 19.5234375 16.9921875 16 17 C12.81412696 14.76224777 10.26788048 11.96860558 7.625 9.125 C6.88894531 8.36574219 6.15289062 7.60648438 5.39453125 6.82421875 C0 1.20950255 0 1.20950255 0 0 Z " fill="#11244C" transform="translate(37,147)"/>
<path d="M0 0 C2.4375 0.5625 2.4375 0.5625 6 2 C6.79277344 2.31453125 7.58554688 2.6290625 8.40234375 2.953125 C11.58494762 4.70280296 13.06007846 5.88091046 15 9 C16.15854254 15.90598862 15.54616625 23.05295201 15 30 C14.01 30 13.02 30 12 30 C11.67 24.72 11.34 19.44 11 14 C9.35 15.65 7.7 17.3 6 19 C5.34 19 4.68 19 4 19 C2.96241251 16.94587752 1.9454966 14.88130395 0.9375 12.8125 C0.36902344 11.66394531 -0.19945312 10.51539063 -0.78515625 9.33203125 C-2.04494114 5.87673701 -2.19353384 4.41813094 -1 1 C-0.67 0.67 -0.34 0.34 0 0 Z " fill="#FBFCFD" transform="translate(62,159)"/>
<path d="M0 0 C2.125 0.9375 2.125 0.9375 4 2 C3.49487476 8.22987798 0.67395877 13.45474233 -2 19 C-5.36748512 17.48052501 -6.60840337 16.47899158 -8 13 C-8.66 13 -9.32 13 -10 13 C-10 19.27 -10 25.54 -10 32 C-11.32 31.34 -12.64 30.68 -14 30 C-13.34 30 -12.68 30 -12 30 C-12.05236816 29.3702124 -12.10473633 28.7404248 -12.15869141 28.09155273 C-13.46906543 10.03327172 -13.46906543 10.03327172 -9.84375 5.015625 C-7.2685838 3.28404773 -4.9147342 2.04643736 -2 1 C-1.34 0.67 -0.68 0.34 0 0 Z " fill="#E7ECF5" transform="translate(89,159)"/>
<path d="M0 0 C0.825 0.495 1.65 0.99 2.5 1.5 C9.02655589 4.29709538 14.52532852 3.15822383 21 1 C21.66 2.98 22.32 4.96 23 7 C21.58531689 7.96125903 20.1681636 8.91888325 18.75 9.875 C17.56664062 10.67550781 17.56664062 10.67550781 16.359375 11.4921875 C14.28444308 12.81822015 12.22385028 13.94928175 10 15 C8.37327315 13.87749844 6.74867418 12.75191267 5.125 11.625 C4.22007813 10.99851563 3.31515625 10.37203125 2.3828125 9.7265625 C0 8 0 8 -2 6 C-1.34 6 -0.68 6 0 6 C0 4.02 0 2.04 0 0 Z " fill="#F4A58F" transform="translate(66,153)"/>
<path d="M0 0 C2.33893628 0.22634867 3.77794906 0.85725297 5.75 2.125 C7.78649015 5.17973522 7.49216273 7.43182022 7 11 C4.6875 13.9375 4.6875 13.9375 2 16 C1.01 16 0.02 16 -1 16 C-1.22127098 13.70954632 -1.4266504 11.41755236 -1.625 9.125 C-1.74101563 7.84882812 -1.85703125 6.57265625 -1.9765625 5.2578125 C-1.98816406 3.64519531 -1.98816406 3.64519531 -2 2 C-1.34 1.34 -0.68 0.68 0 0 Z " fill="#FAA48C" transform="translate(103,115)"/>
<path d="M0 0 C3.26954202 0.56371414 4.82575883 1.49962266 7 4 C6.01 4 5.02 4 4 4 C4 7.63 4 11.26 4 15 C3.01 15.33 2.02 15.66 1 16 C-3.83271375 11.89219331 -3.83271375 11.89219331 -4.5625 8 C-3.88398909 4.38127515 -2.49661422 2.6526526 0 0 Z " fill="#FEBCA7" transform="translate(47,115)"/>
<path d="M0 0 C1 2 2 4 3 6 C1.56542672 6.9834496 0.12722594 7.96160921 -1.3125 8.9375 C-2.11300781 9.48277344 -2.91351563 10.02804688 -3.73828125 10.58984375 C-6 12 -6 12 -9 13 C-9 9.7 -9 6.4 -9 3 C-6.03 2.01 -3.06 1.02 0 0 Z " fill="#DD9381" transform="translate(86,154)"/>
</svg>
