<?xml version="1.0" encoding="UTF-8"?>
<svg version="1.1" xmlns="http://www.w3.org/2000/svg" width="192" height="192">
<path d="M0 0 C1.04986084 0.00563965 2.09972168 0.0112793 3.18139648 0.01708984 C25.80124277 0.36854042 46.06186106 8.68674694 63.25 23.3125 C64.26513672 24.10914063 64.26513672 24.10914063 65.30078125 24.921875 C82.04010812 38.47435607 91.98789818 59.78915815 95.859375 80.5859375 C98.63455384 107.06114363 94.11934257 133.28544479 77.25 154.625 C75.92387201 156.19361996 74.59096793 157.75654723 73.25 159.3125 C72.45529297 160.32376953 72.45529297 160.32376953 71.64453125 161.35546875 C57.60526447 178.72256173 34.97469937 189.11119776 13.25 192.3125 C-16.71965936 194.20832087 -41.8011655 187.52087804 -64.90600586 167.83935547 C-81.83301342 152.773538 -93.38253086 130.8981556 -95.75 108.3125 C-97.11047549 80.06103869 -91.64901631 55.24141873 -72.75 33.3125 C-72.22019531 32.63832031 -71.69039062 31.96414062 -71.14453125 31.26953125 C-54.35893886 10.50513178 -26.07624536 -0.14798031 0 0 Z " fill="#FDE471" transform="translate(95.75,-0.3125)"/>
<path d="M0 0 C6.24462876 1.63549801 9.28829426 8.84059782 12.29589844 13.97241211 C12.94333008 15.09397705 13.59076172 16.21554199 14.2578125 17.37109375 C14.95259231 18.56112972 15.64825143 19.7506527 16.34472656 20.93969727 C17.83131044 23.47864922 19.31453466 26.01952267 20.79589844 28.56152344 C24.38280669 34.70711053 28.02247611 40.82145742 31.65908813 46.93771362 C32.88307514 48.99653553 34.10608485 51.05593514 35.32885742 53.11547852 C41.56443957 63.61604977 47.83632431 74.09443005 54.1328125 84.55859375 C56.36300039 88.26631418 58.59191914 91.97479458 60.8203125 95.68359375 C61.59749634 96.97475098 61.59749634 96.97475098 62.39038086 98.29199219 C62.86612549 99.08379883 63.34187012 99.87560547 63.83203125 100.69140625 C64.25315186 101.39152832 64.67427246 102.09165039 65.1081543 102.81298828 C67.16113091 106.31043473 67.60663243 108.45215436 67.1328125 112.55859375 C65.07977626 115.99088986 63.00415526 118.26814616 59.1328125 119.55859375 C57.48203424 119.65457184 55.8276596 119.69351148 54.17410278 119.69903564 C53.1506778 119.70474579 52.12725281 119.71045593 51.07281494 119.71633911 C49.95066589 119.71745697 48.82851685 119.71857483 47.67236328 119.71972656 C45.89884995 119.72717392 45.89884995 119.72717392 44.08950806 119.73477173 C40.84564594 119.74687961 37.60181987 119.7543382 34.35793924 119.75878239 C32.33084619 119.76171481 30.30375877 119.76581992 28.27666855 119.77028656 C21.93297544 119.78395774 15.58929524 119.79362649 9.24558842 119.79748845 C1.92512166 119.8019697 -5.39515843 119.81952213 -12.71556842 119.84848905 C-18.37596134 119.87010915 -24.03630174 119.88019289 -29.6967355 119.88152957 C-33.0766735 119.88257729 -36.45643592 119.88847787 -39.83633041 119.90634918 C-43.6070147 119.92336692 -47.37724232 119.92153967 -51.14794922 119.91503906 C-52.8251001 119.92886124 -52.8251001 119.92886124 -54.53613281 119.94296265 C-56.07972977 119.93460892 -56.07972977 119.93460892 -57.6545105 119.92608643 C-58.9912573 119.92828627 -58.9912573 119.92828627 -60.35500908 119.93053055 C-64.2394175 119.3554303 -66.89098681 117.50113234 -69.6796875 114.80859375 C-71.41308301 111.52426542 -71.19899247 109.24992404 -70.8671875 105.55859375 C-69.53647147 102.88220982 -68.20054386 100.58782317 -66.5546875 98.12109375 C-65.53734117 96.52796834 -64.52328548 94.93273896 -63.51171875 93.3359375 C-62.93760254 92.43472168 -62.36348633 91.53350586 -61.77197266 90.60498047 C-58.40025539 85.21248007 -55.18960831 79.72428277 -51.95925903 74.24633789 C-44.73992705 62.01070971 -37.4330463 49.83073548 -30.03222656 37.70410156 C-26.51248356 31.93225609 -23.01916099 26.14711629 -19.578125 20.328125 C-18.88385926 19.15742907 -18.18952453 17.98677405 -17.49511719 16.81616211 C-16.19069811 14.61324568 -14.89159003 12.40717299 -13.59863281 10.19750977 C-13.01952148 9.22096436 -12.44041016 8.24441895 -11.84375 7.23828125 C-11.33924316 6.37960449 -10.83473633 5.52092773 -10.31494141 4.63623047 C-7.49671528 0.59186212 -4.69728619 0.28552132 0 0 Z " fill="#E6051F" transform="translate(97.8671875,25.44140625)"/>
<path d="M0 0 C3.03269016 1.36070606 5.15935664 2.89792436 7.52485657 5.2237854 C8.20493271 5.88810577 8.88500885 6.55242615 9.58569336 7.23687744 C10.32094238 7.96517761 11.05619141 8.69347778 11.8137207 9.44384766 C12.59619675 10.21157501 13.37867279 10.97930237 14.18486023 11.77029419 C16.77122902 14.31214853 19.3493975 16.86208978 21.92578125 19.4140625 C23.24605851 20.72024096 23.24605851 20.72024096 24.59300804 22.05280685 C28.76754597 26.18469238 32.93764446 30.32097153 37.10147887 34.46364367 C41.90376027 39.24106365 46.72378923 43.9996064 51.55950862 48.74317133 C55.75104965 52.85754487 59.91772673 56.99640238 64.07607079 61.14429855 C65.84717685 62.90379786 67.62592774 64.65563604 69.41231728 66.39961624 C71.90753058 68.83904575 74.37301527 71.3051542 76.83325195 73.77978516 C77.57862213 74.49593994 78.32399231 75.21209473 79.09194946 75.94995117 C83.86779946 80.83525006 83.86779946 80.83525006 84.24706078 84.17672348 C82.52728484 99.50088783 72.81711859 114.60899466 63 126 C62.47019531 126.67417969 61.94039062 127.34835938 61.39453125 128.04296875 C47.38824968 145.36925781 24.70453214 155.87387436 3 159 C0.96886877 159.08794212 -1.06462332 159.13057752 -3.09765625 159.1328125 C-4.22880859 159.13410156 -5.35996094 159.13539063 -6.52539062 159.13671875 C-8.27625977 159.13091797 -8.27625977 159.13091797 -10.0625 159.125 C-11.23361328 159.12886719 -12.40472656 159.13273438 -13.61132812 159.13671875 C-15.30612305 159.13478516 -15.30612305 159.13478516 -17.03515625 159.1328125 C-18.0600415 159.13168457 -19.08492676 159.13055664 -20.14086914 159.12939453 C-27.09168787 158.81482413 -27.09168787 158.81482413 -29.70326233 156.4720459 C-30.46901833 155.49878357 -30.46901833 155.49878357 -31.25024414 154.50585938 C-35.22804022 149.67947663 -39.56158789 145.31196894 -43.99609375 140.90625 C-45.24641136 139.65805481 -45.24641136 139.65805481 -46.52198792 138.38464355 C-49.15813262 135.75405065 -51.79775105 133.12697559 -54.4375 130.5 C-56.23655979 128.70596145 -58.0353902 126.91169285 -59.83398438 125.1171875 C-64.22000812 120.74212875 -68.60888142 116.36994488 -73 112 C-70.52823973 110.76411986 -68.92609111 110.88498863 -66.1615448 110.89993286 C-64.62846931 110.90437408 -64.62846931 110.90437408 -63.06442261 110.90890503 C-61.37580612 110.92136765 -61.37580612 110.92136765 -59.65307617 110.93408203 C-57.87978188 110.94109131 -57.87978188 110.94109131 -56.07066345 110.94824219 C-52.82259082 110.96152055 -49.5745673 110.97902245 -46.32652068 110.99740076 C-42.92825233 111.01479982 -39.52996634 111.02420134 -36.13166809 111.03366089 C-24.55150099 111.06711296 -12.97140575 111.10868083 -1.39135742 111.17138672 C5.00204437 111.20592533 11.39539251 111.22972489 17.78887767 111.24159515 C21.1722159 111.24836388 24.55532679 111.26081078 27.93857765 111.28662491 C31.71411561 111.31305054 35.48927375 111.32099259 39.26489258 111.32470703 C40.38456421 111.3370639 41.50423584 111.34942078 42.65783691 111.3621521 C43.68834671 111.35947327 44.71885651 111.35679443 45.78059387 111.35403442 C46.67305722 111.35809862 47.56552057 111.36216282 48.48502827 111.36635017 C51.60615002 110.91170351 53.45702452 109.84227686 56 108 C58.35032253 104.47451621 58.41366453 103.1519662 58 99 C56.79905584 96.12007582 56.79905584 96.12007582 54.9375 93.1875 C54.5866333 92.5982373 54.2357666 92.00897461 53.87426758 91.40185547 C53.05948504 90.03793974 52.23827587 88.67785112 51.41210938 87.32080078 C49.86125533 84.77197323 48.3281255 82.21299498 46.796875 79.65234375 C44.29499327 75.47166815 41.78598262 71.29536856 39.2734375 67.12109375 C34.17424377 58.64299453 29.13144887 50.13144108 24.08746338 41.62042236 C20.16536562 35.0026084 16.24221824 28.38606311 12.265625 21.80078125 C11.44130981 20.43530151 11.44130981 20.43530151 10.6003418 19.04223633 C9.6201829 17.42191651 8.63753468 15.80309806 7.65161133 14.1862793 C4.85254737 9.56030335 2.36128713 4.8650185 0 0 Z " fill="#FECB26" transform="translate(106,33)"/>
<path d="M0 0 C0.66 0 1.32 0 2 0 C3.51782227 2.21777344 3.51782227 2.21777344 5.31640625 5.359375 C5.64488052 5.92727249 5.9733548 6.49516998 6.31178284 7.08027649 C7.02620675 8.31677101 7.73734303 9.55516942 8.44561768 10.79519653 C10.34288633 14.11585733 12.26432242 17.42249245 14.18359375 20.73046875 C14.57921509 21.41366684 14.97483643 22.09686493 15.38244629 22.80076599 C20.19665009 31.09604037 25.19798718 39.27603388 30.20141602 47.45800781 C33.49412507 52.84922924 36.76972444 58.25003273 39.9921875 63.68359375 C40.57081543 64.6573999 41.14944336 65.63120605 41.74560547 66.63452148 C43 69 43 69 43 71 C15.28 71 -12.44 71 -41 71 C-39.37235428 66.9308857 -37.58327785 63.22996809 -35.4375 59.4375 C-35.05819336 58.76477051 -34.67888672 58.09204102 -34.28808594 57.39892578 C-29.54564602 49.08060633 -24.53180167 40.92262736 -19.53662109 32.75463867 C-15.99974995 26.96701806 -12.49350572 21.16764106 -9.08203125 15.3046875 C-8.48487305 14.27939941 -7.88771484 13.25411133 -7.27246094 12.19775391 C-6.15349428 10.26879854 -5.040609 8.33629941 -3.93457031 6.39990234 C-3.44182617 5.55121582 -2.94908203 4.7025293 -2.44140625 3.828125 C-2.01545166 3.0846582 -1.58949707 2.34119141 -1.15063477 1.57519531 C-0.77092529 1.05538086 -0.39121582 0.53556641 0 0 Z " fill="#FECA25" transform="translate(95,54)"/>
<path d="M0 0 C28.38 0 56.76 0 86 0 C86 0.66 86 1.32 86 2 C86.87736816 1.98428955 86.87736816 1.98428955 87.77246094 1.96826172 C90.43159663 1.92659736 93.09066353 1.90064099 95.75 1.875 C97.13058594 1.84986328 97.13058594 1.84986328 98.5390625 1.82421875 C99.87324219 1.81455078 99.87324219 1.81455078 101.234375 1.8046875 C102.05131836 1.79421387 102.86826172 1.78374023 103.70996094 1.77294922 C106.25406282 2.0251896 107.83270626 2.66431458 110 4 C112.30712385 7.22997339 112.54403353 10.11404618 112 14 C109.93227415 17.42765324 107.87871765 19.70709412 104 21 C102.34922174 21.09597809 100.6948471 21.13491773 99.04129028 21.14044189 C98.0178653 21.14615204 96.99444031 21.15186218 95.94000244 21.15774536 C94.81785339 21.15886322 93.69570435 21.15998108 92.53955078 21.16113281 C90.76603745 21.16858017 90.76603745 21.16858017 88.95669556 21.17617798 C85.71283344 21.18828586 82.46900737 21.19574445 79.22512674 21.20018864 C77.19803369 21.20312106 75.17094627 21.20722617 73.14385605 21.21169281 C66.80016294 21.22536399 60.45648274 21.23503274 54.11277592 21.2388947 C46.79230916 21.24337595 39.47202907 21.26092838 32.15161908 21.2898953 C26.49122616 21.3115154 20.83088576 21.32159914 15.170452 21.32293582 C11.790514 21.32398354 8.41075158 21.32988412 5.03085709 21.34775543 C1.2601728 21.36477317 -2.51005482 21.36294592 -6.28076172 21.35644531 C-7.9579126 21.37026749 -7.9579126 21.37026749 -9.66894531 21.3843689 C-10.69800995 21.37879974 -11.72707458 21.37323059 -12.787323 21.36749268 C-14.1240698 21.36969252 -14.1240698 21.36969252 -15.48782158 21.3719368 C-19.37223 20.79683655 -22.02379931 18.94253859 -24.8125 16.25 C-26.54568109 12.96607794 -26.44932633 10.65880015 -26 7 C-24.67578125 4.296875 -24.67578125 4.296875 -22 2 C-18.23582367 1.37231697 -14.55261445 1.53066628 -10.75 1.6875 C-9.71875 1.71005859 -8.6875 1.73261719 -7.625 1.75585938 C-5.08185935 1.81472837 -2.54166887 1.89689935 0 2 C0 1.34 0 0.68 0 0 Z " fill="#FE561B" transform="translate(53,124)"/>
<path d="M0 0 C4.91393456 0.42119439 6.78682078 2.37487473 10 6 C11.57821418 8.43840059 12.90746067 10.98849578 14.25 13.5625 C18.56648643 21.57180436 23.18743915 29.36627428 27.9375 37.125 C34.77239043 48.30004295 41.49693028 59.53548856 48.15707397 70.81555176 C53.12437255 79.22622742 58.10961311 87.61467678 63.49975586 95.76464844 C64.39095265 97.14068696 65.20641775 98.56544747 66 100 C65.67 100.66 65.34 101.32 65 102 C64.34 101.67 63.68 101.34 63 101 C61.71222656 101.26683594 60.42445313 101.53367187 59.09765625 101.80859375 C53.27009111 102.72328677 48.31065619 102.84163389 43 100 C36.2615824 92.72042763 31.96857981 83.41042444 27.47175598 74.64738464 C23.91891656 67.72717543 19.9486408 61.1166215 15.84408569 54.5128479 C13.48753022 50.71584289 11.17031102 46.89496575 8.86303711 43.06787109 C7.59148785 40.97400555 6.29690146 38.89400038 4.98266602 36.82666016 C1.31347057 30.90902181 -0.92116069 26.88718239 -0.5625 19.875 C-0.52253906 18.61429688 -0.48257813 17.35359375 -0.44140625 16.0546875 C0 13 0 13 2 11 C2 9.68 2 8.36 2 7 C1.01 6.34 0.02 5.68 -1 5 C-0.67 3.35 -0.34 1.7 0 0 Z " fill="#8A120C" transform="translate(96,26)"/>
<path d="M0 0 C8.14509905 -0.04519647 16.2901005 -0.08188477 24.43529129 -0.10362434 C28.21748771 -0.11405858 31.99959383 -0.12821116 35.78173828 -0.15087891 C39.43217608 -0.17262021 43.08252705 -0.18457134 46.7330246 -0.18975449 C48.12527584 -0.19344794 49.51752238 -0.20066034 50.90973663 -0.21146011 C52.86067567 -0.22599126 54.81170218 -0.22681706 56.76269531 -0.22705078 C58.42815399 -0.23371262 58.42815399 -0.23371262 60.1272583 -0.24050903 C62.98740124 -0.00105478 64.61147423 0.4505798 67 2 C69.30712385 5.22997339 69.54403353 8.11404618 69 12 C67.43819848 15.04178654 66.79969154 16.2195059 64 18 C59.18412977 18.86156604 54.38430988 18.69796021 49.51171875 18.5859375 C48.08398728 18.57473862 46.65623267 18.56620169 45.22846985 18.56021118 C41.48122845 18.53736599 37.73539558 18.47848414 33.9887085 18.4119873 C30.16128594 18.35046917 26.33363444 18.3231761 22.50585938 18.29296875 C15.00319153 18.22873247 7.50197303 18.12324738 0 18 C0 12.06 0 6.12 0 0 Z " fill="#E5021F" transform="translate(96,126)"/>
<path d="M0 0 C3.37254201 0.28907503 5.10712052 1.07293312 7.9375 3 C10.15489909 6.22530776 10.32626642 6.57846971 9.6875 10.1875 C7.77086331 16.80155839 3.78003982 22.32994027 0 28 C-0.05383848 25.54137599 -0.09359038 23.0839245 -0.125 20.625 C-0.14175781 19.92632812 -0.15851563 19.22765625 -0.17578125 18.5078125 C-0.19344267 16.67102514 -0.10303261 14.83398037 0 13 C0.66 12.34 1.32 11.68 2 11 C2 9.68 2 8.36 2 7 C1.01 6.34 0.02 5.68 -1 5 C-0.67 3.35 -0.34 1.7 0 0 Z " fill="#B11E1A" transform="translate(96,26)"/>
<path d="M0 0 C1.2065625 0.0309375 1.2065625 0.0309375 2.4375 0.0625 C2.81968767 1.71864657 3.15145102 3.38707024 3.4375 5.0625 C2.4375 6.0625 2.4375 6.0625 -0.125 6.125 C-1.3315625 6.0940625 -1.3315625 6.0940625 -2.5625 6.0625 C-2.94468767 4.40635343 -3.27645102 2.73792976 -3.5625 1.0625 C-2.5625 0.0625 -2.5625 0.0625 0 0 Z " fill="#E6D9DC" transform="translate(155.5625,131.9375)"/>
<path d="M0 0 C1.2065625 0.0309375 1.2065625 0.0309375 2.4375 0.0625 C2.81968767 1.71864657 3.15145102 3.38707024 3.4375 5.0625 C2.4375 6.0625 2.4375 6.0625 -0.125 6.125 C-1.3315625 6.0940625 -1.3315625 6.0940625 -2.5625 6.0625 C-2.94468767 4.40635343 -3.27645102 2.73792976 -3.5625 1.0625 C-2.5625 0.0625 -2.5625 0.0625 0 0 Z " fill="#FFEFEA" transform="translate(36.5625,131.9375)"/>
<path d="M0 0 C1.65 0.33 3.3 0.66 5 1 C4.67 2.65 4.34 4.3 4 6 C2.35 5.67 0.7 5.34 -1 5 C-0.67 3.35 -0.34 1.7 0 0 Z " fill="#F3F5F5" transform="translate(94,32)"/>
</svg>
