<?xml version="1.0" encoding="UTF-8"?>
<svg version="1.1" xmlns="http://www.w3.org/2000/svg" width="192" height="192">
<path d="M0 0 C19.64310634 16.50723368 34.95998326 37.87100875 38 64 C39.0853754 79.34897829 38.85038608 94.32203428 34 109 C33.62617188 110.15242187 33.25234375 111.30484375 32.8671875 112.4921875 C24.48163987 136.09389439 7.09720524 154.27374124 -15.1953125 165.28125 C-37.54922796 175.71384658 -65.55607038 178.4364876 -89 170 C-114.19455553 160.72840357 -133.52793769 143.6787037 -145.6953125 119.65234375 C-156.28056071 96.48713976 -158.08799307 68.97824205 -149.23632812 44.92480469 C-139.45708484 19.4682853 -121.09647561 0.10349861 -96.25 -11.25 C-64.7632339 -23.85848621 -27.4242213 -20.76001435 0 0 Z " fill="#E6E6E7" transform="translate(154,18)"/>
<path d="M0 0 C3.67793327 0.70729486 5.69611088 1.97638079 8.00390625 5.0390625 C10.45491344 9.86418254 9.86703682 15.01908445 8.38916016 20.10009766 C7.36120573 23.22440505 6.26804855 26.32192652 5.14868164 29.41455078 C3.11227313 35.17815575 2.40499797 39.85164565 3 46 C3.54527344 45.33355469 4.09054688 44.66710937 4.65234375 43.98046875 C6.24725403 42.03113397 7.84231828 40.08192516 9.4375 38.1328125 C11.04315785 36.17047613 12.64713533 34.20680982 14.25 32.2421875 C19.78877922 25.45718296 25.3825393 18.71984338 31 12 C31.83337891 13.05380859 31.83337891 13.05380859 32.68359375 14.12890625 C34.6531589 16.57010421 36.66298717 18.96739405 38.703125 21.34960938 C43.0913595 26.47552122 47.35969386 31.67175479 51.5 37 C55.57394011 42.24197761 59.78020576 47.34432692 64.09033203 52.39331055 C67.3890065 56.26179891 70.59047285 60.19346058 73.75 64.17578125 C76.77080146 67.96751642 79.82122894 71.73479636 82.875 75.5 C83.73327393 76.56118042 83.73327393 76.56118042 84.60888672 77.64379883 C85.14787598 78.30790771 85.68686523 78.9720166 86.2421875 79.65625 C86.7254248 80.25244141 87.20866211 80.84863281 87.70654297 81.46289062 C89.06676512 83.1239397 89.06676512 83.1239397 91 85 C90.13428653 94.4266578 82.87580657 103.00678577 77 110 C76.41734375 110.72832031 75.8346875 111.45664063 75.234375 112.20703125 C62.14277743 127.91144767 41.05246805 140.43963985 20.5625 142.8125 C19.386875 142.874375 18.21125 142.93625 17 143 C16.58492187 142.41476563 16.16984375 141.82953125 15.7421875 141.2265625 C9.61391449 132.68800639 3.14533496 124.42803457 -3.32519531 116.14794922 C-5.64637933 113.1710138 -7.9510336 110.18161025 -10.25 107.1875 C-11.03890625 106.16011719 -11.8278125 105.13273437 -12.640625 104.07421875 C-13.80851562 102.55248047 -13.80851562 102.55248047 -15 101 C-16.24678115 99.37829536 -17.49404517 97.75696323 -18.74145508 96.13574219 C-19.57738669 95.04927433 -20.41316262 93.96268666 -21.2487793 92.87597656 C-23.76370901 89.60543575 -26.28224771 86.33771605 -28.8034668 83.07202148 C-30.04732945 81.45719495 -31.28562826 79.83821914 -32.5234375 78.21875 C-34.21280156 76.01113481 -35.92953866 73.82852857 -37.6640625 71.65625 C-38.50537725 70.58346579 -39.34652937 69.510554 -40.1875 68.4375 C-40.94417969 67.48746094 -41.70085938 66.53742188 -42.48046875 65.55859375 C-44 63 -44 63 -43.8984375 60.83203125 C-42.34927774 57.67309244 -40.02919639 55.65526282 -37 54 C-32.75173401 53.01183475 -29.79977545 53.5919513 -25.9375 55.5625 C-21.66142353 59.11073367 -17.71981367 62.84736017 -14.24609375 67.1953125 C-10.5813938 71.82746812 -10.5813938 71.82746812 -5.1875 74.0625 C-2.1026494 74.23032188 -2.1026494 74.23032188 0 73 C0.41890218 70.21061788 0.41890218 70.21061788 0 67 C-2.08113411 64.41636938 -2.08113411 64.41636938 -5 62 C-6.25935212 60.7804169 -7.50909428 59.55084716 -8.75 58.3125 C-9.34296875 57.73113281 -9.9359375 57.14976563 -10.546875 56.55078125 C-12.26826511 54.71370632 -13.01698246 53.68287368 -12.95361328 51.13476562 C-12.33253021 45.7763098 -11.31206888 40.69573253 -9.875 35.5 C-9.66270752 34.71262451 -9.45041504 33.92524902 -9.23168945 33.11401367 C-8.49750905 30.40657706 -7.75040015 27.70298589 -7 25 C-6.69658691 23.9063916 -6.39317383 22.8127832 -6.08056641 21.68603516 C-4.06949918 14.45289332 -2.04130985 7.22466188 0 0 Z " fill="#BBBBC0" transform="translate(94,48)"/>
<path d="M0 0 C3.67793327 0.70729486 5.69611088 1.97638079 8.00390625 5.0390625 C10.45491344 9.86418254 9.86703682 15.01908445 8.38916016 20.10009766 C7.36120573 23.22440505 6.26804855 26.32192652 5.14868164 29.41455078 C3.11227313 35.17815575 2.40499797 39.85164565 3 46 C3.54527344 45.33355469 4.09054688 44.66710937 4.65234375 43.98046875 C6.24725403 42.03113397 7.84231828 40.08192516 9.4375 38.1328125 C11.04315785 36.17047613 12.64713533 34.20680982 14.25 32.2421875 C19.78877922 25.45718296 25.3825393 18.71984338 31 12 C33.98122788 15.50022707 35.92598612 18.09316476 36.28125 22.8359375 C35.3258346 30.18732823 28.11082029 36.19082054 23.32421875 41.359375 C19.54226501 45.65618294 16.2724935 50.30972321 13 55 C13.33 55.66 13.66 56.32 14 57 C14.64960693 56.63237549 15.29921387 56.26475098 15.96850586 55.88598633 C18.95796749 54.19446501 21.94773178 52.50347934 24.9375 50.8125 C25.95908203 50.23435547 26.98066406 49.65621094 28.03320312 49.06054688 C30.05848032 47.91526232 32.08499721 46.77216701 34.11279297 45.63134766 C35.96656721 44.58391661 37.81507319 43.52707479 39.65673828 42.45849609 C40.45192871 42.00168457 41.24711914 41.54487305 42.06640625 41.07421875 C42.75806885 40.67162842 43.44973145 40.26903809 44.16235352 39.85424805 C46 39 46 39 49 39 C49.30880348 43.47765047 49.42531116 46.09621378 47.5 50.1875 C42.19201045 56.15898825 34.92664633 59.15723839 27.74853516 62.41381836 C23.83309637 64.27011828 23.03814438 64.92371124 21 69 C28.59 69 36.18 69 44 69 C42.93183837 73.27264652 42.47671492 74.46082619 39 77 C35.57737698 77.39948597 32.36440642 77.46017298 28.93164062 77.40039062 C25.06828094 77.46194368 23.26911547 77.7810586 20.234375 80.25 C19.12835938 81.61125 19.12835938 81.61125 18 83 C17.35417969 83.76441406 16.70835938 84.52882813 16.04296875 85.31640625 C15.43066406 86.05761719 14.81835938 86.79882812 14.1875 87.5625 C8.54255993 93.8579722 4.06343139 96.16041421 -4.4375 96.625 C-11.08542049 96.39416943 -15.2045235 94.56107439 -20 90 C-23.79113614 85.84694156 -26.5918724 81.06550417 -29.5625 76.3125 C-33.52873591 70.02392859 -37.10186727 66.04801214 -44 63 C-43.75787346 59.73129165 -42.72467093 58.7045249 -40.4375 56.25 C-37.32368566 53.83810064 -34.84086665 53.30476199 -30.94140625 53.5859375 C-24.09760558 55.0455811 -18.46166042 61.91881257 -14.24609375 67.1953125 C-10.5813938 71.82746812 -10.5813938 71.82746812 -5.1875 74.0625 C-2.1026494 74.23032188 -2.1026494 74.23032188 0 73 C0.41890218 70.21061788 0.41890218 70.21061788 0 67 C-2.08113411 64.41636938 -2.08113411 64.41636938 -5 62 C-6.25935212 60.7804169 -7.50909428 59.55084716 -8.75 58.3125 C-9.34296875 57.73113281 -9.9359375 57.14976563 -10.546875 56.55078125 C-12.26826511 54.71370632 -13.01698246 53.68287368 -12.95361328 51.13476562 C-12.33253021 45.7763098 -11.31206888 40.69573253 -9.875 35.5 C-9.66270752 34.71262451 -9.45041504 33.92524902 -9.23168945 33.11401367 C-8.49750905 30.40657706 -7.75040015 27.70298589 -7 25 C-6.69658691 23.9063916 -6.39317383 22.8127832 -6.08056641 21.68603516 C-4.06949918 14.45289332 -2.04130985 7.22466188 0 0 Z " fill="#0388C6" transform="translate(94,48)"/>
</svg>
