<?xml version="1.0" encoding="UTF-8"?>
<svg version="1.1" xmlns="http://www.w3.org/2000/svg" width="192" height="192">
<path d="M0 0 C1.04986084 0.00563965 2.09972168 0.0112793 3.18139648 0.01708984 C25.80124277 0.36854042 46.06186106 8.68674694 63.25 23.3125 C64.26513672 24.10914063 64.26513672 24.10914063 65.30078125 24.921875 C82.04541384 38.47865169 91.94736182 59.76194198 95.859375 80.55078125 C98.59784984 106.92229395 94.24393472 132.43999107 77.875 154 C76.68037547 155.44891267 75.47148267 156.8861565 74.25 158.3125 C73.25033203 159.52873047 73.25033203 159.52873047 72.23046875 160.76953125 C57.66945028 177.84921238 35.60392149 189.63217368 13.25 192.3125 C-15.6176327 193.69643293 -40.32121915 188.39762675 -62.75 169.3125 C-63.42675781 168.78140625 -64.10351562 168.2503125 -64.80078125 167.703125 C-81.54010812 154.15064393 -91.48789818 132.83584185 -95.359375 112.0390625 C-98.13455384 85.56385637 -93.61934257 59.33955521 -76.75 38 C-75.42387201 36.43138004 -74.09096793 34.86845277 -72.75 33.3125 C-72.22019531 32.63832031 -71.69039062 31.96414062 -71.14453125 31.26953125 C-54.35893886 10.50513178 -26.07624536 -0.14798031 0 0 Z " fill="#E6021E" transform="translate(95.75,-0.3125)"/>
<path d="M0 0 C1.04729279 -0.00571014 2.09458557 -0.01142029 3.1736145 -0.01730347 C4.32741104 -0.01842133 5.48120758 -0.01953918 6.66996765 -0.02069092 C7.88142456 -0.02565582 9.09288147 -0.03062073 10.34104919 -0.03573608 C13.66968884 -0.04785806 16.99826554 -0.05530649 20.32691979 -0.05974674 C22.40643794 -0.06267677 24.48595056 -0.06678147 26.56546593 -0.07125092 C33.071479 -0.08492848 39.57747947 -0.0945935 46.08350593 -0.09845281 C53.59415243 -0.10293243 61.10461684 -0.12047464 68.61520797 -0.1494534 C74.41995311 -0.17107284 80.22464703 -0.18115725 86.029432 -0.18249393 C89.49657352 -0.1835419 92.96354394 -0.18944773 96.43064308 -0.20731354 C100.29954013 -0.22686139 104.16820988 -0.22250418 108.03715515 -0.21600342 C109.184879 -0.2252182 110.33260284 -0.23443298 111.5151062 -0.243927 C112.57085846 -0.23835785 113.62661072 -0.2327887 114.71435547 -0.22705078 C115.62894185 -0.22851734 116.54352823 -0.2299839 117.48582935 -0.2314949 C121.74155722 0.38637029 124.36468212 2.4462918 127.32879639 5.45892334 C129.34789883 8.60884288 129.54875829 10.3307919 129.54936218 14.04473877 C129.55874313 15.20944702 129.56812408 16.37415527 129.57778931 17.57415771 C129.56093834 19.44774963 129.56093834 19.44774963 129.54374695 21.35919189 C129.54520218 22.64982544 129.54665741 23.94045898 129.54815674 25.27020264 C129.54953836 27.99717699 129.53702373 30.72362386 129.51420593 33.45050049 C129.485821 36.9375745 129.48856129 40.42377273 129.50129604 43.91091156 C129.50994229 47.24792929 129.49480004 50.58468891 129.48124695 53.92169189 C129.48418259 55.17075317 129.48711823 56.41981445 129.49014282 57.70672607 C129.47745865 58.87143433 129.46477448 60.03614258 129.45170593 61.23614502 C129.44630295 62.2580896 129.44089996 63.28003418 129.43533325 64.33294678 C128.81600778 68.81796795 126.50462777 72.25962975 123.0476532 75.14044189 C120.06293541 76.13534782 118.09153798 76.27072472 114.97505188 76.28088379 C113.92638443 76.28659393 112.87771698 76.29230408 111.79727173 76.29818726 C110.07196983 76.29986404 110.07196983 76.29986404 108.31181335 76.30157471 C106.49440895 76.30902206 106.49440895 76.30902206 104.64028931 76.31661987 C101.31584098 76.32872869 97.99145556 76.33618657 94.66699266 76.34063053 C92.58964676 76.34356276 90.51230636 76.34766783 88.43496323 76.3521347 C81.93429294 76.36580618 75.43363524 76.37547479 68.93295157 76.3793366 C61.43080515 76.38381795 53.92884086 76.40137076 46.42674983 76.43033719 C40.62623078 76.45195577 34.82576297 76.46204095 29.02520406 76.46337771 C25.56143081 76.46442554 22.09782886 76.47032841 18.63409805 76.48819733 C14.77009963 76.5077438 10.90632881 76.50338832 7.0422821 76.49688721 C5.3230529 76.51070938 5.3230529 76.51070938 3.5690918 76.52481079 C1.98763115 76.51645706 1.98763115 76.51645706 0.3742218 76.50793457 C-0.53906576 76.50940113 -1.45235332 76.51086769 -2.39331627 76.51237869 C-6.58611386 75.90298553 -9.20631475 74.12884488 -11.73335266 70.78082275 C-13.60264316 65.19840924 -13.44047125 59.74492223 -13.45625305 53.89434814 C-13.46623825 52.60987289 -13.47622345 51.32539764 -13.48651123 50.0019989 C-13.50441716 47.28952467 -13.51003789 44.57733624 -13.508255 41.86480713 C-13.50795006 38.40325155 -13.5489352 34.94354117 -13.60057163 31.48242283 C-13.64210919 28.16137237 -13.64020119 24.84065467 -13.64375305 21.51934814 C-13.6653096 20.28374649 -13.68686615 19.04814484 -13.70907593 17.77510071 C-13.63281568 8.1798314 -13.63281568 8.1798314 -10.03413391 3.86676025 C-6.73188241 0.62756191 -4.60134987 0.01498427 0 0 Z " fill="#07D4DB" transform="translate(37.95234680175781,57.85955810546875)"/>
<path d="M0 0 C0.66 0 1.32 0 2 0 C3.19921875 1.22265625 3.19921875 1.22265625 4.6875 3.0625 C8.51527545 7.57438851 12.63299819 11.7550224 16.8125 15.9375 C17.4830542 16.61240479 18.1536084 17.28730957 18.84448242 17.98266602 C19.47974854 18.61615967 20.11501465 19.24965332 20.76953125 19.90234375 C21.34292236 20.47460693 21.91631348 21.04687012 22.50708008 21.63647461 C23.97377378 23.10062576 23.97377378 23.10062576 26 24 C26.69980549 49.76320957 21.22059683 72.89125276 4 93 C3.00033203 94.21623047 3.00033203 94.21623047 1.98046875 95.45703125 C-13.05504342 113.09328066 -36.06948566 125.08616939 -59.22680664 127.20361328 C-61.79764572 127.38474001 -64.3617004 127.48063793 -66.9375 127.5625 C-67.80568359 127.62501953 -68.67386719 127.68753906 -69.56835938 127.75195312 C-75.97479481 127.91175083 -75.97479481 127.91175083 -78.62287903 125.55671692 C-79.36606636 124.60595528 -79.36606636 124.60595528 -80.12426758 123.63598633 C-84.6981439 118.08775315 -89.7732061 113.08222485 -94.859375 108.0078125 C-95.89608073 106.97043161 -96.93263811 105.93290244 -97.96905518 104.89523315 C-100.12570128 102.73712335 -102.28411898 100.58080603 -104.44384766 98.42578125 C-107.21009306 95.66526836 -109.97177574 92.90024093 -112.73217392 90.13388252 C-114.86475215 87.99769318 -116.9997032 85.86388814 -119.13538361 83.73080063 C-120.15518807 82.71166206 -121.1742535 81.69178341 -122.19255829 80.67114639 C-123.61130382 79.24986145 -125.03359924 77.83212273 -126.45605469 76.41455078 C-127.26322937 75.60817169 -128.07040405 74.8017926 -128.90203857 73.97097778 C-131.03877937 71.85466727 -131.03877937 71.85466727 -134 70 C-133.505 69.01 -133.505 69.01 -133 68 C-132.36039243 68.00276538 -131.72078485 68.00553076 -131.06179523 68.00837994 C-115.49625993 68.0746429 -99.93077371 68.12428205 -84.36513233 68.15543652 C-76.83768968 68.17090317 -69.31034119 68.19198875 -61.78295898 68.22631836 C-55.22182597 68.25622699 -48.66076116 68.27557648 -42.09956187 68.28226548 C-38.62566891 68.28617529 -35.15197105 68.29535946 -31.67814064 68.31719017 C-27.79946876 68.34136716 -23.92098749 68.34196904 -20.04223633 68.34057617 C-18.89137039 68.351362 -17.74050446 68.36214783 -16.55476379 68.3732605 C-15.49612122 68.36913651 -14.43747864 68.36501251 -13.34675598 68.36076355 C-12.42957196 68.36352893 -11.51238794 68.36629431 -10.56741047 68.36914349 C-6.3942686 67.76912718 -3.76741767 65.98873446 -1.20878601 62.69221497 C0.20274775 59.54843908 0.36229797 57.36384551 0.34057617 53.92456055 C0.34023628 52.12325935 0.34023628 52.12325935 0.33988953 50.28556824 C0.32440567 48.99894791 0.30892181 47.71232758 0.29296875 46.38671875 C0.28736869 45.04865495 0.28310053 43.71058498 0.28010559 42.37251282 C0.26868892 38.86248588 0.23924987 35.35283544 0.20599365 31.84295654 C0.17522371 28.25668428 0.16158553 24.67035078 0.14648438 21.08398438 C0.11437655 14.0558356 0.06321917 7.02793591 0 0 Z " fill="#AF1815" transform="translate(166,65)"/>
<path d="M0 0 C5.6640625 -0.28125 5.6640625 -0.28125 8.6875 2.25 C14 8.56756757 14 8.56756757 14 11 C14.66 11 15.32 11 16 11 C16 9.35 16 7.7 16 6 C19.3 6 22.6 6 26 6 C26 4.02 26 2.04 26 0 C28.31 0 30.62 0 33 0 C33 5.61 33 11.22 33 17 C40.59 17 48.18 17 56 17 C56 15.02 56 13.04 56 11 C50.72 11 45.44 11 40 11 C40 8.03 40 5.06 40 2 C44.62 2 49.24 2 54 2 C54 1.34 54 0.68 54 0 C58.95 0 63.9 0 69 0 C67.26230366 4.34424085 65.62691121 7.12848983 62.875 10.8125 C62.15054688 11.78832031 61.42609375 12.76414062 60.6796875 13.76953125 C59.84824219 14.87361328 59.84824219 14.87361328 59 16 C61.83678622 16.41800377 61.83678622 16.41800377 65 16 C67.23271001 13.84555683 67.23271001 13.84555683 68.875 11 C69.47054687 10.071875 70.06609375 9.14375 70.6796875 8.1875 C71.33324219 7.1046875 71.33324219 7.1046875 72 6 C76.26949484 7.42316495 77.08384857 10.25419309 79.20703125 14.06640625 C80.92605571 16.35448961 80.92605571 16.35448961 84.19921875 16.27734375 C85.12347656 16.18582031 86.04773438 16.09429687 87 16 C86.278125 15.01257813 85.55625 14.02515625 84.8125 13.0078125 C83.87475251 11.71372097 82.93726598 10.41944031 82 9.125 C81.52304688 8.47402344 81.04609375 7.82304688 80.5546875 7.15234375 C77 2.2265625 77 2.2265625 77 0 C81.62 0 86.24 0 91 0 C91 5.61 91 11.22 91 17 C93.64 17 96.28 17 99 17 C99 11.39 99 5.78 99 0 C103.29 0 107.58 0 112 0 C112 5.61 112 11.22 112 17 C114.64 17 117.28 17 120 17 C120 11.39 120 5.78 120 0 C125.94 0 131.88 0 138 0 C138.25823525 4.46670279 138.5001997 8.92842506 138.7019043 13.3972168 C138.77522572 14.9156014 138.85780654 16.43356911 138.94995117 17.95092773 C139.08109705 20.13740903 139.17843569 22.32324711 139.26953125 24.51171875 C139.37164917 26.48338013 139.37164917 26.48338013 139.47583008 28.49487305 C138.87457396 32.92393108 137.46565941 34.28202834 134 37 C131.01528221 37.99490593 129.04388478 38.13028282 125.92739868 38.14044189 C124.87873123 38.14615204 123.83006378 38.15186218 122.74961853 38.15774536 C121.02431664 38.15942215 121.02431664 38.15942215 119.26416016 38.16113281 C117.44675575 38.16858017 117.44675575 38.16858017 115.59263611 38.17617798 C112.26818778 38.1882868 108.94380236 38.19574468 105.61933947 38.20018864 C103.54199356 38.20312086 101.46465316 38.20722594 99.38731003 38.21169281 C92.88663974 38.22536429 86.38598204 38.2350329 79.88529837 38.2388947 C72.38315195 38.24337606 64.88118767 38.26092886 57.37909663 38.2898953 C51.57857758 38.31151388 45.77810977 38.32159906 39.97755086 38.32293582 C36.51377762 38.32398364 33.05017566 38.32988651 29.58644485 38.34775543 C25.72244643 38.3673019 21.85867561 38.36294643 17.99462891 38.35644531 C16.2753997 38.37026749 16.2753997 38.37026749 14.5214386 38.3843689 C13.4671315 38.37879974 12.4128244 38.37323059 11.3265686 38.36749268 C10.41328104 38.36895924 9.49999348 38.3704258 8.55903053 38.3719368 C5.43273557 37.91755217 3.55128975 36.83468895 1 35 C-1.32867813 31.01805559 -1.16939953 27.48088898 -0.9765625 22.94921875 C-0.95153656 22.29041214 -0.92651062 21.63160553 -0.90072632 20.95283508 C-0.8190354 18.86382617 -0.72225509 16.77583634 -0.625 14.6875 C-0.56670805 13.2650146 -0.50940595 11.84248826 -0.453125 10.41992188 C-0.31353514 6.94606723 -0.16041251 3.47296255 0 0 Z " fill="#02C1C7" transform="translate(27,96)"/>
<path d="M0 0 C7.59 0 15.18 0 23 0 C23 1.98 23 3.96 23 6 C17.72 6 12.44 6 7 6 C7 8.64 7 11.28 7 14 C11.62 14 16.24 14 21 14 C21 15.65 21 17.3 21 19 C16.38 19 11.76 19 7 19 C7 21.97 7 24.94 7 28 C12.28 28 17.56 28 23 28 C23 29.98 23 31.96 23 34 C15.41 34 7.82 34 0 34 C0 22.78 0 11.56 0 0 Z " fill="#EEFCFC" transform="translate(60,79)"/>
<path d="M0 0 C3.0625 -0.625 3.0625 -0.625 7 0 C9.96599371 3.16067283 14 7.48346076 14 12 C16.83007518 9.48437762 18.54630207 7.04846235 20.3125 3.75 C21.5625 1.640625 21.5625 1.640625 23 0 C26.8125 -0.5 26.8125 -0.5 30 0 C27.82954542 4.77729685 24.61863022 8.87057062 21.58203125 13.125 C19.84929026 15.73890201 19.84929026 15.73890201 19.9765625 17.95703125 C21.53914544 21.07623307 23.52409925 23.8687008 25.5625 26.6875 C30 32.8892261 30 32.8892261 30 34 C26.9375 34.625 26.9375 34.625 23 34 C20.84014485 31.53776513 19.17878171 28.98563577 17.48046875 26.1875 C16.99191406 25.465625 16.50335938 24.74375 16 24 C15.34 24 14.68 24 14 24 C12.892176 25.63689035 11.83803262 27.31033528 10.8125 29 C8.953125 31.7734375 8.953125 31.7734375 7 34 C3.0625 34.625 3.0625 34.625 0 34 C1.10210905 32.24870343 2.20677432 30.49901536 3.3125 28.75 C3.92738281 27.77546875 4.54226562 26.8009375 5.17578125 25.796875 C7 23 7 23 8.79296875 20.953125 C10.21150795 19.04755923 10.21150795 19.04755923 9.97265625 16.63671875 C8.71103702 13.21666662 6.70147208 10.61732912 4.4375 7.8125 C0 2.24374052 0 2.24374052 0 0 Z " fill="#DFE6E7" transform="translate(85,79)"/>
<path d="M0 0 C9.24 0 18.48 0 28 0 C28 1.98 28 3.96 28 6 C24.37 6 20.74 6 17 6 C17 15.24 17 24.48 17 34 C15.02 34 13.04 34 11 34 C11 24.76 11 15.52 11 6 C7.37 6 3.74 6 0 6 C0 4.02 0 2.04 0 0 Z " fill="#F0FCFD" transform="translate(129,79)"/>
<path d="M0 0 C4.36880789 1.51305044 6.31256363 4.87458732 8.75 8.5625 C9.16121094 9.16513672 9.57242188 9.76777344 9.99609375 10.38867188 C13 14.83465272 13 14.83465272 13 16 C8.05 16 3.1 16 -2 16 C-2 15.01 -2 14.02 -2 13 C-6.62 13 -11.24 13 -16 13 C-16 10.36 -16 7.72 -16 5 C-10.72 5 -5.44 5 0 5 C0 3.35 0 1.7 0 0 Z " fill="#04D8DF" transform="translate(83,80)"/>
<path d="M0 0 C0.33 0 0.66 0 1 0 C1 1.65 1 3.3 1 5 C-3.62 5 -8.24 5 -13 5 C-13 7.97 -13 10.94 -13 14 C-7.72 14 -2.44 14 3 14 C3 15.98 3 17.96 3 20 C-4.59 20 -12.18 20 -20 20 C-20 14.39 -20 8.78 -20 3 C-13.4 3 -6.8 3 0 3 C0 2.01 0 1.02 0 0 Z " fill="#DFE6E7" transform="translate(80,93)"/>
<path d="M0 0 C0.33 1.32 0.66 2.64 1 4 C4.63 4 8.26 4 12 4 C12 7.96 12 11.92 12 16 C8.7 16 5.4 16 2 16 C2 17.65 2 19.3 2 21 C1.34 21 0.68 21 0 21 C-1.796875 18.98828125 -1.796875 18.98828125 -3.75 16.3125 C-4.40484375 15.44238281 -5.0596875 14.57226562 -5.734375 13.67578125 C-7 11 -7 11 -6.3671875 8.375 C-4.53862615 5.19852771 -2.42570148 2.74487272 0 0 Z " fill="#D3E6E7" transform="translate(41,86)"/>
<path d="M0 0 C3.0625 -0.625 3.0625 -0.625 7 0 C9.96599371 3.16067283 14 7.48346076 14 12 C16.83007518 9.48437762 18.54630207 7.04846235 20.3125 3.75 C21.5625 1.640625 21.5625 1.640625 23 0 C26.8125 -0.5 26.8125 -0.5 30 0 C28.23469139 3.75360357 26.11222388 7.26391484 23.875 10.75 C23.52179688 11.35199219 23.16859375 11.95398438 22.8046875 12.57421875 C21.26604511 14.93026491 19.83166716 16.71304672 17.12207031 17.64794922 C14.78032523 17.88034039 13.23116469 17.76252916 11 17 C8.46592433 14.88099483 6.78692883 12.38341408 5 9.625 C4.51144531 8.92632812 4.02289063 8.22765625 3.51953125 7.5078125 C0 2.3813244 0 2.3813244 0 0 Z " fill="#EEFCFC" transform="translate(85,79)"/>
<path d="M0 0 C1.98 0 3.96 0 6 0 C6 11.22 6 22.44 6 34 C4.02 34 2.04 34 0 34 C0 22.78 0 11.56 0 0 Z " fill="#E8E7E8" transform="translate(119,79)"/>
<path d="M0 0 C1.98 0 3.96 0 6 0 C6 5.61 6 11.22 6 17 C4.02 17 2.04 17 0 17 C0 11.39 0 5.78 0 0 Z " fill="#E8E7E8" transform="translate(140,96)"/>
<path d="M0 0 C1.98 0 3.96 0 6 0 C6 5.61 6 11.22 6 17 C4.02 17 2.04 17 0 17 C0 11.39 0 5.78 0 0 Z " fill="#FAFEFE" transform="translate(119,79)"/>
<path d="M0 0 C0.33 0 0.66 0 1 0 C1 1.65 1 3.3 1 5 C4.3 5 7.6 5 11 5 C11 6.65 11 8.3 11 10 C5.06 10 -0.88 10 -7 10 C-4.80055973 6.33426621 -2.7547581 3.21388445 0 0 Z " fill="#FAFEFE" transform="translate(41,86)"/>
</svg>
