<?xml version="1.0" encoding="UTF-8"?>
<svg version="1.1" xmlns="http://www.w3.org/2000/svg" width="192" height="192">
<path d="M0 0 C1.04986084 0.00563965 2.09972168 0.0112793 3.18139648 0.01708984 C25.80124277 0.36854042 46.06186106 8.68674694 63.25 23.3125 C64.26513672 24.10914063 64.26513672 24.10914063 65.30078125 24.921875 C82.04541384 38.47865169 91.94736182 59.76194198 95.859375 80.55078125 C98.59784984 106.92229395 94.24393472 132.43999107 77.875 154 C76.68037547 155.44891267 75.47148267 156.8861565 74.25 158.3125 C73.25033203 159.52873047 73.25033203 159.52873047 72.23046875 160.76953125 C57.35116983 178.22254674 35.80259693 188.98920066 13.25 192.3125 C-16.71965936 194.20832087 -41.8011655 187.52087804 -64.90600586 167.83935547 C-81.83301342 152.773538 -93.38253086 130.8981556 -95.75 108.3125 C-97.11047549 80.06103869 -91.64901631 55.24141873 -72.75 33.3125 C-72.22019531 32.63832031 -71.69039062 31.96414062 -71.14453125 31.26953125 C-54.35893886 10.50513178 -26.07624536 -0.14798031 0 0 Z " fill="#E7E6E8" transform="translate(95.75,-0.3125)"/>
<path d="M0 0 C5.28 0 10.56 0 16 0 C16 2.64 16 5.28 16 8 C29.2 8 42.4 8 56 8 C56 5.36 56 2.72 56 0 C61.28 0 66.56 0 72 0 C72 2.64 72 5.28 72 8 C73.051875 8.0825 74.10375 8.165 75.1875 8.25 C79.95557607 9.18798218 82.41402713 10.8853695 85.3125 14.75 C86.36579094 18.19713398 86.11983573 21.40492797 86 25 C86.9075 24.938125 87.815 24.87625 88.75 24.8125 C92 25 92 25 94.375 26.0625 C96.78794727 28.93947559 96.2734643 31.37659799 96 35 C96.969375 34.979375 97.93875 34.95875 98.9375 34.9375 C102 35 102 35 103 36 C103.12658222 38.65822657 103.18520214 41.27887424 103.1875 43.9375 C103.19974609 44.67935547 103.21199219 45.42121094 103.22460938 46.18554688 C103.22988478 48.12513629 103.12188902 50.0642371 103 52 C101 54 101 54 98.65234375 54.23046875 C97.75644531 54.21628906 96.86054688 54.20210937 95.9375 54.1875 C95.03902344 54.18105469 94.14054687 54.17460938 93.21484375 54.16796875 C91 54 91 54 90 53 C89.92674832 50.13732433 89.90761795 47.299281 89.9375 44.4375 C89.94201172 43.63119141 89.94652344 42.82488281 89.95117188 41.99414062 C89.96299482 39.99606244 89.98093086 37.99802217 90 36 C90.99 35.67 91.98 35.34 93 35 C93 33.02 93 31.04 93 29 C90.69 29 88.38 29 86 29 C86 54.08 86 79.16 86 105 C69.5 105 53 105 36 105 C36 103.68 36 102.36 36 101 C29.73 101 23.46 101 17 101 C17 99.35 17 97.7 17 96 C23.27 96 29.54 96 36 96 C36 94.68 36 93.36 36 92 C29.73 92 23.46 92 17 92 C17 90.35 17 88.7 17 87 C23.27 87 29.54 87 36 87 C36 86.01 36 85.02 36 84 C29.73 84 23.46 84 17 84 C17 82.35 17 80.7 17 79 C23.27 79 29.54 79 36 79 C36 77.35 36 75.7 36 74 C32.37435813 74.10954408 28.74978569 74.2402496 25.125 74.375 C24.09246094 74.4059375 23.05992188 74.436875 21.99609375 74.46875 C21.00996094 74.50742188 20.02382812 74.54609375 19.0078125 74.5859375 C18.09660645 74.6173584 17.18540039 74.6487793 16.24658203 74.68115234 C13.80068814 74.79882511 13.80068814 74.79882511 12 77 C11.62731113 79.91188245 11.62731113 79.91188245 11.5859375 83.3203125 C11.54726562 84.57714844 11.50859375 85.83398438 11.46875 87.12890625 C11.4378125 88.44761719 11.406875 89.76632813 11.375 91.125 C11.33681971 92.46486918 11.29776794 93.80471383 11.2578125 95.14453125 C11.16328242 98.42945148 11.08054267 101.71470706 11 105 C2.75 105 -5.5 105 -14 105 C-13.8865625 102.5146875 -13.773125 100.029375 -13.65625 97.46875 C-12.20863878 78.97564579 -12.20863878 78.97564579 -18.62890625 62.54296875 C-20.76417226 60.51589661 -22.97932064 58.75070912 -25.32202148 56.97045898 C-31.42675839 52.27787207 -31.42675839 52.27787207 -32.09375 47.5546875 C-32.22966336 43.58934062 -31.8423586 39.87285582 -31 36 C-30 35 -30 35 -26.9375 34.9375 C-25.968125 34.958125 -24.99875 34.97875 -24 35 C-24.12375 33.3603125 -24.12375 33.3603125 -24.25 31.6875 C-24 28 -24 28 -22.375 26.0625 C-19.43969547 24.74933745 -17.18136394 24.78308882 -14 25 C-14.0825 23.80375 -14.165 22.6075 -14.25 21.375 C-14.24203965 16.87739961 -12.96954113 14.45108834 -10 11 C-6.58163714 8.37049011 -4.29412301 7.63193231 0 8 C0 5.36 0 2.72 0 0 Z " fill="#B01C19" transform="translate(60,27)"/>
<path d="M0 0 C3.56271717 1.78135858 5.617111 3.27137119 8.49316406 5.91699219 C9.37377502 6.726745 10.25438599 7.5364978 11.16168213 8.37078857 C14.64344628 11.63557074 18.1046103 14.92065784 21.53918839 18.23505783 C24.13714309 20.74109324 26.75131119 23.22159032 29.42089844 25.65136719 C48.99996413 43.51297202 48.99996413 43.51297202 49.53839111 55.08856201 C49.37912484 59.48355045 48.83520202 63.68660741 48 68 C47.78510599 69.40009809 47.57441928 70.80085243 47.36914062 72.20239258 C44.65983821 88.55683521 36.73128864 104.46891453 26 117 C25.00033203 118.21623047 25.00033203 118.21623047 23.98046875 119.45703125 C8.78765844 137.27778713 -14.53311745 149.33540754 -37.95678711 151.24047852 C-41.28349519 151.39045414 -44.60838405 151.48283835 -47.9375 151.5625 C-49.09185547 151.62501953 -50.24621094 151.68753906 -51.43554688 151.75195312 C-59.75554652 151.90947463 -59.75554652 151.90947463 -62.93823242 149.58349609 C-64.5390625 147.68359375 -64.5390625 147.68359375 -66.11987305 145.47631836 C-68.41410749 142.45457832 -71.114158 140.04241922 -73.93359375 137.53125 C-75.00672646 136.53879872 -76.07766387 135.54396882 -77.14648438 134.546875 C-78.78944658 133.01452273 -80.43830777 131.49929461 -82.13061523 130.02148438 C-83.79238564 128.56281656 -85.39439086 127.05533293 -86.99609375 125.53125 C-88.43746704 124.22510742 -88.43746704 124.22510742 -89.90795898 122.89257812 C-92 119 -92 119 -92 103 C-58.01 103 -24.02 103 11 103 C11 99.04 11 95.08 11 91 C8.03 91 5.06 91 2 91 C2 65.92 2 40.84 2 15 C4.31 15 6.62 15 9 15 C9 16.98 9 18.96 9 21 C8.34 21.33 7.68 21.66 7 22 C7 27.61 7 33.22 7 39 C12.00203081 39.09242673 12.00203081 39.09242673 17 39 C18.41774838 37.81147145 18.41774838 37.81147145 18.09765625 34.40234375 C18.0909822 32.91403133 18.07902183 31.42573568 18.0625 29.9375 C18.05798828 29.17888672 18.05347656 28.42027344 18.04882812 27.63867188 C18.0370068 25.75908129 18.01907078 23.87953101 18 22 C16.02 21.67 14.04 21.34 12 21 C11.896875 19.88625 11.79375 18.7725 11.6875 17.625 C11.460625 16.42875 11.23375 15.2325 11 14 C7.81237635 11.87491756 5.73487777 11.4979837 2 11 C1.01 5.555 1.01 5.555 0 0 Z " fill="#BCBBC0" transform="translate(144,41)"/>
<path d="M0 0 C5.28 0 10.56 0 16 0 C16 2.64 16 5.28 16 8 C22.6 8 29.2 8 36 8 C36 29.45 36 50.9 36 73 C25.605 73.495 25.605 73.495 15 74 C11.40754311 77.59245689 11.59930357 78.51078211 11.48828125 83.41796875 C11.45283203 84.67158203 11.41738281 85.92519531 11.38085938 87.21679688 C11.35830078 88.52712891 11.33574219 89.83746094 11.3125 91.1875 C11.27932334 92.52282013 11.24483334 93.85810832 11.20898438 95.19335938 C11.12638491 98.46193825 11.06151996 101.73095644 11 105 C2.75 105 -5.5 105 -14 105 C-13.8865625 102.5146875 -13.773125 100.029375 -13.65625 97.46875 C-12.20863878 78.97564579 -12.20863878 78.97564579 -18.62890625 62.54296875 C-20.76417226 60.51589661 -22.97932064 58.75070912 -25.32202148 56.97045898 C-31.42675839 52.27787207 -31.42675839 52.27787207 -32.09375 47.5546875 C-32.22966336 43.58934062 -31.8423586 39.87285582 -31 36 C-30 35 -30 35 -26.9375 34.9375 C-25.968125 34.958125 -24.99875 34.97875 -24 35 C-24.12375 33.3603125 -24.12375 33.3603125 -24.25 31.6875 C-24 28 -24 28 -22.375 26.0625 C-19.43969547 24.74933745 -17.18136394 24.78308882 -14 25 C-14.0825 23.80375 -14.165 22.6075 -14.25 21.375 C-14.24203965 16.87739961 -12.96954113 14.45108834 -10 11 C-6.58163714 8.37049011 -4.29412301 7.63193231 0 8 C0 5.36 0 2.72 0 0 Z " fill="#E60924" transform="translate(60,27)"/>
<path d="M0 0 C0.98291016 0.00966797 1.96582031 0.01933594 2.97851562 0.02929688 C4.00267578 0.05443359 5.02683594 0.07957031 6.08203125 0.10546875 C7.63567383 0.12577148 7.63567383 0.12577148 9.22070312 0.14648438 C11.77916824 0.18185486 14.33658905 0.23121331 16.89453125 0.29296875 C16.89453125 1.94296875 16.89453125 3.59296875 16.89453125 5.29296875 C10.62453125 5.29296875 4.35453125 5.29296875 -2.10546875 5.29296875 C-2.10546875 6.94296875 -2.10546875 8.59296875 -2.10546875 10.29296875 C4.16453125 10.29296875 10.43453125 10.29296875 16.89453125 10.29296875 C16.89453125 11.28296875 16.89453125 12.27296875 16.89453125 13.29296875 C10.62453125 13.29296875 4.35453125 13.29296875 -2.10546875 13.29296875 C-2.10546875 14.94296875 -2.10546875 16.59296875 -2.10546875 18.29296875 C4.16453125 18.29296875 10.43453125 18.29296875 16.89453125 18.29296875 C16.89453125 19.61296875 16.89453125 20.93296875 16.89453125 22.29296875 C10.62453125 22.29296875 4.35453125 22.29296875 -2.10546875 22.29296875 C-2.10546875 23.94296875 -2.10546875 25.59296875 -2.10546875 27.29296875 C4.16453125 27.29296875 10.43453125 27.29296875 16.89453125 27.29296875 C16.89453125 28.61296875 16.89453125 29.93296875 16.89453125 31.29296875 C36.36453125 31.29296875 55.83453125 31.29296875 75.89453125 31.29296875 C75.89453125 35.25296875 75.89453125 39.21296875 75.89453125 43.29296875 C36.95453125 43.29296875 -1.98546875 43.29296875 -42.10546875 43.29296875 C-41.77546875 39.33296875 -41.44546875 35.37296875 -41.10546875 31.29296875 C-30.21546875 31.29296875 -19.32546875 31.29296875 -8.10546875 31.29296875 C-8.2240654 22.2129872 -8.2240654 22.2129872 -8.37573242 13.13354492 C-8.3832251 12.00408447 -8.39071777 10.87462402 -8.3984375 9.7109375 C-8.41414795 8.55360107 -8.4298584 7.39626465 -8.44604492 6.20385742 C-8.10546875 3.29296875 -8.10546875 3.29296875 -6.90625 1.41015625 C-4.48659937 -0.09097191 -2.83770679 -0.04920879 0 0 Z " fill="#FEFEFE" transform="translate(79.10546875,100.70703125)"/>
<path d="M0 0 C11.55 0 23.1 0 35 0 C35 12.54 35 25.08 35 38 C23.45 38 11.9 38 0 38 C0 25.46 0 12.92 0 0 Z " fill="#E7E7E8" transform="translate(99,52)"/>
<path d="M0 0 C11.55 0 23.1 0 35 0 C35 12.54 35 25.08 35 38 C23.45 38 11.9 38 0 38 C0 25.46 0 12.92 0 0 Z " fill="#FEFEFE" transform="translate(58,52)"/>
<path d="M0 0 C3.60401481 -0.08701039 7.20776012 -0.14039388 10.8125 -0.1875 C11.83666016 -0.21263672 12.86082031 -0.23777344 13.91601562 -0.26367188 C15.39038086 -0.27817383 15.39038086 -0.27817383 16.89453125 -0.29296875 C18.25348511 -0.31653442 18.25348511 -0.31653442 19.63989258 -0.34057617 C22 0 22 0 23.80078125 1.1171875 C25.57463868 3.90220145 25.33746882 6.13979669 25.29296875 9.41796875 C25.2784668 11.29838867 25.2784668 11.29838867 25.26367188 13.21679688 C25.23853516 14.52712891 25.21339844 15.83746094 25.1875 17.1875 C25.17244967 18.52277163 25.15876187 19.85805937 25.14648438 21.19335938 C25.11107947 24.46241252 25.05727194 27.73125683 25 31 C16.75 31 8.5 31 0 31 C0 29.68 0 28.36 0 27 C-6.27 27 -12.54 27 -19 27 C-19 25.35 -19 23.7 -19 22 C-12.73 22 -6.46 22 0 22 C0 20.68 0 19.36 0 18 C-6.27 18 -12.54 18 -19 18 C-19 16.35 -19 14.7 -19 13 C-12.73 13 -6.46 13 0 13 C0 12.01 0 11.02 0 10 C-6.27 10 -12.54 10 -19 10 C-19 8.35 -19 6.7 -19 5 C-12.73 5 -6.46 5 0 5 C0 3.35 0 1.7 0 0 Z " fill="#C0B3B8" transform="translate(96,101)"/>
<path d="M0 0 C19.47 0 38.94 0 59 0 C59 3.96 59 7.92 59 12 C39.53 12 20.06 12 0 12 C0 8.04 0 4.08 0 0 Z " fill="#E7E8E9" transform="translate(96,132)"/>
<path d="M0 0 C0 14.19 0 28.38 0 43 C-2.31 41.02 -4.62 39.04 -7 37 C-7.94746094 36.27039063 -8.89492188 35.54078125 -9.87109375 34.7890625 C-14.05311177 31.26267287 -17.12206861 28.42719401 -17.671875 22.83203125 C-17.78965463 18.83463505 -17.5480364 14.96015869 -17 11 C-16 10 -16 10 -12.9375 9.9375 C-11.4834375 9.9684375 -11.4834375 9.9684375 -10 10 C-10.12375 8.3603125 -10.12375 8.3603125 -10.25 6.6875 C-10 3 -10 3 -8.375 1.0625 C-6 0 -6 0 0 0 Z " fill="#BBBDC2" transform="translate(46,52)"/>
<path d="M0 0 C0.98291016 0.00966797 1.96582031 0.01933594 2.97851562 0.02929688 C4.00267578 0.05443359 5.02683594 0.07957031 6.08203125 0.10546875 C7.11779297 0.11900391 8.15355469 0.13253906 9.22070312 0.14648438 C11.77916824 0.18185486 14.33658905 0.23121331 16.89453125 0.29296875 C16.89453125 1.94296875 16.89453125 3.59296875 16.89453125 5.29296875 C10.62453125 5.29296875 4.35453125 5.29296875 -2.10546875 5.29296875 C-2.10546875 6.94296875 -2.10546875 8.59296875 -2.10546875 10.29296875 C4.16453125 10.29296875 10.43453125 10.29296875 16.89453125 10.29296875 C16.89453125 11.28296875 16.89453125 12.27296875 16.89453125 13.29296875 C10.62453125 13.29296875 4.35453125 13.29296875 -2.10546875 13.29296875 C-2.10546875 14.94296875 -2.10546875 16.59296875 -2.10546875 18.29296875 C4.16453125 18.29296875 10.43453125 18.29296875 16.89453125 18.29296875 C16.89453125 19.61296875 16.89453125 20.93296875 16.89453125 22.29296875 C10.62453125 22.29296875 4.35453125 22.29296875 -2.10546875 22.29296875 C-2.10546875 23.94296875 -2.10546875 25.59296875 -2.10546875 27.29296875 C4.16453125 27.29296875 10.43453125 27.29296875 16.89453125 27.29296875 C16.89453125 28.61296875 16.89453125 29.93296875 16.89453125 31.29296875 C8.64453125 31.29296875 0.39453125 31.29296875 -8.10546875 31.29296875 C-8.17438128 27.35984976 -8.23409782 23.4282706 -8.27026367 19.49487305 C-8.29275208 17.49969174 -8.33087073 15.50470662 -8.36914062 13.50976562 C-8.37880859 12.25615234 -8.38847656 11.00253906 -8.3984375 9.7109375 C-8.41414795 8.55360107 -8.4298584 7.39626465 -8.44604492 6.20385742 C-8.10546875 3.29296875 -8.10546875 3.29296875 -6.90625 1.41015625 C-4.48659937 -0.09097191 -2.83770679 -0.04920879 0 0 Z " fill="#E7E8E9" transform="translate(79.10546875,100.70703125)"/>
<path d="M0 0 C6.6 0 13.2 0 20 0 C20.04125 2.59875 20.0825 5.1975 20.125 7.875 C20.14320801 8.69210449 20.16141602 9.50920898 20.18017578 10.35107422 C20.19477217 12.23495049 20.09943482 14.11869312 20 16 C17.44051001 18.55948999 15.72792805 18.26068731 12.234375 18.2734375 C11.49703125 18.26570313 10.7596875 18.25796875 10 18.25 C9.26265625 18.25773437 8.5253125 18.26546875 7.765625 18.2734375 C2.2533196 18.2533196 2.2533196 18.2533196 0 16 C-0.14551875 13.24678525 -0.18622113 10.62236578 -0.125 7.875 C-0.08375 5.27625 -0.0425 2.6775 0 0 Z " fill="#39393B" transform="translate(120,144)"/>
<path d="M0 0 C6.6 0 13.2 0 20 0 C20.04125 2.59875 20.0825 5.1975 20.125 7.875 C20.14320801 8.69210449 20.16141602 9.50920898 20.18017578 10.35107422 C20.19477217 12.23495049 20.09943482 14.11869312 20 16 C17.44051001 18.55948999 15.72792805 18.26068731 12.234375 18.2734375 C11.49703125 18.26570313 10.7596875 18.25796875 10 18.25 C9.26265625 18.25773437 8.5253125 18.26546875 7.765625 18.2734375 C2.2533196 18.2533196 2.2533196 18.2533196 0 16 C-0.14551875 13.24678525 -0.18622113 10.62236578 -0.125 7.875 C-0.08375 5.27625 -0.0425 2.6775 0 0 Z " fill="#6A686F" transform="translate(52,144)"/>
<path d="M0 0 C1.50046875 0.00386719 1.50046875 0.00386719 3.03125 0.0078125 C4.0315625 0.00523438 5.031875 0.00265625 6.0625 0 C8.53125 0.1328125 8.53125 0.1328125 9.53125 1.1328125 C9.65783222 3.79103907 9.71645214 6.41168674 9.71875 9.0703125 C9.73099609 9.81216797 9.74324219 10.55402344 9.75585938 11.31835938 C9.76113478 13.25794879 9.65313902 15.1970496 9.53125 17.1328125 C7.53125 19.1328125 7.53125 19.1328125 5.18359375 19.36328125 C4.28769531 19.34910156 3.39179688 19.33492187 2.46875 19.3203125 C1.57027344 19.31386719 0.67179688 19.30742188 -0.25390625 19.30078125 C-2.46875 19.1328125 -2.46875 19.1328125 -3.46875 18.1328125 C-3.56861975 15.28946202 -3.60752881 12.47584087 -3.59375 9.6328125 C-3.59761719 8.83488281 -3.60148438 8.03695312 -3.60546875 7.21484375 C-3.59354766 0.19332377 -3.59354766 0.19332377 0 0 Z " fill="#AF1C19" transform="translate(153.46875,61.8671875)"/>
<path d="M0 0 C1.50046875 0.00386719 1.50046875 0.00386719 3.03125 0.0078125 C4.0315625 0.00523438 5.031875 0.00265625 6.0625 0 C8.53125 0.1328125 8.53125 0.1328125 9.53125 1.1328125 C9.63111975 3.97616298 9.67002881 6.78978413 9.65625 9.6328125 C9.66011719 10.43074219 9.66398437 11.22867188 9.66796875 12.05078125 C9.65785767 18.00620483 9.65785767 18.00620483 8.53125 19.1328125 C6.88894636 19.2573611 5.24072724 19.30849774 3.59375 19.3203125 C2.69785156 19.33449219 1.80195312 19.34867188 0.87890625 19.36328125 C-1.46875 19.1328125 -1.46875 19.1328125 -3.46875 17.1328125 C-3.64045903 14.40584027 -3.7012068 11.79374782 -3.65625 9.0703125 C-3.65560547 8.32458984 -3.65496094 7.57886719 -3.65429688 6.81054688 C-3.60020806 0.19368208 -3.60020806 0.19368208 0 0 Z " fill="#E50823" transform="translate(32.46875,61.8671875)"/>
<path d="M0 0 C12.54 0 25.08 0 38 0 C38 1.32 38 2.64 38 4 C25.46 4 12.92 4 0 4 C0 2.68 0 1.36 0 0 Z " fill="#AF1815" transform="translate(77,123)"/>
<path d="M0 0 C12.54 0 25.08 0 38 0 C38 1.32 38 2.64 38 4 C25.46 4 12.92 4 0 4 C0 2.68 0 1.36 0 0 Z " fill="#AF1916" transform="translate(77,115)"/>
<path d="M0 0 C12.54 0 25.08 0 38 0 C38 1.32 38 2.64 38 4 C25.46 4 12.92 4 0 4 C0 2.68 0 1.36 0 0 Z " fill="#DC182A" transform="translate(77,107)"/>
<path d="M0 0 C3.18136394 -0.21691118 5.43969547 -0.25066255 8.375 1.0625 C10.78794727 3.93947559 10.2734643 6.37659799 10 10 C9.01 10 8.02 10 7 10 C7 8.02 7 6.04 7 4 C4.69 4 2.38 4 0 4 C0 29.08 0 54.16 0 80 C-8.25 80 -16.5 80 -25 80 C-25 79.67 -25 79.34 -25 79 C-17.08 79 -9.16 79 -1 79 C-1.00523682 76.71344482 -1.01047363 74.42688965 -1.01586914 72.07104492 C-1.03242554 64.52334398 -1.04347947 56.97564225 -1.05181217 49.42792797 C-1.05703478 44.85094939 -1.06412118 40.27398938 -1.07543945 35.69702148 C-1.08629038 31.28150054 -1.09228154 26.86599749 -1.09487724 22.45046425 C-1.0967275 20.7643334 -1.10034049 19.07820355 -1.10573006 17.39208031 C-1.11296972 15.03374476 -1.1139897 12.67548351 -1.11352539 10.31713867 C-1.11712067 9.61726837 -1.12071594 8.91739807 -1.12442017 8.19631958 C-1.11797142 5.17710127 -0.96351769 2.89055308 0 0 Z " fill="#B55857" transform="translate(146,52)"/>
<path d="M0 0 C5.28 0 10.56 0 16 0 C16 2.64 16 5.28 16 8 C10.72 8 5.44 8 0 8 C0 5.36 0 2.72 0 0 Z " fill="#F9AA2B" transform="translate(116,27)"/>
<path d="M0 0 C5.28 0 10.56 0 16 0 C16 2.64 16 5.28 16 8 C10.72 8 5.44 8 0 8 C0 5.36 0 2.72 0 0 Z " fill="#FBC832" transform="translate(60,27)"/>
<path d="M0 0 C3.63 0 7.26 0 11 0 C11 3.63 11 7.26 11 11 C7.37 11 3.74 11 0 11 C0 7.37 0 3.74 0 0 Z " fill="#FAA61E" transform="translate(126,111)"/>
<path d="M0 0 C3.63 0 7.26 0 11 0 C11 3.63 11 7.26 11 11 C7.37 11 3.74 11 0 11 C0 7.37 0 3.74 0 0 Z " fill="#FDD747" transform="translate(55,111)"/>
<path d="M0 0 C4.62 0 9.24 0 14 0 C14 4.62 14 9.24 14 14 C9.10565787 9.90473413 4.29279666 5.73642915 0 1 C0 0.67 0 0.34 0 0 Z " fill="#BAB9BE" transform="translate(38,144)"/>
<path d="M0 0 C-0.165 0.66 -0.33 1.32 -0.5 2 C-1.12183299 5.73099794 -1.06408926 9.21873378 -1 13 C-1.33 13 -1.66 13 -2 13 C-2.33 17.62 -2.66 22.24 -3 27 C-3.33 27 -3.66 27 -4 27 C-4.33 21.72 -4.66 16.44 -5 11 C-6.65 10.67 -8.3 10.34 -10 10 C-10.48468708 3.57789614 -10.48468708 3.57789614 -8.375 1.0625 C-5.43969547 -0.25066255 -3.18136394 -0.21691118 0 0 Z " fill="#BEB0B6" transform="translate(46,52)"/>
<path d="M0 0 C4.95 0 9.9 0 15 0 C15 1.98 15 3.96 15 6 C10.05 6 5.1 6 0 6 C0 4.02 0 2.04 0 0 Z " fill="#FEF8D7" transform="translate(98,28)"/>
<path d="M0 0 C4.95 0 9.9 0 15 0 C15 1.98 15 3.96 15 6 C10.05 6 5.1 6 0 6 C0 4.02 0 2.04 0 0 Z " fill="#FEFEFE" transform="translate(79,28)"/>
<path d="M0 0 C6.27 0 12.54 0 19 0 C19 1.32 19 2.64 19 4 C12.73 4 6.46 4 0 4 C0 2.68 0 1.36 0 0 Z " fill="#E5011C" transform="translate(77,123)"/>
<path d="M0 0 C6.27 0 12.54 0 19 0 C19 1.32 19 2.64 19 4 C12.73 4 6.46 4 0 4 C0 2.68 0 1.36 0 0 Z " fill="#E5041D" transform="translate(77,115)"/>
<path d="M0 0 C6.27 0 12.54 0 19 0 C19 0.99 19 1.98 19 3 C12.73 3 6.46 3 0 3 C0 2.01 0 1.02 0 0 Z " fill="#AE110D" transform="translate(96,107)"/>
<path d="M0 0 C0 1.98 0 3.96 0 6 C-0.99 6.495 -0.99 6.495 -2 7 C-2.31241455 9.71446979 -2.51336592 12.33909361 -2.625 15.0625 C-2.66367188 15.82111328 -2.70234375 16.57972656 -2.7421875 17.36132812 C-2.83673562 19.24047195 -2.91946756 21.12020336 -3 23 C-3.33 23 -3.66 23 -4 23 C-4 18.05 -4 13.1 -4 8 C-4.66 8 -5.32 8 -6 8 C-6 5.69 -6 3.38 -6 1 C-1.125 0 -1.125 0 0 0 Z " fill="#BBB1B5" transform="translate(153,56)"/>
<path d="M0 0 C0 1.32 0 2.64 0 4 C-2.31 4 -4.62 4 -7 4 C-7 5.98 -7 7.96 -7 10 C-7.99 10 -8.98 10 -10 10 C-10.48468708 3.57789614 -10.48468708 3.57789614 -8.375 1.0625 C-5.43969547 -0.25066255 -3.18136394 -0.21691118 0 0 Z " fill="#736971" transform="translate(46,52)"/>
<path d="M0 0 C3.18136394 -0.21691118 5.43969547 -0.25066255 8.375 1.0625 C10.78794727 3.93947559 10.2734643 6.37659799 10 10 C9.01 10 8.02 10 7 10 C6.67 8.02 6.34 6.04 6 4 C3.03 3.505 3.03 3.505 0 3 C0 2.01 0 1.02 0 0 Z " fill="#434143" transform="translate(146,52)"/>
<path d="M0 0 C0.99 0.66 1.98 1.32 3 2 C3 3.65 3 5.3 3 7 C-3.93 7 -10.86 7 -18 7 C-18 5.02 -18 3.04 -18 1 C-17.01 1.495 -17.01 1.495 -16 2 C-16 3.32 -16 4.64 -16 6 C-10.72 6 -5.44 6 0 6 C0 4.02 0 2.04 0 0 Z " fill="#D5B5AA" transform="translate(113,28)"/>
<path d="M0 0 C1.12894876 0.93274109 2.25300876 1.87140122 3.375 2.8125 C4.00148437 3.33457031 4.62796875 3.85664063 5.2734375 4.39453125 C7 6 7 6 9 9 C4.545 8.01 4.545 8.01 0 7 C0 4.69 0 2.38 0 0 Z " fill="#BEB7BE" transform="translate(132,28)"/>
<path d="M0 0 C1.98 0 3.96 0 6 0 C6 1.32 6 2.64 6 4 C4.02 4 2.04 4 0 4 C0 2.68 0 1.36 0 0 Z " fill="#7D7D83" transform="translate(40,52)"/>
<path d="M0 0 C-1.52708963 3.43595166 -3.59927045 6.11912454 -6 9 C-5.38983051 3.50847458 -5.38983051 3.50847458 -3.5625 1.125 C-2 0 -2 0 0 0 Z " fill="#E51C30" transform="translate(53,37)"/>
<path d="M0 0 C1.485 0.99 1.485 0.99 3 2 C3.1875 4.625 3.1875 4.625 3 7 C2.01 7 1.02 7 0 7 C0 4.69 0 2.38 0 0 Z " fill="#BEB7BB" transform="translate(113,28)"/>
<path d="M0 0 C1.485 0.99 1.485 0.99 3 2 C3.1875 4.625 3.1875 4.625 3 7 C2.01 7 1.02 7 0 7 C0 4.69 0 2.38 0 0 Z " fill="#BEB8BE" transform="translate(76,28)"/>
</svg>
