<?xml version="1.0" encoding="UTF-8"?>
<!DOCTYPE svg PUBLIC "-//W3C//DTD SVG 1.1//EN" "http://www.w3.org/Graphics/SVG/1.1/DTD/svg11.dtd">
<svg xmlns="http://www.w3.org/2000/svg" version="1.1" width="192px" height="192px" style="shape-rendering:geometricPrecision; text-rendering:geometricPrecision; image-rendering:optimizeQuality; fill-rule:evenodd; clip-rule:evenodd" xmlns:xlink="http://www.w3.org/1999/xlink">
<g><path style="opacity:0.978" fill="#fde471" d="M 83.5,-0.5 C 91.5,-0.5 99.5,-0.5 107.5,-0.5C 154.5,8.5 182.5,36.5 191.5,83.5C 191.5,87.5 191.5,91.5 191.5,95.5C 174.426,78.7575 157.426,62.0908 140.5,45.5C 129.248,30.7063 114.248,23.0396 95.5,22.5C 67.4753,24.014 49.642,38.3474 42,65.5C 39.0548,88.5225 46.5548,107.189 64.5,121.5C 64.0618,121.435 63.7284,121.601 63.5,122C 68.381,126.054 73.0476,130.221 77.5,134.5C 83.2459,145.66 89.2459,156.66 95.5,167.5C 95.8333,167.5 96.1667,167.5 96.5,167.5C 96.3893,168.117 96.056,168.617 95.5,169C 102.369,175.702 109.036,182.535 115.5,189.5C 112.72,190.078 110.053,190.745 107.5,191.5C 99.5,191.5 91.5,191.5 83.5,191.5C 36.5,182.5 8.5,154.5 -0.5,107.5C -0.5,99.5 -0.5,91.5 -0.5,83.5C 8.5,36.5 36.5,8.5 83.5,-0.5 Z"/></g>
<g><path style="opacity:1" fill="#6a686e" d="M 95.5,22.5 C 95.5,27.8333 95.5,33.1667 95.5,38.5C 78.8872,39.3924 67.0539,47.3924 60,62.5C 53.6275,85.9225 61.4608,102.756 83.5,113C 87.4183,114.156 91.4183,114.656 95.5,114.5C 95.5,119.833 95.5,125.167 95.5,130.5C 88.2656,131.02 81.4323,129.686 75,126.5C 74.6012,126.728 74.4346,127.062 74.5,127.5C 71.5342,125.012 68.2009,123.012 64.5,121.5C 46.5548,107.189 39.0548,88.5225 42,65.5C 49.642,38.3474 67.4753,24.014 95.5,22.5 Z"/></g>
<g><path style="opacity:1" fill="#4d4c52" d="M 95.5,22.5 C 114.248,23.0396 129.248,30.7063 140.5,45.5C 155.859,73.4093 151.859,98.2427 128.5,120C 124.268,122.275 120.268,124.775 116.5,127.5C 116.565,127.062 116.399,126.728 116,126.5C 109.544,129.655 102.71,130.988 95.5,130.5C 95.5,125.167 95.5,119.833 95.5,114.5C 122.441,111.051 134.941,95.7172 133,68.5C 127.421,49.7462 114.921,39.7462 95.5,38.5C 95.5,33.1667 95.5,27.8333 95.5,22.5 Z"/></g>
<g><path style="opacity:1" fill="#fdfcfc" d="M 95.5,38.5 C 95.5,43.5 95.5,48.5 95.5,53.5C 95.5,53.8333 95.5,54.1667 95.5,54.5C 91.2762,57.9347 88.2762,62.268 86.5,67.5C 85.5197,66.0186 84.353,64.6853 83,63.5C 75.9067,72.9967 74.9067,82.9967 80,93.5C 84.1941,98.1802 89.3608,101.18 95.5,102.5C 95.5,106.5 95.5,110.5 95.5,114.5C 91.4183,114.656 87.4183,114.156 83.5,113C 61.4608,102.756 53.6275,85.9225 60,62.5C 67.0539,47.3924 78.8872,39.3924 95.5,38.5 Z"/></g>
<g><path style="opacity:1" fill="#9bfafb" d="M 95.5,38.5 C 114.921,39.7462 127.421,49.7462 133,68.5C 134.941,95.7172 122.441,111.051 95.5,114.5C 95.5,110.5 95.5,106.5 95.5,102.5C 96.1667,102.5 96.5,102.167 96.5,101.5C 107.919,98.9114 113.586,91.7448 113.5,80C 113.887,75.757 112.887,71.9236 110.5,68.5C 107.052,71.5298 104.552,70.8631 103,66.5C 102.002,61.5438 101.169,56.5438 100.5,51.5C 98.9246,52.4565 97.258,53.1231 95.5,53.5C 95.5,48.5 95.5,43.5 95.5,38.5 Z"/></g>
<g><path style="opacity:1" fill="#fc8810" d="M 96.5,101.5 C 95.6618,101.158 95.3284,100.492 95.5,99.5C 96.1667,99.5 96.5,99.1667 96.5,98.5C 101.126,96.8599 103.459,93.5265 103.5,88.5C 100.496,82.8339 97.8298,77.1672 95.5,71.5C 95.5,65.8333 95.5,60.1667 95.5,54.5C 95.5,54.1667 95.5,53.8333 95.5,53.5C 97.258,53.1231 98.9246,52.4565 100.5,51.5C 101.169,56.5438 102.002,61.5438 103,66.5C 104.552,70.8631 107.052,71.5298 110.5,68.5C 112.887,71.9236 113.887,75.757 113.5,80C 113.586,91.7448 107.919,98.9114 96.5,101.5 Z"/></g>
<g><path style="opacity:1" fill="#feca26" d="M 140.5,45.5 C 157.426,62.0908 174.426,78.7575 191.5,95.5C 191.5,99.8333 191.5,104.167 191.5,108.5C 183.192,151.433 157.859,178.433 115.5,189.5C 109.036,182.535 102.369,175.702 95.5,169C 96.056,168.617 96.3893,168.117 96.5,167.5C 103.167,154.167 109.833,140.833 116.5,127.5C 120.268,124.775 124.268,122.275 128.5,120C 151.859,98.2427 155.859,73.4093 140.5,45.5 Z"/></g>
<g><path style="opacity:1" fill="#feaa2b" d="M 95.5,54.5 C 95.5,60.1667 95.5,65.8333 95.5,71.5C 95.5,72.1667 95.5,72.8333 95.5,73.5C 87.8116,79.3941 85.9783,86.7274 90,95.5C 91.7742,96.965 93.6075,98.2983 95.5,99.5C 95.3284,100.492 95.6618,101.158 96.5,101.5C 96.5,102.167 96.1667,102.5 95.5,102.5C 89.3608,101.18 84.1941,98.1802 80,93.5C 74.9067,82.9967 75.9067,72.9967 83,63.5C 84.353,64.6853 85.5197,66.0186 86.5,67.5C 88.2762,62.268 91.2762,57.9347 95.5,54.5 Z"/></g>
<g><path style="opacity:1" fill="#e6141f" d="M 95.5,73.5 C 95.1739,82.0168 95.5073,90.3501 96.5,98.5C 96.5,99.1667 96.1667,99.5 95.5,99.5C 93.6075,98.2983 91.7742,96.965 90,95.5C 85.9783,86.7274 87.8116,79.3941 95.5,73.5 Z"/></g>
<g><path style="opacity:1" fill="#c30b19" d="M 95.5,71.5 C 97.8298,77.1672 100.496,82.8339 103.5,88.5C 103.459,93.5265 101.126,96.8599 96.5,98.5C 95.5073,90.3501 95.1739,82.0168 95.5,73.5C 95.5,72.8333 95.5,72.1667 95.5,71.5 Z"/></g>
<g><path style="opacity:1" fill="#f0c42d" d="M 64.5,121.5 C 68.2009,123.012 71.5342,125.012 74.5,127.5C 75.7729,129.713 76.7729,132.046 77.5,134.5C 73.0476,130.221 68.381,126.054 63.5,122C 63.7284,121.601 64.0618,121.435 64.5,121.5 Z"/></g>
<g><path style="opacity:1" fill="#4d4b52" d="M 95.5,130.5 C 95.5,142.833 95.5,155.167 95.5,167.5C 89.2459,156.66 83.2459,145.66 77.5,134.5C 76.7729,132.046 75.7729,129.713 74.5,127.5C 74.4346,127.062 74.6012,126.728 75,126.5C 81.4323,129.686 88.2656,131.02 95.5,130.5 Z"/></g>
<g><path style="opacity:1" fill="#38383a" d="M 116.5,127.5 C 109.833,140.833 103.167,154.167 96.5,167.5C 96.1667,167.5 95.8333,167.5 95.5,167.5C 95.5,155.167 95.5,142.833 95.5,130.5C 102.71,130.988 109.544,129.655 116,126.5C 116.399,126.728 116.565,127.062 116.5,127.5 Z"/></g>
</svg>
