<?xml version="1.0" encoding="UTF-8"?>
<!DOCTYPE svg PUBLIC "-//W3C//DTD SVG 1.1//EN" "http://www.w3.org/Graphics/SVG/1.1/DTD/svg11.dtd">
<svg xmlns="http://www.w3.org/2000/svg" version="1.1" width="192px" height="192px" style="shape-rendering:geometricPrecision; text-rendering:geometricPrecision; image-rendering:optimizeQuality; fill-rule:evenodd; clip-rule:evenodd" xmlns:xlink="http://www.w3.org/1999/xlink">
<g><path style="opacity:0.979" fill="#fde471" d="M 83.5,-0.5 C 91.5,-0.5 99.5,-0.5 107.5,-0.5C 154.5,8.5 182.5,36.5 191.5,83.5C 191.5,84.8333 191.5,86.1667 191.5,87.5C 174.858,72.5247 158.858,56.858 143.5,40.5C 141.372,38.5975 139.039,36.9308 136.5,35.5C 133.491,39.8363 130.157,43.8363 126.5,47.5C 117.833,39.1667 109.167,30.8333 100.5,22.5C 98.8333,22.5 97.1667,22.5 95.5,22.5C 93.8333,22.5 92.1667,22.5 90.5,22.5C 90.1736,31.3494 90.507,40.0161 91.5,48.5C 93.4512,51.7861 95.7846,54.7861 98.5,57.5C 97.5,57.5 96.5,57.5 95.5,57.5C 89.8637,57.05 84.5303,58.05 79.5,60.5C 73.1667,53.5 66.5,46.8333 59.5,40.5C 58.0681,38.6729 56.4014,37.0063 54.5,35.5C 51.5677,36.7997 49.2344,38.7997 47.5,41.5C 52.5244,48.1851 57.5244,54.8518 62.5,61.5C 65.2128,63.2135 67.2128,65.5468 68.5,68.5C 63.1792,74.1389 59.6792,80.8055 58,88.5C 57.5001,103.83 57.3334,119.163 57.5,134.5C 53.8333,134.5 50.1667,134.5 46.5,134.5C 46.5,141.833 46.5,149.167 46.5,156.5C 62.8333,156.5 79.1667,156.5 95.5,156.5C 111.833,156.5 128.167,156.5 144.5,156.5C 112.336,157.332 80.0026,157.832 47.5,158C 58.3688,168.702 69.0354,179.535 79.5,190.5C 34.4359,180.438 7.76918,152.771 -0.5,107.5C -0.5,99.5 -0.5,91.5 -0.5,83.5C 8.5,36.5 36.5,8.5 83.5,-0.5 Z"/></g>
<g><path style="opacity:1" fill="#fe990f" d="M 95.5,22.5 C 95.5,31.1667 95.5,39.8333 95.5,48.5C 94.1667,48.5 92.8333,48.5 91.5,48.5C 90.507,40.0161 90.1736,31.3494 90.5,22.5C 92.1667,22.5 93.8333,22.5 95.5,22.5 Z"/></g>
<g><path style="opacity:1" fill="#e57409" d="M 95.5,22.5 C 97.1667,22.5 98.8333,22.5 100.5,22.5C 100.5,31.1667 100.5,39.8333 100.5,48.5C 98.8333,48.5 97.1667,48.5 95.5,48.5C 95.5,39.8333 95.5,31.1667 95.5,22.5 Z"/></g>
<g><path style="opacity:0.999" fill="#fecb26" d="M 100.5,22.5 C 109.167,30.8333 117.833,39.1667 126.5,47.5C 124.72,50.4539 122.72,53.2872 120.5,56C 122.833,57.8333 125.167,59.6667 127.5,61.5C 133.618,55.0553 138.951,48.0553 143.5,40.5C 158.858,56.858 174.858,72.5247 191.5,87.5C 191.5,94.5 191.5,101.5 191.5,108.5C 182.171,154.496 154.504,182.163 108.5,191.5C 99.8333,191.5 91.1667,191.5 82.5,191.5C 81.791,190.596 80.791,190.263 79.5,190.5C 69.0354,179.535 58.3688,168.702 47.5,158C 80.0026,157.832 112.336,157.332 144.5,156.5C 144.5,149.167 144.5,141.833 144.5,134.5C 140.833,134.5 137.167,134.5 133.5,134.5C 133.667,119.163 133.5,103.83 133,88.5C 128.26,70.5915 116.76,60.2582 98.5,57.5C 95.7846,54.7861 93.4512,51.7861 91.5,48.5C 92.8333,48.5 94.1667,48.5 95.5,48.5C 97.1667,48.5 98.8333,48.5 100.5,48.5C 100.5,39.8333 100.5,31.1667 100.5,22.5 Z"/></g>
<g><path style="opacity:1" fill="#fe9a0f" d="M 59.5,40.5 C 62.9223,45.7693 66.589,50.936 70.5,56C 67.9493,58.1001 65.2827,59.9335 62.5,61.5C 57.5244,54.8518 52.5244,48.1851 47.5,41.5C 49.2344,38.7997 51.5677,36.7997 54.5,35.5C 56.4014,37.0063 58.0681,38.6729 59.5,40.5 Z"/></g>
<g><path style="opacity:1" fill="#e57409" d="M 143.5,40.5 C 138.951,48.0553 133.618,55.0553 127.5,61.5C 125.167,59.6667 122.833,57.8333 120.5,56C 122.72,53.2872 124.72,50.4539 126.5,47.5C 130.157,43.8363 133.491,39.8363 136.5,35.5C 139.039,36.9308 141.372,38.5975 143.5,40.5 Z"/></g>
<g><path style="opacity:1" fill="#ffca27" d="M 59.5,40.5 C 66.5,46.8333 73.1667,53.5 79.5,60.5C 75.6941,62.91 72.0275,65.5766 68.5,68.5C 67.2128,65.5468 65.2128,63.2135 62.5,61.5C 65.2827,59.9335 67.9493,58.1001 70.5,56C 66.589,50.936 62.9223,45.7693 59.5,40.5 Z"/></g>
<g><path style="opacity:1" fill="#ff4f1a" d="M 95.5,57.5 C 95.5,71.5 95.5,85.5 95.5,99.5C 88.8481,99.5757 84.0148,102.576 81,108.5C 79.5901,117.084 79.0901,125.75 79.5,134.5C 72.1667,134.5 64.8333,134.5 57.5,134.5C 57.3334,119.163 57.5001,103.83 58,88.5C 59.6792,80.8055 63.1792,74.1389 68.5,68.5C 72.0275,65.5766 75.6941,62.91 79.5,60.5C 84.5303,58.05 89.8637,57.05 95.5,57.5 Z"/></g>
<g><path style="opacity:1" fill="#ed2702" d="M 95.5,57.5 C 96.5,57.5 97.5,57.5 98.5,57.5C 116.76,60.2582 128.26,70.5915 133,88.5C 133.5,103.83 133.667,119.163 133.5,134.5C 126.167,134.5 118.833,134.5 111.5,134.5C 111.91,125.75 111.41,117.084 110,108.5C 106.701,103.097 101.868,100.097 95.5,99.5C 95.5,85.5 95.5,71.5 95.5,57.5 Z"/></g>
<g><path style="opacity:1" fill="#e6031e" d="M 95.5,99.5 C 95.5,111.167 95.5,122.833 95.5,134.5C 90.1667,134.5 84.8333,134.5 79.5,134.5C 79.0901,125.75 79.5901,117.084 81,108.5C 84.0148,102.576 88.8481,99.5757 95.5,99.5 Z"/></g>
<g><path style="opacity:1" fill="#c10219" d="M 95.5,99.5 C 101.868,100.097 106.701,103.097 110,108.5C 111.41,117.084 111.91,125.75 111.5,134.5C 106.167,134.5 100.833,134.5 95.5,134.5C 95.5,122.833 95.5,111.167 95.5,99.5 Z"/></g>
<g><path style="opacity:1" fill="#fbfafa" d="M 57.5,134.5 C 64.8333,134.5 72.1667,134.5 79.5,134.5C 84.8333,134.5 90.1667,134.5 95.5,134.5C 100.833,134.5 106.167,134.5 111.5,134.5C 118.833,134.5 126.167,134.5 133.5,134.5C 121.011,135.495 108.344,135.829 95.5,135.5C 95.5,142.5 95.5,149.5 95.5,156.5C 79.1667,156.5 62.8333,156.5 46.5,156.5C 46.5,149.167 46.5,141.833 46.5,134.5C 50.1667,134.5 53.8333,134.5 57.5,134.5 Z"/></g>
<g><path style="opacity:1" fill="#9bfcfe" d="M 133.5,134.5 C 137.167,134.5 140.833,134.5 144.5,134.5C 144.5,141.833 144.5,149.167 144.5,156.5C 128.167,156.5 111.833,156.5 95.5,156.5C 95.5,149.5 95.5,142.5 95.5,135.5C 108.344,135.829 121.011,135.495 133.5,134.5 Z"/></g>
</svg>
