<?xml version="1.0" encoding="UTF-8"?>
<!DOCTYPE svg PUBLIC "-//W3C//DTD SVG 1.1//EN" "http://www.w3.org/Graphics/SVG/1.1/DTD/svg11.dtd">
<svg xmlns="http://www.w3.org/2000/svg" version="1.1" width="192px" height="192px" style="shape-rendering:geometricPrecision; text-rendering:geometricPrecision; image-rendering:optimizeQuality; fill-rule:evenodd; clip-rule:evenodd" xmlns:xlink="http://www.w3.org/1999/xlink">
<g><path style="opacity:0.976" fill="#e6e6e7" d="M 83.5,-0.5 C 91.5,-0.5 99.5,-0.5 107.5,-0.5C 153.679,8.01165 181.345,35.345 190.5,81.5C 172.5,63.8333 154.5,46.1667 136.5,28.5C 135.008,25.6769 132.674,24.0102 129.5,23.5C 106.67,22.337 83.6703,22.1703 60.5,23C 58,24.1667 56.1667,26 55,28.5C 54.3333,73.1667 54.3333,117.833 55,162.5C 55.9959,164.66 57.4959,166.327 59.5,167.5C 66.8333,175.167 74.1667,182.833 81.5,190.5C 35.345,181.345 8.01165,153.679 -0.5,107.5C -0.5,99.5 -0.5,91.5 -0.5,83.5C 8.5,36.5 36.5,8.5 83.5,-0.5 Z"/></g>
<g><path style="opacity:1" fill="#6c6a70" d="M 129.5,23.5 C 118.167,23.5 106.833,23.5 95.5,23.5C 95.5,26.1667 95.5,28.8333 95.5,31.5C 84.1667,31.5 72.8333,31.5 61.5,31.5C 61.1682,69.6703 61.5015,107.67 62.5,145.5C 73.5,145.5 84.5,145.5 95.5,145.5C 106.5,145.5 117.5,145.5 128.5,145.5C 128.833,145.5 129.167,145.5 129.5,145.5C 118.346,146.495 107.012,146.828 95.5,146.5C 95.5,147.833 95.5,149.167 95.5,150.5C 92.2869,150.19 89.2869,150.523 86.5,151.5C 81.691,154.51 81.3576,157.844 85.5,161.5C 88.6248,162.479 91.9581,162.813 95.5,162.5C 95.5,164.167 95.5,165.833 95.5,167.5C 106.833,167.5 118.167,167.5 129.5,167.5C 106.294,168.817 82.9608,168.817 59.5,167.5C 57.4959,166.327 55.9959,164.66 55,162.5C 54.3333,117.833 54.3333,73.1667 55,28.5C 56.1667,26 58,24.1667 60.5,23C 83.6703,22.1703 106.67,22.337 129.5,23.5 Z"/></g>
<g><path style="opacity:1" fill="#4b4950" d="M 129.5,23.5 C 132.674,24.0102 135.008,25.6769 136.5,28.5C 136.667,73.1679 136.5,117.835 136,162.5C 134.841,165.493 132.675,167.16 129.5,167.5C 118.167,167.5 106.833,167.5 95.5,167.5C 95.5,165.833 95.5,164.167 95.5,162.5C 98.8499,162.665 102.183,162.498 105.5,162C 109.631,157.974 109.298,154.307 104.5,151C 101.518,150.502 98.5184,150.335 95.5,150.5C 95.5,149.167 95.5,147.833 95.5,146.5C 107.012,146.828 118.346,146.495 129.5,145.5C 129.5,107.5 129.5,69.5 129.5,31.5C 118.167,31.5 106.833,31.5 95.5,31.5C 95.5,28.8333 95.5,26.1667 95.5,23.5C 106.833,23.5 118.167,23.5 129.5,23.5 Z"/></g>
<g><path style="opacity:1" fill="#fefefe" d="M 95.5,32.5 C 95.5,51.5 95.5,70.5 95.5,89.5C 84.5066,90.4934 78.5066,96.4934 77.5,107.5C 77.3812,114.096 80.0479,119.262 85.5,123C 88.5358,125.006 91.8691,125.84 95.5,125.5C 96.5,125.5 97.5,125.5 98.5,125.5C 97.791,126.404 96.791,126.737 95.5,126.5C 95.5,132.833 95.5,139.167 95.5,145.5C 84.5,145.5 73.5,145.5 62.5,145.5C 62.5,107.833 62.5,70.1667 62.5,32.5C 73.5,32.5 84.5,32.5 95.5,32.5 Z"/></g>
<g><path style="opacity:1" fill="#bbbabf" d="M 136.5,28.5 C 154.5,46.1667 172.5,63.8333 190.5,81.5C 190.5,82.1667 190.833,82.5 191.5,82.5C 191.5,91.1667 191.5,99.8333 191.5,108.5C 182.171,154.496 154.504,182.163 108.5,191.5C 99.8333,191.5 91.1667,191.5 82.5,191.5C 82.5,190.833 82.1667,190.5 81.5,190.5C 74.1667,182.833 66.8333,175.167 59.5,167.5C 82.9608,168.817 106.294,168.817 129.5,167.5C 132.675,167.16 134.841,165.493 136,162.5C 136.5,117.835 136.667,73.1679 136.5,28.5 Z"/></g>
<g><path style="opacity:1" fill="#c9c9cb" d="M 95.5,31.5 C 95.5,31.8333 95.5,32.1667 95.5,32.5C 84.5,32.5 73.5,32.5 62.5,32.5C 62.5,70.1667 62.5,107.833 62.5,145.5C 61.5015,107.67 61.1682,69.6703 61.5,31.5C 72.8333,31.5 84.1667,31.5 95.5,31.5 Z"/></g>
<g><path style="opacity:1" fill="#fef7d6" d="M 95.5,32.5 C 106.5,32.5 117.5,32.5 128.5,32.5C 128.5,70.1667 128.5,107.833 128.5,145.5C 117.5,145.5 106.5,145.5 95.5,145.5C 95.5,139.167 95.5,132.833 95.5,126.5C 96.791,126.737 97.791,126.404 98.5,125.5C 113.208,120.218 117.041,110.551 110,96.5C 106.142,92.1541 101.308,89.8208 95.5,89.5C 95.5,70.5 95.5,51.5 95.5,32.5 Z"/></g>
<g><path style="opacity:1" fill="#c3bdab" d="M 95.5,32.5 C 95.5,32.1667 95.5,31.8333 95.5,31.5C 106.833,31.5 118.167,31.5 129.5,31.5C 129.5,69.5 129.5,107.5 129.5,145.5C 129.167,145.5 128.833,145.5 128.5,145.5C 128.5,107.833 128.5,70.1667 128.5,32.5C 117.5,32.5 106.5,32.5 95.5,32.5 Z"/></g>
<g><path style="opacity:1" fill="#17f6fc" d="M 95.5,89.5 C 95.8235,96.0221 95.4902,102.355 94.5,108.5C 91.9783,106.647 91.9783,104.647 94.5,102.5C 91.2023,95.9723 88.2023,95.9723 85.5,102.5C 87.3867,107.056 90.3867,110.722 94.5,113.5C 94.8333,114.167 95.1667,114.833 95.5,115.5C 95.5,118.833 95.5,122.167 95.5,125.5C 91.8691,125.84 88.5358,125.006 85.5,123C 80.0479,119.262 77.3812,114.096 77.5,107.5C 78.5066,96.4934 84.5066,90.4934 95.5,89.5 Z"/></g>
<g><path style="opacity:1" fill="#12d8de" d="M 95.5,89.5 C 101.308,89.8208 106.142,92.1541 110,96.5C 117.041,110.551 113.208,120.218 98.5,125.5C 97.5,125.5 96.5,125.5 95.5,125.5C 95.5,122.167 95.5,118.833 95.5,115.5C 99.3857,118.422 102.719,117.922 105.5,114C 103.688,108.919 100.688,107.753 96.5,110.5C 95.8333,109.833 95.1667,109.167 94.5,108.5C 95.4902,102.355 95.8235,96.0221 95.5,89.5 Z"/></g>
<g><path style="opacity:1" fill="#696b72" d="M 94.5,108.5 C 95.1667,109.167 95.8333,109.833 96.5,110.5C 95.5987,111.29 94.9321,112.29 94.5,113.5C 90.3867,110.722 87.3867,107.056 85.5,102.5C 88.2023,95.9723 91.2023,95.9723 94.5,102.5C 91.9783,104.647 91.9783,106.647 94.5,108.5 Z"/></g>
<g><path style="opacity:1" fill="#4e4e54" d="M 95.5,115.5 C 95.1667,114.833 94.8333,114.167 94.5,113.5C 94.9321,112.29 95.5987,111.29 96.5,110.5C 100.688,107.753 103.688,108.919 105.5,114C 102.719,117.922 99.3857,118.422 95.5,115.5 Z"/></g>
<g><path style="opacity:1" fill="#06f5fa" d="M 86.5,151.5 C 89.5,151.5 92.5,151.5 95.5,151.5C 95.5,154.833 95.5,158.167 95.5,161.5C 92.1667,161.5 88.8333,161.5 85.5,161.5C 81.3576,157.844 81.691,154.51 86.5,151.5 Z"/></g>
<g><path style="opacity:1" fill="#15ced5" d="M 86.5,151.5 C 89.2869,150.523 92.2869,150.19 95.5,150.5C 98.5184,150.335 101.518,150.502 104.5,151C 109.298,154.307 109.631,157.974 105.5,162C 102.183,162.498 98.8499,162.665 95.5,162.5C 91.9581,162.813 88.6248,162.479 85.5,161.5C 88.8333,161.5 92.1667,161.5 95.5,161.5C 95.5,158.167 95.5,154.833 95.5,151.5C 92.5,151.5 89.5,151.5 86.5,151.5 Z"/></g>
</svg>
