<?xml version="1.0" encoding="UTF-8"?>
<!DOCTYPE svg PUBLIC "-//W3C//DTD SVG 1.1//EN" "http://www.w3.org/Graphics/SVG/1.1/DTD/svg11.dtd">
<svg xmlns="http://www.w3.org/2000/svg" version="1.1" width="192px" height="192px" style="shape-rendering:geometricPrecision; text-rendering:geometricPrecision; image-rendering:optimizeQuality; fill-rule:evenodd; clip-rule:evenodd" xmlns:xlink="http://www.w3.org/1999/xlink">
<g><path style="opacity:0.98" fill="#feab1e" d="M 83.5,-0.5 C 91.5,-0.5 99.5,-0.5 107.5,-0.5C 154.5,8.5 182.5,36.5 191.5,83.5C 191.5,84.1667 191.5,84.8333 191.5,85.5C 183.833,78.1667 176.167,70.8333 168.5,63.5C 144.339,62.5024 120.006,62.169 95.5,62.5C 71.1667,62.5 46.8333,62.5 22.5,62.5C 22.5,66.5 22.5,70.5 22.5,74.5C 22.5,76.5 22.5,78.5 22.5,80.5C 22.5,82.1667 22.5,83.8333 22.5,85.5C 22.5,87.5 22.5,89.5 22.5,91.5C 22.1818,96.0323 22.5151,100.366 23.5,104.5C 25.5974,108.372 27.9308,112.039 30.5,115.5C 31.7693,119.054 33.7693,122.054 36.5,124.5C 38.0002,128.173 40.0002,131.506 42.5,134.5C 61.1667,153.5 79.8333,172.5 98.5,191.5C 93.5,191.5 88.5,191.5 83.5,191.5C 36.5,182.5 8.5,154.5 -0.5,107.5C -0.5,99.5 -0.5,91.5 -0.5,83.5C 8.5,36.5 36.5,8.5 83.5,-0.5 Z"/></g>
<g><path style="opacity:1" fill="#fed16f" d="M 95.5,62.5 C 95.5,62.8333 95.5,63.1667 95.5,63.5C 71.5,63.5 47.5,63.5 23.5,63.5C 23.5,67.1667 23.5,70.8333 23.5,74.5C 23.1667,74.5 22.8333,74.5 22.5,74.5C 22.5,70.5 22.5,66.5 22.5,62.5C 46.8333,62.5 71.1667,62.5 95.5,62.5 Z"/></g>
<g><path style="opacity:1" fill="#fee049" d="M 95.5,63.5 C 119.5,63.5 143.5,63.5 167.5,63.5C 167.5,67.1667 167.5,70.8333 167.5,74.5C 153.833,74.5 140.167,74.5 126.5,74.5C 126.5,76.5 126.5,78.5 126.5,80.5C 140.167,80.5 153.833,80.5 167.5,80.5C 167.5,82.1667 167.5,83.8333 167.5,85.5C 153.833,85.5 140.167,85.5 126.5,85.5C 126.5,87.5 126.5,89.5 126.5,91.5C 140.167,91.5 153.833,91.5 167.5,91.5C 167.5,95.5 167.5,99.5 167.5,103.5C 143.5,103.5 119.5,103.5 95.5,103.5C 95.5,100.5 95.5,97.5 95.5,94.5C 104.732,93.0532 108.232,87.7199 106,78.5C 104.52,75.1828 102.02,73.1828 98.5,72.5C 97.791,71.596 96.791,71.2627 95.5,71.5C 95.5,68.8333 95.5,66.1667 95.5,63.5 Z"/></g>
<g><path style="opacity:1" fill="#feefaa" d="M 95.5,63.5 C 95.5,66.1667 95.5,68.8333 95.5,71.5C 85.2783,73.6049 82.1117,79.6049 86,89.5C 88.2854,92.8922 91.452,94.5589 95.5,94.5C 95.5,97.5 95.5,100.5 95.5,103.5C 71.3275,103.169 47.3275,103.502 23.5,104.5C 22.5151,100.366 22.1818,96.0323 22.5,91.5C 36.5,91.5 50.5,91.5 64.5,91.5C 64.5,89.5 64.5,87.5 64.5,85.5C 50.5,85.5 36.5,85.5 22.5,85.5C 22.5,83.8333 22.5,82.1667 22.5,80.5C 36.5,80.5 50.5,80.5 64.5,80.5C 64.5,78.5 64.5,76.5 64.5,74.5C 50.8333,74.5 37.1667,74.5 23.5,74.5C 23.5,70.8333 23.5,67.1667 23.5,63.5C 47.5,63.5 71.5,63.5 95.5,63.5 Z"/></g>
<g><path style="opacity:0.996" fill="#f08a17" d="M 168.5,63.5 C 176.167,70.8333 183.833,78.1667 191.5,85.5C 191.5,93.1667 191.5,100.833 191.5,108.5C 182.171,154.496 154.504,182.163 108.5,191.5C 105.167,191.5 101.833,191.5 98.5,191.5C 79.8333,172.5 61.1667,153.5 42.5,134.5C 60.1667,134.5 77.8333,134.5 95.5,134.5C 113.503,134.667 131.503,134.5 149.5,134C 151.636,130.89 153.636,127.723 155.5,124.5C 157.42,121.661 159.087,118.661 160.5,115.5C 163.069,112.039 165.403,108.372 167.5,104.5C 168.496,91.0102 168.829,77.3435 168.5,63.5 Z"/></g>
<g><path style="opacity:1" fill="#ffd72a" d="M 22.5,74.5 C 22.8333,74.5 23.1667,74.5 23.5,74.5C 37.1667,74.5 50.8333,74.5 64.5,74.5C 64.5,76.5 64.5,78.5 64.5,80.5C 50.5,80.5 36.5,80.5 22.5,80.5C 22.5,78.5 22.5,76.5 22.5,74.5 Z"/></g>
<g><path style="opacity:1" fill="#fc4e1a" d="M 93.5,75.5 C 94.1667,75.5 94.8333,75.5 95.5,75.5C 95.5,80.5 95.5,85.5 95.5,90.5C 94.5,90.5 93.5,90.5 92.5,90.5C 87.6182,87.5938 86.4515,83.5938 89,78.5C 90.129,76.8588 91.629,75.8588 93.5,75.5 Z"/></g>
<g><path style="opacity:1" fill="#e00e20" d="M 95.5,75.5 C 103.402,76.7752 105.569,81.1086 102,88.5C 100.13,90.2189 97.9628,91.2189 95.5,91.5C 94.209,91.7373 93.209,91.404 92.5,90.5C 93.5,90.5 94.5,90.5 95.5,90.5C 95.5,85.5 95.5,80.5 95.5,75.5 Z"/></g>
<g><path style="opacity:1" fill="#6a676e" d="M 95.5,71.5 C 96.791,71.2627 97.791,71.596 98.5,72.5C 96.3364,72.7215 94.6697,73.7215 93.5,75.5C 91.629,75.8588 90.129,76.8588 89,78.5C 86.4515,83.5938 87.6182,87.5938 92.5,90.5C 93.209,91.404 94.209,91.7373 95.5,91.5C 95.5,92.5 95.5,93.5 95.5,94.5C 91.452,94.5589 88.2854,92.8922 86,89.5C 82.1117,79.6049 85.2783,73.6049 95.5,71.5 Z"/></g>
<g><path style="opacity:1" fill="#38373a" d="M 98.5,72.5 C 102.02,73.1828 104.52,75.1828 106,78.5C 108.232,87.7199 104.732,93.0532 95.5,94.5C 95.5,93.5 95.5,92.5 95.5,91.5C 97.9628,91.2189 100.13,90.2189 102,88.5C 105.569,81.1086 103.402,76.7752 95.5,75.5C 94.8333,75.5 94.1667,75.5 93.5,75.5C 94.6697,73.7215 96.3364,72.7215 98.5,72.5 Z"/></g>
<g><path style="opacity:1" fill="#f3c129" d="M 95.5,63.5 C 95.5,63.1667 95.5,62.8333 95.5,62.5C 120.006,62.169 144.339,62.5024 168.5,63.5C 168.829,77.3435 168.496,91.0102 167.5,104.5C 167.5,104.167 167.5,103.833 167.5,103.5C 167.5,99.5 167.5,95.5 167.5,91.5C 153.833,91.5 140.167,91.5 126.5,91.5C 126.5,89.5 126.5,87.5 126.5,85.5C 140.167,85.5 153.833,85.5 167.5,85.5C 167.5,83.8333 167.5,82.1667 167.5,80.5C 153.833,80.5 140.167,80.5 126.5,80.5C 126.5,78.5 126.5,76.5 126.5,74.5C 140.167,74.5 153.833,74.5 167.5,74.5C 167.5,70.8333 167.5,67.1667 167.5,63.5C 143.5,63.5 119.5,63.5 95.5,63.5 Z"/></g>
<g><path style="opacity:1" fill="#ffd82a" d="M 22.5,85.5 C 36.5,85.5 50.5,85.5 64.5,85.5C 64.5,87.5 64.5,89.5 64.5,91.5C 50.5,91.5 36.5,91.5 22.5,91.5C 22.5,89.5 22.5,87.5 22.5,85.5 Z"/></g>
<g><path style="opacity:1" fill="#fcfbfb" d="M 95.5,103.5 C 95.5,106.833 95.5,110.167 95.5,113.5C 101.69,113.177 107.69,113.51 113.5,114.5C 107.31,114.177 101.31,114.51 95.5,115.5C 89.5,115.5 83.5,115.5 77.5,115.5C 77.5,118.5 77.5,121.5 77.5,124.5C 83.5,124.5 89.5,124.5 95.5,124.5C 95.5,127.833 95.5,131.167 95.5,134.5C 77.8333,134.5 60.1667,134.5 42.5,134.5C 40.0002,131.506 38.0002,128.173 36.5,124.5C 44.5,124.5 52.5,124.5 60.5,124.5C 60.5,121.5 60.5,118.5 60.5,115.5C 50.5,115.5 40.5,115.5 30.5,115.5C 27.9308,112.039 25.5974,108.372 23.5,104.5C 47.3275,103.502 71.3275,103.169 95.5,103.5 Z"/></g>
<g><path style="opacity:1" fill="#e5e4e5" d="M 95.5,103.5 C 119.5,103.5 143.5,103.5 167.5,103.5C 167.5,103.833 167.5,104.167 167.5,104.5C 165.403,108.372 163.069,112.039 160.5,115.5C 150.5,115.5 140.5,115.5 130.5,115.5C 130.5,118.5 130.5,121.5 130.5,124.5C 138.833,124.5 147.167,124.5 155.5,124.5C 153.636,127.723 151.636,130.89 149.5,134C 131.503,134.5 113.503,134.667 95.5,134.5C 95.5,131.167 95.5,127.833 95.5,124.5C 101.167,124.5 106.833,124.5 112.5,124.5C 113.479,121.375 113.813,118.042 113.5,114.5C 107.69,113.51 101.69,113.177 95.5,113.5C 95.5,110.167 95.5,106.833 95.5,103.5 Z"/></g>
<g><path style="opacity:1" fill="#8a8a8c" d="M 95.5,115.5 C 101.31,114.51 107.31,114.177 113.5,114.5C 113.813,118.042 113.479,121.375 112.5,124.5C 112.5,121.5 112.5,118.5 112.5,115.5C 106.833,115.5 101.167,115.5 95.5,115.5 Z"/></g>
<g><path style="opacity:1" fill="#69676e" d="M 30.5,115.5 C 40.5,115.5 50.5,115.5 60.5,115.5C 60.5,118.5 60.5,121.5 60.5,124.5C 52.5,124.5 44.5,124.5 36.5,124.5C 33.7693,122.054 31.7693,119.054 30.5,115.5 Z"/></g>
<g><path style="opacity:1" fill="#6a686f" d="M 95.5,115.5 C 95.5,118.5 95.5,121.5 95.5,124.5C 89.5,124.5 83.5,124.5 77.5,124.5C 77.5,121.5 77.5,118.5 77.5,115.5C 83.5,115.5 89.5,115.5 95.5,115.5 Z"/></g>
<g><path style="opacity:1" fill="#373739" d="M 95.5,115.5 C 101.167,115.5 106.833,115.5 112.5,115.5C 112.5,118.5 112.5,121.5 112.5,124.5C 106.833,124.5 101.167,124.5 95.5,124.5C 95.5,121.5 95.5,118.5 95.5,115.5 Z"/></g>
<g><path style="opacity:1" fill="#373739" d="M 160.5,115.5 C 159.087,118.661 157.42,121.661 155.5,124.5C 147.167,124.5 138.833,124.5 130.5,124.5C 130.5,121.5 130.5,118.5 130.5,115.5C 140.5,115.5 150.5,115.5 160.5,115.5 Z"/></g>
</svg>
