<?xml version="1.0" encoding="UTF-8"?>
<!DOCTYPE svg PUBLIC "-//W3C//DTD SVG 1.1//EN" "http://www.w3.org/Graphics/SVG/1.1/DTD/svg11.dtd">
<svg xmlns="http://www.w3.org/2000/svg" version="1.1" width="192px" height="192px" style="shape-rendering:geometricPrecision; text-rendering:geometricPrecision; image-rendering:optimizeQuality; fill-rule:evenodd; clip-rule:evenodd" xmlns:xlink="http://www.w3.org/1999/xlink">
<g><path style="opacity:0.981" fill="#e5021e" d="M 83.5,-0.5 C 91.5,-0.5 99.5,-0.5 107.5,-0.5C 150.844,7.51343 178.178,32.8468 189.5,75.5C 180.5,66.8333 171.5,58.1667 162.5,49.5C 140.34,48.5026 118.006,48.1692 95.5,48.5C 73.1667,48.5 50.8333,48.5 28.5,48.5C 28.1771,54.69 28.5104,60.69 29.5,66.5C 41.2187,79.2199 53.5521,91.2199 66.5,102.5C 66.2865,104.144 66.6198,105.644 67.5,107C 74.0479,111.721 80.7146,116.221 87.5,120.5C 87.5,125.833 87.5,131.167 87.5,136.5C 79.5,136.5 71.5,136.5 63.5,136.5C 63.1936,139.385 63.5269,142.052 64.5,144.5C 64.5,145.167 64.8333,145.5 65.5,145.5C 79.4165,159.917 93.5831,174.251 108,188.5C 108.464,189.094 108.631,189.761 108.5,190.5C 107.833,190.5 107.5,190.833 107.5,191.5C 99.5,191.5 91.5,191.5 83.5,191.5C 36.5,182.5 8.5,154.5 -0.5,107.5C -0.5,99.5 -0.5,91.5 -0.5,83.5C 8.5,36.5 36.5,8.5 83.5,-0.5 Z"/></g>
<g><path style="opacity:1" fill="#f2a4ac" d="M 95.5,48.5 C 95.5,48.8333 95.5,49.1667 95.5,49.5C 73.5,49.5 51.5,49.5 29.5,49.5C 29.5,55.1667 29.5,60.8333 29.5,66.5C 28.5104,60.69 28.1771,54.69 28.5,48.5C 50.8333,48.5 73.1667,48.5 95.5,48.5 Z"/></g>
<g><path style="opacity:1" fill="#f4b289" d="M 95.5,49.5 C 95.5,49.1667 95.5,48.8333 95.5,48.5C 118.006,48.1692 140.34,48.5026 162.5,49.5C 162.5,55.1667 162.5,60.8333 162.5,66.5C 149.833,66.5 137.167,66.5 124.5,66.5C 136.655,65.5048 148.989,65.1714 161.5,65.5C 161.5,60.1667 161.5,54.8333 161.5,49.5C 139.5,49.5 117.5,49.5 95.5,49.5 Z"/></g>
<g><path style="opacity:1" fill="#fdfdfd" d="M 95.5,49.5 C 95.5,55.1667 95.5,60.8333 95.5,66.5C 85.8333,66.5 76.1667,66.5 66.5,66.5C 54.1667,66.5 41.8333,66.5 29.5,66.5C 29.5,60.8333 29.5,55.1667 29.5,49.5C 51.5,49.5 73.5,49.5 95.5,49.5 Z"/></g>
<g><path style="opacity:1" fill="#fef1ab" d="M 95.5,49.5 C 117.5,49.5 139.5,49.5 161.5,49.5C 161.5,54.8333 161.5,60.1667 161.5,65.5C 148.989,65.1714 136.655,65.5048 124.5,66.5C 114.833,66.5 105.167,66.5 95.5,66.5C 95.5,60.8333 95.5,55.1667 95.5,49.5 Z"/></g>
<g><path style="opacity:1" fill="#af1815" d="M 162.5,49.5 C 171.5,58.1667 180.5,66.8333 189.5,75.5C 190.065,77.9521 190.732,80.2854 191.5,82.5C 191.5,91.1667 191.5,99.8333 191.5,108.5C 182.41,154.59 154.743,181.923 108.5,190.5C 108.631,189.761 108.464,189.094 108,188.5C 93.5831,174.251 79.4165,159.917 65.5,145.5C 86.1667,145.5 106.833,145.5 127.5,145.5C 127.81,142.287 127.477,139.287 126.5,136.5C 118.833,136.5 111.167,136.5 103.5,136.5C 103.5,131.5 103.5,126.5 103.5,121.5C 110.151,116.363 116.984,111.363 124,106.5C 124.5,93.1708 124.667,79.8375 124.5,66.5C 137.167,66.5 149.833,66.5 162.5,66.5C 162.5,60.8333 162.5,55.1667 162.5,49.5 Z"/></g>
<g><path style="opacity:1" fill="#14f3f9" d="M 66.5,66.5 C 76.1667,66.5 85.8333,66.5 95.5,66.5C 95.5,86.1667 95.5,105.833 95.5,125.5C 92.5251,124.345 89.8584,122.678 87.5,120.5C 80.7146,116.221 74.0479,111.721 67.5,107C 66.6198,105.644 66.2865,104.144 66.5,102.5C 66.5,90.5 66.5,78.5 66.5,66.5 Z"/></g>
<g><path style="opacity:1" fill="#10d5dc" d="M 95.5,66.5 C 105.167,66.5 114.833,66.5 124.5,66.5C 124.667,79.8375 124.5,93.1708 124,106.5C 116.984,111.363 110.151,116.363 103.5,121.5C 100.833,122.833 98.1667,124.167 95.5,125.5C 95.5,105.833 95.5,86.1667 95.5,66.5 Z"/></g>
<g><path style="opacity:1" fill="#af1815" d="M 29.5,66.5 C 41.8333,66.5 54.1667,66.5 66.5,66.5C 66.5,78.5 66.5,90.5 66.5,102.5C 53.5521,91.2199 41.2187,79.2199 29.5,66.5 Z"/></g>
<g><path style="opacity:1" fill="#fbf1f1" d="M 87.5,120.5 C 89.8584,122.678 92.5251,124.345 95.5,125.5C 95.5,129.167 95.5,132.833 95.5,136.5C 92.8333,136.5 90.1667,136.5 87.5,136.5C 87.5,131.167 87.5,125.833 87.5,120.5 Z"/></g>
<g><path style="opacity:1" fill="#faeca9" d="M 103.5,121.5 C 103.5,126.5 103.5,131.5 103.5,136.5C 100.833,136.5 98.1667,136.5 95.5,136.5C 95.5,132.833 95.5,129.167 95.5,125.5C 98.1667,124.167 100.833,122.833 103.5,121.5 Z"/></g>
<g><path style="opacity:1" fill="#22f2f7" d="M 87.5,136.5 C 90.1667,136.5 92.8333,136.5 95.5,136.5C 95.5,139.167 95.5,141.833 95.5,144.5C 85.1667,144.5 74.8333,144.5 64.5,144.5C 63.5269,142.052 63.1936,139.385 63.5,136.5C 71.5,136.5 79.5,136.5 87.5,136.5 Z"/></g>
<g><path style="opacity:1" fill="#01d9e0" d="M 95.5,136.5 C 98.1667,136.5 100.833,136.5 103.5,136.5C 111.167,136.5 118.833,136.5 126.5,136.5C 126.5,139.167 126.5,141.833 126.5,144.5C 116.167,144.5 105.833,144.5 95.5,144.5C 95.5,141.833 95.5,139.167 95.5,136.5 Z"/></g>
<g><path style="opacity:1" fill="#578082" d="M 126.5,136.5 C 127.477,139.287 127.81,142.287 127.5,145.5C 106.833,145.5 86.1667,145.5 65.5,145.5C 64.8333,145.5 64.5,145.167 64.5,144.5C 74.8333,144.5 85.1667,144.5 95.5,144.5C 105.833,144.5 116.167,144.5 126.5,144.5C 126.5,141.833 126.5,139.167 126.5,136.5 Z"/></g>
</svg>
