<?xml version="1.0" encoding="UTF-8"?>
<!DOCTYPE svg PUBLIC "-//W3C//DTD SVG 1.1//EN" "http://www.w3.org/Graphics/SVG/1.1/DTD/svg11.dtd">
<svg xmlns="http://www.w3.org/2000/svg" version="1.1" width="192px" height="192px" style="shape-rendering:geometricPrecision; text-rendering:geometricPrecision; image-rendering:optimizeQuality; fill-rule:evenodd; clip-rule:evenodd" xmlns:xlink="http://www.w3.org/1999/xlink">
<g><path style="opacity:0.978" fill="#e5021e" d="M 83.5,-0.5 C 91.5,-0.5 99.5,-0.5 107.5,-0.5C 154.5,8.5 182.5,36.5 191.5,83.5C 191.5,87.1667 191.5,90.8333 191.5,94.5C 185.167,88.5 178.833,82.5 172.5,76.5C 170.5,76.5 168.5,76.5 166.5,76.5C 166.818,70.1486 163.818,66.4819 157.5,65.5C 157.801,60.9521 155.801,57.7854 151.5,56C 141.167,55.3333 130.833,55.3333 120.5,56C 117.921,57.0757 116.254,58.909 115.5,61.5C 114.566,62.5676 114.232,63.901 114.5,65.5C 86.6616,65.1687 58.995,65.5021 31.5,66.5C 27.0214,67.775 24.688,70.775 24.5,75.5C 24.5,75.8333 24.5,76.1667 24.5,76.5C 22.5,76.5 20.5,76.5 18.5,76.5C 17.8833,82.5982 18.55,88.2649 20.5,93.5C 27.7765,102.113 35.4432,110.447 43.5,118.5C 42.5,119.167 41.5,119.833 40.5,120.5C 36.1667,120.5 31.8333,120.5 27.5,120.5C 27.185,124.371 27.5184,128.038 28.5,131.5C 48.1667,151.5 67.8333,171.5 87.5,191.5C 86.1667,191.5 84.8333,191.5 83.5,191.5C 36.5,182.5 8.5,154.5 -0.5,107.5C -0.5,99.5 -0.5,91.5 -0.5,83.5C 8.5,36.5 36.5,8.5 83.5,-0.5 Z"/></g>
<g><path style="opacity:1" fill="#21d2d9" d="M 157.5,65.5 C 143.5,65.5 129.5,65.5 115.5,65.5C 115.5,64.1667 115.5,62.8333 115.5,61.5C 116.254,58.909 117.921,57.0757 120.5,56C 130.833,55.3333 141.167,55.3333 151.5,56C 155.801,57.7854 157.801,60.9521 157.5,65.5 Z"/></g>
<g><path style="opacity:1" fill="#fefefe" d="M 31.5,66.5 C 52.8333,66.5 74.1667,66.5 95.5,66.5C 95.5,69.5 95.5,72.5 95.5,75.5C 71.8333,75.5 48.1667,75.5 24.5,75.5C 24.688,70.775 27.0214,67.775 31.5,66.5 Z"/></g>
<g><path style="opacity:1" fill="#e0e2e3" d="M 115.5,61.5 C 115.5,62.8333 115.5,64.1667 115.5,65.5C 129.5,65.5 143.5,65.5 157.5,65.5C 163.818,66.4819 166.818,70.1486 166.5,76.5C 142.833,76.5 119.167,76.5 95.5,76.5C 71.8333,76.5 48.1667,76.5 24.5,76.5C 24.5,76.1667 24.5,75.8333 24.5,75.5C 48.1667,75.5 71.8333,75.5 95.5,75.5C 95.5,72.5 95.5,69.5 95.5,66.5C 74.1667,66.5 52.8333,66.5 31.5,66.5C 58.995,65.5021 86.6616,65.1687 114.5,65.5C 114.232,63.901 114.566,62.5676 115.5,61.5 Z"/></g>
<g><path style="opacity:1" fill="#1af4f9" d="M 24.5,76.5 C 48.1667,76.5 71.8333,76.5 95.5,76.5C 95.5,81.5 95.5,86.5 95.5,91.5C 106.014,91.1724 116.347,91.5058 126.5,92.5C 105.327,92.1694 84.3267,92.5027 63.5,93.5C 56.5,93.5 49.5,93.5 42.5,93.5C 35.1667,93.5 27.8333,93.5 20.5,93.5C 18.55,88.2649 17.8833,82.5982 18.5,76.5C 20.5,76.5 22.5,76.5 24.5,76.5 Z"/></g>
<g><path style="opacity:1" fill="#19d5dc" d="M 95.5,76.5 C 119.167,76.5 142.833,76.5 166.5,76.5C 168.5,76.5 170.5,76.5 172.5,76.5C 172.5,82.1667 172.5,87.8333 172.5,93.5C 164.167,93.5 155.833,93.5 147.5,93.5C 140.412,93.7955 133.412,93.4621 126.5,92.5C 116.347,91.5058 106.014,91.1724 95.5,91.5C 95.5,86.5 95.5,81.5 95.5,76.5 Z"/></g>
<g><path style="opacity:1" fill="#af1916" d="M 172.5,76.5 C 178.833,82.5 185.167,88.5 191.5,94.5C 191.5,99.1667 191.5,103.833 191.5,108.5C 182.171,154.496 154.504,182.163 108.5,191.5C 101.5,191.5 94.5,191.5 87.5,191.5C 67.8333,171.5 48.1667,151.5 28.5,131.5C 33.8333,131.5 39.1667,131.5 44.5,131.5C 45.3277,138.161 48.9943,140.661 55.5,139C 58.3974,137.285 59.7307,134.785 59.5,131.5C 83.5,131.5 107.5,131.5 131.5,131.5C 132.534,139.021 136.534,141.188 143.5,138C 145.451,136.266 146.451,134.099 146.5,131.5C 151.833,131.5 157.167,131.5 162.5,131.5C 163.483,127.702 163.817,123.702 163.5,119.5C 159.167,119.5 154.833,119.5 150.5,119.5C 149.167,119.5 147.833,119.5 146.5,119.5C 134.112,114.928 121.445,110.928 108.5,107.5C 108.611,106.883 108.944,106.383 109.5,106C 122.374,102.097 135.041,97.9304 147.5,93.5C 155.833,93.5 164.167,93.5 172.5,93.5C 172.5,87.8333 172.5,82.1667 172.5,76.5 Z"/></g>
<g><path style="opacity:1" fill="#af1915" d="M 20.5,93.5 C 27.8333,93.5 35.1667,93.5 42.5,93.5C 55.6987,98.0666 69.032,102.567 82.5,107C 69.5113,110.941 56.5113,114.775 43.5,118.5C 35.4432,110.447 27.7765,102.113 20.5,93.5 Z"/></g>
<g><path style="opacity:1" fill="#b31e17" d="M 64.5,93.5 C 84.5028,93.3334 104.503,93.5 124.5,94C 114.621,97.3497 104.621,100.183 94.5,102.5C 84.2859,99.8699 74.2859,96.8699 64.5,93.5 Z"/></g>
<g><path style="opacity:1" fill="#b0aaae" d="M 63.5,93.5 C 84.3267,92.5027 105.327,92.1694 126.5,92.5C 133.412,93.4621 140.412,93.7955 147.5,93.5C 135.041,97.9304 122.374,102.097 109.5,106C 108.944,106.383 108.611,106.883 108.5,107.5C 103.748,105.821 99.0818,104.154 94.5,102.5C 104.621,100.183 114.621,97.3497 124.5,94C 104.503,93.5 84.5028,93.3334 64.5,93.5C 64.1667,93.5 63.8333,93.5 63.5,93.5 Z"/></g>
<g><path style="opacity:1" fill="#ece8e8" d="M 42.5,93.5 C 49.5,93.5 56.5,93.5 63.5,93.5C 63.8333,93.5 64.1667,93.5 64.5,93.5C 74.2859,96.8699 84.2859,99.8699 94.5,102.5C 99.0818,104.154 103.748,105.821 108.5,107.5C 121.445,110.928 134.112,114.928 146.5,119.5C 139.833,119.5 133.167,119.5 126.5,119.5C 115.987,116.607 105.487,113.607 95,110.5C 84.2355,113.368 73.7355,116.701 63.5,120.5C 55.8333,120.5 48.1667,120.5 40.5,120.5C 41.5,119.833 42.5,119.167 43.5,118.5C 56.5113,114.775 69.5113,110.941 82.5,107C 69.032,102.567 55.6987,98.0666 42.5,93.5 Z"/></g>
<g><path style="opacity:1" fill="#aa2a20" d="M 126.5,119.5 C 116.347,120.494 106.014,120.828 95.5,120.5C 84.8333,120.5 74.1667,120.5 63.5,120.5C 73.7355,116.701 84.2355,113.368 95,110.5C 105.487,113.607 115.987,116.607 126.5,119.5 Z"/></g>
<g><path style="opacity:1" fill="#0df7fc" d="M 40.5,120.5 C 48.1667,120.5 55.8333,120.5 63.5,120.5C 74.1667,120.5 84.8333,120.5 95.5,120.5C 95.5,123.833 95.5,127.167 95.5,130.5C 83.5,130.5 71.5,130.5 59.5,130.5C 57.7791,124.973 54.1124,123.14 48.5,125C 46.2663,126.638 44.933,128.805 44.5,131.5C 39.1667,131.5 33.8333,131.5 28.5,131.5C 27.5184,128.038 27.185,124.371 27.5,120.5C 31.8333,120.5 36.1667,120.5 40.5,120.5 Z"/></g>
<g><path style="opacity:1" fill="#1ed8df" d="M 126.5,119.5 C 133.167,119.5 139.833,119.5 146.5,119.5C 147.833,119.5 149.167,119.5 150.5,119.5C 154.298,120.483 158.298,120.817 162.5,120.5C 162.5,124.167 162.5,127.833 162.5,131.5C 157.167,131.5 151.833,131.5 146.5,131.5C 145.204,125.377 141.537,123.21 135.5,125C 133.077,126.571 131.744,128.737 131.5,131.5C 107.5,131.5 83.5,131.5 59.5,131.5C 59.5,131.167 59.5,130.833 59.5,130.5C 71.5,130.5 83.5,130.5 95.5,130.5C 95.5,127.167 95.5,123.833 95.5,120.5C 106.014,120.828 116.347,120.494 126.5,119.5 Z"/></g>
<g><path style="opacity:1" fill="#608081" d="M 150.5,119.5 C 154.833,119.5 159.167,119.5 163.5,119.5C 163.817,123.702 163.483,127.702 162.5,131.5C 162.5,127.833 162.5,124.167 162.5,120.5C 158.298,120.817 154.298,120.483 150.5,119.5 Z"/></g>
<g><path style="opacity:1" fill="#f9f6f6" d="M 59.5,130.5 C 59.5,130.833 59.5,131.167 59.5,131.5C 59.7307,134.785 58.3974,137.285 55.5,139C 48.9943,140.661 45.3277,138.161 44.5,131.5C 44.933,128.805 46.2663,126.638 48.5,125C 54.1124,123.14 57.7791,124.973 59.5,130.5 Z"/></g>
<g><path style="opacity:1" fill="#e6e4e5" d="M 146.5,131.5 C 146.451,134.099 145.451,136.266 143.5,138C 136.534,141.188 132.534,139.021 131.5,131.5C 131.744,128.737 133.077,126.571 135.5,125C 141.537,123.21 145.204,125.377 146.5,131.5 Z"/></g>
<g><path style="opacity:1" fill="#6e6c73" d="M 49.5,128.5 C 55.1581,127.679 56.8248,129.846 54.5,135C 49.2616,135.594 47.5949,133.427 49.5,128.5 Z"/></g>
<g><path style="opacity:1" fill="#3c3c3e" d="M 136.5,128.5 C 142.555,127.942 143.888,130.109 140.5,135C 135.57,135.427 134.237,133.26 136.5,128.5 Z"/></g>
</svg>
