<?xml version="1.0" encoding="UTF-8"?>
<!DOCTYPE svg PUBLIC "-//W3C//DTD SVG 1.1//EN" "http://www.w3.org/Graphics/SVG/1.1/DTD/svg11.dtd">
<svg xmlns="http://www.w3.org/2000/svg" version="1.1" width="192px" height="192px" style="shape-rendering:geometricPrecision; text-rendering:geometricPrecision; image-rendering:optimizeQuality; fill-rule:evenodd; clip-rule:evenodd" xmlns:xlink="http://www.w3.org/1999/xlink">
<g><path style="opacity:0.976" fill="#08f6fc" d="M 83.5,-0.5 C 91.5,-0.5 99.5,-0.5 107.5,-0.5C 154.5,8.5 182.5,36.5 191.5,83.5C 191.5,88.8333 191.5,94.1667 191.5,99.5C 180.833,89.8333 170.167,80.1667 159.5,70.5C 157.954,66.2865 154.954,63.9532 150.5,63.5C 148.437,62.6285 146.437,61.4618 144.5,60C 137.911,52.9053 130.911,46.4053 123.5,40.5C 121.658,36.4924 118.658,33.6591 114.5,32C 108.175,31.5005 101.842,31.3338 95.5,31.5C 88.825,31.3337 82.1583,31.5004 75.5,32C 67.1459,37.2258 64.1459,44.7258 66.5,54.5C 67.5,54.5 68.5,54.5 69.5,54.5C 69.5,57.5 69.5,60.5 69.5,63.5C 58.0645,63.0441 46.7312,63.5441 35.5,65C 33.9512,66.214 32.7845,67.714 32,69.5C 31.5002,78.1603 31.3336,86.8269 31.5,95.5C 34.1667,95.5 36.8333,95.5 39.5,95.5C 39.1705,111.009 39.5038,126.342 40.5,141.5C 41.6936,145.363 44.027,148.363 47.5,150.5C 47.369,151.239 47.5357,151.906 48,152.5C 61.0353,165.368 73.8686,178.368 86.5,191.5C 85.5,191.5 84.5,191.5 83.5,191.5C 36.5,182.5 8.5,154.5 -0.5,107.5C -0.5,99.5 -0.5,91.5 -0.5,83.5C 8.5,36.5 36.5,8.5 83.5,-0.5 Z"/></g>
<g><path style="opacity:1" fill="#f83246" d="M 95.5,31.5 C 95.5,35.8333 95.5,40.1667 95.5,44.5C 100.695,44.1795 105.695,44.5128 110.5,45.5C 100.5,45.5 90.5,45.5 80.5,45.5C 81.0545,49.0122 80.3878,52.0122 78.5,54.5C 75.5,54.5 72.5,54.5 69.5,54.5C 68.5,54.5 67.5,54.5 66.5,54.5C 64.1459,44.7258 67.1459,37.2258 75.5,32C 82.1583,31.5004 88.825,31.3337 95.5,31.5 Z"/></g>
<g><path style="opacity:1" fill="#e7041e" d="M 95.5,31.5 C 101.842,31.3338 108.175,31.5005 114.5,32C 118.658,33.6591 121.658,36.4924 123.5,40.5C 124.383,45.1031 124.717,49.7697 124.5,54.5C 123.5,54.5 122.5,54.5 121.5,54.5C 118.5,54.5 115.5,54.5 112.5,54.5C 110.612,52.0122 109.945,49.0122 110.5,45.5C 105.695,44.5128 100.695,44.1795 95.5,44.5C 95.5,40.1667 95.5,35.8333 95.5,31.5 Z"/></g>
<g><path style="opacity:1" fill="#1ed3db" d="M 123.5,40.5 C 130.911,46.4053 137.911,52.9053 144.5,60C 146.437,61.4618 148.437,62.6285 150.5,63.5C 140.833,63.5 131.167,63.5 121.5,63.5C 121.5,60.5 121.5,57.5 121.5,54.5C 122.5,54.5 123.5,54.5 124.5,54.5C 124.717,49.7697 124.383,45.1031 123.5,40.5 Z"/></g>
<g><path style="opacity:1" fill="#18d4db" d="M 110.5,45.5 C 109.945,49.0122 110.612,52.0122 112.5,54.5C 112.5,57.5 112.5,60.5 112.5,63.5C 106.833,63.5 101.167,63.5 95.5,63.5C 89.8333,63.5 84.1667,63.5 78.5,63.5C 78.5,60.5 78.5,57.5 78.5,54.5C 80.3878,52.0122 81.0545,49.0122 80.5,45.5C 90.5,45.5 100.5,45.5 110.5,45.5 Z"/></g>
<g><path style="opacity:1" fill="#fdf9fa" d="M 69.5,54.5 C 72.5,54.5 75.5,54.5 78.5,54.5C 78.5,57.5 78.5,60.5 78.5,63.5C 75.5,63.5 72.5,63.5 69.5,63.5C 69.5,60.5 69.5,57.5 69.5,54.5 Z"/></g>
<g><path style="opacity:1" fill="#fef3d4" d="M 112.5,54.5 C 115.5,54.5 118.5,54.5 121.5,54.5C 121.5,57.5 121.5,60.5 121.5,63.5C 118.5,63.5 115.5,63.5 112.5,63.5C 112.5,60.5 112.5,57.5 112.5,54.5 Z"/></g>
<g><path style="opacity:1" fill="#fc2d45" d="M 69.5,63.5 C 72.5,63.5 75.5,63.5 78.5,63.5C 84.1667,63.5 89.8333,63.5 95.5,63.5C 95.5,71.1667 95.5,78.8333 95.5,86.5C 100.032,86.1818 104.366,86.5151 108.5,87.5C 104.167,87.5 99.8333,87.5 95.5,87.5C 90.8215,87.3342 86.1548,87.5008 81.5,88C 81,88.5 80.5,89 80,89.5C 79.5017,92.8168 79.335,96.1501 79.5,99.5C 78.5655,98.4324 78.2322,97.099 78.5,95.5C 65.8333,95.5 53.1667,95.5 40.5,95.5C 40.5,110.833 40.5,126.167 40.5,141.5C 39.5038,126.342 39.1705,111.009 39.5,95.5C 36.8333,95.5 34.1667,95.5 31.5,95.5C 31.3336,86.8269 31.5002,78.1603 32,69.5C 32.7845,67.714 33.9512,66.214 35.5,65C 46.7312,63.5441 58.0645,63.0441 69.5,63.5 Z"/></g>
<g><path style="opacity:1" fill="#e6021e" d="M 95.5,63.5 C 101.167,63.5 106.833,63.5 112.5,63.5C 115.5,63.5 118.5,63.5 121.5,63.5C 131.167,63.5 140.833,63.5 150.5,63.5C 154.954,63.9532 157.954,66.2865 159.5,70.5C 159.5,78.8333 159.5,87.1667 159.5,95.5C 156.833,95.5 154.167,95.5 151.5,95.5C 138.167,95.5 124.833,95.5 111.5,95.5C 112.172,92.0581 111.172,89.3914 108.5,87.5C 104.366,86.5151 100.032,86.1818 95.5,86.5C 95.5,78.8333 95.5,71.1667 95.5,63.5 Z"/></g>
<g><path style="opacity:1" fill="#08d7de" d="M 159.5,70.5 C 170.167,80.1667 180.833,89.8333 191.5,99.5C 191.5,102.5 191.5,105.5 191.5,108.5C 182.171,154.496 154.504,182.163 108.5,191.5C 101.167,191.5 93.8333,191.5 86.5,191.5C 73.8686,178.368 61.0353,165.368 48,152.5C 47.5357,151.906 47.369,151.239 47.5,150.5C 63.4225,151.484 79.4225,151.817 95.5,151.5C 110.837,151.667 126.17,151.5 141.5,151C 146.307,149.526 149.474,146.36 151,141.5C 151.5,126.17 151.667,110.837 151.5,95.5C 154.167,95.5 156.833,95.5 159.5,95.5C 159.5,87.1667 159.5,78.8333 159.5,70.5 Z"/></g>
<g><path style="opacity:1" fill="#fefefe" d="M 95.5,87.5 C 95.5,92.5 95.5,97.5 95.5,102.5C 93.5,102.5 91.5,102.5 89.5,102.5C 86.8127,102.664 84.146,102.497 81.5,102C 80.6195,101.292 79.9528,100.458 79.5,99.5C 79.335,96.1501 79.5017,92.8168 80,89.5C 80.5,89 81,88.5 81.5,88C 86.1548,87.5008 90.8215,87.3342 95.5,87.5 Z"/></g>
<g><path style="opacity:1" fill="#fef7d7" d="M 95.5,87.5 C 99.8333,87.5 104.167,87.5 108.5,87.5C 111.172,89.3914 112.172,92.0581 111.5,95.5C 111.896,98.0444 111.229,100.211 109.5,102C 106.854,102.497 104.187,102.664 101.5,102.5C 99.5,102.5 97.5,102.5 95.5,102.5C 95.5,97.5 95.5,92.5 95.5,87.5 Z"/></g>
<g><path style="opacity:1" fill="#e6041f" d="M 79.5,99.5 C 79.9528,100.458 80.6195,101.292 81.5,102C 84.146,102.497 86.8127,102.664 89.5,102.5C 89.5,106.167 89.5,109.833 89.5,113.5C 91.5,113.5 93.5,113.5 95.5,113.5C 95.5,126.167 95.5,138.833 95.5,151.5C 79.4225,151.817 63.4225,151.484 47.5,150.5C 44.027,148.363 41.6936,145.363 40.5,141.5C 40.5,126.167 40.5,110.833 40.5,95.5C 53.1667,95.5 65.8333,95.5 78.5,95.5C 78.2322,97.099 78.5655,98.4324 79.5,99.5 Z"/></g>
<g><path style="opacity:1" fill="#af1a16" d="M 111.5,95.5 C 124.833,95.5 138.167,95.5 151.5,95.5C 151.667,110.837 151.5,126.17 151,141.5C 149.474,146.36 146.307,149.526 141.5,151C 126.17,151.5 110.837,151.667 95.5,151.5C 95.5,138.833 95.5,126.167 95.5,113.5C 97.5,113.5 99.5,113.5 101.5,113.5C 101.5,110.167 101.5,106.833 101.5,103.5C 101.5,103.167 101.5,102.833 101.5,102.5C 104.187,102.664 106.854,102.497 109.5,102C 111.229,100.211 111.896,98.0444 111.5,95.5 Z"/></g>
<g><path style="opacity:1" fill="#fff2ac" d="M 89.5,102.5 C 91.5,102.5 93.5,102.5 95.5,102.5C 97.5,102.5 99.5,102.5 101.5,102.5C 101.5,102.833 101.5,103.167 101.5,103.5C 99.5,103.5 97.5,103.5 95.5,103.5C 95.5,106.833 95.5,110.167 95.5,113.5C 93.5,113.5 91.5,113.5 89.5,113.5C 89.5,109.833 89.5,106.167 89.5,102.5 Z"/></g>
<g><path style="opacity:1" fill="#fee873" d="M 101.5,103.5 C 101.5,106.833 101.5,110.167 101.5,113.5C 99.5,113.5 97.5,113.5 95.5,113.5C 95.5,110.167 95.5,106.833 95.5,103.5C 97.5,103.5 99.5,103.5 101.5,103.5 Z"/></g>
</svg>
