<?xml version="1.0" encoding="UTF-8"?>
<!DOCTYPE svg PUBLIC "-//W3C//DTD SVG 1.1//EN" "http://www.w3.org/Graphics/SVG/1.1/DTD/svg11.dtd">
<svg xmlns="http://www.w3.org/2000/svg" version="1.1" width="192px" height="192px" style="shape-rendering:geometricPrecision; text-rendering:geometricPrecision; image-rendering:optimizeQuality; fill-rule:evenodd; clip-rule:evenodd" xmlns:xlink="http://www.w3.org/1999/xlink">
<g><path style="opacity:0.979" fill="#e5041f" d="M 83.5,-0.5 C 91.5,-0.5 99.5,-0.5 107.5,-0.5C 154.5,8.5 182.5,36.5 191.5,83.5C 191.5,86.8333 191.5,90.1667 191.5,93.5C 190.761,93.631 190.094,93.4643 189.5,93C 175.632,78.9648 161.632,65.1314 147.5,51.5C 147.167,50.5 146.5,49.8333 145.5,49.5C 140.472,44.1405 135.472,38.8071 130.5,33.5C 114.727,29.8051 103.227,35.1384 96,49.5C 94.2274,55.1106 94.0607,60.7772 95.5,66.5C 94.9047,68.7615 93.5714,70.4281 91.5,71.5C 82.8333,63.1667 74.1667,54.8333 65.5,46.5C 61.238,43.0256 56.5713,40.0256 51.5,37.5C 49.812,38.5213 48.4787,39.8546 47.5,41.5C 46.3569,41.9081 45.3569,42.5748 44.5,43.5C 47.1127,49.0819 50.446,54.0819 54.5,58.5C 62.8397,66.8403 70.8397,75.5069 78.5,84.5C 64.5352,98.9652 50.3685,113.299 36,127.5C 33.1897,133.547 34.6897,138.214 40.5,141.5C 41.8333,143.5 43.5,145.167 45.5,146.5C 59.4648,160.965 73.6315,175.299 88,189.5C 88.4643,190.094 88.631,190.761 88.5,191.5C 86.8333,191.5 85.1667,191.5 83.5,191.5C 36.5,182.5 8.5,154.5 -0.5,107.5C -0.5,99.5 -0.5,91.5 -0.5,83.5C 8.5,36.5 36.5,8.5 83.5,-0.5 Z"/></g>
<g><path style="opacity:1" fill="#fcfcfc" d="M 130.5,33.5 C 126.6,38.9076 122.1,43.9076 117,48.5C 116.749,53.5007 116.916,58.5007 117.5,63.5C 112.106,67.8918 107.439,72.8918 103.5,78.5C 102.833,78.5 102.167,78.5 101.5,78.5C 101.074,76.0425 99.7406,74.8758 97.5,75C 79,93.5 60.5,112 42,130.5C 41.2615,132.881 41.7615,134.881 43.5,136.5C 43.5,136.833 43.5,137.167 43.5,137.5C 41.7376,138.262 40.7376,139.596 40.5,141.5C 34.6897,138.214 33.1897,133.547 36,127.5C 50.3685,113.299 64.5352,98.9652 78.5,84.5C 80.1667,83.5 81.5,82.1667 82.5,80.5C 84.2726,79.6857 84.7726,78.3524 84,76.5C 72.2471,64.2438 60.0804,52.5772 47.5,41.5C 48.4787,39.8546 49.812,38.5213 51.5,37.5C 56.5713,40.0256 61.238,43.0256 65.5,46.5C 66.4279,49.4535 67.2612,52.4535 68,55.5C 74.1667,61.6667 80.3333,67.8333 86.5,74C 88.9278,74.747 90.5944,73.9137 91.5,71.5C 93.5714,70.4281 94.9047,68.7615 95.5,66.5C 94.0607,60.7772 94.2274,55.1106 96,49.5C 103.227,35.1384 114.727,29.8051 130.5,33.5 Z"/></g>
<g><path style="opacity:1" fill="#af1c17" d="M 130.5,33.5 C 135.472,38.8071 140.472,44.1405 145.5,49.5C 141.37,54.1312 137.037,58.6312 132.5,63C 127.511,63.4993 122.511,63.6659 117.5,63.5C 116.916,58.5007 116.749,53.5007 117,48.5C 122.1,43.9076 126.6,38.9076 130.5,33.5 Z"/></g>
<g><path style="opacity:1" fill="#e7e6e7" d="M 47.5,41.5 C 60.0804,52.5772 72.2471,64.2438 84,76.5C 84.7726,78.3524 84.2726,79.6857 82.5,80.5C 76.7028,74.2019 70.7028,68.0352 64.5,62C 61.2561,60.5301 57.9228,59.3634 54.5,58.5C 50.446,54.0819 47.1127,49.0819 44.5,43.5C 45.3569,42.5748 46.3569,41.9081 47.5,41.5 Z"/></g>
<g><path style="opacity:1" fill="#b1251d" d="M 65.5,46.5 C 74.1667,54.8333 82.8333,63.1667 91.5,71.5C 90.5944,73.9137 88.9278,74.747 86.5,74C 80.3333,67.8333 74.1667,61.6667 68,55.5C 67.2612,52.4535 66.4279,49.4535 65.5,46.5 Z"/></g>
<g><path style="opacity:1" fill="#e7e4e5" d="M 145.5,49.5 C 146.5,49.8333 147.167,50.5 147.5,51.5C 150.597,69.1376 143.597,80.6376 126.5,86C 121.783,86.4758 117.117,86.4758 112.5,86C 110.317,88.3504 107.984,90.517 105.5,92.5C 107.523,94.8528 109.523,97.1862 111.5,99.5C 110.833,100.5 110.167,101.5 109.5,102.5C 108.5,103.167 107.5,103.833 106.5,104.5C 104.823,101.637 102.49,99.8038 99.5,99C 84.5,114 69.5,129 54.5,144C 51.7935,145.908 48.7935,146.741 45.5,146.5C 43.5,145.167 41.8333,143.5 40.5,141.5C 40.7376,139.596 41.7376,138.262 43.5,137.5C 46.0556,139.745 48.7222,139.911 51.5,138C 69.6667,119.833 87.8333,101.667 106,83.5C 105.942,81.5646 105.109,79.8979 103.5,78.5C 107.439,72.8918 112.106,67.8918 117.5,63.5C 122.511,63.6659 127.511,63.4993 132.5,63C 137.037,58.6312 141.37,54.1312 145.5,49.5 Z"/></g>
<g><path style="opacity:1" fill="#af1916" d="M 147.5,51.5 C 161.632,65.1314 175.632,78.9648 189.5,93C 190.094,93.4643 190.761,93.631 191.5,93.5C 191.5,98.5 191.5,103.5 191.5,108.5C 182.171,154.496 154.504,182.163 108.5,191.5C 101.833,191.5 95.1667,191.5 88.5,191.5C 88.631,190.761 88.4643,190.094 88,189.5C 73.6315,175.299 59.4648,160.965 45.5,146.5C 48.7935,146.741 51.7935,145.908 54.5,144C 69.5,129 84.5,114 99.5,99C 102.49,99.8038 104.823,101.637 106.5,104.5C 105.521,106.145 104.188,107.479 102.5,108.5C 103.857,110.186 105.19,111.852 106.5,113.5C 104.891,114.898 104.058,116.565 104,118.5C 114.23,129.399 125.063,139.566 136.5,149C 142.565,149.801 147.231,147.634 150.5,142.5C 156.895,137.583 158.062,131.583 154,124.5C 144.333,114.833 134.667,105.167 125,95.5C 123.629,97.0414 122.129,98.3747 120.5,99.5C 119.519,97.6908 118.019,96.3574 116,95.5C 114.629,97.0414 113.129,98.3747 111.5,99.5C 109.523,97.1862 107.523,94.8528 105.5,92.5C 107.984,90.517 110.317,88.3504 112.5,86C 117.117,86.4758 121.783,86.4758 126.5,86C 143.597,80.6376 150.597,69.1376 147.5,51.5 Z"/></g>
<g><path style="opacity:1" fill="#b1241c" d="M 54.5,58.5 C 57.9228,59.3634 61.2561,60.5301 64.5,62C 70.7028,68.0352 76.7028,74.2019 82.5,80.5C 81.5,82.1667 80.1667,83.5 78.5,84.5C 70.8397,75.5069 62.8397,66.8403 54.5,58.5 Z"/></g>
<g><path style="opacity:1" fill="#0af7fd" d="M 101.5,78.5 C 82.5,98.1667 63.1667,117.5 43.5,136.5C 41.7615,134.881 41.2615,132.881 42,130.5C 60.5,112 79,93.5 97.5,75C 99.7406,74.8758 101.074,76.0425 101.5,78.5 Z"/></g>
<g><path style="opacity:1" fill="#24d9e0" d="M 101.5,78.5 C 102.167,78.5 102.833,78.5 103.5,78.5C 105.109,79.8979 105.942,81.5646 106,83.5C 87.8333,101.667 69.6667,119.833 51.5,138C 48.7222,139.911 46.0556,139.745 43.5,137.5C 43.5,137.167 43.5,136.833 43.5,136.5C 63.1667,117.5 82.5,98.1667 101.5,78.5 Z"/></g>
<g><path style="opacity:1" fill="#fead21" d="M 120.5,99.5 C 118.5,101.833 116.5,104.167 114.5,106.5C 114.167,106.5 113.833,106.5 113.5,106.5C 112.5,104.833 111.167,103.5 109.5,102.5C 110.167,101.5 110.833,100.5 111.5,99.5C 113.129,98.3747 114.629,97.0414 116,95.5C 118.019,96.3574 119.519,97.6908 120.5,99.5 Z"/></g>
<g><path style="opacity:1" fill="#fde371" d="M 150.5,142.5 C 138.167,130.833 126.167,118.833 114.5,106.5C 116.5,104.167 118.5,101.833 120.5,99.5C 122.129,98.3747 123.629,97.0414 125,95.5C 134.667,105.167 144.333,114.833 154,124.5C 158.062,131.583 156.895,137.583 150.5,142.5 Z"/></g>
<g><path style="opacity:1" fill="#f08a17" d="M 109.5,102.5 C 111.167,103.5 112.5,104.833 113.5,106.5C 111.5,109.167 109.167,111.5 106.5,113.5C 105.19,111.852 103.857,110.186 102.5,108.5C 104.188,107.479 105.521,106.145 106.5,104.5C 107.5,103.833 108.5,103.167 109.5,102.5 Z"/></g>
<g><path style="opacity:1" fill="#feca26" d="M 113.5,106.5 C 113.833,106.5 114.167,106.5 114.5,106.5C 126.167,118.833 138.167,130.833 150.5,142.5C 147.231,147.634 142.565,149.801 136.5,149C 125.063,139.566 114.23,129.399 104,118.5C 104.058,116.565 104.891,114.898 106.5,113.5C 109.167,111.5 111.5,109.167 113.5,106.5 Z"/></g>
</svg>
