<?xml version="1.0" encoding="UTF-8"?>
<!DOCTYPE svg PUBLIC "-//W3C//DTD SVG 1.1//EN" "http://www.w3.org/Graphics/SVG/1.1/DTD/svg11.dtd">
<svg xmlns="http://www.w3.org/2000/svg" version="1.1" width="192px" height="192px" style="shape-rendering:geometricPrecision; text-rendering:geometricPrecision; image-rendering:optimizeQuality; fill-rule:evenodd; clip-rule:evenodd" xmlns:xlink="http://www.w3.org/1999/xlink">
<g><path style="opacity:0.978" fill="#feab1f" d="M 83.5,-0.5 C 91.5,-0.5 99.5,-0.5 107.5,-0.5C 154.5,8.5 182.5,36.5 191.5,83.5C 191.5,87.1667 191.5,90.8333 191.5,94.5C 166.5,69.8333 141.5,45.1667 116.5,20.5C 111.5,20.5 106.5,20.5 101.5,20.5C 101.3,29.5061 100.966,38.5061 100.5,47.5C 99.0813,48.4511 97.4147,48.7845 95.5,48.5C 91.8333,48.5 88.1667,48.5 84.5,48.5C 86.2621,42.0881 83.7621,39.0881 77,39.5C 69.8559,38.4814 67.0226,41.4814 68.5,48.5C 61.8724,47.231 57.039,49.5644 54,55.5C 53.3333,88.5 53.3333,121.5 54,154.5C 54.9068,157.572 56.7401,159.905 59.5,161.5C 69.1722,171.173 78.5055,181.173 87.5,191.5C 86.1667,191.5 84.8333,191.5 83.5,191.5C 36.5,182.5 8.5,154.5 -0.5,107.5C -0.5,99.5 -0.5,91.5 -0.5,83.5C 8.5,36.5 36.5,8.5 83.5,-0.5 Z"/></g>
<g><path style="opacity:1" fill="#3a3939" d="M 116.5,20.5 C 117.347,29.4719 117.68,38.4719 117.5,47.5C 111.833,47.5 106.167,47.5 100.5,47.5C 100.966,38.5061 101.3,29.5061 101.5,20.5C 106.5,20.5 111.5,20.5 116.5,20.5 Z"/></g>
<g><path style="opacity:0.996" fill="#ee8918" d="M 116.5,20.5 C 141.5,45.1667 166.5,69.8333 191.5,94.5C 191.5,99.1667 191.5,103.833 191.5,108.5C 182.171,154.496 154.504,182.163 108.5,191.5C 101.5,191.5 94.5,191.5 87.5,191.5C 78.5055,181.173 69.1722,171.173 59.5,161.5C 71.4197,162.479 83.4197,162.812 95.5,162.5C 107.171,162.667 118.838,162.5 130.5,162C 133.756,160.413 135.923,157.913 137,154.5C 137.667,121.5 137.667,88.5 137,55.5C 135.5,52.6667 133.333,50.5 130.5,49C 126.083,48.7725 121.75,48.2725 117.5,47.5C 117.68,38.4719 117.347,29.4719 116.5,20.5 Z"/></g>
<g><path style="opacity:1" fill="#e21b23" d="M 84.5,48.5 C 79.1667,48.5 73.8333,48.5 68.5,48.5C 67.0226,41.4814 69.8559,38.4814 77,39.5C 83.7621,39.0881 86.2621,42.0881 84.5,48.5 Z"/></g>
<g><path style="opacity:1" fill="#4b4a51" d="M 100.5,47.5 C 106.167,47.5 111.833,47.5 117.5,47.5C 121.75,48.2725 126.083,48.7725 130.5,49C 133.333,50.5 135.5,52.6667 137,55.5C 137.667,88.5 137.667,121.5 137,154.5C 135.923,157.913 133.756,160.413 130.5,162C 118.838,162.5 107.171,162.667 95.5,162.5C 95.5,158.167 95.5,153.833 95.5,149.5C 90.053,149.39 85.053,147.89 80.5,145C 85.4889,144.501 90.4889,144.334 95.5,144.5C 95.5,143.167 95.5,141.833 95.5,140.5C 102.532,140.83 109.532,140.497 116.5,139.5C 117.5,138.167 118.5,136.833 119.5,135.5C 111.528,134.502 103.528,134.169 95.5,134.5C 95.5,133.167 95.5,131.833 95.5,130.5C 104.192,130.831 112.859,130.498 121.5,129.5C 122.309,127.929 122.643,126.262 122.5,124.5C 113.5,124.5 104.5,124.5 95.5,124.5C 95.5,123.167 95.5,121.833 95.5,120.5C 104.5,120.5 113.5,120.5 122.5,120.5C 122.167,118.5 121.833,116.5 121.5,114.5C 112.833,114.5 104.167,114.5 95.5,114.5C 95.5,113.167 95.5,111.833 95.5,110.5C 103.507,110.666 111.507,110.5 119.5,110C 118.624,108.414 117.624,106.914 116.5,105.5C 109.532,104.503 102.532,104.17 95.5,104.5C 95.5,103.167 95.5,101.833 95.5,100.5C 90.8215,100.666 86.1548,100.499 81.5,100C 85.6079,96.7975 90.2745,95.2975 95.5,95.5C 95.5,92.5 95.5,89.5 95.5,86.5C 105.167,86.5 114.833,86.5 124.5,86.5C 125.493,78.3501 125.826,70.0168 125.5,61.5C 115.5,61.5 105.5,61.5 95.5,61.5C 95.5,57.1667 95.5,52.8333 95.5,48.5C 97.4147,48.7845 99.0813,48.4511 100.5,47.5 Z"/></g>
<g><path style="opacity:1" fill="#69676e" d="M 68.5,48.5 C 73.8333,48.5 79.1667,48.5 84.5,48.5C 88.1667,48.5 91.8333,48.5 95.5,48.5C 95.5,52.8333 95.5,57.1667 95.5,61.5C 85.5,61.5 75.5,61.5 65.5,61.5C 65.1739,70.0168 65.5073,78.3501 66.5,86.5C 76.1667,86.5 85.8333,86.5 95.5,86.5C 95.5,89.5 95.5,92.5 95.5,95.5C 90.2745,95.2975 85.6079,96.7975 81.5,100C 86.1548,100.499 90.8215,100.666 95.5,100.5C 95.5,101.833 95.5,103.167 95.5,104.5C 88.4684,104.17 81.4684,104.503 74.5,105.5C 73.376,106.914 72.376,108.414 71.5,110C 79.4931,110.5 87.4931,110.666 95.5,110.5C 95.5,111.833 95.5,113.167 95.5,114.5C 86.8078,114.169 78.1411,114.502 69.5,115.5C 68.6906,117.071 68.3573,118.738 68.5,120.5C 77.5,120.5 86.5,120.5 95.5,120.5C 95.5,121.833 95.5,123.167 95.5,124.5C 86.5,124.5 77.5,124.5 68.5,124.5C 68.8333,126.5 69.1667,128.5 69.5,130.5C 78.1667,130.5 86.8333,130.5 95.5,130.5C 95.5,131.833 95.5,133.167 95.5,134.5C 87.4931,134.334 79.4931,134.5 71.5,135C 72.376,136.586 73.376,138.086 74.5,139.5C 81.4684,140.497 88.4684,140.83 95.5,140.5C 95.5,141.833 95.5,143.167 95.5,144.5C 90.4889,144.334 85.4889,144.501 80.5,145C 85.053,147.89 90.053,149.39 95.5,149.5C 95.5,153.833 95.5,158.167 95.5,162.5C 83.4197,162.812 71.4197,162.479 59.5,161.5C 56.7401,159.905 54.9068,157.572 54,154.5C 53.3333,121.5 53.3333,88.5 54,55.5C 57.039,49.5644 61.8724,47.231 68.5,48.5 Z"/></g>
<g><path style="opacity:1" fill="#1dc0c7" d="M 95.5,61.5 C 105.5,61.5 115.5,61.5 125.5,61.5C 125.826,70.0168 125.493,78.3501 124.5,86.5C 124.5,78.5 124.5,70.5 124.5,62.5C 114.833,62.5 105.167,62.5 95.5,62.5C 85.8333,62.5 76.1667,62.5 66.5,62.5C 66.5,70.1667 66.5,77.8333 66.5,85.5C 66.5,85.8333 66.5,86.1667 66.5,86.5C 65.5073,78.3501 65.1739,70.0168 65.5,61.5C 75.5,61.5 85.5,61.5 95.5,61.5 Z"/></g>
<g><path style="opacity:1" fill="#00f7fd" d="M 95.5,62.5 C 95.5,70.1667 95.5,77.8333 95.5,85.5C 85.8333,85.5 76.1667,85.5 66.5,85.5C 66.5,77.8333 66.5,70.1667 66.5,62.5C 76.1667,62.5 85.8333,62.5 95.5,62.5 Z"/></g>
<g><path style="opacity:1" fill="#01d8df" d="M 95.5,62.5 C 105.167,62.5 114.833,62.5 124.5,62.5C 124.5,70.5 124.5,78.5 124.5,86.5C 114.833,86.5 105.167,86.5 95.5,86.5C 85.8333,86.5 76.1667,86.5 66.5,86.5C 66.5,86.1667 66.5,85.8333 66.5,85.5C 76.1667,85.5 85.8333,85.5 95.5,85.5C 95.5,77.8333 95.5,70.1667 95.5,62.5 Z"/></g>
<g><path style="opacity:1" fill="#4d4c52" d="M 95.5,104.5 C 95.5,106.5 95.5,108.5 95.5,110.5C 87.4931,110.666 79.4931,110.5 71.5,110C 72.376,108.414 73.376,106.914 74.5,105.5C 81.4684,104.503 88.4684,104.17 95.5,104.5 Z"/></g>
<g><path style="opacity:1" fill="#38383a" d="M 95.5,104.5 C 102.532,104.17 109.532,104.503 116.5,105.5C 117.624,106.914 118.624,108.414 119.5,110C 111.507,110.5 103.507,110.666 95.5,110.5C 95.5,108.5 95.5,106.5 95.5,104.5 Z"/></g>
<g><path style="opacity:1" fill="#38383a" d="M 95.5,114.5 C 104.167,114.5 112.833,114.5 121.5,114.5C 121.833,116.5 122.167,118.5 122.5,120.5C 113.5,120.5 104.5,120.5 95.5,120.5C 95.5,118.5 95.5,116.5 95.5,114.5 Z"/></g>
<g><path style="opacity:1" fill="#4d4c52" d="M 95.5,114.5 C 95.5,116.5 95.5,118.5 95.5,120.5C 86.5,120.5 77.5,120.5 68.5,120.5C 68.3573,118.738 68.6906,117.071 69.5,115.5C 78.1411,114.502 86.8078,114.169 95.5,114.5 Z"/></g>
<g><path style="opacity:1" fill="#4e4c53" d="M 95.5,124.5 C 95.5,126.5 95.5,128.5 95.5,130.5C 86.8333,130.5 78.1667,130.5 69.5,130.5C 69.1667,128.5 68.8333,126.5 68.5,124.5C 77.5,124.5 86.5,124.5 95.5,124.5 Z"/></g>
<g><path style="opacity:1" fill="#38383a" d="M 95.5,124.5 C 104.5,124.5 113.5,124.5 122.5,124.5C 122.643,126.262 122.309,127.929 121.5,129.5C 112.859,130.498 104.192,130.831 95.5,130.5C 95.5,128.5 95.5,126.5 95.5,124.5 Z"/></g>
<g><path style="opacity:1" fill="#38383a" d="M 95.5,134.5 C 103.528,134.169 111.528,134.502 119.5,135.5C 118.5,136.833 117.5,138.167 116.5,139.5C 109.532,140.497 102.532,140.83 95.5,140.5C 95.5,138.5 95.5,136.5 95.5,134.5 Z"/></g>
<g><path style="opacity:1" fill="#4d4c52" d="M 95.5,134.5 C 95.5,136.5 95.5,138.5 95.5,140.5C 88.4684,140.83 81.4684,140.497 74.5,139.5C 73.376,138.086 72.376,136.586 71.5,135C 79.4931,134.5 87.4931,134.334 95.5,134.5 Z"/></g>
</svg>
