<?xml version="1.0" encoding="UTF-8"?>
<!DOCTYPE svg PUBLIC "-//W3C//DTD SVG 1.1//EN" "http://www.w3.org/Graphics/SVG/1.1/DTD/svg11.dtd">
<svg xmlns="http://www.w3.org/2000/svg" version="1.1" width="192px" height="192px" style="shape-rendering:geometricPrecision; text-rendering:geometricPrecision; image-rendering:optimizeQuality; fill-rule:evenodd; clip-rule:evenodd" xmlns:xlink="http://www.w3.org/1999/xlink">
<g><path style="opacity:0.979" fill="#e6031f" d="M 83.5,-0.5 C 91.5,-0.5 99.5,-0.5 107.5,-0.5C 154.5,8.5 182.5,36.5 191.5,83.5C 191.5,91.5 191.5,99.5 191.5,107.5C 190.539,109.265 190.205,111.265 190.5,113.5C 164.5,87.8333 138.5,62.1667 112.5,36.5C 107.385,28.7686 100.385,25.7686 91.5,27.5C 87.4186,28.4002 83.9186,30.4002 81,33.5C 63.3333,64.1667 45.6667,94.8333 28,125.5C 26.5528,133.75 29.0528,140.417 35.5,145.5C 50.1181,160.452 64.7847,175.452 79.5,190.5C 34.4359,180.438 7.76918,152.771 -0.5,107.5C -0.5,99.5 -0.5,91.5 -0.5,83.5C 8.5,36.5 36.5,8.5 83.5,-0.5 Z"/></g>
<g><path style="opacity:1" fill="#fce472" d="M 91.5,27.5 C 92.8333,27.5 94.1667,27.5 95.5,27.5C 95.5,30.1667 95.5,32.8333 95.5,35.5C 90.7421,36.4141 87.2421,39.0808 85,43.5C 69.9191,69.9973 54.5857,96.3306 39,122.5C 34.7083,129.585 36.2083,135.085 43.5,139C 60.8301,139.5 78.1635,139.667 95.5,139.5C 95.5,142.5 95.5,145.5 95.5,148.5C 77.1636,148.667 58.8303,148.5 40.5,148C 38.8068,147.153 37.1401,146.32 35.5,145.5C 29.0528,140.417 26.5528,133.75 28,125.5C 45.6667,94.8333 63.3333,64.1667 81,33.5C 83.9186,30.4002 87.4186,28.4002 91.5,27.5 Z"/></g>
<g><path style="opacity:1" fill="#fbc926" d="M 91.5,27.5 C 100.385,25.7686 107.385,28.7686 112.5,36.5C 128.724,65.2751 145.224,93.9417 162,122.5C 165.636,134.392 161.803,142.892 150.5,148C 132.17,148.5 113.836,148.667 95.5,148.5C 95.5,145.5 95.5,142.5 95.5,139.5C 112.837,139.667 130.17,139.5 147.5,139C 154.792,135.085 156.292,129.585 152,122.5C 136.414,96.3306 121.081,69.9973 106,43.5C 104.264,40.2608 101.764,37.9274 98.5,36.5C 97.791,35.596 96.791,35.2627 95.5,35.5C 95.5,32.8333 95.5,30.1667 95.5,27.5C 94.1667,27.5 92.8333,27.5 91.5,27.5 Z"/></g>
<g><path style="opacity:1" fill="#fbe270" d="M 95.5,40.5 C 95.5,48.5 95.5,56.5 95.5,64.5C 93.8333,64.5 92.1667,64.5 90.5,64.5C 89.5046,76.989 89.1713,89.6557 89.5,102.5C 91.5,102.5 93.5,102.5 95.5,102.5C 95.5,105.5 95.5,108.5 95.5,111.5C 93.5,111.5 91.5,111.5 89.5,111.5C 89.5,115.833 89.5,120.167 89.5,124.5C 91.5,124.5 93.5,124.5 95.5,124.5C 95.5,127.833 95.5,131.167 95.5,134.5C 112.5,134.5 129.5,134.5 146.5,134.5C 129.675,135.497 112.675,135.83 95.5,135.5C 78.4967,135.667 61.4967,135.5 44.5,135C 40.7647,131.116 40.598,126.949 44,122.5C 59.5857,96.3306 74.9191,69.9973 90,43.5C 91.2635,41.393 93.0968,40.393 95.5,40.5 Z"/></g>
<g><path style="opacity:1" fill="#fdcb26" d="M 95.5,40.5 C 96.1667,40.5 96.8333,40.5 97.5,40.5C 98.7942,41.2899 99.9609,42.2899 101,43.5C 116.414,70.6637 132.081,97.6637 148,124.5C 150.399,128.434 149.899,131.768 146.5,134.5C 129.5,134.5 112.5,134.5 95.5,134.5C 95.5,131.167 95.5,127.833 95.5,124.5C 97.5,124.5 99.5,124.5 101.5,124.5C 101.818,119.968 101.485,115.634 100.5,111.5C 98.8333,111.5 97.1667,111.5 95.5,111.5C 95.5,108.5 95.5,105.5 95.5,102.5C 97.5,102.5 99.5,102.5 101.5,102.5C 101.829,89.6557 101.495,76.989 100.5,64.5C 98.8333,64.5 97.1667,64.5 95.5,64.5C 95.5,56.5 95.5,48.5 95.5,40.5 Z"/></g>
<g><path style="opacity:1" fill="#af1a16" d="M 112.5,36.5 C 138.5,62.1667 164.5,87.8333 190.5,113.5C 179.687,156.982 152.354,182.982 108.5,191.5C 99.8333,191.5 91.1667,191.5 82.5,191.5C 81.791,190.596 80.791,190.263 79.5,190.5C 64.7847,175.452 50.1181,160.452 35.5,145.5C 37.1401,146.32 38.8068,147.153 40.5,148C 58.8303,148.5 77.1636,148.667 95.5,148.5C 113.836,148.667 132.17,148.5 150.5,148C 161.803,142.892 165.636,134.392 162,122.5C 145.224,93.9417 128.724,65.2751 112.5,36.5 Z"/></g>
<g><path style="opacity:1" fill="#6c696f" d="M 95.5,35.5 C 96.791,35.2627 97.791,35.596 98.5,36.5C 97.5,36.5 96.5,36.5 95.5,36.5C 95.5271,38.1993 96.1938,39.5326 97.5,40.5C 96.8333,40.5 96.1667,40.5 95.5,40.5C 93.0968,40.393 91.2635,41.393 90,43.5C 74.9191,69.9973 59.5857,96.3306 44,122.5C 40.598,126.949 40.7647,131.116 44.5,135C 61.4967,135.5 78.4967,135.667 95.5,135.5C 95.5,136.833 95.5,138.167 95.5,139.5C 78.1635,139.667 60.8301,139.5 43.5,139C 36.2083,135.085 34.7083,129.585 39,122.5C 54.5857,96.3306 69.9191,69.9973 85,43.5C 87.2421,39.0808 90.7421,36.4141 95.5,35.5 Z"/></g>
<g><path style="opacity:1" fill="#35363a" d="M 95.5,64.5 C 97.1667,64.5 98.8333,64.5 100.5,64.5C 100.5,76.8333 100.5,89.1667 100.5,101.5C 98.8333,101.5 97.1667,101.5 95.5,101.5C 95.5,89.1667 95.5,76.8333 95.5,64.5 Z"/></g>
<g><path style="opacity:1" fill="#a99d70" d="M 90.5,64.5 C 90.5,76.8333 90.5,89.1667 90.5,101.5C 92.1667,101.5 93.8333,101.5 95.5,101.5C 95.5,101.833 95.5,102.167 95.5,102.5C 93.5,102.5 91.5,102.5 89.5,102.5C 89.1713,89.6557 89.5046,76.989 90.5,64.5 Z"/></g>
<g><path style="opacity:1" fill="#68666e" d="M 90.5,64.5 C 92.1667,64.5 93.8333,64.5 95.5,64.5C 95.5,76.8333 95.5,89.1667 95.5,101.5C 93.8333,101.5 92.1667,101.5 90.5,101.5C 90.5,89.1667 90.5,76.8333 90.5,64.5 Z"/></g>
<g><path style="opacity:1" fill="#887334" d="M 100.5,64.5 C 101.495,76.989 101.829,89.6557 101.5,102.5C 99.5,102.5 97.5,102.5 95.5,102.5C 95.5,102.167 95.5,101.833 95.5,101.5C 97.1667,101.5 98.8333,101.5 100.5,101.5C 100.5,89.1667 100.5,76.8333 100.5,64.5 Z"/></g>
<g><path style="opacity:1" fill="#39383a" d="M 98.5,36.5 C 101.764,37.9274 104.264,40.2608 106,43.5C 121.081,69.9973 136.414,96.3306 152,122.5C 156.292,129.585 154.792,135.085 147.5,139C 130.17,139.5 112.837,139.667 95.5,139.5C 95.5,138.167 95.5,136.833 95.5,135.5C 112.675,135.83 129.675,135.497 146.5,134.5C 149.899,131.768 150.399,128.434 148,124.5C 132.081,97.6637 116.414,70.6637 101,43.5C 99.9609,42.2899 98.7942,41.2899 97.5,40.5C 96.1938,39.5326 95.5271,38.1993 95.5,36.5C 96.5,36.5 97.5,36.5 98.5,36.5 Z"/></g>
<g><path style="opacity:1" fill="#8c7b49" d="M 95.5,111.5 C 95.5,111.833 95.5,112.167 95.5,112.5C 93.8333,112.5 92.1667,112.5 90.5,112.5C 90.5,116.167 90.5,119.833 90.5,123.5C 92.1667,123.5 93.8333,123.5 95.5,123.5C 97.1667,123.5 98.8333,123.5 100.5,123.5C 100.5,119.5 100.5,115.5 100.5,111.5C 101.485,115.634 101.818,119.968 101.5,124.5C 99.5,124.5 97.5,124.5 95.5,124.5C 93.5,124.5 91.5,124.5 89.5,124.5C 89.5,120.167 89.5,115.833 89.5,111.5C 91.5,111.5 93.5,111.5 95.5,111.5 Z"/></g>
<g><path style="opacity:1" fill="#35363a" d="M 95.5,111.5 C 97.1667,111.5 98.8333,111.5 100.5,111.5C 100.5,115.5 100.5,119.5 100.5,123.5C 98.8333,123.5 97.1667,123.5 95.5,123.5C 95.5,119.833 95.5,116.167 95.5,112.5C 95.5,112.167 95.5,111.833 95.5,111.5 Z"/></g>
<g><path style="opacity:1" fill="#66656e" d="M 95.5,112.5 C 95.5,116.167 95.5,119.833 95.5,123.5C 93.8333,123.5 92.1667,123.5 90.5,123.5C 90.5,119.833 90.5,116.167 90.5,112.5C 92.1667,112.5 93.8333,112.5 95.5,112.5 Z"/></g>
</svg>
