<?xml version="1.0" encoding="UTF-8"?>
<svg version="1.1" xmlns="http://www.w3.org/2000/svg" width="192" height="192">
<path d="M0 0 C1.04986084 0.00563965 2.09972168 0.0112793 3.18139648 0.01708984 C25.80124277 0.36854042 46.06186106 8.68674694 63.25 23.3125 C64.26513672 24.10914063 64.26513672 24.10914063 65.30078125 24.921875 C82.64656743 38.9653572 93.0707303 61.58805526 96.25 83.3125 C97.82603711 111.14627057 92.84040479 136.54321647 74.25 158.3125 C73.63382813 159.06144531 73.01765625 159.81039062 72.3828125 160.58203125 C57.86207606 177.69783906 35.54061793 189.51725399 13.25 192.3125 C-15.30430245 194.39139996 -40.69695885 188.07790185 -62.75 169.3125 C-63.42675781 168.78140625 -64.10351562 168.2503125 -64.80078125 167.703125 C-81.54010812 154.15064393 -91.48789818 132.83584185 -95.359375 112.0390625 C-98.13455384 85.56385637 -93.61934257 59.33955521 -76.75 38 C-75.42387201 36.43138004 -74.09096793 34.86845277 -72.75 33.3125 C-72.22019531 32.63832031 -71.69039062 31.96414062 -71.14453125 31.26953125 C-54.35893886 10.50513178 -26.07624536 -0.14798031 0 0 Z " fill="#FEAB1F" transform="translate(95.75,-0.3125)"/>
<path d="M0 0 C4.12550869 -0.17445227 8.24955996 -0.30070887 12.37792969 -0.38452148 C13.77870116 -0.41949242 15.17922142 -0.46709032 16.57910156 -0.52807617 C29.69077219 -1.08452724 29.69077219 -1.08452724 34.40625 2.90234375 C35.64571066 4.23064514 36.84319814 5.59912285 38 7 C39.31297578 8.46155025 40.62826469 9.92102437 41.9453125 11.37890625 C42.69586914 12.22984863 43.44642578 13.08079102 44.21972656 13.95751953 C50.46432778 20.89860911 57.25652443 27.3568892 63.875 33.9375 C65.39867199 35.45614498 66.92211127 36.97502348 68.4453125 38.49414062 C71.77706848 41.81615222 75.1110092 45.13595228 78.44699097 48.45372009 C78.95948395 48.96399246 79.47197693 49.47426483 80 50 C80.55355164 50.50956238 81.10710327 51.01912476 81.6774292 51.54412842 C83.67414742 53.74209416 83.38840081 55.56832239 83.3984375 58.48828125 C83.40464111 59.58052002 83.41084473 60.67275879 83.41723633 61.7980957 C83.40329834 62.95784912 83.38936035 64.11760254 83.375 65.3125 C83.36557373 66.49352295 83.35614746 67.6745459 83.34643555 68.89135742 C82.96896168 90.73521389 75.26176498 111.29953494 61 128 C60.38382812 128.74894531 59.76765625 129.49789062 59.1328125 130.26953125 C46.06363761 145.6743619 27.77969386 155.53772866 8.3125 160.3125 C7.62373779 160.48426758 6.93497559 160.65603516 6.2253418 160.83300781 C4.15704258 161.305058 2.09450351 161.66468449 0 162 C-0.69955811 162.15726563 -1.39911621 162.31453125 -2.11987305 162.4765625 C-6.2431111 163.02946066 -8.32314564 162.48715425 -11.74047852 160.02758789 C-14.25304356 157.73435856 -16.6366741 155.40248877 -18.96850586 152.93017578 C-20.43578987 151.37681046 -21.93505573 149.86111775 -23.44335938 148.34765625 C-27.95008024 143.72831568 -30.97567937 140.20650723 -33 134 C-34.80050703 131.65619343 -34.80050703 131.65619343 -37.02734375 129.58203125 C-37.81947266 128.80279297 -38.61160156 128.02355469 -39.42773438 127.22070312 C-40.25595703 126.42599609 -41.08417969 125.63128906 -41.9375 124.8125 C-42.76185547 124.00619141 -43.58621094 123.19988281 -44.43554688 122.36914062 C-45.96545704 120.8740294 -47.49944509 119.38307124 -49.03881836 117.89770508 C-50.70880372 116.28177128 -52.35681816 114.64318184 -54 113 C-26.94 113 0.12 113 28 113 C28 110.69 28 108.38 28 106 C26.35 106 24.7 106 23 106 C22.5978125 104.5459375 22.5978125 104.5459375 22.1875 103.0625 C21.795625 102.051875 21.40375 101.04125 21 100 C19.515 99.505 19.515 99.505 18 99 C18.48792133 93.51088501 18.48792133 93.51088501 20.67578125 91.328125 C25.08047734 88.8111558 30.09080872 89.37629127 35 90 C38.07365786 91.80803404 39.43019732 92.86039464 41 96 C41.29259649 99.4308452 41.27791989 102.87062655 41.3125 106.3125 C41.35600586 107.73852539 41.35600586 107.73852539 41.40039062 109.19335938 C41.44076288 113.63741318 41.4611984 116.24401499 39.10546875 120.10546875 C35.81748161 123.06404716 33.97259141 123.12325693 29.63232422 123.11352539 C28.51131317 123.11344986 27.39030212 123.11337433 26.23532104 123.11329651 C25.02071198 123.10813522 23.80610291 123.10297394 22.5546875 123.09765625 C21.31453888 123.0962413 20.07439026 123.09482635 18.79666138 123.09336853 C15.49881867 123.08871096 12.20102454 123.07972439 8.90319824 123.06866455 C5.53833613 123.05843731 2.17346692 123.05386809 -1.19140625 123.04882812 C-7.79428993 123.03778269 -14.39714099 123.02103247 -21 123 C-21 124.65 -21 126.3 -21 128 C-13.67150482 127.93865275 -6.34335486 127.86144957 0.98475838 127.76428509 C4.38792657 127.71965423 7.79097707 127.6803827 11.19433594 127.65356445 C15.11158567 127.62245771 19.02833576 127.56767108 22.9453125 127.51171875 C24.16115021 127.50532883 25.37698792 127.4989389 26.62966919 127.49235535 C34.75571068 127.42130852 34.75571068 127.42130852 42 124 C45.94808699 118.72475481 45.48139975 112.81358282 45.4375 106.5 C45.45748047 105.48035156 45.47746094 104.46070313 45.49804688 103.41015625 C45.49418675 97.47328024 45.21400395 93.55256495 41 89 C35.41335653 84.5438746 28.7982269 85.28187744 22 86 C18.3142771 87.25099354 16.46949321 89.35242316 14.1875 92.5 C13.14488188 94.69498552 12.44095607 96.61883723 12 99 C10.68 99.33 9.36 99.66 8 100 C7.67 101.98 7.34 103.96 7 106 C-4.22 106 -15.44 106 -27 106 C-27 79.27 -27 52.54 -27 25 C-19.74 25 -12.48 25 -5 25 C-5 20.38 -5 15.76 -5 11 C-3.35 11 -1.7 11 0 11 C0 7.37 0 3.74 0 0 Z " fill="#F08A17" transform="translate(109,30)"/>
<path d="M0 0 C9.57 0 19.14 0 29 0 C29 26.73 29 53.46 29 81 C19.43 81 9.86 81 0 81 C0 54.27 0 27.54 0 0 Z " fill="#B11B16" transform="translate(82,55)"/>
<path d="M0 0 C3.07365786 1.80803404 4.43019732 2.86039464 6 6 C6.29259649 9.4308452 6.27791989 12.87062655 6.3125 16.3125 C6.35600586 17.73852539 6.35600586 17.73852539 6.40039062 19.19335938 C6.44076288 23.63741318 6.4611984 26.24401499 4.10546875 30.10546875 C0.81748161 33.06404716 -1.02740859 33.12325693 -5.36767578 33.11352539 C-6.48868683 33.11344986 -7.60969788 33.11337433 -8.76467896 33.11329651 C-9.97928802 33.10813522 -11.19389709 33.10297394 -12.4453125 33.09765625 C-13.68546112 33.0962413 -14.92560974 33.09482635 -16.20333862 33.09336853 C-19.50118133 33.08871096 -22.79897546 33.07972439 -26.09680176 33.06866455 C-29.46166387 33.05843731 -32.82653308 33.05386809 -36.19140625 33.04882812 C-42.79428993 33.03778269 -49.39714099 33.02103247 -56 33 C-56 35.31 -56 37.62 -56 40 C-56.99 40 -57.98 40 -59 40 C-59 43.3 -59 46.6 -59 50 C-61.31 50 -63.62 50 -66 50 C-66.24693604 49.10112061 -66.49387207 48.20224121 -66.74829102 47.27612305 C-68.07801807 43.79580173 -69.3792401 42.15357458 -72.02734375 39.58203125 C-72.81947266 38.80279297 -73.61160156 38.02355469 -74.42773438 37.22070312 C-75.25595703 36.42599609 -76.08417969 35.63128906 -76.9375 34.8125 C-77.76185547 34.00619141 -78.58621094 33.19988281 -79.43554688 32.36914062 C-80.96545704 30.8740294 -82.49944509 29.38307124 -84.03881836 27.89770508 C-85.70880372 26.28177128 -87.35681816 24.64318184 -89 23 C-61.94 23 -34.88 23 -7 23 C-7 20.69 -7 18.38 -7 16 C-8.65 16 -10.3 16 -12 16 C-12.4021875 14.5459375 -12.4021875 14.5459375 -12.8125 13.0625 C-13.204375 12.051875 -13.59625 11.04125 -14 10 C-14.99 9.67 -15.98 9.34 -17 9 C-16.51207867 3.51088501 -16.51207867 3.51088501 -14.32421875 1.328125 C-9.91952266 -1.1888442 -4.90919128 -0.62370873 0 0 Z " fill="#ED8B1A" transform="translate(144,120)"/>
<path d="M0 0 C5.51410316 5.51410316 6.88125643 8.96294934 6.921875 16.73632812 C6.90640625 17.75146484 6.8909375 18.76660156 6.875 19.8125 C6.89820313 21.3294043 6.89820313 21.3294043 6.921875 22.87695312 C6.88879668 29.21558688 6.35322084 33.34255064 2.375 38.375 C-3.42023432 42.52017703 -9.8639275 41.75476837 -16.6796875 41.66796875 C-17.93637238 41.66372391 -19.19305725 41.65947906 -20.48782349 41.65510559 C-23.81215735 41.64119122 -27.1358623 41.61428624 -30.46002197 41.58099365 C-33.85870966 41.55018246 -37.25746259 41.53657678 -40.65625 41.52148438 C-47.31267251 41.48845021 -53.96879998 41.43827623 -60.625 41.375 C-60.625 39.725 -60.625 38.075 -60.625 36.375 C-59.93453079 36.37357498 -59.24406158 36.37214996 -58.53266907 36.37068176 C-51.34600095 36.35099509 -44.16018335 36.29674259 -36.97387695 36.22241211 C-34.29183387 36.19643984 -31.61014307 36.18271779 -28.92797852 36.17944336 C-25.07249939 36.1701668 -21.21845998 36.12919944 -17.36328125 36.08203125 C-16.16415604 36.0859639 -14.96503082 36.08989655 -13.72956848 36.09394836 C-7.13888103 36.0290094 -7.13888103 36.0290094 -1.37036133 33.13745117 C0.44501118 30.26419059 1.01602318 28.82590774 1.0390625 25.46875 C1.04550781 24.55996094 1.05195313 23.65117187 1.05859375 22.71484375 C1.03925781 21.77769531 1.01992187 20.84054688 1 19.875 C1.02900391 18.46927734 1.02900391 18.46927734 1.05859375 17.03515625 C1.02633974 12.48734099 0.85169138 10.06374577 -1.78515625 6.25390625 C-5.05911374 4.08778032 -6.79217864 3.7287826 -10.6875 3.8125 C-11.70972656 3.81121094 -12.73195313 3.80992188 -13.78515625 3.80859375 C-17.25663544 4.50097956 -18.44699353 5.63853033 -20.625 8.375 C-21.4122678 10.5131966 -21.4122678 10.5131966 -21.625 12.375 C-20.6659375 12.5915625 -20.6659375 12.5915625 -19.6875 12.8125 C-17.625 13.375 -17.625 13.375 -16.625 14.375 C-16.58436168 16.04117115 -16.582279 17.70888095 -16.625 19.375 C-14.975 19.375 -13.325 19.375 -11.625 19.375 C-11.625 21.685 -11.625 23.995 -11.625 26.375 C-38.685 26.375 -65.745 26.375 -93.625 26.375 C-93.625 24.065 -93.625 21.755 -93.625 19.375 C-73.495 19.375 -53.365 19.375 -32.625 19.375 C-32.625 17.395 -32.625 15.415 -32.625 13.375 C-30.975 13.045 -29.325 12.715 -27.625 12.375 C-27.5321875 11.075625 -27.5321875 11.075625 -27.4375 9.75 C-26.31779054 5.09889918 -23.90732234 1.88287139 -19.88671875 -0.7734375 C-13.75807456 -3.08094084 -5.88127061 -2.63643165 0 0 Z " fill="#E7E5E3" transform="translate(148.625,116.625)"/>
<path d="M0 0 C6.93 0.495 6.93 0.495 14 1 C14 27.4 14 53.8 14 81 C9.38 81 4.76 81 0 81 C0 54.27 0 27.54 0 0 Z " fill="#E5021E" transform="translate(82,55)"/>
<path d="M0 0 C27.06 0 54.12 0 82 0 C82 2.31 82 4.62 82 7 C54.94 7 27.88 7 0 7 C0 4.69 0 2.38 0 0 Z " fill="#05DAE0" transform="translate(55,136)"/>
<path d="M0 0 C4.2181424 -0.06889888 8.43433095 -0.12861776 12.65258789 -0.16479492 C14.08722552 -0.17987589 15.52181708 -0.2003438 16.95629883 -0.22631836 C19.01915859 -0.26273437 21.08140858 -0.27973243 23.14453125 -0.29296875 C25.00621948 -0.31653442 25.00621948 -0.31653442 26.90551758 -0.34057617 C30 0 30 0 31.90136719 1.36987305 C33.42397372 3.62908278 33.43347305 5.29389136 33.4375 8 C33.45683594 8.86625 33.47617188 9.7325 33.49609375 10.625 C33 13 33 13 31.38989258 14.63012695 C28.20289463 16.45689634 25.92660778 16.34113958 22.265625 16.29296875 C20.97011719 16.28330078 19.67460937 16.27363281 18.33984375 16.26367188 C16.97655646 16.23860783 15.61327521 16.21321302 14.25 16.1875 C12.87110816 16.17244518 11.49220065 16.15875817 10.11328125 16.14648438 C6.74201936 16.11112149 3.37096014 16.05731481 0 16 C0 10.72 0 5.44 0 0 Z " fill="#4F4C51" transform="translate(109,30)"/>
<path d="M0 0 C0.66163651 0.00424484 1.32327301 0.00848969 2.00495911 0.01286316 C4.11440035 0.02963182 6.22287971 0.06727776 8.33203125 0.10546875 C9.76365806 0.12051807 11.19529987 0.13420605 12.62695312 0.14648438 C16.13347952 0.17697591 19.63793119 0.23569216 23.14453125 0.29296875 C23.63953125 8.21296875 23.63953125 8.21296875 24.14453125 16.29296875 C19.94421158 16.38494655 15.74740052 16.46452415 11.546875 16.51269531 C10.11902004 16.53277857 8.691247 16.56005127 7.26367188 16.59472656 C5.20812757 16.64339544 3.1536727 16.66596842 1.09765625 16.68359375 C-0.13823242 16.70454102 -1.37412109 16.72548828 -2.64746094 16.74707031 C-6.43554579 16.21085739 -7.58173071 15.3073494 -9.85546875 12.29296875 C-10.3515625 10.0390625 -10.3515625 10.0390625 -10.29296875 7.73046875 C-10.29167969 6.96605469 -10.29039063 6.20164062 -10.2890625 5.4140625 C-9.12277522 -0.2912888 -5.10648297 -0.06463902 0 0 Z " fill="#6A686E" transform="translate(59.85546875,29.70703125)"/>
<path d="M0 0 C1.32 0 2.64 0 4 0 C4 4.29 4 8.58 4 13 C2.02 13 0.04 13 -2 13 C-2 39.73 -2 66.46 -2 94 C-2.33 94 -2.66 94 -3 94 C-3 72.88 -3 51.76 -3 30 C-3.66 30 -4.32 30 -5 30 C-6.48046875 28.4609375 -6.48046875 28.4609375 -8.1875 26.375 C-11.04843746 22.99551762 -14.0327289 20.17611984 -17.44140625 17.3671875 C-19.60067538 15.47309177 -21.25242514 13.27184731 -23 11 C-23.886875 10.113125 -24.77375 9.22625 -25.6875 8.3125 C-28 6 -28 6 -29 4 C-19.43 4 -9.86 4 0 4 C0 2.68 0 1.36 0 0 Z " fill="#F18517" transform="translate(84,42)"/>
<path d="M0 0 C8.25 0 16.5 0 25 0 C25 2.31 25 4.62 25 7 C23.35 7 21.7 7 20 7 C20 11.62 20 16.24 20 21 C15.05 21 10.1 21 5 21 C5 16.38 5 11.76 5 7 C3.35 7 1.7 7 0 7 C0 4.69 0 2.38 0 0 Z " fill="#E7E7E8" transform="translate(84,34)"/>
<path d="M0 0 C13.2 0 26.4 0 40 0 C40 1.98 40 3.96 40 6 C26.8 6 13.6 6 0 6 C0 4.02 0 2.04 0 0 Z " fill="#01F7FC" transform="translate(56,137)"/>
<path d="M0 0 C3.96 0 7.92 0 12 0 C12 6.93 12 13.86 12 21 C9.69 21 7.38 21 5 21 C5 16.38 5 11.76 5 7 C3.35 7 1.7 7 0 7 C0 4.69 0 2.38 0 0 Z " fill="#FEFEFF" transform="translate(84,34)"/>
<path d="M0 0 C4.29 0 8.58 0 13 0 C13 2.97 13 5.94 13 9 C12.01 9 11.02 9 10 9 C10 12.3 10 15.6 10 19 C8.02 19 6.04 19 4 19 C4 15.7 4 12.4 4 9 C2.68 9 1.36 9 0 9 C0 6.03 0 3.06 0 0 Z " fill="#69666B" transform="translate(75,151)"/>
<path d="M0 0 C0.33 1.32 0.66 2.64 1 4 C2.32 4 3.64 4 5 4 C5.33 3.01 5.66 2.02 6 1 C6 1.99 6 2.98 6 4 C6.9590625 4.2165625 6.9590625 4.2165625 7.9375 4.4375 C10 5 10 5 11 6 C11 7.65 11 9.3 11 11 C5.72 11 0.44 11 -5 11 C-5 9.02 -5 7.04 -5 5 C-3.35 4.67 -1.7 4.34 0 4 C0 2.68 0 1.36 0 0 Z " fill="#FBE374" transform="translate(121,125)"/>
<path d="M0 0 C9.24 0 18.48 0 28 0 C28.495 7.92 28.495 7.92 29 16 C19.1 16 9.2 16 -1 16 C-1 15.34 -1 14.68 -1 14 C8.24 14 17.48 14 27 14 C27 9.71 27 5.42 27 1 C18.09 1 9.18 1 0 1 C0 0.67 0 0.34 0 0 Z " fill="#756965" transform="translate(55,30)"/>
<path d="M0 0 C2.31 0 4.62 0 7 0 C7 0.99 7 1.98 7 3 C22.18 3 37.36 3 53 3 C53 3.33 53 3.66 53 4 C35.51 4 18.02 4 0 4 C0 2.68 0 1.36 0 0 Z " fill="#E7EEF7" transform="translate(89,154)"/>
<path d="M0 0 C1.65 0 3.3 0 5 0 C5 3.3 5 6.6 5 10 C3.35 10 1.7 10 0 10 C0 6.7 0 3.4 0 0 Z " fill="#484A54" transform="translate(79,160)"/>
<path d="M0 0 C2.31 0 4.62 0 7 0 C7 1.32 7 2.64 7 4 C4.69 4 2.38 4 0 4 C0 2.68 0 1.36 0 0 Z " fill="#FFFFFF" transform="translate(89,154)"/>
</svg>
