<?xml version="1.0" encoding="UTF-8"?>
<svg version="1.1" xmlns="http://www.w3.org/2000/svg" width="192" height="192">
<path d="M0 0 C1.04986084 0.00563965 2.09972168 0.0112793 3.18139648 0.01708984 C25.80124277 0.36854042 46.06186106 8.68674694 63.25 23.3125 C64.26513672 24.10914063 64.26513672 24.10914063 65.30078125 24.921875 C82.04010812 38.47435607 91.98789818 59.78915815 95.859375 80.5859375 C98.63455384 107.06114363 94.11934257 133.28544479 77.25 154.625 C75.92387201 156.19361996 74.59096793 157.75654723 73.25 159.3125 C72.45529297 160.32376953 72.45529297 160.32376953 71.64453125 161.35546875 C57.87928832 178.38358407 34.79374499 189.72931715 13.25 192.3125 C-15.6176327 193.69643293 -40.32121915 188.39762675 -62.75 169.3125 C-63.42675781 168.78140625 -64.10351562 168.2503125 -64.80078125 167.703125 C-81.54010812 154.15064393 -91.48789818 132.83584185 -95.359375 112.0390625 C-98.13455384 85.56385637 -93.61934257 59.33955521 -76.75 38 C-75.42387201 36.43138004 -74.09096793 34.86845277 -72.75 33.3125 C-72.22019531 32.63832031 -71.69039062 31.96414062 -71.14453125 31.26953125 C-54.35893886 10.50513178 -26.07624536 -0.14798031 0 0 Z " fill="#FEAC1F" transform="translate(95.75,-0.3125)"/>
<path d="M0 0 C0.92261627 -0.01679306 1.84523254 -0.03358612 2.79580688 -0.05088806 C5.84240495 -0.09833645 8.88762587 -0.1081479 11.93457031 -0.11352539 C14.0582129 -0.12959791 16.18184995 -0.14641901 18.30548096 -0.16395569 C22.75749536 -0.19388845 27.20902488 -0.20315808 31.66113281 -0.20019531 C37.35272339 -0.19968777 43.04118659 -0.26788255 48.73203659 -0.35405636 C53.11950811 -0.40979763 57.50623079 -0.41978725 61.89402008 -0.41714668 C63.99117037 -0.42302875 66.08834227 -0.44504452 68.18514252 -0.48380852 C84.56691569 -0.75826028 84.56691569 -0.75826028 90.01637268 2.92614746 C92.28822139 5.42118426 94.04170718 7.83390971 95.76269531 10.72631836 C96.58640625 11.70342773 97.41011719 12.68053711 98.25878906 13.68725586 C98.89945312 14.48389648 99.54011719 15.28053711 100.20019531 16.10131836 C100.94269531 17.00881836 101.68519531 17.91631836 102.45019531 18.85131836 C104.0626869 20.85603763 105.6407702 22.86923877 107.20019531 24.91381836 C111.63458597 30.62175976 115.35362678 34.88160363 122.34082031 37.27319336 C126.27891775 39.63605182 128.73177076 42.61340789 130.76269531 46.72631836 C131.49617915 50.68093658 131.42607082 54.4685129 131.26269531 58.47631836 C131.25238281 59.50370117 131.24207031 60.53108398 131.23144531 61.58959961 C131.05657571 69.97241127 131.05657571 69.97241127 128.76269531 73.72631836 C125.08615547 76.62022844 120.45502414 75.94708996 116.01269531 75.85131836 C115.21992188 75.84229492 114.42714844 75.83327148 113.61035156 75.82397461 C111.6610025 75.80048848 109.71180957 75.76461973 107.76269531 75.72631836 C107.60414063 75.13463867 107.44558594 74.54295898 107.28222656 73.93334961 C105.43856603 67.68935014 103.31622815 63.74318835 97.45019531 60.41381836 C92.44576764 59.13361593 88.38592758 59.15341285 83.57519531 60.85131836 C77.41303537 64.95942499 75.81171183 68.55476056 73.76269531 75.72631836 C59.57269531 75.72631836 45.38269531 75.72631836 30.76269531 75.72631836 C29.77269531 72.75631836 28.78269531 69.78631836 27.76269531 66.72631836 C26.17903606 64.55604442 26.17903606 64.55604442 24.26269531 63.22631836 C23.67488281 62.76225586 23.08707031 62.29819336 22.48144531 61.82006836 C18.24811881 59.12613331 13.6045117 59.12938209 8.76269531 59.72631836 C3.97210319 62.16680868 -0.02551978 65.42145042 -1.92480469 70.60131836 C-2.41647673 72.29485538 -2.83340182 74.00973119 -3.23730469 75.72631836 C-6.85319425 76.06268018 -8.7567788 76.01708164 -11.90390015 74.11277771 C-14.91063946 71.03767392 -14.86955404 69.54388525 -14.88427734 65.29296875 C-14.90003815 63.9880397 -14.91579895 62.68311066 -14.93203735 61.33863831 C-14.92308664 59.91707516 -14.91283141 58.49551971 -14.90136719 57.07397461 C-14.90473689 55.61192929 -14.90959079 54.1498867 -14.91586304 52.68785095 C-14.92322966 49.62528789 -14.91253866 46.56345467 -14.88916016 43.50097656 C-14.86069596 39.58196568 -14.87706006 35.66466862 -14.90702248 31.74572086 C-14.92512375 28.72667112 -14.91932442 25.70802509 -14.90638351 22.68896294 C-14.90305592 21.24451938 -14.90711392 19.80003877 -14.91878128 18.3556385 C-14.9315298 16.33345398 -14.90864095 14.31114044 -14.88427734 12.2890625 C-14.88029938 11.13974747 -14.87632141 9.99043243 -14.8722229 8.80628967 C-13.15405373 0.47149685 -7.23575299 -0.01894242 0 0 Z " fill="#FDEEAA" transform="translate(42.2373046875,49.273681640625)"/>
<path d="M0 0 C2.76247099 2.75728812 5.51759589 5.52132165 8.26171875 8.296875 C9.40361444 9.44794781 10.54554195 10.59898906 11.6875 11.75 C12.26822266 12.33910156 12.84894531 12.92820312 13.44726562 13.53515625 C16.43155316 16.64906764 16.43155316 16.64906764 20 19 C19.37186056 36.58790438 9.18425865 54.02267383 -2 67 C-2.52980469 67.67417969 -3.05960938 68.34835938 -3.60546875 69.04296875 C-18.40645399 87.35233568 -41.95601459 97.23432918 -64.74609375 100.37890625 C-65.63425781 100.43949219 -66.52242188 100.50007813 -67.4375 100.5625 C-68.32308594 100.64628906 -69.20867187 100.73007813 -70.12109375 100.81640625 C-73.41833769 99.88136692 -73.96841198 99.12919079 -76.08764648 96.54736328 C-80.30266536 91.5809417 -84.85852163 87.01561534 -89.4765625 82.42578125 C-90.36483734 81.53892136 -91.25311218 80.65206146 -92.16830444 79.73832703 C-94.50881919 77.40242916 -96.85147858 75.06871183 -99.19525146 72.73608398 C-101.57469738 70.36689736 -103.95129556 67.99485789 -106.328125 65.62304688 C-109.81059188 62.1487183 -113.29434231 58.67568875 -116.77978516 55.2043457 C-118.18652831 53.80290203 -119.59326721 52.40145408 -121 51 C-121.53689453 50.46556274 -122.07378906 49.93112549 -122.62695312 49.38049316 C-132.0737924 39.96179994 -132.0737924 39.96179994 -132.3125 32.6875 C-132.24467809 28.03793114 -131.08887899 25.57659672 -128 22 C-123.11037965 17.39727064 -119.97253245 15.67568343 -113.30859375 15.79296875 C-107.37803043 16.32481284 -104.00095001 19.69974015 -100.19921875 23.890625 C-99 26 -99 26 -98 33 C-83.81 33 -69.62 33 -55 33 C-54.67 30.69 -54.34 28.38 -54 26 C-51.59720343 22.092226 -48.46874132 18.90384081 -44.5625 16.5 C-38.268139 15.271832 -33.45397851 15.48174465 -27.83203125 18.59765625 C-24.60473948 21.06801392 -22.4628347 24.22335464 -21 28 C-20.875 30.75390625 -20.875 30.75390625 -21 33 C-18.24968413 32.85888117 -15.49984582 32.71228835 -12.75 32.5625 C-11.97269531 32.52318359 -11.19539063 32.48386719 -10.39453125 32.44335938 C-9.64042969 32.40146484 -8.88632813 32.35957031 -8.109375 32.31640625 C-7.41811523 32.27974854 -6.72685547 32.24309082 -6.01464844 32.20532227 C-3.93371671 31.99324476 -2.01427578 31.55491323 0 31 C0.92952959 27.84310707 1.12877214 25.00413633 1.1328125 21.71875 C1.13474609 20.20861328 1.13474609 20.20861328 1.13671875 18.66796875 C1.13285156 17.62253906 1.12898437 16.57710937 1.125 15.5 C1.12886719 14.45457031 1.13273438 13.40914062 1.13671875 12.33203125 C1.13542969 11.32527344 1.13414062 10.31851563 1.1328125 9.28125 C1.13112061 7.90549805 1.13112061 7.90549805 1.12939453 6.50195312 C1.00978544 4.18920985 0.65210743 2.21470449 0 0 Z " fill="#EF8A17" transform="translate(171,92)"/>
<path d="M0 0 C1.65114555 0.00056648 1.65114555 0.00056648 3.33564758 0.00114441 C4.51289902 0.02695084 5.69015045 0.05275726 6.90307617 0.0793457 C8.11678391 0.08642044 9.33049164 0.09349518 10.58097839 0.1007843 C14.45329704 0.12874806 18.32416409 0.19149604 22.19604492 0.25512695 C24.82297715 0.280207 27.44993207 0.30302067 30.0769043 0.32348633 C36.5134588 0.37432799 42.94687931 0.4721904 49.38354492 0.56762695 C49.71354492 14.42762695 50.04354492 28.28762695 50.38354492 42.56762695 C49.06354492 42.56762695 47.74354492 42.56762695 46.38354492 42.56762695 C46.38354492 44.87762695 46.38354492 47.18762695 46.38354492 49.56762695 C44.07354492 49.56762695 41.76354492 49.56762695 39.38354492 49.56762695 C39.38354492 51.87762695 39.38354492 54.18762695 39.38354492 56.56762695 C41.69354492 56.56762695 44.00354492 56.56762695 46.38354492 56.56762695 C46.38354492 58.87762695 46.38354492 61.18762695 46.38354492 63.56762695 C47.70354492 63.56762695 49.02354492 63.56762695 50.38354492 63.56762695 C50.38354492 67.52762695 50.38354492 71.48762695 50.38354492 75.56762695 C45.10354492 75.56762695 39.82354492 75.56762695 34.38354492 75.56762695 C34.03291992 74.20637695 33.68229492 72.84512695 33.32104492 71.44262695 C31.63053792 66.31448608 28.90068577 63.44217113 24.38354492 60.56762695 C20.31307145 59.21080246 16.63962775 59.04290441 12.38354492 59.56762695 C7.5929528 62.00811728 3.59532983 65.26275902 1.69604492 70.44262695 C1.20437288 72.13616397 0.78744778 73.85103979 0.38354492 75.56762695 C-3.23234464 75.90398877 -5.13592919 75.85839024 -8.28305054 73.9540863 C-11.28978985 70.87898251 -11.24870443 69.38519384 -11.26342773 65.13427734 C-11.27918854 63.8293483 -11.29494934 62.52441925 -11.31118774 61.1799469 C-11.30223703 59.75838375 -11.2919818 58.3368283 -11.28051758 56.9152832 C-11.28388728 55.45323788 -11.28874118 53.9911953 -11.29501343 52.52915955 C-11.30238005 49.46659648 -11.29168905 46.40476326 -11.26831055 43.34228516 C-11.23984636 39.42327428 -11.25621045 35.50597722 -11.28617287 31.58702946 C-11.30427414 28.56797972 -11.29847481 25.54933369 -11.28553391 22.53027153 C-11.28220631 21.08582797 -11.28626431 19.64134737 -11.29793167 18.1969471 C-11.31068019 16.17476257 -11.28779134 14.15244903 -11.26342773 12.13037109 C-11.25944977 10.98105606 -11.2554718 9.83174103 -11.25137329 8.64759827 C-9.97131403 2.43806496 -6.11102829 -0.0702417 0 0 Z " fill="#FEFDFD" transform="translate(38.616455078125,49.432373046875)"/>
<path d="M0 0 C5.88077914 1.96025971 10.23986897 6.47973795 13 12 C13.59029191 17.67588376 13.31441063 22.18875876 10 27 C5.60736999 31.42378342 2.09530738 34.10222653 -4.3125 34.3125 C-8.96206886 34.24467809 -11.42340328 33.08887899 -15 30 C-19.77249465 25.0464351 -21.37659094 21.08129026 -21.27734375 14.27734375 C-20.67390961 9.32238458 -17.48918321 6.29676055 -13.875 3.1875 C-9.16578593 -0.39559766 -5.79486871 -0.5196752 0 0 Z " fill="#6C6A70" transform="translate(60,108)"/>
<path d="M0 0 C3.96827816 3.00370735 6.31032666 6.74126095 7.2734375 11.625 C7.57250476 17.21080456 6.16272223 21.88468385 2.83203125 26.38671875 C-1.96107222 30.20163784 -5.8729694 31.75870403 -12.04296875 31.66796875 C-16.91948722 31.02254719 -20.27875139 28.36953794 -23.54296875 24.76171875 C-27.22634991 19.37831552 -27.081088 13.74885856 -26.16796875 7.38671875 C-23.86708823 3.12846945 -20.8179872 0.40211472 -16.73046875 -2.11328125 C-10.44475149 -3.33976267 -5.60258663 -3.14938301 0 0 Z " fill="#3A3B3C" transform="translate(143.16796875,110.61328125)"/>
<path d="M0 0 C10.23 0 20.46 0 31 0 C31 8.25 31 16.5 31 25 C20.77 25 10.54 25 0 25 C0 16.75 0 8.5 0 0 Z " fill="#E7E7E8" transform="translate(35,57)"/>
<path d="M0 0 C14.10490272 -1.31486381 14.10490272 -1.31486381 18.97265625 2.0625 C21.53520703 4.92151069 23.77144219 7.8746305 26 11 C26.85764579 12.04544906 27.72622824 13.08202104 28.60546875 14.109375 C35 21.60436047 35 21.60436047 35 24 C23.45 24 11.9 24 0 24 C0 16.08 0 8.16 0 0 Z " fill="#BBBAC0" transform="translate(110,58)"/>
<path d="M0 0 C5.28 0 10.56 0 16 0 C16 8.25 16 16.5 16 25 C10.72 25 5.44 25 0 25 C0 16.75 0 8.5 0 0 Z " fill="#BDBCC1" transform="translate(88,57)"/>
<path d="M0 0 C4.95 0 9.9 0 15 0 C15.33 11.55 15.66 23.1 16 35 C15.67 35 15.34 35 15 35 C15 32.03 15 29.06 15 26 C10.05 26 5.1 26 0 26 C0 17.42 0 8.84 0 0 Z " fill="#E8E8E8" transform="translate(73,57)"/>
<path d="M0 0 C2.8100346 1.79363911 4.50940468 3.01880935 6 6 C6.57884232 13.06187625 6.57884232 13.06187625 4.1875 16.9375 C1.34478523 19.61777392 -0.50725706 19.95437565 -4.375 20.3125 C-8.59334314 19.94884973 -10.04884992 18.95115008 -13 16 C-14.60086627 12.79826746 -14.49917089 9.47422941 -14 6 C-10.32759145 0.24655994 -6.71744997 -0.96515086 0 0 Z " fill="#02F4F9" transform="translate(60,115)"/>
<path d="M0 0 C3.1521363 0.06247477 5.20893007 0.50429272 7.8125 2.3125 C10.75158436 5.91287834 11.08245019 7.70074711 10.78125 12.21875 C10.09239736 15.38747216 8.64450445 17.18017228 6.3125 19.375 C3.09555636 20.98347182 -0.20887222 20.98809149 -3.6875 20.375 C-7.60521408 17.20748649 -9.49598291 15.06673433 -10.0625 10.0625 C-9.59536625 5.46901813 -8.16709782 4.26052015 -4.6875 1.375 C-3.6875 0.375 -3.6875 0.375 0 0 Z " fill="#02D5DC" transform="translate(132.6875,114.625)"/>
<path d="M0 0 C2.31 0 4.62 0 7 0 C7 2.31 7 4.62 7 7 C9.31 7 11.62 7 14 7 C14 9.31 14 11.62 14 14 C11.69 14 9.38 14 7 14 C7 16.31 7 18.62 7 21 C4.69 21 2.38 21 0 21 C0 18.69 0 16.38 0 14 C-2.31 14 -4.62 14 -7 14 C-7 11.69 -7 9.38 -7 7 C-4.69 7 -2.38 7 0 7 C0 4.69 0 2.38 0 0 Z " fill="#E2041D" transform="translate(85,92)"/>
<path d="M0 0 C3.63 0 7.26 0 11 0 C11.66 3.63 12.32 7.26 13 11 C8.05 11 3.1 11 -2 11 C-1.34 7.37 -0.68 3.74 0 0 Z " fill="#E10E1C" transform="translate(83,38)"/>
<path d="M0 0 C0.99 0 1.98 0 3 0 C3 2.31 3 4.62 3 7 C5.31 7 7.62 7 10 7 C10 9.31 10 11.62 10 14 C7.69 14 5.38 14 3 14 C3 16.31 3 18.62 3 21 C2.01 21 1.02 21 0 21 C0 14.07 0 7.14 0 0 Z " fill="#AD1613" transform="translate(89,92)"/>
<path d="M0 0 C4.14923558 1.58532114 6.63306746 4.63273089 9.5 7.875 C15.45463229 14.47475613 21.67157209 20.76070488 28 27 C29.00066364 27.99933592 30.0008171 28.99918356 31 30 C23.81996206 28.30773517 20.02517359 25.75123408 15.5 20 C14.6797937 19.00492432 14.6797937 19.00492432 13.84301758 17.98974609 C12.73939088 16.64677672 11.64393258 15.29704917 10.55712891 13.94042969 C9.11443509 12.14260428 7.64858719 10.36819155 6.16796875 8.6015625 C0 1.2 0 1.2 0 0 Z " fill="#F08D1B" transform="translate(135,57)"/>
<path d="M0 0 C2.475 0.495 2.475 0.495 5 1 C5.66 3.97 6.32 6.94 7 10 C4.69 10 2.38 10 0 10 C0 6.7 0 3.4 0 0 Z " fill="#AE1814" transform="translate(89,39)"/>
<path d="M0 0 C3.21043882 1.38188453 5.04936365 2.92421903 7.25 5.625 C8.03117187 6.57246094 8.03117187 6.57246094 8.828125 7.5390625 C9.40820312 8.26222656 9.40820312 8.26222656 10 9 C7.36 9 4.72 9 2 9 C0 2.25 0 2.25 0 0 Z " fill="#EF8815" transform="translate(94,40)"/>
<path d="M0 0 C2.31 0 4.62 0 7 0 C7.33 1.98 7.66 3.96 8 6 C4.63408134 4.55746343 2.48952921 2.66735273 0 0 Z " fill="#EF8A18" transform="translate(32,125)"/>
</svg>
