<?xml version="1.0" encoding="UTF-8"?>
<svg version="1.1" xmlns="http://www.w3.org/2000/svg" width="192" height="192">
<path d="M0 0 C1.04986084 0.00563965 2.09972168 0.0112793 3.18139648 0.01708984 C25.80124277 0.36854042 46.06186106 8.68674694 63.25 23.3125 C64.26513672 24.10914063 64.26513672 24.10914063 65.30078125 24.921875 C82.04541384 38.47865169 91.94736182 59.76194198 95.859375 80.55078125 C98.62129341 107.14805555 94.21404409 133.16564829 77.25 154.625 C75.92387201 156.19361996 74.59096793 157.75654723 73.25 159.3125 C72.45529297 160.32376953 72.45529297 160.32376953 71.64453125 161.35546875 C58.10571052 178.10349143 36.76811244 188.05137167 15.9765625 191.921875 C-10.44852517 194.69180033 -36.67097994 190.1490485 -57.9375 173.375 C-59.54670067 172.02681928 -61.15117743 170.67297214 -62.75 169.3125 C-63.42675781 168.78140625 -64.10351562 168.2503125 -64.80078125 167.703125 C-81.54010812 154.15064393 -91.48789818 132.83584185 -95.359375 112.0390625 C-98.13455384 85.56385637 -93.61934257 59.33955521 -76.75 38 C-75.42387201 36.43138004 -74.09096793 34.86845277 -72.75 33.3125 C-72.22019531 32.63832031 -71.69039062 31.96414062 -71.14453125 31.26953125 C-54.35893886 10.50513178 -26.07624536 -0.14798031 0 0 Z " fill="#FEAC1F" transform="translate(95.75,-0.3125)"/>
<path d="M0 0 C1.28684692 -0.00241196 2.57369385 -0.00482391 3.89953613 -0.00730896 C6.61645298 -0.01015907 9.33254185 0.00445438 12.04931641 0.03198242 C15.51964723 0.06606612 18.98849877 0.06004077 22.45890045 0.04131985 C25.78524537 0.02816768 29.11116536 0.04647747 32.4375 0.0625 C33.67826294 0.05754013 34.91902588 0.05258026 36.1973877 0.04747009 C46.89605743 0.19335177 46.89605743 0.19335177 51.71875 4.62890625 C56.41740304 9.9625124 56.8706663 13.25032844 56.87988281 20.20605469 C56.88733017 21.53802887 56.88733017 21.53802887 56.89492798 22.89691162 C56.90957088 25.84404263 56.91635585 28.79111979 56.921875 31.73828125 C56.92762558 33.78371177 56.93338333 35.82914227 56.93914795 37.87457275 C56.9496646 42.16866304 56.95550263 46.46273458 56.95898438 50.75683594 C56.9644644 56.25593624 56.98847919 61.75478835 57.01695633 67.25381088 C57.03559406 71.48147298 57.04078896 75.7090755 57.04232025 79.93677521 C57.04534575 81.96374109 57.05337079 83.99070595 57.06650543 86.01763153 C57.08358623 88.85667182 57.08168042 91.69510866 57.07519531 94.53417969 C57.0844101 95.36973389 57.09362488 96.20528809 57.1031189 97.06616211 C57.06787108 101.99945367 56.43630482 105.35009406 53.71875 109.62890625 C48.48135256 114.74991708 44.09375428 116.71986867 36.84375 116.75390625 C35.4825 116.71265625 34.12125 116.67140625 32.71875 116.62890625 C32.71875 120.25890625 32.71875 123.88890625 32.71875 127.62890625 C29.41875 127.62890625 26.11875 127.62890625 22.71875 127.62890625 C22.71875 132.90890625 22.71875 138.18890625 22.71875 143.62890625 C19.08875 143.62890625 15.45875 143.62890625 11.71875 143.62890625 C11.71875 138.34890625 11.71875 133.06890625 11.71875 127.62890625 C8.08875 127.62890625 4.45875 127.62890625 0.71875 127.62890625 C0.71875 123.66890625 0.71875 119.70890625 0.71875 115.62890625 C-0.15007812 115.6753125 -1.01890625 115.72171875 -1.9140625 115.76953125 C-11.35982309 116.06537163 -11.35982309 116.06537163 -15.84375 113.94140625 C-20.51407629 109.51058387 -23.17384361 106.41170611 -23.42842102 99.81584167 C-23.44353794 98.19001179 -23.4530477 96.56412425 -23.45825195 94.93823242 C-23.46810875 93.6060392 -23.46810875 93.6060392 -23.47816467 92.24693298 C-23.49788966 89.30524614 -23.509558 86.36361031 -23.51953125 83.421875 C-23.52360678 82.41711939 -23.5276823 81.41236378 -23.53188133 80.37716103 C-23.55273784 75.05995514 -23.56704185 69.74277505 -23.57641602 64.42553711 C-23.58748452 58.93423858 -23.62189087 53.44334482 -23.66158772 47.95218945 C-23.68773253 43.72881822 -23.69610592 39.5055438 -23.69969749 35.28209877 C-23.70456831 33.25790992 -23.71619635 31.23372552 -23.73473549 29.20961571 C-23.75908315 26.37533847 -23.75816995 23.54211347 -23.7512207 20.70776367 C-23.76403076 19.87378052 -23.77684082 19.03979736 -23.79003906 18.18054199 C-23.7293304 11.37848687 -21.25618958 7.94316404 -16.86132812 2.79321289 C-12.07466011 -0.93529556 -5.76282752 -0.06157886 0 0 Z " fill="#FEFAF9" transform="translate(79.28125,24.37109375)"/>
<path d="M0 0 C3.37866939 3.37713197 6.75367486 6.75786829 10.12573242 10.14160156 C15.0365498 15.06867672 19.94984459 19.99327325 24.864604 24.91641617 C27.83154727 27.88860313 30.79753685 30.86172969 33.76147461 33.83691406 C36.637417 36.72369446 39.51577156 39.60804906 42.39583778 42.49071503 C43.49196709 43.5886937 44.58721507 44.68755296 45.68157005 45.78730011 C47.20622572 47.31918039 48.73394711 48.84793756 50.26245117 50.37597656 C51.56553474 51.68239105 51.56553474 51.68239105 52.89494324 53.01519775 C54.83985904 55.0400166 54.83985904 55.0400166 57 56 C57.72110409 82.54731347 51.73888553 105.41720497 34 126 C33.47019531 126.67417969 32.94039063 127.34835938 32.39453125 128.04296875 C21.28404206 141.78705537 4.37789478 151.08845823 -12.3125 156.1875 C-13.02374023 156.40833252 -13.73498047 156.62916504 -14.46777344 156.85668945 C-19.37713638 158.22046729 -19.37713638 158.22046729 -21.92163086 157.31982422 C-24.5544765 155.64789146 -26.5652484 153.67628733 -28.765625 151.46484375 C-30.09980469 150.12776367 -30.09980469 150.12776367 -31.4609375 148.76367188 C-32.38132812 147.83103516 -33.30171875 146.89839844 -34.25 145.9375 C-35.1949092 144.99113361 -36.14021762 144.04516564 -37.0859375 143.09960938 C-44 136.14019224 -44 136.14019224 -44 135 C-40.37 135 -36.74 135 -33 135 C-33 129.72 -33 124.44 -33 119 C-29.7 119 -26.4 119 -23 119 C-23 115.37 -23 111.74 -23 108 C-21.80503906 107.83564453 -21.80503906 107.83564453 -20.5859375 107.66796875 C-10.63106545 106.2729472 -10.63106545 106.2729472 -2.6875 100.5 C0.47639185 95.81275282 0.13585147 91.38806636 0.11352539 85.9387207 C0.11367142 85.01169342 0.11381744 84.08466614 0.1139679 83.12954712 C0.11327054 80.06160146 0.10548637 76.99371632 0.09765625 73.92578125 C0.09579144 71.8001458 0.09436784 69.67450993 0.09336853 67.5488739 C0.08954829 61.95110897 0.07972219 56.35336993 0.06866455 50.75561523 C0.05843984 45.04476268 0.05386863 39.33390594 0.04882812 33.62304688 C0.03809951 22.4153532 0.02102897 11.20767875 0 0 Z " fill="#F08A17" transform="translate(135,33)"/>
<path d="M0 0 C20.13 0 40.26 0 61 0 C61.10492493 8.1211899 61.20508082 16.23991873 61.25875092 24.36119843 C61.28512996 28.1431942 61.32036468 31.92462765 61.37719727 35.70629883 C61.43161681 39.35030481 61.46144086 42.99376631 61.47438622 46.63814735 C61.48360857 48.02685427 61.50161853 49.41553215 61.52865028 50.80400658 C61.56506071 52.75209744 61.56704339 54.70073891 61.56762695 56.64916992 C61.58428154 58.31129768 61.58428154 58.31129768 61.60127258 60.00700378 C60.80969768 63.94728106 58.99984567 65.42923418 56 68 C55.67 68.33 55.34 68.66 55 69 C53.48673553 69.10357604 51.96869424 69.13851089 50.4519043 69.14526367 C48.99985847 69.15483345 48.99985847 69.15483345 47.51847839 69.16459656 C46.46437271 69.16570938 45.41026703 69.1668222 44.32421875 69.16796875 C42.70916191 69.17296135 42.70916191 69.17296135 41.06147766 69.17805481 C38.77739897 69.18312964 36.49331284 69.18546296 34.20922852 69.18530273 C30.7129287 69.18748413 27.21694683 69.20562011 23.72070312 69.22460938 C21.50520942 69.22754418 19.2897142 69.22952839 17.07421875 69.23046875 C15.50216927 69.24124702 15.50216927 69.24124702 13.89836121 69.25224304 C12.43213066 69.2476281 12.43213066 69.2476281 10.9362793 69.24291992 C10.07769821 69.24434494 9.21911713 69.24576996 8.33451843 69.24723816 C5.74372849 68.97285946 4.18410549 68.40957319 2 67 C-0.3639196 63.45412059 -0.24355585 61.98496318 -0.22705078 57.78442383 C-0.22689972 56.5033223 -0.22674866 55.22222076 -0.22659302 53.90229797 C-0.21637973 52.50387416 -0.20594774 51.10545192 -0.1953125 49.70703125 C-0.19158178 48.27642515 -0.18873509 46.84581648 -0.18673706 45.41520691 C-0.17910522 41.65207856 -0.15946069 37.88910489 -0.1373291 34.1260376 C-0.11326149 29.60978644 -0.10408754 25.09348353 -0.09242249 20.57718658 C-0.07303591 13.71801685 -0.03471053 6.85918643 0 0 Z " fill="#E5031E" transform="translate(66,62)"/>
<path d="M0 0 C6.991875 -0.12375 6.991875 -0.12375 14.125 -0.25 C15.58437988 -0.28641602 17.04375977 -0.32283203 18.54736328 -0.36035156 C19.70993652 -0.3703418 20.87250977 -0.38033203 22.0703125 -0.390625 C23.84559326 -0.4220459 23.84559326 -0.4220459 25.65673828 -0.45410156 C30.85481858 0.25193242 33.90727657 2.75961124 37.3125 6.625 C40.37134092 10.93003537 40.15432628 14.44024257 40.16113281 19.57714844 C40.16858017 20.90912262 40.16858017 20.90912262 40.17617798 22.26800537 C40.19082088 25.21513638 40.19760585 28.16221354 40.203125 31.109375 C40.20887558 33.15480552 40.21463333 35.20023602 40.22039795 37.2456665 C40.2309146 41.53975679 40.23675263 45.83382833 40.24023438 50.12792969 C40.2457144 55.62702999 40.26972919 61.1258821 40.29820633 66.62490463 C40.31684406 70.85256673 40.32203896 75.08016925 40.32357025 79.30786896 C40.32659575 81.33483484 40.33462079 83.3617997 40.34775543 85.38872528 C40.36483623 88.22776557 40.36293042 91.06620241 40.35644531 93.90527344 C40.37026749 95.15860474 40.37026749 95.15860474 40.3843689 96.43725586 C40.34426597 102.05007057 39.42592589 106.34032605 35.5 110.64453125 C30.64962282 114.42125723 27.64339138 115.12508322 21.58203125 115.09765625 C19.70161133 115.09282227 19.70161133 115.09282227 17.78320312 115.08789062 C16.47287109 115.07951172 15.16253906 115.07113281 13.8125 115.0625 C12.47721519 115.05748317 11.14192859 115.05292059 9.80664062 115.04882812 C6.53771527 115.03702695 3.26888009 115.02056297 0 115 C0 112.03 0 109.06 0 106 C0.73114014 105.99589111 1.46228027 105.99178223 2.21557617 105.98754883 C5.54036307 105.95457791 8.86332616 105.88392853 12.1875 105.8125 C13.33798828 105.80669922 14.48847656 105.80089844 15.67382812 105.79492188 C16.78564453 105.76591797 17.89746094 105.73691406 19.04296875 105.70703125 C20.57473755 105.68346558 20.57473755 105.68346558 22.13745117 105.65942383 C26.05529667 104.75689925 27.4573911 103.07367675 30 100 C30.75306198 96.96977208 30.75306198 96.96977208 30.65942383 93.64916992 C30.67906693 92.3882402 30.69871002 91.12731049 30.71894836 89.82817078 C30.71550544 88.46226866 30.71152046 87.09636782 30.70703125 85.73046875 C30.72015366 84.32511763 30.73545957 82.91978534 30.75285339 81.51448059 C30.79265426 77.82697574 30.80289051 74.1399648 30.80688477 70.45227051 C30.8162257 66.68482767 30.85337501 62.91766498 30.88867188 59.15039062 C30.95581615 51.76655495 30.9766779 44.38462473 31 37 C20.77 37 10.54 37 0 37 C0 24.79 0 12.58 0 0 Z " fill="#03F6FB" transform="translate(96,25)"/>
<path d="M0 0 C20.13 0 40.26 0 61 0 C61.10492493 8.1211899 61.20508082 16.23991873 61.25875092 24.36119843 C61.28512996 28.1431942 61.32036468 31.92462765 61.37719727 35.70629883 C61.43161681 39.35030481 61.46144086 42.99376631 61.47438622 46.63814735 C61.48360857 48.02685427 61.50161853 49.41553215 61.52865028 50.80400658 C61.56506071 52.75209744 61.56704339 54.70073891 61.56762695 56.64916992 C61.58428154 58.31129768 61.58428154 58.31129768 61.60127258 60.00700378 C60.80969768 63.94728106 58.99984567 65.42923418 56 68 C55.67 68.33 55.34 68.66 55 69 C53.4651703 69.09319449 51.92607918 69.117458 50.38842773 69.11352539 C49.40748642 69.11344986 48.4265451 69.11337433 47.4158783 69.11329651 C46.3492244 69.10813522 45.2825705 69.10297394 44.18359375 69.09765625 C42.55430687 69.09553383 42.55430687 69.09553383 40.8921051 69.09336853 C37.40720925 69.08775048 33.92237658 69.07519492 30.4375 69.0625 C28.08138113 69.05748733 25.72526126 69.05292402 23.36914062 69.04882812 C17.57940536 69.03777519 11.78970719 69.02101951 6 69 C6 68.67 6 68.34 6 68 C13.92 68 21.84 68 30 68 C30 59.75 30 51.5 30 43 C31.98 43 33.96 43 36 43 C36 39.37 36 35.74 36 32 C39.3 32 42.6 32 46 32 C46 28.04 46 24.08 46 20 C42.7 20 39.4 20 36 20 C36 16.37 36 12.74 36 9 C34.02 9 32.04 9 30 9 C30 6.36 30 3.72 30 1 C20.1 1 10.2 1 0 1 C0 0.67 0 0.34 0 0 Z " fill="#AD2220" transform="translate(66,62)"/>
<path d="M0 0 C3.96 0 7.92 0 12 0 C12 3.63 12 7.26 12 11 C15.3 11 18.6 11 22 11 C22 14.96 22 18.92 22 23 C18.7 23 15.4 23 12 23 C12 26.3 12 29.6 12 33 C8.04 33 4.08 33 0 33 C0 29.7 0 26.4 0 23 C-3.3 23 -6.6 23 -10 23 C-10 19.04 -10 15.08 -10 11 C-6.7 11 -3.4 11 0 11 C0 7.37 0 3.74 0 0 Z " fill="#E6E4E5" transform="translate(90,71)"/>
<path d="M0 0 C13.53 0 27.06 0 41 0 C41 0.33 41 0.66 41 1 C38.03 1 35.06 1 32 1 C32 4.63 32 8.26 32 12 C28.7 12 25.4 12 22 12 C22 17.28 22 22.56 22 28 C18.37 28 14.74 28 11 28 C11 22.72 11 17.44 11 12 C7.37 12 3.74 12 0 12 C0 8.04 0 4.08 0 0 Z " fill="#E7E6E7" transform="translate(80,140)"/>
<path d="M0 0 C1.98 0 3.96 0 6 0 C6 10.56 6 21.12 6 32 C4.02 32 2.04 32 0 32 C0 28.7 0 25.4 0 22 C-3.3 22 -6.6 22 -10 22 C-10 18.04 -10 14.08 -10 10 C-6.7 10 -3.4 10 0 10 C0 6.7 0 3.4 0 0 Z " fill="#FEFBFB" transform="translate(90,72)"/>
<path d="M0 0 C8.25 0 16.5 0 25 0 C25 0.33 25 0.66 25 1 C22.03 1 19.06 1 16 1 C16 4.63 16 8.26 16 12 C12.7 12 9.4 12 6 12 C6 17.28 6 22.56 6 28 C5.67 28 5.34 28 5 28 C5 22.72 5 17.44 5 12 C3.35 12 1.7 12 0 12 C0 8.04 0 4.08 0 0 Z " fill="#B8BBB7" transform="translate(96,140)"/>
<path d="M0 0 C5.28 0.33 10.56 0.66 16 1 C16 5.29 16 9.58 16 14 C19.3 14 22.6 14 26 14 C26 17.63 26 21.26 26 25 C20.42329841 20.3613661 15.2860376 15.40602328 10.1875 10.25 C9.42501953 9.48300781 8.66253906 8.71601563 7.87695312 7.92578125 C6.47564593 6.51580106 5.0753738 5.10479081 3.67651367 3.69238281 C2.45416017 2.45845905 1.22815226 1.22815226 0 0 Z " fill="#F08A18" transform="translate(64,139)"/>
<path d="M0 0 C1.65 0 3.3 0 5 0 C5 5.28 5 10.56 5 16 C3.35 16 1.7 16 0 16 C0 10.72 0 5.44 0 0 Z " fill="#07F7FC" transform="translate(96,152)"/>
<path d="M0 0 C1.65 0 3.3 0 5 0 C5 5.28 5 10.56 5 16 C3.35 16 1.7 16 0 16 C0 10.72 0 5.44 0 0 Z " fill="#FBFEFE" transform="translate(91,152)"/>
</svg>
