<?xml version="1.0" encoding="UTF-8"?>
<svg version="1.1" xmlns="http://www.w3.org/2000/svg" width="192" height="192">
<path d="M0 0 C1.04986084 0.00563965 2.09972168 0.0112793 3.18139648 0.01708984 C25.80124277 0.36854042 46.06186106 8.68674694 63.25 23.3125 C64.26513672 24.10914063 64.26513672 24.10914063 65.30078125 24.921875 C82.62733593 38.949787 93.94099434 62.36551552 96.25 84.3125 C97.76217191 112.74663776 92.06016819 137.20684959 73.25 159.3125 C72.71890625 159.98925781 72.1878125 160.66601562 71.640625 161.36328125 C58.08814393 178.10260812 36.77334185 188.05039818 15.9765625 191.921875 C-10.44852517 194.69180033 -36.67097994 190.1490485 -57.9375 173.375 C-59.54670067 172.02681928 -61.15117743 170.67297214 -62.75 169.3125 C-63.42675781 168.78140625 -64.10351562 168.2503125 -64.80078125 167.703125 C-81.54010812 154.15064393 -91.48789818 132.83584185 -95.359375 112.0390625 C-98.13455384 85.56385637 -93.61934257 59.33955521 -76.75 38 C-75.42387201 36.43138004 -74.09096793 34.86845277 -72.75 33.3125 C-72.22019531 32.63832031 -71.69039062 31.96414062 -71.14453125 31.26953125 C-54.35893886 10.50513178 -26.07624536 -0.14798031 0 0 Z " fill="#E6E6E7" transform="translate(95.75,-0.3125)"/>
<path d="M0 0 C0.10828125 0.90685547 0.10828125 0.90685547 0.21875 1.83203125 C1.29423165 4.81649283 2.71133425 5.25443566 5.5 6.6875 C11.31009478 9.96243182 15.4713345 14.16886333 20 19 C21.66384368 20.66948488 23.33092526 22.33574489 25 24 C26.77009605 25.77474534 28.53984974 27.54983219 30.30932617 29.32519531 C35.41970992 34.45184361 40.53257713 39.5760073 45.64690685 44.69871902 C48.73491854 47.79197392 51.82197723 50.88616827 54.90698242 53.98242188 C57.89963455 56.98591127 60.89469842 59.98697581 63.89147377 62.98635101 C65.0322603 64.12898717 66.17216538 65.27250403 67.31117821 66.41690826 C68.89810012 68.01105371 70.48808777 69.60207827 72.07885742 71.19238281 C72.98310959 72.09885559 73.88736176 73.00532837 74.8190155 73.93927002 C76.82358969 76.03230149 76.82358969 76.03230149 79 77 C79.17297134 82.71446051 78.67726455 87.70764629 77.3125 93.25 C77.13315918 93.98943848 76.95381836 94.72887695 76.76904297 95.49072266 C72.99431074 110.40528161 65.93102317 123.32909285 56 135 C55.46890625 135.67675781 54.9378125 136.35351562 54.390625 137.05078125 C42.81037488 151.35410998 23.92675955 162.20218279 6 166 C2 166 2 166 0.46484375 164.63671875 C-0.29119141 163.67185547 -0.29119141 163.67185547 -1.0625 162.6875 C-4.14407481 158.94941578 -7.38695944 155.48131612 -10.8125 152.0625 C-11.29275635 151.5780542 -11.7730127 151.0936084 -12.26782227 150.59448242 C-14.88480371 147.9665145 -14.88480371 147.9665145 -18 146 C-19.23123605 143.75376444 -20.36889644 141.51367604 -21.4765625 139.20703125 C-22.19729117 137.73602455 -22.91901828 136.26550673 -23.64160156 134.79541016 C-24.02465454 134.01329163 -24.40770752 133.2311731 -24.80236816 132.425354 C-26.83532462 128.30836335 -28.92976883 124.22308084 -31.0234375 120.13671875 C-31.45899963 119.28562531 -31.89456177 118.43453186 -32.34332275 117.55764771 C-33.23728622 115.81142818 -34.13163703 114.06540689 -35.02636719 112.31958008 C-36.36789093 109.70137453 -37.70745087 107.08217079 -39.046875 104.46289062 C-43.8507832 95.07896168 -48.70667954 85.72519872 -53.63380432 76.40534973 C-55.72454614 72.44516121 -57.78552535 68.4760932 -59.76953125 64.4609375 C-60.12080078 63.7596875 -60.47207031 63.0584375 -60.83398438 62.3359375 C-61.51834148 60.96449133 -62.18914825 59.58623756 -62.84960938 58.203125 C-64.87651309 54.12402335 -64.87651309 54.12402335 -68.76171875 52.0390625 C-69.50035156 52.02617188 -70.23898438 52.01328125 -71 52 C-71 49.03 -71 46.06 -71 43 C-39.98 43 -8.96 43 23 43 C19.60908415 29.43633661 16.50839659 20.22028328 5 12 C2.37022429 10.46051273 -0.19984931 9.22188394 -3 8 C-3 8.99 -3 9.98 -3 11 C-3.825 10.83757813 -4.65 10.67515625 -5.5 10.5078125 C-9.35451104 9.94856425 -13.11604359 9.85309799 -17 9.875 C-17.68578125 9.87113281 -18.3715625 9.86726563 -19.078125 9.86328125 C-23.15626809 9.87106397 -26.99977115 10.21245494 -31 11 C-31.50615298 9.73160474 -32.00469099 8.46016898 -32.5 7.1875 C-32.7784375 6.47980469 -33.056875 5.77210937 -33.34375 5.04296875 C-34 3 -34 3 -34 0 C-22.74916114 -4.96360538 -11.45909246 -3.35973391 0 0 Z " fill="#BCBBBF" transform="translate(113,24)"/>
<path d="M0 0 C0.10828125 0.90685547 0.10828125 0.90685547 0.21875 1.83203125 C1.29423165 4.81649283 2.71133425 5.25443566 5.5 6.6875 C16.59504101 13.04337349 22.97573806 21.92721417 27 34 C27.12979439 37.00603796 27.04363173 39.98941031 27 43 C30.3 43 33.6 43 37 43 C37 45.97 37 48.94 37 52 C36.2680542 52.00080566 35.5361084 52.00161133 34.78198242 52.00244141 C30.41170845 53.56952692 29.43304061 56.92969146 27.48828125 60.9609375 C27.07515182 61.78010651 26.6620224 62.59927551 26.2363739 63.44326782 C24.91147596 66.07909691 23.61150624 68.7263299 22.3125 71.375 C21.45806295 73.08938137 20.60195864 74.80293285 19.74414062 76.515625 C18.45499386 79.0903623 17.16721055 81.66568677 15.88594055 84.24435425 C11.76189989 92.53409795 7.44718359 100.7181021 3.11074829 108.89813232 C-0.1104217 114.99354848 -3.26217801 121.12558623 -6.42773438 127.25 C-9.52395384 133.22209448 -12.69152146 139.14263788 -16 145 C-16.66 145 -17.32 145 -18 145 C-18.4626123 144.09983154 -18.92522461 143.19966309 -19.40185547 142.2722168 C-30.31157333 121.01752622 -30.31157333 121.01752622 -41.38769531 99.84936523 C-44.25362523 94.42925733 -47.08776434 88.99318481 -49.91113281 83.55078125 C-51.04084936 81.37503086 -52.17295599 79.20051958 -53.30761719 77.02734375 C-55.72035084 72.40617469 -58.12019175 67.7831217 -60.4296875 63.109375 C-60.96408447 62.04928223 -60.96408447 62.04928223 -61.50927734 60.96777344 C-62.42399685 59.15095747 -63.32214116 57.32582163 -64.21875 55.5 C-65.78920904 52.76906293 -65.78920904 52.76906293 -68.71875 52.125 C-69.4715625 52.08375 -70.224375 52.0425 -71 52 C-71 49.03 -71 46.06 -71 43 C-39.98 43 -8.96 43 23 43 C19.60908415 29.43633661 16.50839659 20.22028328 5 12 C2.37022429 10.46051273 -0.19984931 9.22188394 -3 8 C-3 8.99 -3 9.98 -3 11 C-3.825 10.83757813 -4.65 10.67515625 -5.5 10.5078125 C-9.35451104 9.94856425 -13.11604359 9.85309799 -17 9.875 C-17.68578125 9.87113281 -18.3715625 9.86726563 -19.078125 9.86328125 C-23.15626809 9.87106397 -26.99977115 10.21245494 -31 11 C-31.50615298 9.73160474 -32.00469099 8.46016898 -32.5 7.1875 C-32.7784375 6.47980469 -33.056875 5.77210937 -33.34375 5.04296875 C-34 3 -34 3 -34 0 C-22.74916114 -4.96360538 -11.45909246 -3.35973391 0 0 Z " fill="#FE4E1A" transform="translate(113,24)"/>
<path d="M0 0 C2.5654594 2.5654594 2.54046087 4.47686668 3 8 C3.825 7.67515625 4.65 7.3503125 5.5 7.015625 C9.4047971 5.88253656 12.97510738 5.70460647 17 5.75 C17.68578125 5.74226563 18.3715625 5.73453125 19.078125 5.7265625 C23.42530835 5.7431548 26.96113993 6.40969885 31 8 C31 7.01 31 6.02 31 5 C39.37289776 6.93220717 45.92198937 12.98701384 50.71875 19.90234375 C54.97807401 26.87568825 56.06195301 31.55757707 57 40 C29.28 40 1.56 40 -27 40 C-27 28.33160084 -22.87699736 18.80369035 -14.8125 10.3125 C-10.33937395 6.02010632 -5.4552961 2.90417642 0 0 Z " fill="#BBBABF" transform="translate(79,27)"/>
<path d="M0 0 C16.17 0 32.34 0 49 0 C39.8825 19.3746875 39.8825 19.3746875 36.375 25.875 C35.5277286 27.46565761 34.68143603 29.05683684 33.8359375 30.6484375 C33.38573242 31.4950293 32.93552734 32.34162109 32.47167969 33.21386719 C29.61356828 38.62474433 26.81118361 44.06464122 24 49.5 C8.50222162 79.42890804 8.50222162 79.42890804 1 93 C0.67 93 0.34 93 0 93 C0 62.31 0 31.62 0 0 Z " fill="#DA3406" transform="translate(96,76)"/>
<path d="M0 0 C0.10828125 0.90685547 0.10828125 0.90685547 0.21875 1.83203125 C1.29423165 4.81649283 2.71133425 5.25443566 5.5 6.6875 C16.59504101 13.04337349 22.97573806 21.92721417 27 34 C27.12979439 37.00603796 27.04363173 39.98941031 27 43 C30.3 43 33.6 43 37 43 C37 45.97 37 48.94 37 52 C1.36 52 -34.28 52 -71 52 C-71 49.03 -71 46.06 -71 43 C-39.98 43 -8.96 43 23 43 C19.60908415 29.43633661 16.50839659 20.22028328 5 12 C2.37022429 10.46051273 -0.19984931 9.22188394 -3 8 C-3 8.99 -3 9.98 -3 11 C-3.825 10.83757813 -4.65 10.67515625 -5.5 10.5078125 C-9.35451104 9.94856425 -13.11604359 9.85309799 -17 9.875 C-17.68578125 9.87113281 -18.3715625 9.86726563 -19.078125 9.86328125 C-23.15626809 9.87106397 -26.99977115 10.21245494 -31 11 C-31.50615298 9.73160474 -32.00469099 8.46016898 -32.5 7.1875 C-32.7784375 6.47980469 -33.056875 5.77210937 -33.34375 5.04296875 C-34 3 -34 3 -34 0 C-22.74916114 -4.96360538 -11.45909246 -3.35973391 0 0 Z " fill="#FDAC21" transform="translate(113,24)"/>
<path d="M0 0 C0.10828125 0.90685547 0.10828125 0.90685547 0.21875 1.83203125 C1.29423165 4.81649283 2.71133425 5.25443566 5.5 6.6875 C16.59504101 13.04337349 22.97573806 21.92721417 27 34 C27.06740865 35.56118428 27.08514456 37.1250252 27.0625 38.6875 C27.05347656 39.49574219 27.04445312 40.30398437 27.03515625 41.13671875 C27.02355469 41.75160156 27.01195312 42.36648437 27 43 C25.68 43 24.36 43 23 43 C22.85304687 42.26136719 22.70609375 41.52273437 22.5546875 40.76171875 C19.86900618 28.61441303 15.28670162 19.34764402 5 12 C2.37022429 10.46051273 -0.19984931 9.22188394 -3 8 C-3 8.99 -3 9.98 -3 11 C-3.825 10.83757813 -4.65 10.67515625 -5.5 10.5078125 C-9.35451104 9.94856425 -13.11604359 9.85309799 -17 9.875 C-17.68578125 9.87113281 -18.3715625 9.86726563 -19.078125 9.86328125 C-23.15626809 9.87106397 -26.99977115 10.21245494 -31 11 C-31.50615298 9.73160474 -32.00469099 8.46016898 -32.5 7.1875 C-32.7784375 6.47980469 -33.056875 5.77210937 -33.34375 5.04296875 C-34 3 -34 3 -34 0 C-22.74916114 -4.96360538 -11.45909246 -3.35973391 0 0 Z " fill="#FA5323" transform="translate(113,24)"/>
<path d="M0 0 C17.82 0 35.64 0 54 0 C54 2.97 54 5.94 54 9 C36.18 9 18.36 9 0 9 C0 6.03 0 3.06 0 0 Z " fill="#EF8B18" transform="translate(96,67)"/>
<path d="M0 0 C5.71265389 1.42816347 9.56698731 4.29004181 14 8 C14.61230469 8.50402344 15.22460938 9.00804687 15.85546875 9.52734375 C21.92602762 15.00826776 25.43623117 22.30869352 28 30 C28.06740865 31.56118428 28.08514456 33.1250252 28.0625 34.6875 C28.05347656 35.49574219 28.04445312 36.30398437 28.03515625 37.13671875 C28.02355469 37.75160156 28.01195312 38.36648437 28 39 C26.68 39 25.36 39 24 39 C23.77957031 37.89205078 23.77957031 37.89205078 23.5546875 36.76171875 C20.64670553 23.60894973 15.33936941 14.03809048 3.8671875 6.62109375 C2.27387319 5.69542329 0.6411118 4.83801453 -1 4 C-0.67 2.68 -0.34 1.36 0 0 Z " fill="#3C3C3E" transform="translate(112,28)"/>
<path d="M0 0 C0.66 0.66 1.32 1.32 2 2 C1.9140625 3.953125 1.9140625 3.953125 1 6 C-1.0390625 7.421875 -1.0390625 7.421875 -3.625 8.75 C-12.59414022 13.84959687 -18.0881097 21.30838395 -20.90625 31.171875 C-21.65020399 34.10636017 -22.34957612 37.04352784 -23 40 C-24.32 40 -25.64 40 -27 40 C-27.64639181 29.87319497 -23.48538573 20.35581702 -17.02734375 12.64453125 C-11.94532125 7.29361867 -6.49926039 3.45994029 0 0 Z " fill="#6E6B72" transform="translate(79,27)"/>
<path d="M0 0 C6.19539258 -0.16973678 11.14856425 -0.035282 17 2 C16.31282934 5.89396706 15.27666659 9.17000022 14 13 C9.38 12.01 4.76 11.02 0 10 C0 6.7 0 3.4 0 0 Z " fill="#D93408" transform="translate(96,22)"/>
<path d="M0 0 C-0.33 3.3 -0.66 6.6 -1 10 C-2.32 10 -3.64 10 -5 10 C-5.3669579 3.51707705 -5.3669579 3.51707705 -3.625 1.0625 C-2 0 -2 0 0 0 Z " fill="#69676E" transform="translate(57,57)"/>
<path d="M0 0 C1.65 0 3.3 0 5 0 C8.22265625 5.2734375 8.22265625 5.2734375 9 7 C8.67 7.66 8.34 8.32 8 9 C6.66368764 7.6905332 5.33102075 6.37734515 4 5.0625 C3.2575 4.33160156 2.515 3.60070312 1.75 2.84765625 C0 1 0 1 0 0 Z " fill="#BFB8B6" transform="translate(42,76)"/>
</svg>
