<?xml version="1.0" encoding="UTF-8"?>
<svg version="1.1" xmlns="http://www.w3.org/2000/svg" width="192" height="192">
<path d="M0 0 C1.04986084 0.00563965 2.09972168 0.0112793 3.18139648 0.01708984 C25.80124277 0.36854042 46.06186106 8.68674694 63.25 23.3125 C64.26513672 24.10914063 64.26513672 24.10914063 65.30078125 24.921875 C82.04010812 38.47435607 91.98789818 59.78915815 95.859375 80.5859375 C98.63455384 107.06114363 94.11934257 133.28544479 77.25 154.625 C75.92387201 156.19361996 74.59096793 157.75654723 73.25 159.3125 C72.45529297 160.32376953 72.45529297 160.32376953 71.64453125 161.35546875 C57.60526447 178.72256173 34.97469937 189.11119776 13.25 192.3125 C-16.71965936 194.20832087 -41.8011655 187.52087804 -64.90600586 167.83935547 C-81.83301342 152.773538 -93.38253086 130.8981556 -95.75 108.3125 C-97.11047549 80.06103869 -91.64901631 55.24141873 -72.75 33.3125 C-72.22019531 32.63832031 -71.69039062 31.96414062 -71.14453125 31.26953125 C-54.35893886 10.50513178 -26.07624536 -0.14798031 0 0 Z " fill="#00F6FC" transform="translate(95.75,-0.3125)"/>
<path d="M0 0 C11.74866057 -2.89486287 25.52366213 -4.72493432 36.53295135 1.4119339 C50.1894284 10.64792544 61.37768432 23.52863446 72.55072021 35.5166626 C76.08642154 39.2656469 79.70743136 42.92584704 83.33393383 46.58674335 C86.83249539 50.12741278 90.29634169 53.70035985 93.74859047 57.28615379 C95.39303762 58.99371131 97.0433434 60.6956475 98.69966698 62.39168739 C100.99727505 64.76256162 103.24972735 67.16878253 105.49291992 69.59106445 C106.17245728 70.28087402 106.85199463 70.97068359 107.55212402 71.68139648 C110.27029485 74.69405257 111.90132966 76.69871324 112.21419716 80.8248806 C111.76514339 86.45521012 110.48844351 91.65043733 108.375 96.875 C108.10993652 97.55062988 107.84487305 98.22625977 107.57177734 98.92236328 C103.19802609 109.77385692 97.63648917 119.13922399 90 128 C89.47019531 128.67417969 88.94039063 129.34835938 88.39453125 130.04296875 C74.33775243 147.43172477 51.73526589 157.75877614 30 161 C25.69005475 161.35053225 21.38463085 161.45907672 17.0625 161.5625 C15.90814453 161.62501953 14.75378906 161.68753906 13.56445312 161.75195312 C11.87932617 161.78385742 11.87932617 161.78385742 10.16015625 161.81640625 C9.14574463 161.85193604 8.13133301 161.88746582 7.08618164 161.92407227 C2.96423677 160.68986917 1.47092526 158.46705015 -1.18193054 155.18174744 C-4.02226905 151.7732411 -7.35589358 148.9821648 -10.68359375 146.0625 C-36.48938861 122.72162078 -36.48938861 122.72162078 -37.30493164 110.44140625 C-36.90370938 105.91328059 -35.89151775 101.45758874 -35 97 C-28.07 97 -21.14 97 -14 97 C-13.67 94.03 -13.34 91.06 -13 88 C-10.64675561 85.58164608 -8.82140143 84.04862082 -6.0625 82.25 C-5.34811768 81.75032715 -4.63373535 81.2506543 -3.89770508 80.73583984 C-2.38030985 79.67549137 -0.85524263 78.62604918 0.67675781 77.58691406 C3.69361872 75.52621672 6.64610963 73.38322912 9.6003418 71.23413086 C11.82553716 69.61551673 14.05859726 68.00826052 16.29296875 66.40234375 C24.24526305 60.67000158 32.11804761 54.82845038 40 49 C39.34 44.71 38.68 40.42 38 36 C36.83726563 36.85980469 35.67453125 37.71960938 34.4765625 38.60546875 C25.39238888 45.3148263 16.28100149 51.98128847 7.10595703 58.56591797 C2.47888324 61.89736957 -2.05719117 65.31075387 -6.46875 68.92578125 C-8 70 -8 70 -10 70 C-8.62267149 56.57670061 -6.83603035 43.22717509 -4.91333008 29.87182617 C-4.43082169 26.51605337 -3.95443302 23.15944759 -3.47851562 19.80273438 C-3.17223488 17.66140683 -2.86560755 15.52012882 -2.55859375 13.37890625 C-2.41691269 12.3790419 -2.27523163 11.37917755 -2.1292572 10.34901428 C-1.99564285 9.42632248 -1.8620285 8.50363068 -1.72436523 7.55297852 C-1.55021339 6.33868919 -1.55021339 6.33868919 -1.37254333 5.09986877 C-1 3 -1 3 0 0 Z " fill="#01D8DE" transform="translate(79,31)"/>
<path d="M0 0 C2.26871919 3.40307879 2.57353572 4.9485893 3 9 C3.13535156 9.91652344 3.27070312 10.83304688 3.41015625 11.77734375 C4.1099405 19.59324394 4.1099405 19.59324394 1.26171875 23.203125 C-1.38964683 25.3381035 -4.13194533 27.16603037 -7 29 C-8.71307685 30.20390672 -10.40862811 31.43019634 -12.10449219 32.65820312 C-13.87381271 33.93664211 -15.65434127 35.19798649 -17.4375 36.45703125 C-22.70595612 40.19607535 -27.85244465 44.09690858 -33 48 C-22.63264748 49.25437461 -14.29037564 49.84377792 -5.61108398 43.3503418 C-2.82202292 41.04241585 -0.09751975 38.68432448 2.52978516 36.19335938 C4 35 4 35 6 35 C6.99 41.435 6.99 41.435 8 48 C14.93 48.33 21.86 48.66 29 49 C29 56.59 29 64.18 29 72 C-5.32 72 -39.64 72 -75 72 C-75 64.08 -75 56.16 -75 48 C-68.07 48 -61.14 48 -54 48 C-53.67 45.03 -53.34 42.06 -53 39 C-50.64675561 36.58164608 -48.82140143 35.04862082 -46.0625 33.25 C-45.34811768 32.75032715 -44.63373535 32.2506543 -43.89770508 31.73583984 C-42.38030985 30.67549137 -40.85524263 29.62604918 -39.32324219 28.58691406 C-36.30638128 26.52621672 -33.35389037 24.38322912 -30.3996582 22.23413086 C-28.17446284 20.61551673 -25.94140274 19.00826052 -23.70703125 17.40234375 C-15.75475985 11.6700181 -7.88104206 5.82964929 0 0 Z " fill="#F1AA2E" transform="translate(119,80)"/>
<path d="M0 0 C11.22 0 22.44 0 34 0 C34.74563343 4.30433841 35.48590252 8.58855566 36.1484375 12.90234375 C36.66688398 16.18979415 37.31272558 19.39634437 38.1015625 22.62890625 C39.06261904 26.97622297 39.55269226 30.54622154 39 35 C35.86479921 39.03173938 32.27013124 41.34369583 27.88769531 43.88037109 C24.91080834 45.64602082 22.16522626 47.70725096 19.375 49.75 C18.22095921 50.56768803 17.06597251 51.38404231 15.91015625 52.19921875 C12.9109218 54.33185013 9.94936446 56.51120996 6.99609375 58.70703125 C6.13773926 59.34479492 5.27938477 59.98255859 4.39501953 60.63964844 C2.69695134 61.90396921 1.00123827 63.17146035 -0.69189453 64.44238281 C-1.46774902 65.01956055 -2.24360352 65.59673828 -3.04296875 66.19140625 C-3.73414795 66.70904541 -4.42532715 67.22668457 -5.13745117 67.76000977 C-7 69 -7 69 -10 70 C-8.62267149 56.57670061 -6.83603035 43.22717509 -4.91333008 29.87182617 C-4.43082169 26.51605337 -3.95443302 23.15944759 -3.47851562 19.80273438 C-3.17223488 17.66140683 -2.86560755 15.52012882 -2.55859375 13.37890625 C-2.41691269 12.3790419 -2.27523163 11.37917755 -2.1292572 10.34901428 C-1.99564285 9.42632248 -1.8620285 8.50363068 -1.72436523 7.55297852 C-1.60826401 6.7434523 -1.49216278 5.93392609 -1.37254333 5.09986877 C-1 3 -1 3 0 0 Z " fill="#FDFCF9" transform="translate(79,31)"/>
<path d="M0 0 C0.66 4.29 1.32 8.58 2 13 C8.93 13.33 15.86 13.66 23 14 C23 21.26 23 28.52 23 36 C5.84 36 -11.32 36 -29 36 C-29 29.07 -29 22.14 -29 15 C-24.545 14.505 -24.545 14.505 -20 14 C-17.1745761 12.4647904 -17.1745761 12.4647904 -14.9375 10.3125 C-14.11121094 9.59707031 -13.28492187 8.88164063 -12.43359375 8.14453125 C-11.63050781 7.43683594 -10.82742187 6.72914062 -10 6 C-8.5134614 4.81622886 -7.01462823 3.64761162 -5.5 2.5 C-4.8709375 2.0153125 -4.241875 1.530625 -3.59375 1.03125 C-2 0 -2 0 0 0 Z " fill="#FD870A" transform="translate(125,115)"/>
<path d="M0 0 C2.26871919 3.40307879 2.57353572 4.9485893 3 9 C3.20302734 10.37478516 3.20302734 10.37478516 3.41015625 11.77734375 C4.1099405 19.59324394 4.1099405 19.59324394 1.26171875 23.203125 C-1.38933633 25.33785348 -4.13279709 27.16556791 -7 29 C-8.67840053 30.18629875 -10.33855617 31.39550919 -11.99853516 32.60742188 C-13.77464509 33.89283625 -15.57323619 35.14150506 -17.375 36.390625 C-19.8193501 38.10637074 -22.11222058 39.91116421 -24.375 41.859375 C-32.63990393 48.75598083 -38.81605513 50.11126113 -49.5546875 49.3515625 C-50.69164063 49.23554688 -51.82859375 49.11953125 -53 49 C-54.03694525 40.49181187 -54.03694525 40.49181187 -51.79003906 37.25927734 C-49.98131038 35.72713387 -48.12892923 34.4539479 -46.125 33.1875 C-45.04665894 32.4447583 -45.04665894 32.4447583 -43.9465332 31.68701172 C-42.4194703 30.63558056 -40.88343538 29.59707843 -39.33935547 28.57080078 C-35.54772685 26.02484602 -31.87730392 23.31531218 -28.1875 20.625 C-26.69452888 19.55006079 -25.20103079 18.47585315 -23.70703125 17.40234375 C-15.75475985 11.6700181 -7.88104206 5.82964929 0 0 Z " fill="#E3750C" transform="translate(119,80)"/>
<path d="M0 0 C3.68233508 5.52350262 5.25720111 13.39458042 4 20 C0.90040605 24.07253682 -2.72273554 26.33956692 -7.11230469 28.88037109 C-10.08919166 30.64602082 -12.83477374 32.70725096 -15.625 34.75 C-16.77904079 35.56768803 -17.93402749 36.38404231 -19.08984375 37.19921875 C-22.0890782 39.33185013 -25.05063554 41.51120996 -28.00390625 43.70703125 C-28.86226074 44.34479492 -29.72061523 44.98255859 -30.60498047 45.63964844 C-32.30304866 46.90396921 -33.99876173 48.17146035 -35.69189453 49.44238281 C-36.46774902 50.01956055 -37.24360352 50.59673828 -38.04296875 51.19140625 C-38.73414795 51.70904541 -39.42532715 52.22668457 -40.13745117 52.76000977 C-42 54 -42 54 -45 55 C-44.68889371 52.14567529 -44.37615574 49.29154475 -44.0625 46.4375 C-43.97548828 45.63763672 -43.88847656 44.83777344 -43.79882812 44.01367188 C-43.62361899 42.42381121 -43.43966998 40.83488845 -43.24682617 39.24707031 C-43.02612352 37.23782479 -42.90842167 35.21788575 -42.8046875 33.19921875 C-41.74262364 28.97674156 -39.57982421 27.56972185 -36.0625 25.375 C-34.78674293 24.52365818 -33.5120568 23.67070997 -32.23828125 22.81640625 C-31.55459473 22.36668457 -30.8709082 21.91696289 -30.16650391 21.45361328 C-26.28356455 18.84835963 -22.52685862 16.06818015 -18.75 13.3125 C-12.54049166 8.81559828 -6.30779266 4.35839945 0 0 Z " fill="#FA8910" transform="translate(114,46)"/>
<path d="M0 0 C2.46516156 4.63408053 4.25268761 8.72190771 3 14 C-0.20317642 17.51554291 -3.99139438 20.02832597 -7.93896484 22.62548828 C-10.81643917 24.5444862 -13.59970227 26.58408991 -16.39306641 28.62280273 C-18.65348721 30.27076868 -20.9253626 31.9018853 -23.19921875 33.53125 C-26.57758341 35.96126494 -29.93025129 38.4228024 -33.26953125 40.90625 C-34.56479736 41.86869629 -34.56479736 41.86869629 -35.88623047 42.85058594 C-37.55824239 44.09539481 -39.22793011 45.343333 -40.89501953 46.59472656 C-41.65024902 47.15643555 -42.40547852 47.71814453 -43.18359375 48.296875 C-43.84931396 48.79541992 -44.51503418 49.29396484 -45.20092773 49.80761719 C-47 51 -47 51 -50 52 C-49.85848172 49.9163691 -49.71162064 47.83310062 -49.5625 45.75 C-49.48128906 44.58984375 -49.40007812 43.4296875 -49.31640625 42.234375 C-48.67275284 35.65480678 -48.67275284 35.65480678 -46.53564453 33.57470703 C-45.90770996 33.14013184 -45.27977539 32.70555664 -44.6328125 32.2578125 C-43.92133057 31.75596436 -43.20984863 31.25411621 -42.47680664 30.73706055 C-41.70071045 30.20508057 -40.92461426 29.67310059 -40.125 29.125 C-38.47970312 27.96853641 -36.83519793 26.81094582 -35.19140625 25.65234375 C-34.33691895 25.05405762 -33.48243164 24.45577148 -32.60205078 23.83935547 C-28.37564057 20.85176169 -24.2205294 17.76919116 -20.0625 14.6875 C-18.48463917 13.52177777 -16.90652231 12.35640198 -15.328125 11.19140625 C-14.59142578 10.64758301 -13.85472656 10.10375977 -13.09570312 9.54345703 C-8.7464784 6.34031179 -4.37599802 3.1664525 0 0 Z " fill="#FDFCF9" transform="translate(117,66)"/>
<path d="M0 0 C1.64014201 19.56058589 1.64014201 19.56058589 -2.15625 25.20703125 C-4.70161948 27.17822974 -7.07006953 28.67912971 -10 30 C-10.66 30.33 -11.32 30.66 -12 31 C-13.37548156 31.08308638 -14.75485796 31.10736016 -16.1328125 31.09765625 C-16.93847656 31.09443359 -17.74414062 31.09121094 -18.57421875 31.08789062 C-19.41597656 31.07951172 -20.25773437 31.07113281 -21.125 31.0625 C-21.97449219 31.05798828 -22.82398437 31.05347656 -23.69921875 31.04882812 C-25.79950909 31.03702874 -27.8997633 31.01909306 -30 31 C-31.09556526 22.5135668 -31.09556526 22.5135668 -28.69335938 19.19482422 C-26.79053429 17.60511561 -24.84525546 16.26325272 -22.75 14.9375 C-21.2835167 13.93148133 -19.81737429 12.92496558 -18.3515625 11.91796875 C-17.6184082 11.43118652 -16.88525391 10.9444043 -16.12988281 10.44287109 C-13.02705613 8.3408874 -10.0828364 6.04914685 -7.125 3.75 C-2.24468085 0 -2.24468085 0 0 0 Z " fill="#FD890E" transform="translate(96,98)"/>
<path d="M0 0 C11.22 0 22.44 0 34 0 C30.69606711 3.30393289 27.73098211 5.72544038 23.9375 8.375 C17.77376954 12.71231538 11.68723014 17.14696446 5.625 21.625 C4.77413818 22.25325684 3.92327637 22.88151367 3.04663086 23.52880859 C1.0304627 25.01836413 -0.98511302 26.50871214 -3 28 C-4.00363252 24.80649837 -3.96578397 22.41938315 -3.4765625 19.12109375 C-3.3425 18.20005859 -3.2084375 17.27902344 -3.0703125 16.33007812 C-2.84988281 14.89825195 -2.84988281 14.89825195 -2.625 13.4375 C-2.48578125 12.47908203 -2.3465625 11.52066406 -2.203125 10.53320312 C-1.15147954 3.45443861 -1.15147954 3.45443861 0 0 Z " fill="#F98A11" transform="translate(79,31)"/>
<path d="M0 0 C0.33 0 0.66 0 1 0 C1.66 5.94 2.32 11.88 3 18 C1.71222656 18.92683594 0.42445312 19.85367188 -0.90234375 20.80859375 C-2.58076367 22.01818129 -4.25914721 23.22781931 -5.9375 24.4375 C-7.21270508 25.35499023 -7.21270508 25.35499023 -8.51367188 26.29101562 C-9.72700195 27.1659668 -9.72700195 27.1659668 -10.96484375 28.05859375 C-11.7137085 28.59798584 -12.46257324 29.13737793 -13.23413086 29.69311523 C-14.93055637 30.88131194 -14.93055637 30.88131194 -16 32 C-17.56172745 32.08685603 -19.12729344 32.10702219 -20.69140625 32.09765625 C-21.63564453 32.09443359 -22.57988281 32.09121094 -23.55273438 32.08789062 C-24.54595703 32.07951172 -25.53917969 32.07113281 -26.5625 32.0625 C-27.55958984 32.05798828 -28.55667969 32.05347656 -29.58398438 32.04882812 C-32.05604849 32.03700007 -34.52799518 32.02051849 -37 32 C-33.1765393 27.97144945 -29.09284107 24.66348762 -24.625 21.375 C-23.5884729 20.6015625 -23.5884729 20.6015625 -22.53100586 19.8125 C-18.93468453 17.13616785 -15.31255764 14.502327 -11.65234375 11.9140625 C-10.9651123 11.42373535 -10.27788086 10.9334082 -9.56982422 10.42822266 C-8.25659225 9.4938506 -6.93679309 8.56862367 -5.60986328 7.65380859 C-2.31459178 5.30414455 -0.69936558 3.99697704 0 0 Z " fill="#9CF9F9" transform="translate(122,97)"/>
<path d="M0 0 C3.48529738 5.22794607 4.5319091 11.68319623 4.42089844 17.92822266 C3.64442702 21.75022758 1.15303051 23.60004727 -1.9375 25.75 C-4.25281342 27.25554389 -6.60050115 28.62494473 -9 30 C-10.40996462 31.02245778 -11.80985941 32.05938912 -13.1875 33.125 C-16 35 -16 35 -18 35 C-20.54731506 16.64953424 -20.54731506 16.64953424 -16.46191406 10.79638672 C-11.66721366 6.14904967 -5.93263719 2.9663186 0 0 Z " fill="#E4750C" transform="translate(114,46)"/>
<path d="M0 0 C2.45650806 4.61781343 4.29642402 8.74646777 3 14 C-0.36786519 17.56379446 -4.14024481 20.18547146 -8.23876953 22.84814453 C-10.80182519 24.52439857 -13.26659558 26.33363281 -15.75 28.125 C-19.85714286 31 -19.85714286 31 -21 31 C-22.50845143 25.99720006 -23.79148187 21.04440456 -22 16 C-17.71097897 10.97694763 -11.7685683 7.60528352 -6.12231445 4.29589844 C-3.97237008 2.983129 -1.9909857 1.54100886 0 0 Z " fill="#9CFAFA" transform="translate(117,66)"/>
<path d="M0 0 C2.45639603 4.50749319 3.8153642 8.84792988 3 14 C0.53591321 17.13021912 -2.51611085 19.0363634 -5.875 21.125 C-6.72964844 21.69992188 -7.58429688 22.27484375 -8.46484375 22.8671875 C-14.67390253 27 -14.67390253 27 -16 27 C-16.96212676 21.67489562 -17.88579642 16.20416627 -16 11 C-11.7565818 6.03483125 -5.70158523 3.00351365 0 0 Z " fill="#9CF9F9" transform="translate(112,32)"/>
<path d="M0 0 C0.66 0 1.32 0 2 0 C2.19658808 1.41543415 2.38187546 2.83244031 2.5625 4.25 C2.66691406 5.03890625 2.77132812 5.8278125 2.87890625 6.640625 C3 9 3 9 2 13 C-3.61 13 -9.22 13 -15 13 C-15 12.34 -15 11.68 -15 11 C-12.71890987 9.23105139 -10.43814453 7.56974556 -8.0625 5.9375 C-3.84343916 3.19157611 -3.84343916 3.19157611 0 0 Z " fill="#E2760E" transform="translate(123,115)"/>
<path d="M0 0 C3.96 0 7.92 0 12 0 C12.33 0.66 12.66 1.32 13 2 C11.2126038 3.33905267 9.41995047 4.67109066 7.625 6 C6.62726563 6.7425 5.62953125 7.485 4.6015625 8.25 C2 10 2 10 0 10 C0 6.7 0 3.4 0 0 Z " fill="#E4760E" transform="translate(96,33)"/>
<path d="M0 0 C11.22 0 22.44 0 34 0 C31 3 31 3 27.90551758 3.2487793 C26.66439209 3.19117432 25.4232666 3.13356934 24.14453125 3.07421875 C23.48289474 3.04777786 22.82125824 3.02133698 22.13957214 2.99409485 C20.02961927 2.90643127 17.92140776 2.79725639 15.8125 2.6875 C14.38092146 2.62423028 12.94928013 2.56236456 11.51757812 2.50195312 C8.01084421 2.35091097 4.5053518 2.18056436 1 2 C1 3.65 1 5.3 1 7 C0.67 7 0.34 7 0 7 C0 4.69 0 2.38 0 0 Z " fill="#D08E2D" transform="translate(79,31)"/>
<path d="M0 0 C0 2.97 0 5.94 0 9 C-3.63 9 -7.26 9 -11 9 C-2.25 0 -2.25 0 0 0 Z " fill="#FEFBF7" transform="translate(96,120)"/>
</svg>
