<?xml version="1.0" encoding="UTF-8"?>
<svg version="1.1" xmlns="http://www.w3.org/2000/svg" width="192" height="192">
<path d="M0 0 C19.64310634 16.50723368 34.95998326 37.87100875 38 64 C39.93968261 91.4302756 35.56724201 117.47545518 17.4296875 139.05859375 C0.66455385 158.04290323 -21.38232983 172.40063212 -47.21777344 174.22753906 C-75.34900197 175.47799065 -100.83683736 170.04743092 -122.1875 150.625 C-140.71410423 133.23568413 -153.23916107 111.01762334 -154.3828125 85.2890625 C-155.07663198 57.50243854 -148.60950022 32.97321456 -129.18408203 12.27734375 C-95.57926542 -22.68905719 -39.51600256 -29.91343935 0 0 Z " fill="#E6E6E7" transform="translate(154,18)"/>
<path d="M0 0 C4.03825066 -0.12406007 8.07575638 -0.21455045 12.11547852 -0.2746582 C13.48807102 -0.29972617 14.86053102 -0.33379082 16.23266602 -0.37719727 C18.21050696 -0.43817531 20.18934184 -0.46361009 22.16796875 -0.48828125 C23.35672607 -0.51446533 24.5454834 -0.54064941 25.77026367 -0.56762695 C29.95761803 0.1683016 31.30759174 1.7887072 34 5 C34.5048291 5.58523437 35.0096582 6.17046875 35.52978516 6.7734375 C35.94534668 7.30195312 36.3609082 7.83046875 36.7890625 8.375 C37.25570312 8.96796875 37.72234375 9.5609375 38.203125 10.171875 C38.67234375 10.77515625 39.1415625 11.3784375 39.625 12 C40.10195312 12.60328125 40.57890625 13.2065625 41.0703125 13.828125 C43.03640981 16.34036045 44.87266909 18.78423561 46.49609375 21.53515625 C48.48275115 24.79121033 50.93259205 27.57802892 53.4375 30.4375 C54.52094649 31.68740192 55.60427663 32.93740471 56.6875 34.1875 C57.23921875 34.82171875 57.7909375 35.4559375 58.359375 36.109375 C60.90123741 39.03856883 63.41800042 41.98907813 65.9375 44.9375 C70.64245522 50.43188241 75.37563865 55.90135051 80.11791992 61.36352539 C84.53628996 66.45589539 88.92763036 71.57102149 93.30664062 76.69726562 C95.58515776 79.41069219 95.58515776 79.41069219 98 82 C97.60391368 87.84546748 96.300221 92.50945473 93.875 97.8125 C93.56079102 98.50827148 93.24658203 99.20404297 92.92285156 99.92089844 C83.97477378 119.27413359 68.7925 134.95532622 50 145 C48.01728004 145.71642585 46.02101796 146.40005764 44 147 C32.53943886 132.55289433 21.38844733 117.86832827 10.3125 103.125 C9.84400635 102.50189941 9.3755127 101.87879883 8.89282227 101.23681641 C5.86834245 97.1994082 2.91968356 93.11386044 0 89 C-0.495 90.485 -0.495 90.485 -1 92 C-2.65 92 -4.3 92 -6 92 C-6.04898438 91.18015625 -6.09796875 90.3603125 -6.1484375 89.515625 C-6.22320312 88.43796875 -6.29796875 87.3603125 -6.375 86.25 C-6.44460937 85.18265625 -6.51421875 84.1153125 -6.5859375 83.015625 C-6.9728223 80.19793568 -7.55686166 78.4169634 -9 76 C-10.32 76 -11.64 76 -13 76 C-13 81.28 -13 86.56 -13 92 C-14.32 92 -15.64 92 -17 92 C-17.05401695 89.08308475 -17.09368066 86.16717276 -17.125 83.25 C-17.15013672 82.0125 -17.15013672 82.0125 -17.17578125 80.75 C-17.18222656 79.95078125 -17.18867187 79.1515625 -17.1953125 78.328125 C-17.20578613 77.5949707 -17.21625977 76.86181641 -17.22705078 76.10644531 C-16.96777544 73.70103924 -16.19225925 72.08748506 -15 70 C-15.53109375 69.28714844 -16.0621875 68.57429688 -16.609375 67.83984375 C-23.08005936 59.06663485 -23.08005936 59.06663485 -24.9375 55.5 C-27.31842106 50.98935598 -30.89873165 47.33958143 -34.26953125 43.55078125 C-36 41 -36 41 -35.75805664 39.04980469 C-34.95754666 36.88520507 -34.03833039 35.45108805 -32.6015625 33.65234375 C-32.12203125 33.04712891 -31.6425 32.44191406 -31.1484375 31.81835938 C-30.64570312 31.19767578 -30.14296875 30.57699219 -29.625 29.9375 C-29.13 29.31294922 -28.635 28.68839844 -28.125 28.04492188 C-26.76811447 26.34518692 -25.4126202 24.65374253 -24 23 C-23.58693604 22.44473633 -23.17387207 21.88947266 -22.74829102 21.31738281 C-20.04503514 19.28040911 -17.69942362 19.66332633 -14.36328125 19.70703125 C-13.06455078 19.71669922 -11.76582031 19.72636719 -10.42773438 19.73632812 C-9.05598361 19.76139415 -7.68423882 19.78678899 -6.3125 19.8125 C-4.92905076 19.8275498 -3.54558599 19.8412377 -2.16210938 19.85351562 C1.22565207 19.88892777 4.61263139 19.93831946 8 20 C6.64783162 22.88387779 5.10247664 25.35417975 3.1796875 27.890625 C2.64472656 28.59960938 2.10976562 29.30859375 1.55859375 30.0390625 C0.72521484 31.13347656 0.72521484 31.13347656 -0.125 32.25 C-0.68832031 32.99507812 -1.25164062 33.74015625 -1.83203125 34.5078125 C-3.21848254 36.34074811 -4.60787768 38.17137013 -6 40 C-0.66111561 38.73737333 1.93868603 36.352006 5.1875 32.125 C5.61224609 31.59519531 6.03699219 31.06539062 6.47460938 30.51953125 C7.66613512 29.02595466 8.83380807 27.51344013 10 26 C10.92232422 24.97519531 10.92232422 24.97519531 11.86328125 23.9296875 C13.18991587 22.04224162 13.18991587 22.04224162 13.03125 19.6953125 C11.55340749 15.83276957 9.13440595 13.02699704 6.5 9.875 C5.48586568 8.64628815 4.47529183 7.41462668 3.46875 6.1796875 C3.01951172 5.64069824 2.57027344 5.10170898 2.10742188 4.54638672 C1 3 1 3 0 0 Z " fill="#BBBABF" transform="translate(91,37)"/>
<path d="M0 0 C4.03825066 -0.12406007 8.07575638 -0.21455045 12.11547852 -0.2746582 C13.48807102 -0.29972617 14.86053102 -0.33379082 16.23266602 -0.37719727 C18.21050696 -0.43817531 20.18934184 -0.46361009 22.16796875 -0.48828125 C23.35672607 -0.51446533 24.5454834 -0.54064941 25.77026367 -0.56762695 C29.96128962 0.16894689 31.30635785 1.78350184 34 5 C34.52053955 5.61141846 35.0410791 6.22283691 35.57739258 6.8527832 C36.22937622 7.69329224 36.22937622 7.69329224 36.89453125 8.55078125 C37.37470703 9.16630859 37.85488281 9.78183594 38.34960938 10.41601562 C38.83236328 11.04185547 39.31511719 11.66769531 39.8125 12.3125 C40.56563477 13.28026367 40.56563477 13.28026367 41.33398438 14.26757812 C42.55905681 15.84267125 43.7799632 17.42100316 45 19 C43.35169863 22.6756239 41.10003592 25.722137 38.6875 28.9375 C37.92824219 29.95714844 37.16898438 30.97679688 36.38671875 32.02734375 C30.14746168 39.79833333 30.14746168 39.79833333 25.77026367 40.56762695 C24.58150635 40.54144287 23.39274902 40.51525879 22.16796875 40.48828125 C20.87568359 40.47216797 19.58339844 40.45605469 18.25195312 40.43945312 C16.89711843 40.39768274 15.54230072 40.35535809 14.1875 40.3125 C12.81319134 40.28740069 11.43883884 40.26459036 10.06445312 40.24414062 C6.70852024 40.18526461 3.3548191 40.1030642 0 40 C1.27908508 37.25077095 2.66750904 35.02394649 4.63671875 32.72265625 C5.13107422 32.12646484 5.62542969 31.53027344 6.13476562 30.91601562 C7.17285779 29.67683391 8.21983522 28.44504353 9.27539062 27.22070312 C12.17877405 23.77052024 12.17877405 23.77052024 13.17578125 19.50390625 C11.46291652 15.85624415 9.07443074 12.95523829 6.5 9.875 C5.48586568 8.64628815 4.47529183 7.41462668 3.46875 6.1796875 C2.79489258 5.37120361 2.79489258 5.37120361 2.10742188 4.54638672 C1 3 1 3 0 0 Z " fill="#037BB0" transform="translate(91,37)"/>
<path d="M0 0 C1.29873047 0.00966797 2.59746094 0.01933594 3.93554688 0.02929688 C5.30729764 0.0543629 6.67904243 0.07975774 8.05078125 0.10546875 C9.43423049 0.12051855 10.81769526 0.13420645 12.20117188 0.14648438 C15.58893332 0.18189652 18.97591264 0.23128821 22.36328125 0.29296875 C21.08136013 3.04492101 19.68475797 5.28976184 17.7265625 7.60546875 C16.9850293 8.50652344 16.9850293 8.50652344 16.22851562 9.42578125 C15.18855252 10.67635324 14.14158203 11.92112922 13.08789062 13.16015625 C10.22351137 16.30879479 10.22351137 16.30879479 9.55322266 20.27490234 C10.45620693 22.52447076 11.53185348 24.03667729 13.0859375 25.89453125 C13.62412109 26.549375 14.16230469 27.20421875 14.71679688 27.87890625 C15.56274414 28.88824219 15.56274414 28.88824219 16.42578125 29.91796875 C17.54600696 31.26071376 18.66211848 32.60690539 19.7734375 33.95703125 C20.26980713 34.5495166 20.76617676 35.14200195 21.27758789 35.75244141 C22.36328125 37.29296875 22.36328125 37.29296875 22.36328125 39.29296875 C18.38052275 39.51734411 14.40025819 39.67959185 10.41259766 39.78735352 C8.39874973 39.85428985 6.38666068 39.96872272 4.375 40.08398438 C-5.24839087 40.30159874 -5.24839087 40.30159874 -9.21655273 37.41870117 C-11.24554215 35.14247503 -12.95668739 32.83417215 -14.63671875 30.29296875 C-15.41144531 29.39964844 -16.18617187 28.50632812 -16.984375 27.5859375 C-17.83322266 26.54373047 -17.83322266 26.54373047 -18.69921875 25.48046875 C-19.28832031 24.77277344 -19.87742188 24.06507812 -20.484375 23.3359375 C-21.63671875 21.29296875 -21.63671875 21.29296875 -21.35864258 19.37451172 C-20.59204816 17.16416881 -19.6936552 15.76735043 -18.23828125 13.9453125 C-17.75875 13.34009766 -17.27921875 12.73488281 -16.78515625 12.11132812 C-16.28242187 11.49064453 -15.7796875 10.86996094 -15.26171875 10.23046875 C-14.76671875 9.60591797 -14.27171875 8.98136719 -13.76171875 8.33789062 C-12.40483322 6.63815567 -11.04933895 4.94671128 -9.63671875 3.29296875 C-9.22365479 2.73770508 -8.81059082 2.18244141 -8.38500977 1.61035156 C-5.68175389 -0.42662214 -3.33614237 -0.04370492 0 0 Z " fill="#D4AA05" transform="translate(76.63671875,56.70703125)"/>
<path d="M0 0 C3.5386994 1.65139305 4.81070153 2.71605229 7 6 C7.54531842 9.06526351 7.54325893 11.93408329 7 15 C4.81840855 17.75569447 3.12822506 19.43588747 0 21 C-4.37959914 21.50533836 -6.51443013 21.27875307 -10.375 19.0625 C-13.39866894 16.19368203 -14.09394423 13.31374699 -14.3125 9.22265625 C-13.76471499 5.32653534 -11.83898983 3.64092077 -9 1 C-5.93570224 -0.53214888 -3.3834358 -0.22938548 0 0 Z " fill="#0F405C" transform="translate(64,108)"/>
<path d="M0 0 C5.53846154 3.07692308 5.53846154 3.07692308 7 6 C7.42071592 9.05920574 7.48514117 11.9467746 7 15 C4.81840855 17.75569447 3.12822506 19.43588747 0 21 C-4.07909806 21.38482057 -6.29089873 21.44121857 -9.8125 19.25 C-13.21387283 15.75144509 -13.21387283 15.75144509 -14 13 C-13.80743088 7.70434916 -12.69046589 4.80229819 -9 1 C-5.89046621 -0.5547669 -3.43733239 -0.28644437 0 0 Z " fill="#16435C" transform="translate(139,108)"/>
<path d="M0 0 C2.69105198 2.17574416 4.45532928 3.91065856 6 7 C6 8.98 6 10.96 6 13 C1.05 13.33 -3.9 13.66 -9 14 C-7.23863645 16.18331689 -7.23863645 16.18331689 -5.0546875 16.1953125 C-2.02734375 16.09765625 -2.02734375 16.09765625 1 16 C1.33 17.32 1.66 18.64 2 20 C-1.24430347 21.62215174 -4.49378642 21.55292793 -8 21 C-11.41885274 19.07301027 -13.4095503 17.63879916 -14.765625 13.875 C-15.36623979 10.58274118 -15.60229224 8.13165066 -14 5.12109375 C-10.03888092 0.22864012 -6.18601638 -1.09025576 0 0 Z " fill="#0A3C59" transform="translate(110,108)"/>
<path d="M0 0 C3.65878727 3.56649353 7.0399365 7.26527205 10.3125 11.1875 C10.9940918 11.98704102 10.9940918 11.98704102 11.68945312 12.80273438 C15 16.76045583 15 16.76045583 15 19 C6.75 19 -1.5 19 -10 19 C-10.33 17.35 -10.66 15.7 -11 14 C-9.44393441 11.69548461 -7.98781211 9.83262734 -6.125 7.8125 C-2.70412384 4.16000328 -2.70412384 4.16000328 0 0 Z " fill="#A67111" transform="translate(84,77)"/>
<path d="M0 0 C8.25 0 16.5 0 25 0 C26 4 26 4 25.10375977 5.73925781 C24.40464478 6.58762207 24.40464478 6.58762207 23.69140625 7.453125 C23.19189453 8.071875 22.69238281 8.690625 22.17773438 9.328125 C21.64470703 9.96234375 21.11167969 10.5965625 20.5625 11.25 C20.03333984 11.8996875 19.50417969 12.549375 18.95898438 13.21875 C17.65062191 14.8217887 16.32674973 16.41214592 15 18 C11.99851686 16.68313741 10.21668946 15.39104261 8.203125 12.8125 C7.71972656 12.19632813 7.23632812 11.58015625 6.73828125 10.9453125 C6.00158203 9.98238281 6.00158203 9.98238281 5.25 9 C4.74339844 8.35804687 4.23679687 7.71609375 3.71484375 7.0546875 C0 2.26844677 0 2.26844677 0 0 Z " fill="#06334E" transform="translate(92,38)"/>
<path d="M0 0 C2.5 1 2.5 1 4 2 C3.67 2.99 3.34 3.98 3 5 C2.40832031 4.95359375 1.81664063 4.9071875 1.20703125 4.859375 C-2.80189647 4.67625922 -5.40467339 4.70841146 -9.0625 6.5 C-11.41881305 9.54040393 -11.69081869 11.3224678 -11.40234375 15.09375 C-11.05827852 17.18076453 -11.05827852 17.18076453 -9.625 19.5 C-5.56988944 21.81720603 -1.56419136 21.3135704 3 21 C3.33 21.99 3.66 22.98 4 24 C0.26027562 26.49314959 -3.66350405 26.53665219 -8 26 C-12.27309946 24.34902975 -14.23132031 21.78807768 -16.26953125 17.828125 C-17.40660021 14.98241231 -17.51380569 13.01860846 -17 10 C-12.76047561 2.1490289 -8.75388495 -0.83370333 0 0 Z " fill="#1D4862" transform="translate(45,103)"/>
<path d="M0 0 C0.99 0.33 1.98 0.66 3 1 C2.67 2.32 2.34 3.64 2 5 C-0.31 5 -2.62 5 -5 5 C-5 5.66 -5 6.32 -5 7 C-3.88625 7.268125 -2.7725 7.53625 -1.625 7.8125 C2 9 2 9 4 12 C4.375 15 4.375 15 4 18 C2.4375 19.875 2.4375 19.875 0 21 C-4.38939738 21.38503486 -6.28986601 21.47342266 -10 19 C-9.34 17.68 -8.68 16.36 -8 15 C-5.69 15.33 -3.38 15.66 -1 16 C-0.67 15.01 -0.34 14.02 0 13 C-0.9075 12.9175 -1.815 12.835 -2.75 12.75 C-6.47408179 11.89059651 -7.77765381 11.07709473 -10 8 C-10.49089348 5.12476676 -10.41359492 3.70554428 -8.9375 1.1875 C-5.96608707 -0.63368857 -3.40678991 -0.24334214 0 0 Z " fill="#18435D" transform="translate(158,108)"/>
<path d="M0 0 C2.5 1.5 2.5 1.5 4 3 C3.34 4.98 2.68 6.96 2 9 C1.07316406 8.98839844 0.14632812 8.97679688 -0.80859375 8.96484375 C-2.60490234 8.95130859 -2.60490234 8.95130859 -4.4375 8.9375 C-6.22994141 8.92009766 -6.22994141 8.92009766 -8.05859375 8.90234375 C-10.88873341 8.66098208 -10.88873341 8.66098208 -12 10 C-12.36628677 11.99422795 -12.70131344 13.99453311 -13 16 C-15.36086122 12.45870816 -15.57269578 11.17249782 -15 7 C-11.13127272 0.78702533 -7.20292204 -0.85410143 0 0 Z " fill="#1A465E" transform="translate(110,108)"/>
<path d="M0 0 C2 2 2 2 2.375 5.4375 C2 9 2 9 0.3125 10.9375 C-2.41818887 12.19214083 -4.02932151 12.45702746 -7 12 C-8.8125 10.9375 -8.8125 10.9375 -10 9 C-10.36841966 5.56141649 -10.58367385 3.09868019 -8.9375 0 C-5.80557344 -1.61647822 -3.32814714 -0.78665296 0 0 Z " fill="#B5B5BB" transform="translate(140,113)"/>
<path d="M0 0 C1.875 1.125 1.875 1.125 3 3 C3.54624158 6.66762206 3.47898298 8.3258758 1.3125 11.375 C-1 13 -1 13 -3.5625 13.4375 C-6 13 -6 13 -7.8125 11.9375 C-9.67036623 8.90624457 -9.37133265 6.46577141 -9 3 C-6.84332735 -0.71426957 -4.0099826 -0.50124783 0 0 Z " fill="#DEE0E1" transform="translate(64,112)"/>
<path d="M0 0 C-0.33 1.32 -0.66 2.64 -1 4 C-2.32 4.33 -3.64 4.66 -5 5 C-5.33 10.28 -5.66 15.56 -6 21 C-7.32 21 -8.64 21 -10 21 C-10.107834 18.06152347 -10.18721916 15.12698849 -10.25 12.1875 C-10.28351563 11.35412109 -10.31703125 10.52074219 -10.3515625 9.66210938 C-10.4503519 3.5124694 -10.4503519 3.5124694 -8.1875 0.9375 C-5.35650657 -0.2757829 -3.04603275 -0.20768405 0 0 Z " fill="#1F4B65" transform="translate(84,108)"/>
<path d="M0 0 C-0.33 1.32 -0.66 2.64 -1 4 C-2.32 4.33 -3.64 4.66 -5 5 C-5.33 10.28 -5.66 15.56 -6 21 C-7.32 21 -8.64 21 -10 21 C-10.10812003 18.24894578 -10.18734945 15.50214913 -10.25 12.75 C-10.28351563 11.97269531 -10.31703125 11.19539063 -10.3515625 10.39453125 C-10.45012504 4.6286229 -10.45012504 4.6286229 -8.1875 1.46875 C-5.33288499 -0.44792008 -3.36681065 -0.3060737 0 0 Z " fill="#1F495F" transform="translate(95,108)"/>
<path d="M0 0 C6.95010248 2.12758239 9.94348367 6.11866782 14 12 C12.79618552 14.49361571 11.54571278 16.68143083 10 19 C9.34 19 8.68 19 8 19 C7.67 16.03 7.34 13.06 7 10 C5.35 9.67 3.7 9.34 2 9 C2.04125 8.2575 2.0825 7.515 2.125 6.75 C1.99601866 3.91241048 1.42948778 2.41226062 0 0 Z " fill="#0D8AC7" transform="translate(122,44)"/>
<path d="M0 0 C1.32 0 2.64 0 4 0 C4 6.6 4 13.2 4 20 C2.68 20 1.36 20 0 20 C0 13.4 0 6.8 0 0 Z " fill="#0B3D57" transform="translate(119,109)"/>
<path d="M0 0 C0.33 2.31 0.66 4.62 1 7 C-4.61 7 -10.22 7 -16 7 C-16.33 7.66 -16.66 8.32 -17 9 C-17.33 7.02 -17.66 5.04 -18 3 C-17.34 2.67 -16.68 2.34 -16 2 C-16 2.66 -16 3.32 -16 4 C-11.71 4 -7.42 4 -3 4 C-3.33 3.01 -3.66 2.02 -4 1 C-2 0 -2 0 0 0 Z " fill="#053956" transform="translate(115,113)"/>
<path d="M0 0 C2.31 0.66 4.62 1.32 7 2 C6.38125 2.28875 5.7625 2.5775 5.125 2.875 C2.86674235 3.93720042 2.86674235 3.93720042 1 6 C0.75787127 7.98128508 0.75787127 7.98128508 0.875 10.125 C0.91625 11.40375 0.9575 12.6825 1 14 C-0.98 14.99 -0.98 14.99 -3 16 C-5.10958512 12.57192418 -5.55884699 9.99176419 -5 6 C-3.51902558 3.72951658 -1.88425005 1.97846255 0 0 Z " fill="#1F4862" transform="translate(55,109)"/>
<path d="M0 0 C0.99 0.33 1.98 0.66 3 1 C3 1.99 3 2.98 3 4 C2.38125 4.061875 1.7625 4.12375 1.125 4.1875 C-1.23903023 4.82965018 -1.23903023 4.82965018 -2.3125 7.375 C-3.27654806 10.08080211 -3.27654806 10.08080211 -2 13 C-1.01 13.66 -0.02 14.32 1 15 C-2.63 15 -6.26 15 -10 15 C-8.19761121 11.39522241 -6.25869552 8.47952297 -3.875 5.25 C-3.15054688 4.26515625 -2.42609375 3.2803125 -1.6796875 2.265625 C-1.12539062 1.51796875 -0.57109375 0.7703125 0 0 Z " fill="#07496B" transform="translate(102,61)"/>
<path d="M0 0 C0.5625 1.9375 0.5625 1.9375 1 4 C0 5 0 5 -2.77563477 5.11352539 C-3.98533936 5.10828857 -5.19504395 5.10305176 -6.44140625 5.09765625 C-7.74658203 5.09443359 -9.05175781 5.09121094 -10.39648438 5.08789062 C-11.7851569 5.07953401 -13.17382877 5.07106905 -14.5625 5.0625 C-15.95507656 5.05748666 -17.34765481 5.05292347 -18.74023438 5.04882812 C-22.1601987 5.03699434 -25.58007844 5.0205088 -29 5 C-28.67 4.34 -28.34 3.68 -28 3 C-24.37 3.33 -20.74 3.66 -17 4 C-16.67 3.34 -16.34 2.68 -16 2 C-15.24074219 2.02320312 -14.48148438 2.04640625 -13.69921875 2.0703125 C-12.20841797 2.09738281 -12.20841797 2.09738281 -10.6875 2.125 C-9.20830078 2.15980469 -9.20830078 2.15980469 -7.69921875 2.1953125 C-4.52519098 1.96564334 -3.07421688 0 0 0 Z " fill="#347190" transform="translate(120,72)"/>
<path d="M0 0 C1.85625 0.1546875 1.85625 0.1546875 3.75 0.3125 C4.08 1.3025 4.41 2.2925 4.75 3.3125 C3.6775 3.60125 2.605 3.89 1.5 4.1875 C-1.34400364 5.04070109 -3.68508983 5.8761503 -6.25 7.3125 C-6.25 9.2925 -6.25 11.2725 -6.25 13.3125 C-8.25 11.3125 -8.25 11.3125 -8.625 8.5 C-7.96081796 2.85445267 -5.74296711 0.01018257 0 0 Z " fill="#0B3D59" transform="translate(134.25,108.6875)"/>
<path d="M0 0 C4.03825066 -0.12406007 8.07575638 -0.21455045 12.11547852 -0.2746582 C13.48807102 -0.29972617 14.86053102 -0.33379082 16.23266602 -0.37719727 C18.21050696 -0.43817531 20.18934184 -0.46361009 22.16796875 -0.48828125 C23.35672607 -0.51446533 24.5454834 -0.54064941 25.77026367 -0.56762695 C29.93504346 0.16433412 31.35121884 1.78707376 34 5 C35.3125 7.3125 35.3125 7.3125 36 9 C33.5625 8.3125 33.5625 8.3125 31 7 C30.67 5.35 30.34 3.7 30 2 C20.1 2 10.2 2 0 2 C0 1.34 0 0.68 0 0 Z " fill="#4A829E" transform="translate(91,37)"/>
<path d="M0 0 C3.96 0 7.92 0 12 0 C13 4 13 4 12.00390625 5.703125 C10.66927083 7.13541667 9.33463542 8.56770833 8 10 C7.34 9.67 6.68 9.34 6 9 C6.33 8.01 6.66 7.02 7 6 C7 4.68 7 3.36 7 2 C5.02 2 3.04 2 1 2 C0.67 1.34 0.34 0.68 0 0 Z " fill="#092B44" transform="translate(105,38)"/>
<path d="M0 0 C0.99 0 1.98 0 3 0 C3.33 1.65 3.66 3.3 4 5 C3.67 4.34 3.34 3.68 3 3 C2.34 3.66 1.68 4.32 1 5 C1.33 5.66 1.66 6.32 2 7 C1.071875 7.8971875 1.071875 7.8971875 0.125 8.8125 C-2.13676954 11.00811144 -2.13676954 11.00811144 -4 14 C-4 13.34 -4 12.68 -4 12 C-5.98 12.99 -5.98 12.99 -8 14 C-6.95211676 10.76108816 -5.6420687 8.42363434 -3.4375 5.875 C-0.85782237 3.19395804 -0.85782237 3.19395804 0 0 Z " fill="#0B8CC3" transform="translate(118,39)"/>
<path d="M0 0 C9.57 0 19.14 0 29 0 C27.38262276 3.23475448 26.52370777 4.70572021 24 7 C24 5.02 24 3.04 24 1 C11.625 1.495 11.625 1.495 -1 2 C-0.67 1.34 -0.34 0.68 0 0 Z " fill="#E3CB25" transform="translate(70,57)"/>
<path d="M0 0 C3.4375 0.1875 3.4375 0.1875 7 1 C7.66 2.32 8.32 3.64 9 5 C5.04 5 1.08 5 -3 5 C-1 1 -1 1 0 0 Z " fill="#A3A8B0" transform="translate(103,112)"/>
<path d="M0 0 C0.99 0.33 1.98 0.66 3 1 C3 5.95 3 10.9 3 16 C2.01 16 1.02 16 0 16 C0 10.72 0 5.44 0 0 Z " fill="#063B59" transform="translate(86,113)"/>
<path d="M0 0 C0.33 0.99 0.66 1.98 1 3 C-2.90028225 5.60018816 -6.47434569 5.15085514 -11 5 C-11.33 4.01 -11.66 3.02 -12 2 C-10.7625 1.67 -9.525 1.34 -8.25 1 C-7.55390625 0.814375 -6.8578125 0.62875 -6.140625 0.4375 C-4 0 -4 0 0 0 Z " fill="#14445D" transform="translate(48,124)"/>
<path d="M0 0 C0.66 0.33 1.32 0.66 2 1 C1.835 1.61875 1.67 2.2375 1.5 2.875 C0.92365356 4.96063386 0.92365356 4.96063386 1 7 C0.21625 7.061875 -0.5675 7.12375 -1.375 7.1875 C-2.24125 7.455625 -3.1075 7.72375 -4 8 C-5.37466625 10.47636012 -5.37466625 10.47636012 -6 13 C-5.34 13.33 -4.68 13.66 -4 14 C-5.32 13.67 -6.64 13.34 -8 13 C-7.48118887 8.8275894 -6.28848726 6.74583179 -3.4375 3.6875 C-2.79683594 2.99011719 -2.15617187 2.29273437 -1.49609375 1.57421875 C-1.00238281 1.05472656 -0.50867188 0.53523438 0 0 Z " fill="#9C6317" transform="translate(81,82)"/>
<path d="M0 0 C0 0.66 0 1.32 0 2 C-1.64453125 3.54296875 -1.64453125 3.54296875 -3.8125 5.1875 C-4.52019531 5.73792969 -5.22789063 6.28835937 -5.95703125 6.85546875 C-6.63121094 7.23316406 -7.30539063 7.61085938 -8 8 C-8.99 7.67 -9.98 7.34 -11 7 C-9.84826645 4.53199953 -8.95216435 2.95216435 -7 1 C-4.60938484 0.40234621 -2.46474039 0 0 0 Z " fill="#0B3C5A" transform="translate(41,104)"/>
<path d="M0 0 C-0.33 1.32 -0.66 2.64 -1 4 C-5.455 4.495 -5.455 4.495 -10 5 C-7.2178219 -0.5643562 -5.86594058 -0.12752045 0 0 Z " fill="#234C64" transform="translate(84,108)"/>
<path d="M0 0 C0.99 0.33 1.98 0.66 3 1 C3 2.98 3 4.96 3 7 C1.02 7.99 1.02 7.99 -1 9 C-1.82638376 6.10765685 -2 4.11257569 -2 1 C-1.34 0.67 -0.68 0.34 0 0 Z " fill="#0E3E5A" transform="translate(159,119)"/>
<path d="M0 0 C5.61 0 11.22 0 17 0 C17 0.33 17 0.66 17 1 C12.05 1.33 7.1 1.66 2 2 C2.99 3.485 2.99 3.485 4 5 C2.02 5.99 2.02 5.99 0 7 C-0.66 6.01 -1.32 5.02 -2 4 C-1.34 2.68 -0.68 1.36 0 0 Z " fill="#34596C" transform="translate(99,120)"/>
<path d="M0 0 C0.66 1.32 1.32 2.64 2 4 C2.33 2.68 2.66 1.36 3 0 C3.66 0 4.32 0 5 0 C5 2.97 5 5.94 5 9 C4.01 9 3.02 9 2 9 C0.14223235 5.86501708 -0.20140476 3.62528568 0 0 Z " fill="#254C62" transform="translate(125,116)"/>
<path d="M0 0 C1.32 0.33 2.64 0.66 4 1 C3.67 2.98 3.34 4.96 3 7 C2.67 7 2.34 7 2 7 C1.67 9.64 1.34 12.28 1 15 C0.67 15 0.34 15 0 15 C0 10.05 0 5.1 0 0 Z " fill="#063855" transform="translate(74,113)"/>
<path d="M0 0 C0.99 0.33 1.98 0.66 3 1 C3 1.99 3 2.98 3 4 C2.13375 4.0928125 2.13375 4.0928125 1.25 4.1875 C-1.88690987 5.32027301 -3.09167504 7.34197595 -5 10 C-5.66 9.67 -6.32 9.34 -7 9 C-4.69 6.03 -2.38 3.06 0 0 Z " fill="#186788" transform="translate(102,61)"/>
<path d="M0 0 C0.75 1.75 0.75 1.75 1 4 C-0.6875 6.3125 -0.6875 6.3125 -3 8 C-5.25 7.75 -5.25 7.75 -7 7 C-7 6.34 -7 5.68 -7 5 C-5.1875 3.3125 -5.1875 3.3125 -3 2 C-2.01 2.33 -1.02 2.66 0 3 C0 2.01 0 1.02 0 0 Z " fill="#1D4760" transform="translate(70,119)"/>
<path d="M0 0 C0.99 0 1.98 0 3 0 C3.33 1.65 3.66 3.3 4 5 C3.67 4.34 3.34 3.68 3 3 C2.34 3.66 1.68 4.32 1 5 C1.33 5.66 1.66 6.32 2 7 C0.35 7.33 -1.3 7.66 -3 8 C-2.690625 7.236875 -2.38125 6.47375 -2.0625 5.6875 C-1.32106407 3.81210323 -0.63771783 1.91315348 0 0 Z " fill="#0894D1" transform="translate(118,39)"/>
<path d="M0 0 C1.70884005 1.62339805 3.37446717 3.29319053 5 5 C5 5.66 5 6.32 5 7 C2.69 7 0.38 7 -2 7 C-1.34 6.67 -0.68 6.34 0 6 C0 4.02 0 2.04 0 0 Z " fill="#B48A18" transform="translate(94,89)"/>
<path d="M0 0 C3.37462715 0.54723683 5.08235 1.0549 8 3 C7.01 3.495 7.01 3.495 6 4 C5.01 5.485 5.01 5.485 4 7 C0 2.25 0 2.25 0 0 Z " fill="#103B55" transform="translate(92,38)"/>
<path d="M0 0 C0 2.31 0 4.62 0 7 C-0.99 7.33 -1.98 7.66 -3 8 C-3.93423645 4.98968256 -4.04449911 4.13349732 -3 1 C-1 0 -1 0 0 0 Z " fill="#093C56" transform="translate(146,116)"/>
<path d="M0 0 C0.99 0.33 1.98 0.66 3 1 C1.02 3.97 1.02 3.97 -1 7 C-1.66 6.67 -2.32 6.34 -3 6 C-2.625 3.5625 -2.625 3.5625 -2 1 C-1.34 0.67 -0.68 0.34 0 0 Z " fill="#DDB612" transform="translate(85,71)"/>
<path d="M0 0 C1.32 0.33 2.64 0.66 4 1 C4 1.99 4 2.98 4 4 C0.78548731 5.60725635 -2.43612536 5.05748185 -6 5 C-6 4.67 -6 4.34 -6 4 C-4.02 3.67 -2.04 3.34 0 3 C0 2.01 0 1.02 0 0 Z " fill="#264A5E" transform="translate(108,124)"/>
<path d="M0 0 C0.66 0 1.32 0 2 0 C2 1.98 2 3.96 2 6 C1.01 6.33 0.02 6.66 -1 7 C-1.04254356 5.00045254 -1.04080783 2.99958364 -1 1 C-0.67 0.67 -0.34 0.34 0 0 Z " fill="#033956" transform="translate(52,115)"/>
<path d="M0 0 C2.31 0.66 4.62 1.32 7 2 C6.401875 2.28875 5.80375 2.5775 5.1875 2.875 C2.80672208 4.04742026 2.80672208 4.04742026 0 6 C-1 3 -1 3 0 0 Z " fill="#194663" transform="translate(55,109)"/>
<path d="M0 0 C-1.75 3.875 -1.75 3.875 -4 5 C-4.99 4.67 -5.98 4.34 -7 4 C-5.34072249 0.68144498 -3.61238217 0 0 0 Z " fill="#184664" transform="translate(37,107)"/>
<path d="M0 0 C-0.33 1.98 -0.66 3.96 -1 6 C-2.65 4.35 -4.3 2.7 -6 1 C-3.92446352 0.4465236 -2.15634036 0 0 0 Z " fill="#C7990B" transform="translate(73,89)"/>
<path d="M0 0 C1.9375 0.75 1.9375 0.75 4 2 C4.96569331 4.49470772 5 6.29745539 5 9 C1.9083091 6.47043472 1.09068668 3.77545388 0 0 Z " fill="#C8970C" transform="translate(60,78)"/>
<path d="M0 0 C0.33 0 0.66 0 1 0 C1.33 2.31 1.66 4.62 2 7 C0.02 7.99 0.02 7.99 -2 9 C-2.33 8.01 -2.66 7.02 -3 6 C-2.34 5.67 -1.68 5.34 -1 5 C-0.34444881 2.47266765 -0.34444881 2.47266765 0 0 Z " fill="#35586B" transform="translate(54,116)"/>
<path d="M0 0 C0.33 0 0.66 0 1 0 C1 2.31 1 4.62 1 7 C-0.32 6.34 -1.64 5.68 -3 5 C-1.125 1.125 -1.125 1.125 0 0 Z " fill="#13415D" transform="translate(99,110)"/>
<path d="M0 0 C1.65 1.65 3.3 3.3 5 5 C2.50907189 6.24546405 1.58919267 5.7767578 -1 5 C-0.67 3.35 -0.34 1.7 0 0 Z " fill="#AD8016" transform="translate(89,83)"/>
</svg>
