<?xml version="1.0" encoding="UTF-8"?>
<svg version="1.1" xmlns="http://www.w3.org/2000/svg" width="192" height="192">
<path d="M0 0 C20.04980865 16.84900905 34.14305898 37.64322406 38 64 C39.77986656 93.98277284 34.40506524 119.9382174 14 143 C-1.5956365 160.02971801 -23.48755297 172.78232014 -46.98168945 174.17700195 C-77.46638964 174.77352957 -102.5095289 169.47794686 -125.1953125 147.78515625 C-130.14413133 142.87079995 -135.04075117 137.76437748 -139 132 C-139 131.34 -139 130.68 -139 130 C-139.60972656 129.75121094 -140.21945313 129.50242188 -140.84765625 129.24609375 C-146.87370591 125.75732816 -148.38401172 117.00506094 -150.08227539 110.70092773 C-151.09109471 106.80913517 -152.05511089 102.90772458 -153 99 C-153.27154907 98.08359741 -153.27154907 98.08359741 -153.54858398 97.14868164 C-158.66240221 72.80757068 -152.26219715 46.19367772 -139.75 25.25 C-125.30386261 3.71035568 -102.64505133 -12.24693426 -77.0859375 -17.3046875 C-50.12023804 -21.60995026 -22.01240815 -16.66329571 0 0 Z " fill="#BCBABF" transform="translate(154,18)"/>
<path d="M0 0 C18.52158486 15.56475458 18.52158486 15.56475458 21 23 C20.29617187 23.17015625 19.59234375 23.3403125 18.8671875 23.515625 C11.88955398 25.22815124 5.00377586 27.14219778 -1.87109375 29.23046875 C-7.16558758 30.53261018 -7.16558758 30.53261018 -10 30 C-12.45703125 27.6640625 -12.45703125 27.6640625 -14.8125 24.625 C-15.60269531 23.62726562 -16.39289063 22.62953125 -17.20703125 21.6015625 C-19 19 -19 19 -19 17 C-41.77 17 -64.54 17 -88 17 C-88.99 19.97 -88.99 19.97 -90 23 C-91.07561321 25.53686261 -92.17126653 28.05402437 -93.30078125 30.56640625 C-93.95508678 32.03710553 -94.60938336 33.50780878 -95.26367188 34.97851562 C-96.28284447 37.26026349 -97.3031097 39.54151858 -98.32397461 41.82250977 C-102.4834963 51.12747632 -106.46869041 60.43416077 -110 70 C-109.34 70 -108.68 70 -108 70 C-106.32666842 73.12147545 -104.66248284 76.24773498 -103 79.375 C-102.52304688 80.26445313 -102.04609375 81.15390625 -101.5546875 82.0703125 C-101.10351562 82.92109375 -100.65234375 83.771875 -100.1875 84.6484375 C-99.76855469 85.43395996 -99.34960938 86.21948242 -98.91796875 87.02880859 C-98 89 -98 89 -98 91 C-116.48 91 -134.96 91 -154 91 C-154 54.27765988 -148.3520152 31.3925569 -122.75 5.74609375 C-90.00801523 -25.00970444 -35.57753294 -26.93203525 0 0 Z " fill="#E6E6E7" transform="translate(154,18)"/>
<path d="M0 0 C1.67321614 0.17505114 3.34483703 0.38628468 5 0.6875 C4.69571528 8.79161634 1.23465693 15.5226359 -2.125 22.75 C-2.68848567 23.98327408 -3.25099171 25.21699624 -3.8125 26.45117188 C-7.8161897 35.22365056 -11.9204611 43.95011996 -16 52.6875 C-24.87514536 52.91966414 -33.74923925 53.09710636 -42.62676334 53.20562172 C-46.74958425 53.2577181 -50.87032175 53.32830895 -54.99194336 53.44189453 C-58.97326884 53.55092137 -62.95259738 53.61041299 -66.93530083 53.63627243 C-68.45097742 53.65468704 -69.96654992 53.69065308 -71.48137093 53.74480057 C-83.37719401 54.1529292 -83.37719401 54.1529292 -87.46115112 50.46502686 C-89.22682818 47.94321449 -90.62792212 45.4371583 -92 42.6875 C-92.66 42.0275 -93.32 41.3675 -94 40.6875 C-102.90135207 40.95117641 -110.8773696 44.13703765 -119.20117188 47.06835938 C-120.81282227 47.61266602 -120.81282227 47.61266602 -122.45703125 48.16796875 C-123.42616455 48.50723389 -124.39529785 48.84649902 -125.39379883 49.19604492 C-128 49.6875 -128 49.6875 -130.26464844 48.88964844 C-138.17759305 43.40803064 -140.23421007 27.61610312 -142 18.6875 C-142.36760706 16.02388249 -142.68603916 13.35827425 -143 10.6875 C-135.07218464 10.4083408 -127.14644948 10.19571074 -119.214921 10.06575394 C-115.53090884 10.00334725 -111.85027812 9.91887672 -108.16821289 9.78222656 C-104.60820351 9.65094689 -101.05142385 9.57992267 -97.48917961 9.54897308 C-95.48254941 9.51629502 -93.4772055 9.42273999 -91.47254944 9.32794189 C-85.92543521 9.32388924 -82.43275963 9.36653462 -78.24459839 13.22790527 C-75.92153382 16.28810093 -73.93685721 19.37193422 -72 22.6875 C-69.73686314 26.90028975 -69.73686314 26.90028975 -66.00524902 29.52342224 C-65.30420044 29.56137405 -64.60315186 29.59932587 -63.88085938 29.63842773 C-62.67810364 29.72005409 -62.67810364 29.72005409 -61.4510498 29.80332947 C-60.1604364 29.83687279 -60.1604364 29.83687279 -58.84375 29.87109375 C-57.49657898 29.9188369 -57.49657898 29.9188369 -56.12219238 29.96754456 C-54.21954362 30.01979712 -52.31635601 30.05485192 -50.41308594 30.07397461 C-47.52860665 30.12449893 -44.66813282 30.29720362 -41.7890625 30.47460938 C-32.30637781 30.90382934 -32.30637781 30.90382934 -23.95950317 27.05038452 C-20.31523376 23.04452877 -17.61675314 18.56840912 -15.10658264 13.78952026 C-7.87896258 0.06022137 -7.87896258 0.06022137 0 0 Z " fill="#E17801" transform="translate(143,98.3125)"/>
<path d="M0 0 C8.84040558 -0.27896595 17.67928098 -0.49170354 26.523139 -0.62174606 C30.63070331 -0.68418818 34.735242 -0.7687407 38.84106445 -0.90527344 C42.80952289 -1.03640099 46.77508784 -1.10755077 50.74554634 -1.13852692 C52.2541314 -1.16057463 53.76257073 -1.20363903 55.26991081 -1.26876068 C60.04080823 -1.46653694 64.38610871 -1.42450731 69 0 C72.13408474 3.00680254 74.00156206 5.62462382 76.19606018 9.36126709 C77.70367523 12.14330124 77.70367523 12.14330124 80.12754822 12.69049072 C82.63668204 12.52451974 84.62648637 11.851332 87 11 C88.99472173 10.3609708 90.99399468 9.73760771 92.99389648 9.11499023 C94.38624105 8.67235578 95.77299439 8.21161875 97.15258789 7.73071289 C101.556862 6.23583351 105.28547246 5.67010303 110 6 C111 7 111 7 111.0625 10.0625 C111.041875 11.031875 111.02125 12.00125 111 13 C111.66 13 112.32 13 113 13 C117.76908231 24.14042547 117.76908231 24.14042547 119.8125 29.75 C120.04582031 30.38421875 120.27914062 31.0184375 120.51953125 31.671875 C121.23164035 35.12241993 121.02743682 38.47827197 121 42 C113.68988527 42.2556161 106.38074253 42.45067637 99.06705379 42.56993389 C95.67012464 42.62719714 92.27626515 42.70473614 88.88110352 42.82983398 C84.97190026 42.97295951 81.06390982 43.02571821 77.15234375 43.07421875 C75.33632912 43.15937996 75.33632912 43.15937996 73.48362732 43.2462616 C70.00351276 43.24879648 67.29850102 43.12012216 64 42 C60.88582249 38.7177003 59.03646864 35.01042122 57 31 C54.85360944 27.60958677 52.9417459 24.591003 48.97262573 23.38293457 C46.56285521 23.1072778 44.26437764 23.08078362 41.83984375 23.140625 C40.97235001 23.13867126 40.10485626 23.13671753 39.21107483 23.13470459 C37.38466109 23.13869022 35.55821297 23.15987131 33.73217773 23.19726562 C30.94146007 23.24992528 28.15628038 23.23841391 25.36523438 23.21875 C23.58590811 23.23056312 21.8066017 23.24606328 20.02734375 23.265625 C19.19702133 23.26177795 18.36669891 23.25793091 17.51121521 23.25396729 C13.30014075 23.37374153 11.51953979 23.58842226 8.12158203 26.28027344 C6.33611509 28.56912289 4.60531064 30.81498769 3.02734375 33.25 C2.52009766 34.0234375 2.01285156 34.796875 1.49023438 35.59375 C0.97783203 36.3878125 0.46542969 37.181875 -0.0625 38 C-8.76247745 51.38123873 -8.76247745 51.38123873 -12 53 C-13.70702735 53.06996014 -15.41668003 53.08440154 -17.125 53.0625 C-18.03507812 53.05347656 -18.94515625 53.04445312 -19.8828125 53.03515625 C-20.58148438 53.02355469 -21.28015625 53.01195312 -22 53 C-21.38956837 49.48786871 -20.46925185 46.39452759 -19.1015625 43.10546875 C-18.50408203 41.6678418 -18.50408203 41.6678418 -17.89453125 40.20117188 C-17.47558594 39.20666016 -17.05664062 38.21214844 -16.625 37.1875 C-16.24472656 36.26646484 -15.86445312 35.34542969 -15.47265625 34.39648438 C-10.61980679 22.79680503 -5.26968404 11.41438755 0 0 Z " fill="#9F5605" transform="translate(66,35)"/>
<path d="M0 0 C1.66015625 1.3203125 1.66015625 1.3203125 3.0625 3.125 C3.52785156 3.70507812 3.99320313 4.28515625 4.47265625 4.8828125 C6 7 6 7 7.60546875 10.30859375 C8.39566406 11.19675781 9.18585937 12.08492187 10 13 C12.30579583 13.08840483 14.37755911 12.6857685 16.65209961 12.30664062 C21.58542589 11.60565488 25.5430513 11.58027753 30 14 C36.58935298 21.94844859 40.41226739 31.93492526 44.40966797 41.3671875 C46.33005324 45.75394414 48.53437738 49.89893552 51 54 C25.49664107 55.07382564 2.00027262 48.06652029 -17.1875 30.625 C-22.10916492 26.0360185 -26.72687515 21.19982663 -31 16 C-31.56589844 15.31808594 -32.13179687 14.63617188 -32.71484375 13.93359375 C-34 12 -34 12 -34 9 C-29.9643644 7.7090849 -25.92587326 6.42765943 -21.88452148 5.15478516 C-20.51131045 4.72083299 -19.1389 4.28433864 -17.76733398 3.84521484 C-15.79097309 3.2129514 -13.81187387 2.5900122 -11.83203125 1.96875 C-10.64327393 1.59169922 -9.4545166 1.21464844 -8.22973633 0.82617188 C-5.28811272 0.07369971 -3.01003311 -0.2842584 0 0 Z " fill="#E6E6E7" transform="translate(49,138)"/>
<path d="M0 0 C22.77 0 45.54 0 69 0 C68.67 0.66 68.34 1.32 68 2 C49.19 1.505 49.19 1.505 30 1 C30 7.93 30 14.86 30 22 C36.93 22 43.86 22 51 22 C51 22.33 51 22.66 51 23 C49.81446533 23.00410889 48.62893066 23.00821777 47.4074707 23.01245117 C42.99947928 23.03425989 38.59237828 23.08856741 34.18481445 23.15258789 C32.27897693 23.17575277 30.37301167 23.19016007 28.46704102 23.19555664 C25.72331277 23.20485741 22.98158937 23.24587071 20.23828125 23.29296875 C18.96456413 23.28706978 18.96456413 23.28706978 17.66511536 23.28105164 C13.39844727 23.38575564 11.55526546 23.56245419 8.10839844 26.27856445 C6.33314811 28.56998587 4.60309076 30.81841325 3.02734375 33.25 C2.52009766 34.0234375 2.01285156 34.796875 1.49023438 35.59375 C0.97783203 36.3878125 0.46542969 37.181875 -0.0625 38 C-8.76247745 51.38123873 -8.76247745 51.38123873 -12 53 C-13.70702735 53.06996014 -15.41668003 53.08440154 -17.125 53.0625 C-18.03507812 53.05347656 -18.94515625 53.04445312 -19.8828125 53.03515625 C-20.58148438 53.02355469 -21.28015625 53.01195312 -22 53 C-21.38956837 49.48786871 -20.46925185 46.39452759 -19.1015625 43.10546875 C-18.50408203 41.6678418 -18.50408203 41.6678418 -17.89453125 40.20117188 C-17.47558594 39.20666016 -17.05664062 38.21214844 -16.625 37.1875 C-16.24472656 36.26646484 -15.86445312 35.34542969 -15.47265625 34.39648438 C-10.61504321 22.78541873 -5.25100288 11.45673356 0 0 Z " fill="#E17904" transform="translate(66,35)"/>
<path d="M0 0 C2.78922868 -0.00356679 5.22220857 0.22253416 7.9296875 0.87109375 C7.62446853 8.98991838 4.15978033 15.74968903 0.8046875 22.99609375 C0.24125262 24.23785748 -0.32125326 25.48004318 -0.8828125 26.72265625 C-4.74046494 35.21182908 -8.86186616 43.55057771 -13.0703125 51.87109375 C-23.3003125 51.87109375 -33.5303125 51.87109375 -44.0703125 51.87109375 C-44.0703125 44.94109375 -44.0703125 38.01109375 -44.0703125 30.87109375 C-40.9971875 31.01546875 -37.9240625 31.15984375 -34.7578125 31.30859375 C-30.30075467 31.25476021 -25.96376825 31.18427295 -22.20458984 28.57714844 C-18.35378089 24.57809238 -15.75834193 19.68779389 -13.0703125 14.87109375 C-5.08213597 1.44187827 -5.08213597 1.44187827 0 0 Z " fill="#A05801" transform="translate(140.0703125,98.12890625)"/>
<path d="M0 0 C4.00394659 1.33464886 4.36787051 2.94984026 6.36328125 6.6171875 C6.67774704 7.18897736 6.99221283 7.76076721 7.31620789 8.34988403 C8.32383387 10.18690435 9.31828176 12.03069503 10.3125 13.875 C10.96984503 15.07859405 11.62803983 16.2817244 12.28710938 17.484375 C13.52651981 19.74968038 14.75988387 22.01790349 15.98950195 24.28857422 C18.64904507 29.19815217 21.32625825 34.09814012 24 39 C8.49 39 -7.02 39 -23 39 C-20.57021703 34.14043406 -18.3341986 29.73950767 -15.46875 25.21484375 C-14.82292969 24.18939453 -14.17710938 23.16394531 -13.51171875 22.10742188 C-12.84785156 21.06134766 -12.18398437 20.01527344 -11.5 18.9375 C-5.57118668 9.57578528 -5.57118668 9.57578528 0 0 Z " fill="#2903AA" transform="translate(95,69)"/>
<path d="M0 0 C4 1 4 1 5.90698242 3.60449219 C6.54998291 4.74047852 7.1929834 5.87646484 7.85546875 7.046875 C8.20257401 7.65509094 8.54967926 8.26330688 8.90730286 8.88995361 C9.63861607 10.17771445 10.3636298 11.46907021 11.08276367 12.76367188 C12.18013924 14.73676527 13.2981135 16.69696597 14.41992188 18.65625 C19.85464856 28.27324279 19.85464856 28.27324279 21 34 C14.07 34 7.14 34 0 34 C0 22.78 0 11.56 0 0 Z " fill="#1D037C" transform="translate(96,73)"/>
<path d="M0 0 C6.76372316 7.90318409 13 20.34950247 13 31 C12.34 31 11.68 31 11 31 C11 31.99 11 32.98 11 34 C-2.86 34 -16.72 34 -31 34 C-31 33.67 -31 33.34 -31 33 C-17.47 33 -3.94 33 10 33 C8.69511118 25.8231115 7.54405128 19.99519298 4.875 13.4375 C2 6.20988372 2 6.20988372 2 4 C1.34 4 0.68 4 0 4 C0 2.68 0 1.36 0 0 Z " fill="#CAB29C" transform="translate(177,44)"/>
<path d="M0 0 C0.99 0.33 1.98 0.66 3 1 C3.6875 3.0625 3.6875 3.0625 4 5 C2.824375 5.2165625 2.824375 5.2165625 1.625 5.4375 C-0.96421018 5.87798925 -0.96421018 5.87798925 -3 7 C-1.125 2.25 -1.125 2.25 0 0 Z " fill="#3312A3" transform="translate(95,69)"/>
</svg>
