<?xml version="1.0" encoding="UTF-8"?>
<svg version="1.1" xmlns="http://www.w3.org/2000/svg" width="192" height="192">
<path d="M0 0 C1.04986084 0.00563965 2.09972168 0.0112793 3.18139648 0.01708984 C25.80124277 0.36854042 46.06186106 8.68674694 63.25 23.3125 C64.26513672 24.10914063 64.26513672 24.10914063 65.30078125 24.921875 C82.04541384 38.47865169 91.94736182 59.76194198 95.859375 80.55078125 C98.59784984 106.92229395 94.24393472 132.43999107 77.875 154 C76.68037547 155.44891267 75.47148267 156.8861565 74.25 158.3125 C73.25033203 159.52873047 73.25033203 159.52873047 72.23046875 160.76953125 C57.66945028 177.84921238 35.60392149 189.63217368 13.25 192.3125 C-15.6176327 193.69643293 -40.32121915 188.39762675 -62.75 169.3125 C-63.42675781 168.78140625 -64.10351562 168.2503125 -64.80078125 167.703125 C-81.54010812 154.15064393 -91.48789818 132.83584185 -95.359375 112.0390625 C-98.13455384 85.56385637 -93.61934257 59.33955521 -76.75 38 C-75.42387201 36.43138004 -74.09096793 34.86845277 -72.75 33.3125 C-72.22019531 32.63832031 -71.69039062 31.96414062 -71.14453125 31.26953125 C-54.35893886 10.50513178 -26.07624536 -0.14798031 0 0 Z " fill="#BBB9BE" transform="translate(95.75,-0.3125)"/>
<path d="M0 0 C1.04986084 0.00563965 2.09972168 0.0112793 3.18139648 0.01708984 C25.80124277 0.36854042 46.06186106 8.68674694 63.25 23.3125 C64.26513672 24.10914063 64.26513672 24.10914063 65.30078125 24.921875 C82.22250075 38.62202466 93.54640778 61.43789426 96.0625 82.875 C96.124375 84.009375 96.18625 85.14375 96.25 86.3125 C91.29938178 82.16588244 86.65737157 77.84711974 82.125 73.25 C81.53074219 72.65123047 80.93648437 72.05246094 80.32421875 71.43554688 C79.16455105 70.26691927 78.00574611 69.09743475 76.84790039 67.92700195 C74.65715642 65.713497 72.45776863 63.50902362 70.25 61.3125 C69.62738281 60.69246094 69.00476563 60.07242188 68.36328125 59.43359375 C59.36001082 51.01621944 50.32599001 49.66051124 38.25 49.3125 C37.8478125 47.6728125 37.8478125 47.6728125 37.4375 46 C36.15339858 41.98141643 36.15339858 41.98141643 33.25 39.3125 C30.98606029 38.52893098 30.98606029 38.52893098 28.5625 38.125 C27.35013672 37.88716797 27.35013672 37.88716797 26.11328125 37.64453125 C25.49839844 37.53496094 24.88351563 37.42539062 24.25 37.3125 C24.25 39.6225 24.25 41.9325 24.25 44.3125 C25.19875 44.27125 26.1475 44.23 27.125 44.1875 C30.25 44.3125 30.25 44.3125 32.25 46.3125 C32.55078125 48.58984375 32.55078125 48.58984375 32.5625 51.25 C32.57925781 52.12527344 32.59601563 53.00054687 32.61328125 53.90234375 C32.25 56.3125 32.25 56.3125 31.04296875 58.12890625 C28.68360316 59.68639595 27.01951199 59.53705503 24.25 59.3125 C24.26160156 60.16714844 24.27320312 61.02179687 24.28515625 61.90234375 C24.29417969 63.00707031 24.30320312 64.11179688 24.3125 65.25 C24.32410156 66.35214844 24.33570312 67.45429687 24.34765625 68.58984375 C24.25 71.3125 24.25 71.3125 23.25 72.3125 C19.75 72.4375 19.75 72.4375 16.25 72.3125 C14.36255256 70.42505256 15.11899019 67.11893829 15.109375 64.609375 C15.09103862 63.22263994 15.07146755 61.83592075 15.05078125 60.44921875 C15.02186595 58.25900713 15.00000163 56.06980909 14.99951172 53.87939453 C14.99616503 51.76763625 14.96154152 49.65822411 14.921875 47.546875 C14.9125293 46.28069336 14.90318359 45.01451172 14.89355469 43.70996094 C14.0964932 39.50210524 12.48719713 38.00952121 9.25 35.3125 C7.17373687 39.93690425 5.54977048 44.4133651 4.25 49.3125 C6.23 49.3125 8.21 49.3125 10.25 49.3125 C6.93671264 55.60888457 3.62557479 61.68676098 -0.75 67.3125 C-1.08 67.3125 -1.41 67.3125 -1.75 67.3125 C-1.94294408 62.48889811 -1.50747614 58.81603262 0.25 54.3125 C-2.06 54.3125 -4.37 54.3125 -6.75 54.3125 C-5.69496547 52.04011793 -4.68701762 50.23785422 -3.0625 48.3125 C-1.5442697 46.44956383 -1.5442697 46.44956383 -1.9140625 44.453125 C-3.01320188 41.6385064 -4.6324212 40.13876552 -6.8125 38.0625 C-7.54597656 37.35609375 -8.27945313 36.6496875 -9.03515625 35.921875 C-9.88400391 35.12523438 -9.88400391 35.12523438 -10.75 34.3125 C-10.76981934 35.39257324 -10.78963867 36.47264648 -10.81005859 37.58544922 C-10.88601623 41.58503913 -10.97474816 45.58426052 -11.06738281 49.58349609 C-11.10571341 51.31584407 -11.14055906 53.04827274 -11.171875 54.78076172 C-11.21743765 57.26819749 -11.27544503 59.75507566 -11.3359375 62.2421875 C-11.34748871 63.01932098 -11.35903992 63.79645447 -11.37094116 64.59713745 C-11.52225659 70.08475659 -11.52225659 70.08475659 -13.75 72.3125 C-16.8125 72.5 -16.8125 72.5 -19.75 72.3125 C-20.75 71.3125 -20.75 71.3125 -20.84765625 68.58984375 C-20.83605469 67.48769531 -20.82445313 66.38554688 -20.8125 65.25 C-20.80347656 64.14527344 -20.79445313 63.04054687 -20.78515625 61.90234375 C-20.77355469 61.04769531 -20.76195313 60.19304688 -20.75 59.3125 C-21.69875 59.35375 -22.6475 59.395 -23.625 59.4375 C-26.75 59.3125 -26.75 59.3125 -28.75 57.3125 C-29.015625 54.78125 -29.015625 54.78125 -29 51.8125 C-29.00773437 50.34296875 -29.00773437 50.34296875 -29.015625 48.84375 C-28.75 46.3125 -28.75 46.3125 -26.75 44.3125 C-23.625 44.1875 -23.625 44.1875 -20.75 44.3125 C-20.75 42.0025 -20.75 39.6925 -20.75 37.3125 C-26.64271393 37.58635487 -26.64271393 37.58635487 -31.625 40.5 C-33.83035139 43.41884743 -34.68604241 45.84744892 -35.75 49.3125 C-37.0184375 49.36857422 -37.0184375 49.36857422 -38.3125 49.42578125 C-50.95686075 50.15857943 -59.29058144 53.32091854 -68.0390625 62.7265625 C-73.82829097 71.47649229 -74.38522543 80.05322497 -74.27148438 90.26367188 C-74.24990499 92.57266657 -74.27143792 94.87859562 -74.296875 97.1875 C-74.29423368 98.67188179 -74.28911275 100.15626169 -74.28125 101.640625 C-74.28934692 102.32199524 -74.29744385 103.00336548 -74.30578613 103.7053833 C-74.20936732 108.6604788 -72.82399736 111.48042242 -69.75 115.3125 C-65.79849598 118.01532875 -61.40837245 117.90146714 -56.75 118.3125 C-56.75 121.9425 -56.75 125.5725 -56.75 129.3125 C-54.44 129.3125 -52.13 129.3125 -49.75 129.3125 C-49.75902344 130.59125 -49.76804688 131.87 -49.77734375 133.1875 C-49.74918391 134.89586374 -49.71913524 136.60419708 -49.6875 138.3125 C-49.70393555 139.57126953 -49.70393555 139.57126953 -49.72070312 140.85546875 C-49.59099954 145.6359723 -48.99497401 148.55173655 -45.70117188 152.11181641 C-45.06710922 152.80084045 -44.43304657 153.4898645 -43.7797699 154.19976807 C-40.44461931 157.67123504 -37.06049016 161.0848124 -33.62890625 164.4609375 C-32.10208646 165.97513229 -30.57539739 167.4894589 -29.04882812 169.00390625 C-26.665024 171.36273225 -24.27963297 173.71991289 -21.8918457 176.07470703 C-19.57072429 178.36581293 -17.25570793 180.66294606 -14.94140625 182.9609375 C-14.21965714 183.66922699 -13.49790802 184.37751648 -12.75428772 185.10726929 C-11.76712013 186.08936874 -11.76712013 186.08936874 -10.76000977 187.09130859 C-10.17711685 187.66674408 -9.59422394 188.24217957 -8.9936676 188.83505249 C-7.75 190.3125 -7.75 190.3125 -7.75 192.3125 C-27.44706021 191.85345834 -46.6574069 182.53605383 -61.75 170.3125 C-62.89855469 169.40951172 -62.89855469 169.40951172 -64.0703125 168.48828125 C-81.61336154 153.90982412 -93.38074204 130.91522093 -95.75 108.3125 C-97.11047549 80.06103869 -91.64901631 55.24141873 -72.75 33.3125 C-72.22019531 32.63832031 -71.69039062 31.96414062 -71.14453125 31.26953125 C-54.35893886 10.50513178 -26.07624536 -0.14798031 0 0 Z " fill="#E6E6E7" transform="translate(95.75,-0.3125)"/>
<path d="M0 0 C0.90938828 -0.00861557 1.81877655 -0.01723114 2.75572205 -0.02610779 C5.76199807 -0.0488116 8.76734521 -0.04202047 11.77368164 -0.03295898 C13.86349261 -0.03819283 15.95330121 -0.04446843 18.04310608 -0.05174255 C22.4237072 -0.0621551 26.80398366 -0.05757324 31.18457031 -0.04296875 C36.79832473 -0.02578514 42.41105526 -0.04926696 48.0246954 -0.08445835 C52.34073164 -0.10641994 56.65652247 -0.10499374 60.97259712 -0.09669304 C63.04225347 -0.09587274 65.11192769 -0.10275109 67.18153191 -0.11746407 C70.07608814 -0.13488556 72.96879924 -0.12038699 75.86328125 -0.09765625 C76.71799011 -0.10934845 77.57269897 -0.12104065 78.45330811 -0.13308716 C82.63319875 -0.06630606 84.51949593 0.19835168 88.02770996 2.66371155 C90.38755425 6.10373662 90.6239627 7.93413723 90.62744141 12.08032227 C90.63997452 13.38517578 90.65250763 14.6900293 90.66542053 16.03442383 C90.65315186 17.45077515 90.63973178 18.8671169 90.62524414 20.28344727 C90.62607336 21.74406104 90.62853474 23.20467472 90.6325531 24.6652832 C90.63540737 27.72188509 90.62074782 30.7777527 90.59326172 33.83422852 C90.55917818 37.74518786 90.56519988 41.65483475 90.58392429 45.56585693 C90.59451114 48.5805956 90.58554147 51.59503074 90.57053947 54.60974121 C90.56536947 56.05138242 90.56582512 57.49305549 90.57208443 58.93469238 C90.57755587 60.95202753 90.5542668 62.96937825 90.52978516 64.98657227 C90.52358658 66.13287109 90.517388 67.27916992 90.51100159 68.46020508 C89.88747949 72.18347993 88.60142845 73.85156032 85.99633789 76.53344727 C82.6998782 78.18167711 79.02875178 77.71717648 75.40332031 77.7421875 C74.51373123 77.75197128 73.62414215 77.76175507 72.70759583 77.77183533 C69.7556814 77.80181658 66.80381233 77.82318136 63.85180664 77.84204102 C62.84488581 77.84861284 61.83796497 77.85518467 60.80053139 77.86195564 C55.4715274 77.89456003 50.14254352 77.91900916 44.81347656 77.93847656 C40.39879346 77.95630035 35.98474783 77.99113638 31.5703125 78.04101562 C26.24464932 78.10112535 20.91957797 78.13193962 15.59359169 78.14164925 C13.56295197 78.15022033 11.53232876 78.16907894 9.50188255 78.19839287 C6.65973022 78.23721856 3.81989269 78.23835391 0.97753906 78.23046875 C-0.28118515 78.26046967 -0.28118515 78.26046967 -1.56533813 78.29107666 C-6.02247359 78.23555104 -7.53252103 77.94201838 -11.02554321 74.91288757 C-13.23094241 71.14515908 -13.63118994 69.0961479 -13.63476562 64.76538086 C-13.64549858 63.79347054 -13.64549858 63.79347054 -13.65644836 62.80192566 C-13.67324463 60.67784335 -13.65399537 58.55589871 -13.63256836 56.43188477 C-13.63339772 54.94788438 -13.63585962 53.46388409 -13.63987732 51.97988892 C-13.64272878 48.87799249 -13.62809592 45.77682078 -13.60058594 42.67504883 C-13.56644328 38.70237183 -13.57254658 34.73098492 -13.59124851 30.75824547 C-13.60182194 27.69722766 -13.59287884 24.63650951 -13.57786369 21.57551956 C-13.57268786 20.11072301 -13.57315644 18.6458951 -13.57940865 17.18110275 C-13.58486795 15.13429267 -13.56447072 13.08932461 -13.53710938 11.04272461 C-13.5309108 9.87945648 -13.52471222 8.71618835 -13.51832581 7.51766968 C-13.00366211 4.53344727 -13.00366211 4.53344727 -11.53305054 2.15995789 C-7.76051251 -0.26595389 -4.40068142 -0.03352072 0 0 Z " fill="#6A6970" transform="translate(59.003662109375,76.466552734375)"/>
<path d="M0 0 C9.0894134 4.12437953 17.71100228 12.6577952 23 21 C25.40942251 28.56705305 24.28240671 36.30702871 23 44 C22.90187012 44.71623535 22.80374023 45.4324707 22.70263672 46.17041016 C20.33840199 63.24353176 12.14868096 79.9815193 1 93 C0.00033203 94.21623047 0.00033203 94.21623047 -1.01953125 95.45703125 C-16.04995659 113.08731394 -39.14647971 125.17024346 -62.32055664 127.20361328 C-65.02678566 127.38515794 -67.726523 127.48080973 -70.4375 127.5625 C-71.35337891 127.62501953 -72.26925781 127.68753906 -73.21289062 127.75195312 C-79.81238836 127.90829442 -79.81238836 127.90829442 -82.6940918 125.7043457 C-83.79740324 124.4041713 -84.85291991 123.06289248 -85.87573242 121.69848633 C-88.66577657 118.15425486 -91.81674323 115.07151747 -95.02734375 111.91015625 C-96.32628439 110.61925383 -97.62511077 109.32823643 -98.92382812 108.03710938 C-100.26143189 106.71194996 -101.59932599 105.38708356 -102.9375 104.0625 C-105.59527954 101.43121939 -108.24978455 98.79669807 -110.90234375 96.16015625 C-111.51472397 95.55607437 -112.12710419 94.95199249 -112.75804138 94.3296051 C-114.19094488 92.90518392 -115.59841051 91.45524398 -117 90 C-117 89.67 -117 89.34 -117 89 C-115.87104813 88.99857498 -114.74209625 88.99714996 -113.57893372 88.99568176 C-102.940521 88.97901356 -92.30249088 88.93624524 -81.66428089 88.86790943 C-76.19499539 88.83361603 -70.72598991 88.80852576 -65.2565918 88.80444336 C-59.97843445 88.80016551 -54.70090906 88.77174501 -49.42294884 88.72656822 C-47.40916309 88.71357686 -45.39530177 88.70929132 -43.38147926 88.71384621 C-40.56067258 88.7187405 -37.74172123 88.69271207 -34.92114258 88.65942383 C-33.67173134 88.67236229 -33.67173134 88.67236229 -32.39707947 88.68556213 C-28.09032698 88.60033994 -26.47549111 88.37781434 -22.98364258 85.60327148 C-20.90796882 82.87922111 -20.36153417 81.7151741 -20.29296875 78.35546875 C-20.26396484 77.51435547 -20.23496094 76.67324219 -20.20507812 75.80664062 C-20.19637695 74.51016602 -20.19637695 74.51016602 -20.1875 73.1875 C-20.16236328 72.30384766 -20.13722656 71.42019531 -20.11132812 70.50976562 C-20.05269442 68.34031866 -20.02342614 66.17011273 -20 64 C-17.69 64 -15.38 64 -13 64 C-13 60.37 -13 56.74 -13 53 C-11.63875 52.9175 -10.2775 52.835 -8.875 52.75 C-4.16919441 52.23785397 -1.63284754 50.99709922 2 48 C3.60399226 44.79201548 3.18430016 41.29836613 3.203125 37.7734375 C3.20882507 36.95179108 3.21452515 36.13014465 3.22039795 35.28359985 C3.22985558 33.5401539 3.23638495 31.79669001 3.24023438 30.05322266 C3.24988606 27.40624931 3.28087885 24.76007048 3.3125 22.11328125 C3.31903568 20.41667126 3.32428393 18.72005573 3.328125 17.0234375 C3.3466452 15.84797867 3.3466452 15.84797867 3.36553955 14.64877319 C3.3436074 9.14049115 2.17996876 5.06285155 0 0 Z " fill="#BCBBC0" transform="translate(169,65)"/>
<path d="M0 0 C6.7443168 -0.12367562 13.48797238 -0.21437739 20.2331543 -0.2746582 C22.52721658 -0.29978928 24.8211989 -0.33389969 27.11499023 -0.37719727 C30.41410049 -0.43790832 33.71215146 -0.46622437 37.01171875 -0.48828125 C38.03585373 -0.51408768 39.05998871 -0.5398941 40.11515808 -0.56648254 C41.07577652 -0.5668602 42.03639496 -0.56723785 43.02612305 -0.56762695 C44.28854073 -0.58428154 44.28854073 -0.58428154 45.57646179 -0.60127258 C49.23178507 0.30560219 50.7200325 2.06002958 53 5 C53.62818909 8.07324219 53.62818909 8.07324219 53.63110352 11.546875 C53.64363663 12.85172852 53.65616974 14.15658203 53.66908264 15.50097656 C53.65681397 16.91732789 53.64339389 18.33366964 53.62890625 19.75 C53.62973547 21.21061378 53.63219685 22.67122745 53.63621521 24.13183594 C53.63906948 27.18843783 53.62440993 30.24430544 53.59692383 33.30078125 C53.56284029 37.21174059 53.56886199 41.12138749 53.5875864 45.03240967 C53.59817325 48.04714833 53.58920358 51.06158348 53.57420158 54.07629395 C53.56903158 55.51793516 53.56948723 56.95960822 53.57574654 58.40124512 C53.58121798 60.41858027 53.55792891 62.43593099 53.53344727 64.453125 C53.52724869 65.59942383 53.52105011 66.74572266 53.5146637 67.92675781 C52.87964778 71.71866642 51.79868273 73.38559345 49 76 C46.65875244 76.60127258 46.65875244 76.60127258 44.04785156 76.56762695 C42.57677948 76.56706047 42.57677948 76.56706047 41.07598877 76.56648254 C40.02481873 76.54067612 38.97364868 76.51486969 37.890625 76.48828125 C36.80867859 76.48120651 35.72673218 76.47413177 34.61199951 76.46684265 C31.15729551 76.43886044 27.70421389 76.37611131 24.25 76.3125 C21.90757549 76.28742224 19.56512558 76.26460817 17.22265625 76.24414062 C11.48121756 76.18902128 5.74072468 76.10535588 0 76 C-0.05406122 74.06280622 -0.09282025 72.12518079 -0.125 70.1875 C-0.14820312 69.10855469 -0.17140625 68.02960938 -0.1953125 66.91796875 C0 64 0 64 2 61 C1.9068565 56.65829096 1.9068565 56.65829096 0 53 C0 50.36 0 47.72 0 45 C11.55 45 23.1 45 35 45 C35 33.45 35 21.9 35 10 C23.45 10 11.9 10 0 10 C0 6.7 0 3.4 0 0 Z " fill="#4D4C51" transform="translate(96,77)"/>
<path d="M0 0 C22.11 0 44.22 0 67 0 C67 11.22 67 22.44 67 34 C44.89 34 22.78 34 0 34 C0 22.78 0 11.56 0 0 Z " fill="#04F7FC" transform="translate(64,88)"/>
<path d="M0 0 C22.11 0 44.22 0 67 0 C67 5.61 67 11.22 67 17 C61.72 17 56.44 17 51 17 C50.67 17.66 50.34 18.32 50 19 C49.49307308 17.4188708 48.99473557 15.83498617 48.5 14.25 C48.2215625 13.36828125 47.943125 12.4865625 47.65625 11.578125 C47 9 47 9 47 5 C46.34 5 45.68 5 45 5 C44.896875 5.680625 44.79375 6.36125 44.6875 7.0625 C44 10 44 10 41 17 C35.39 17 29.78 17 24 17 C23.67 17.99 23.34 18.98 23 20 C21.5487427 15.02426068 20.23631371 10.03356296 19 5 C17.68 8.96 16.36 12.92 15 17 C10.05 17 5.1 17 0 17 C0 11.39 0 5.78 0 0 Z " fill="#03D7DE" transform="translate(64,88)"/>
<path d="M0 0 C0 2.31 0 4.62 0 7 C-2.31 7.66 -4.62 8.32 -7 9 C-7 12.63 -7 16.26 -7 20 C-4.69 20.66 -2.38 21.32 0 22 C0 23.98 0 25.96 0 28 C-7.19825708 28.48801743 -7.19825708 28.48801743 -10.875 26.25 C-13.82291241 23.12868098 -15 21.31644262 -15 17 C-24.464473 17.16318057 -32.60578465 18.09720681 -39.84375 24.67578125 C-47.88767487 33.56747272 -48.22850602 42.45899966 -48.29516602 53.97485352 C-48.30673772 55.36851105 -48.32727099 56.76212252 -48.35668945 58.15551758 C-48.39931682 60.177579 -48.41292447 62.20018643 -48.42578125 64.22265625 C-48.44036377 65.42672119 -48.45494629 66.63078613 -48.4699707 67.87133789 C-47.91044384 71.59618816 -46.9499618 72.73976394 -44 75 C-41.89061935 75.68116938 -41.89061935 75.68116938 -39.75 75.75 C-38.5125 75.8325 -37.275 75.915 -36 76 C-36 77.65 -36 79.3 -36 81 C-45.82568807 81.57798165 -45.82568807 81.57798165 -50 78 C-53.60756987 73.47630166 -54.59858857 69.99478286 -54.53125 64.328125 C-54.53699036 63.24443634 -54.53699036 63.24443634 -54.54284668 62.13885498 C-54.54555647 60.61599325 -54.53826067 59.09308423 -54.52148438 57.5703125 C-54.50018282 55.26974433 -54.52124853 52.9723431 -54.546875 50.671875 C-54.57315482 38.04223795 -52.30799337 29.50455245 -43.4453125 20.203125 C-36.67621193 14.10444653 -30.1692504 12.06184753 -21.25 11.4375 C-19.49429688 11.31181641 -19.49429688 11.31181641 -17.703125 11.18359375 C-16.81109375 11.12300781 -15.9190625 11.06242187 -15 11 C-14.773125 9.9275 -14.54625 8.855 -14.3125 7.75 C-11.62285671 0.06530489 -7.36788759 -0.4995178 0 0 Z " fill="#6E6A71" transform="translate(75,37)"/>
<path d="M0 0 C4.79580911 0.11493224 8.08082507 0.34344648 12.0625 3.1875 C14.34038999 6.49411449 14.16774857 8.08767041 14 12 C14.89460937 11.95359375 15.78921875 11.9071875 16.7109375 11.859375 C27.24057286 11.54505753 34.4468863 12.86856144 42.75 19.5 C51.08956444 27.76088002 53.67033979 36.35501671 53.7421875 47.79690552 C53.72909829 49.48670221 53.70571649 51.1764486 53.67236328 52.8659668 C53.62462042 55.45810877 53.63134543 58.0461935 53.64453125 60.63867188 C53.6333911 62.29950357 53.61917978 63.96031814 53.6015625 65.62109375 C53.60429672 66.77272255 53.60429672 66.77272255 53.60708618 67.94761658 C53.47596051 72.91144711 52.53703018 75.50812516 49 79 C46.03559777 80.98022069 43.77726757 81.22874316 40.25 81.125 C39.45078125 81.10695313 38.6515625 81.08890625 37.828125 81.0703125 C37.22484375 81.04710938 36.6215625 81.02390625 36 81 C36 79.02 36 77.04 36 75 C39.63 74.67 43.26 74.34 47 74 C47.09945752 68.87717241 47.17174409 63.75491646 47.21972656 58.63134766 C47.23974522 56.89133911 47.26696886 55.15139701 47.30175781 53.41162109 C47.35070952 50.89924654 47.37306587 48.38776725 47.390625 45.875 C47.41127014 45.10696045 47.43191528 44.3389209 47.45318604 43.54760742 C47.45633874 35.82389201 44.30347141 29.5909493 39 24 C31.12546984 18.56597308 23.43875238 17.03044759 14 17 C13.87496094 17.94230469 13.74992188 18.88460937 13.62109375 19.85546875 C12.8961572 23.52574501 11.84965568 24.66846353 9 27 C6.04335481 28.4783226 3.25770263 28.06032783 0 28 C0 26.02 0 24.04 0 22 C1.4540625 21.5359375 1.4540625 21.5359375 2.9375 21.0625 C5.84065792 20.30476658 5.84065792 20.30476658 7 19 C7.07205511 17.31391034 7.08386068 15.62499341 7.0625 13.9375 C7.04896484 12.55884766 7.04896484 12.55884766 7.03515625 11.15234375 C7.02355469 10.44207031 7.01195313 9.73179688 7 9 C4.69 8.34 2.38 7.68 0 7 C0 4.69 0 2.38 0 0 Z " fill="#514F55" transform="translate(120,37)"/>
<path d="M0 0 C2.96052484 3.36423277 3.92289822 6.69159287 5 11 C5.34675781 10.34515625 5.69351563 9.6903125 6.05078125 9.015625 C8 7 8 7 11.35546875 6.609375 C14.90364583 6.73958333 18.45182292 6.86979167 22 7 C22 11.95 22 16.9 22 22 C-0.11 22 -22.22 22 -45 22 C-45 21.67 -45 21.34 -45 21 C-34.44 21 -23.88 21 -13 21 C-13 16.71 -13 12.42 -13 8 C-14.98 8 -16.96 8 -19 8 C-19 7.67 -19 7.34 -19 7 C-13.39 7 -7.78 7 -2 7 C-1.67 5.35 -1.34 3.7 -1 2 C-0.67 1.34 -0.34 0.68 0 0 Z " fill="#0BD1D8" transform="translate(109,100)"/>
<path d="M0 0 C10.56 0 21.12 0 32 0 C32 5.61 32 11.22 32 17 C29.36 17 26.72 17 24 17 C23.67 17.99 23.34 18.98 23 20 C21.5487427 15.02426068 20.23631371 10.03356296 19 5 C17.68 8.96 16.36 12.92 15 17 C10.05 17 5.1 17 0 17 C0 11.39 0 5.78 0 0 Z " fill="#02F6FC" transform="translate(64,88)"/>
<path d="M0 0 C3.5 0.125 3.5 0.125 4.5 1.125 C4.57244053 3.14464199 4.58377188 5.16667124 4.5625 7.1875 C4.55347656 8.29222656 4.54445313 9.39695312 4.53515625 10.53515625 C4.52355469 11.38980469 4.51195313 12.24445312 4.5 13.125 C5.923125 13.063125 5.923125 13.063125 7.375 13 C10.5 13.125 10.5 13.125 12.5 15.125 C12.80078125 17.40234375 12.80078125 17.40234375 12.8125 20.0625 C12.82925781 20.93777344 12.84601563 21.81304687 12.86328125 22.71484375 C12.5 25.125 12.5 25.125 11.29296875 26.94140625 C8.93360316 28.49889595 7.26951199 28.34955503 4.5 28.125 C4.51160156 28.97964844 4.52320312 29.83429687 4.53515625 30.71484375 C4.54417969 31.81957031 4.55320312 32.92429688 4.5625 34.0625 C4.57410156 35.16464844 4.58570312 36.26679687 4.59765625 37.40234375 C4.5 40.125 4.5 40.125 3.5 41.125 C0 41.25 0 41.25 -3.5 41.125 C-5.36962718 39.25537282 -4.62886303 36.57836439 -4.63894653 34.09118652 C-4.6369223 33.24640747 -4.63489807 32.40162842 -4.6328125 31.53125 C-4.63376923 30.66939087 -4.63472595 29.80753174 -4.63571167 28.91955566 C-4.6363935 27.09366788 -4.63453904 25.26777769 -4.63037109 23.44189453 C-4.62502286 20.63698922 -4.63031599 17.83224405 -4.63671875 15.02734375 C-4.63605797 13.25781214 -4.63477681 11.48828064 -4.6328125 9.71875 C-4.63483673 8.87397095 -4.63686096 8.02919189 -4.63894653 7.15881348 C-4.61059089 0.16466396 -4.61059089 0.16466396 0 0 Z " fill="#FBF3D4" transform="translate(115.5,30.875)"/>
<path d="M0 0 C1.134375 0.020625 2.26875 0.04125 3.4375 0.0625 C3.46214705 5.74080078 3.48033462 11.41907069 3.49243164 17.09741211 C3.49747256 19.03068585 3.50430519 20.96395576 3.51293945 22.8972168 C3.52501565 25.66976872 3.53073057 28.44227041 3.53515625 31.21484375 C3.54031754 32.08463364 3.54547882 32.95442352 3.55079651 33.85057068 C3.55099185 35.92155814 3.49958168 37.99244324 3.4375 40.0625 C2.4375 41.0625 2.4375 41.0625 -0.5625 41.1875 C-3.5625 41.0625 -3.5625 41.0625 -4.5625 40.0625 C-4.63494053 38.04285801 -4.64627188 36.02082876 -4.625 34 C-4.61597656 32.89527344 -4.60695313 31.79054688 -4.59765625 30.65234375 C-4.58605469 29.79769531 -4.57445313 28.94304688 -4.5625 28.0625 C-5.51125 28.10375 -6.46 28.145 -7.4375 28.1875 C-10.5625 28.0625 -10.5625 28.0625 -12.5625 26.0625 C-12.828125 23.53125 -12.828125 23.53125 -12.8125 20.5625 C-12.81765625 19.5828125 -12.8228125 18.603125 -12.828125 17.59375 C-12.5625 15.0625 -12.5625 15.0625 -10.5625 13.0625 C-7.4375 12.9375 -7.4375 12.9375 -4.5625 13.0625 C-4.57410156 12.20785156 -4.58570312 11.35320313 -4.59765625 10.47265625 C-4.60667969 9.36792969 -4.61570312 8.26320313 -4.625 7.125 C-4.63660156 6.02285156 -4.64820312 4.92070313 -4.66015625 3.78515625 C-4.51237367 -0.33502211 -4.25789233 0.07469987 0 0 Z " fill="#FEFEFE" transform="translate(79.5625,30.9375)"/>
<path d="M0 0 C1.8133922 3.20010388 2.52213974 6.13283843 3.125 9.75 C3.29257813 10.73484375 3.46015625 11.7196875 3.6328125 12.734375 C3.75398438 13.48203125 3.87515625 14.2296875 4 15 C4.33 14.34 4.66 13.68 5 13 C10.61 13 16.22 13 22 13 C22.474375 11.576875 22.94875 10.15375 23.4375 8.6875 C24.29166667 6.125 25.14583333 3.5625 26 1 C26.66 1 27.32 1 28 1 C29.32 4.96 30.64 8.92 32 13 C37.28 13 42.56 13 48 13 C48 13.66 48 14.32 48 15 C43.38 15 38.76 15 34 15 C33.34 16.98 32.68 18.96 32 21 C29.03947516 17.63576723 28.07710178 14.30840713 27 10 C24.7763932 11.9254644 24.7763932 11.9254644 24 15 C18.39 15 12.78 15 7 15 C6.01 17.97 5.02 20.94 4 24 C1.99706653 20.99559979 1.50728374 19.29006055 0.875 15.8125 C0.70742187 14.91144531 0.53984375 14.01039062 0.3671875 13.08203125 C0.24601562 12.39496094 0.12484375 11.70789063 0 11 C-0.48919922 11.98226562 -0.48919922 11.98226562 -0.98828125 12.984375 C-3 15 -3 15 -6.79296875 15.390625 C-8.25832231 15.36410276 -9.72341551 15.31649117 -11.1875 15.25 C-11.93708984 15.23195313 -12.68667969 15.21390625 -13.45898438 15.1953125 C-15.3065371 15.14824109 -17.15343159 15.07649766 -19 15 C-19 14.34 -19 13.68 -19 13 C-14.05 13 -9.1 13 -4 13 C-3.71125 11.5975 -3.4225 10.195 -3.125 8.75 C-2.46276373 5.53342384 -1.57554035 2.88628401 0 0 Z " fill="#E0FDFE" transform="translate(83,92)"/>
<path d="M0 0 C2.05078125 0.03255208 4.1015625 0.06510417 6.15234375 0.09765625 C6.15234375 2.40765625 6.15234375 4.71765625 6.15234375 7.09765625 C3.84234375 7.75765625 1.53234375 8.41765625 -0.84765625 9.09765625 C-0.84765625 12.72765625 -0.84765625 16.35765625 -0.84765625 20.09765625 C1.46234375 20.75765625 3.77234375 21.41765625 6.15234375 22.09765625 C6.15234375 24.07765625 6.15234375 26.05765625 6.15234375 28.09765625 C-1.0795255 28.58795247 -1.0795255 28.58795247 -4.78515625 26.22265625 C-8.36188637 22.53754037 -8.12649137 19.19393642 -8.22265625 14.28515625 C-8.26003906 13.57294922 -8.29742187 12.86074219 -8.3359375 12.12695312 C-8.40435303 8.01822041 -8.05352818 6.34437579 -5.38671875 3.1484375 C-4.54882812 2.47167969 -3.7109375 1.79492188 -2.84765625 1.09765625 C-1.84765625 0.09765625 -1.84765625 0.09765625 0 0 Z " fill="#E50C25" transform="translate(68.84765625,36.90234375)"/>
<path d="M0 0 C1.39683082 0.03347525 2.79280637 0.10331784 4.1875 0.1875 C4.96480469 0.22230469 5.74210937 0.25710937 6.54296875 0.29296875 C10.19193861 1.34299028 11.70980346 3.00389349 14 6 C14.59375 9.59375 14.59375 9.59375 14.5 13.5 C14.4896875 14.7890625 14.479375 16.078125 14.46875 17.40625 C13.9865642 21.10300782 13.20953662 23.04118982 11 26 C7.58063208 28.56452594 4.14444215 28.15940162 0 28 C0 26.02 0 24.04 0 22 C1.4540625 21.5359375 1.4540625 21.5359375 2.9375 21.0625 C5.84065792 20.30476658 5.84065792 20.30476658 7 19 C7.07205511 17.31391034 7.08386068 15.62499341 7.0625 13.9375 C7.04896484 12.55884766 7.04896484 12.55884766 7.03515625 11.15234375 C7.02355469 10.44207031 7.01195313 9.73179688 7 9 C4.69 8.34 2.38 7.68 0 7 C0 4.69 0 2.38 0 0 Z " fill="#AF1B19" transform="translate(120,37)"/>
<path d="M0 0 C2.31 0 4.62 0 7 0 C7 9.24 7 18.48 7 28 C4.69 28 2.38 28 0 28 C0 18.76 0 9.52 0 0 Z " fill="#F08A17" transform="translate(149,101)"/>
<path d="M0 0 C2.31 0 4.62 0 7 0 C7 9.24 7 18.48 7 28 C4.69 28 2.38 28 0 28 C0 18.76 0 9.52 0 0 Z " fill="#FCAB1E" transform="translate(39,101)"/>
<path d="M0 0 C1.57156655 3.1431331 0.11705576 5.365464 -0.9375 8.625 C-1.31777344 9.81351563 -1.69804688 11.00203125 -2.08984375 12.2265625 C-2.39019531 13.14179687 -2.69054687 14.05703125 -3 15 C-1.02 15 0.96 15 3 15 C-0.31328736 21.29638457 -3.62442521 27.37426098 -8 33 C-8.33 33 -8.66 33 -9 33 C-9.19294408 28.17639811 -8.75747614 24.50353262 -7 20 C-9.31 20 -11.62 20 -14 20 C-12.64783162 17.11612221 -11.10247664 14.64582025 -9.1796875 12.109375 C-8.64472656 11.40039062 -8.10976562 10.69140625 -7.55859375 9.9609375 C-7.00300781 9.23132812 -6.44742188 8.50171875 -5.875 7.75 C-5.31167969 7.00492188 -4.74835938 6.25984375 -4.16796875 5.4921875 C-2.78151746 3.65925189 -1.39212232 1.82862987 0 0 Z " fill="#FCCA27" transform="translate(103,34)"/>
<path d="M0 0 C2.9375 2.0625 2.9375 2.0625 5 5 C5.06641554 8.85210127 4.87229157 10.99848005 2.3125 13.9375 C-0.73602877 15.33817538 -2.67926952 15.4842732 -6 15 C-8.375 13.4375 -8.375 13.4375 -10 11 C-10.56783945 7.02512383 -10.62340519 4.93510779 -8.375 1.5625 C-5.24316508 -0.49791771 -3.68455227 -0.6767545 0 0 Z " fill="#FCF1DF" transform="translate(94,128)"/>
<path d="M0 0 C2.4375 1.5625 2.4375 1.5625 4 4 C4.5625 7.5 4.5625 7.5 4 11 C1.4268383 13.95156784 -0.21802472 14.85637189 -4.0625 15.5625 C-7 15 -7 15 -9.375 12.875 C-11.28071139 9.50335677 -11.64850195 7.80994895 -11 4 C-8.05899778 -0.47032338 -5.13105401 -0.73300772 0 0 Z " fill="#F9F8F5" transform="translate(75,128)"/>
<path d="M0 0 C0.66 0 1.32 0 2 0 C3.32 3.96 4.64 7.92 6 12 C11.28 12 16.56 12 22 12 C22 12.66 22 13.32 22 14 C17.38 14 12.76 14 8 14 C7.34 15.98 6.68 17.96 6 20 C3.03947516 16.63576723 2.07710178 13.30840713 1 9 C-1.2236068 10.9254644 -1.2236068 10.9254644 -2 14 C-5.63 14 -9.26 14 -13 14 C-13 13.34 -13 12.68 -13 12 C-10.03 12 -7.06 12 -4 12 C-3.79503906 11.38511719 -3.59007813 10.77023438 -3.37890625 10.13671875 C-2.25260417 6.7578125 -1.12630208 3.37890625 0 0 Z " fill="#E3F4D7" transform="translate(109,93)"/>
<path d="M0 0 C1.98 0 3.96 0 6 0 C6 4.95 6 9.9 6 15 C4.02 15 2.04 15 0 15 C-2 13 -2 13 -2.265625 10.46875 C-2.26046875 9.4890625 -2.2553125 8.509375 -2.25 7.5 C-2.25515625 6.5203125 -2.2603125 5.540625 -2.265625 4.53125 C-2 2 -2 2 0 0 Z " fill="#BEBABF" transform="translate(69,44)"/>
<path d="M0 0 C1.98 0 3.96 0 6 0 C8.51012963 2.51012963 8.29721609 3.46805237 8.3125 6.9375 C8.32925781 7.81277344 8.34601563 8.68804687 8.36328125 9.58984375 C8 12 8 12 6.79296875 13.81640625 C5 15 5 15 0 15 C0 10.05 0 5.1 0 0 Z " fill="#BBB6BB" transform="translate(120,44)"/>
<path d="M0 0 C0.33 0 0.66 0 1 0 C1.08703823 3.43734063 1.14040272 6.87439837 1.1875 10.3125 C1.22520508 11.77719727 1.22520508 11.77719727 1.26367188 13.27148438 C1.27817383 14.67817383 1.27817383 14.67817383 1.29296875 16.11328125 C1.31653442 17.40939331 1.31653442 17.40939331 1.34057617 18.73168945 C0.93240678 21.45018536 0.10407096 22.30363829 -2 24 C-2.19294408 19.17639811 -1.75747614 15.50353262 0 11 C-2.31 11 -4.62 11 -7 11 C-5.23867546 6.99698968 -2.73867517 3.3971023 0 0 Z " fill="#F7E27C" transform="translate(96,43)"/>
<path d="M0 0 C0.99 0.33 1.98 0.66 3 1 C2.67 1.33 2.34 1.66 2 2 C1.92741054 4.18639453 1.91626217 6.37500389 1.9375 8.5625 C1.94652344 9.76003906 1.95554687 10.95757812 1.96484375 12.19140625 C1.97644531 13.11824219 1.98804687 14.04507813 2 15 C-2.875 13.25 -2.875 13.25 -4 11 C-4.5824233 4.70982839 -4.5824233 4.70982839 -2 1.5625 C-1.34 1.046875 -0.68 0.53125 0 0 Z " fill="#F9F9F9" transform="translate(88,128)"/>
<path d="M0 0 C4.55555556 0.55555556 4.55555556 0.55555556 6 2 C6.1875 4.4375 6.1875 4.4375 6 7 C5.34 7.66 4.68 8.32 4 9 C-0.55555556 8.44444444 -0.55555556 8.44444444 -2 7 C-2.1875 4.5625 -2.1875 4.5625 -2 2 C-1.34 1.34 -0.68 0.68 0 0 Z " fill="#F1ECCF" transform="translate(109,131)"/>
<path d="M0 0 C4.55555556 0.55555556 4.55555556 0.55555556 6 2 C6.1875 4.4375 6.1875 4.4375 6 7 C5.34 7.66 4.68 8.32 4 9 C1.375 8.625 1.375 8.625 -1 8 C-1.625 5.125 -1.625 5.125 -2 2 C-1.34 1.34 -0.68 0.68 0 0 Z " fill="#F0ECCE" transform="translate(124,131)"/>
<path d="M0 0 C3.63 0.33 7.26 0.66 11 1 C11 4.63 11 8.26 11 12 C7.07553326 8.19095875 3.52587708 4.18185421 0 0 Z " fill="#C0BAB7" transform="translate(28,117)"/>
<path d="M0 0 C0.33 0.66 0.66 1.32 1 2 C0.26997966 3.96155873 -0.53572196 5.89514382 -1.375 7.8125 C-4.10023436 14.57651658 -4.86949246 20.75089953 -5 28 C-5.33 28 -5.66 28 -6 28 C-6.17638838 24.83405464 -6.28152076 21.66939127 -6.375 18.5 C-6.42527344 17.613125 -6.47554688 16.72625 -6.52734375 15.8125 C-6.68182753 8.80923536 -4.77339105 5.07296125 0 0 Z " fill="#FCD037" transform="translate(103,34)"/>
<path d="M0 0 C0.99 0.33 1.98 0.66 3 1 C1.50902342 4.7952131 -0.75700849 6.61042731 -4 9 C-4.66 8.01 -5.32 7.02 -6 6 C-4.02 4.02 -2.04 2.04 0 0 Z " fill="#FFAF27" transform="translate(73,131)"/>
<path d="M0 0 C2.64 0 5.28 0 8 0 C8 0.66 8 1.32 8 2 C6.02 2 4.04 2 2 2 C1.01 4.97 0.02 7.94 -1 11 C-1.33 11 -1.66 11 -2 11 C-2 9.02 -2 7.04 -2 5 C-1.34 5 -0.68 5 0 5 C0 3.35 0 1.7 0 0 Z " fill="#ECFEFE" transform="translate(88,105)"/>
<path d="M0 0 C0 2.64 0 5.28 0 8 C-1.98 8 -3.96 8 -6 8 C-3.18918919 0 -3.18918919 0 0 0 Z " fill="#FCE571" transform="translate(96,45)"/>
<path d="M0 0 C2.31 0 4.62 0 7 0 C7 2.31 7 4.62 7 7 C5.83040013 6.02433888 4.66438823 5.044375 3.5 4.0625 C2.8503125 3.51722656 2.200625 2.97195312 1.53125 2.41015625 C1.0259375 1.94480469 0.520625 1.47945312 0 1 C0 0.67 0 0.34 0 0 Z " fill="#BEB8B4" transform="translate(39,129)"/>
<path d="M0 0 C0.99 0 1.98 0 3 0 C3 2.97 3 5.94 3 9 C2.01 9 1.02 9 0 9 C0 6.03 0 3.06 0 0 Z " fill="#FFAB1D" transform="translate(90,131)"/>
<path d="M0 0 C0.99 0.495 0.99 0.495 2 1 C2.6328125 3.06640625 2.6328125 3.06640625 3.125 5.5625 C3.29257813 6.38878906 3.46015625 7.21507813 3.6328125 8.06640625 C3.75398438 8.70449219 3.87515625 9.34257813 4 10 C3.34 10 2.68 10 2 10 C1.67 10.99 1.34 11.98 1 13 C-0.00496852 9.98509443 -0.10335303 7.95818308 -0.0625 4.8125 C-0.05347656 3.91144531 -0.04445313 3.01039062 -0.03515625 2.08203125 C-0.02355469 1.39496094 -0.01195313 0.70789063 0 0 Z " fill="#BDFDFE" transform="translate(84,100)"/>
<path d="M0 0 C0.99 0.99 1.98 1.98 3 3 C2.8125 6.625 2.8125 6.625 2 10 C1.01 10.495 1.01 10.495 0 11 C0 7.37 0 3.74 0 0 Z " fill="#EFEACF" transform="translate(96,130)"/>
<path d="M0 0 C0.53625 0.474375 1.0725 0.94875 1.625 1.4375 C4.42842836 3.28186076 6.69620258 3.62456847 10 4 C10 4.33 10 4.66 10 5 C6.7 5 3.4 5 0 5 C0 3.35 0 1.7 0 0 Z " fill="#ADABB0" transform="translate(134,44)"/>
</svg>
