<?xml version="1.0" encoding="UTF-8"?>
<svg version="1.1" xmlns="http://www.w3.org/2000/svg" width="192" height="192">
<path d="M0 0 C1.04986084 0.00563965 2.09972168 0.0112793 3.18139648 0.01708984 C25.80124277 0.36854042 46.06186106 8.68674694 63.25 23.3125 C64.26513672 24.10914063 64.26513672 24.10914063 65.30078125 24.921875 C82.04541384 38.47865169 91.94736182 59.76194198 95.859375 80.55078125 C98.62129341 107.14805555 94.21404409 133.16564829 77.25 154.625 C75.92387201 156.19361996 74.59096793 157.75654723 73.25 159.3125 C72.45529297 160.32376953 72.45529297 160.32376953 71.64453125 161.35546875 C57.87928832 178.38358407 34.79374499 189.72931715 13.25 192.3125 C-15.6176327 193.69643293 -40.32121915 188.39762675 -62.75 169.3125 C-63.42675781 168.78140625 -64.10351562 168.2503125 -64.80078125 167.703125 C-81.54010812 154.15064393 -91.48789818 132.83584185 -95.359375 112.0390625 C-98.13455384 85.56385637 -93.61934257 59.33955521 -76.75 38 C-75.42387201 36.43138004 -74.09096793 34.86845277 -72.75 33.3125 C-72.22019531 32.63832031 -71.69039062 31.96414062 -71.14453125 31.26953125 C-54.35893886 10.50513178 -26.07624536 -0.14798031 0 0 Z " fill="#FDE471" transform="translate(95.75,-0.3125)"/>
<path d="M0 0 C4.65286571 3.88355867 9.049896 7.92037286 13.30078125 12.23828125 C14.14445503 13.08763496 14.14445503 13.08763496 15.00517273 13.95414734 C16.77676744 15.73782086 18.54503304 17.52473677 20.3125 19.3125 C22.65989764 21.68645406 25.01056988 24.05709467 27.36328125 26.42578125 C27.89971756 26.9705159 28.43615387 27.51525055 28.98884583 28.07649231 C31.72620181 30.8906939 31.72620181 30.8906939 35 33 C35.65719245 61.61314817 31.31455399 85.58892433 12 108 C11.47019531 108.67417969 10.94039062 109.34835938 10.39453125 110.04296875 C-3.09650768 126.73188357 -24.08413856 136.37314412 -44.69096375 140.54475403 C-50.08908397 139.65608207 -52.92557088 135.87420206 -56.65161133 132.0612793 C-57.49944183 131.21753754 -58.34727234 130.37379578 -59.22079468 129.50448608 C-61.53948862 127.19077557 -63.84427743 124.86422967 -66.1432631 122.53096366 C-68.55227027 120.09185703 -70.97750919 117.66899303 -73.40080261 115.24409485 C-77.46669301 111.17082321 -81.52114732 107.08645323 -85.56811523 102.99438477 C-90.76395568 97.74075931 -95.97821984 92.5058292 -101.19856739 87.27656841 C-105.6861396 82.78103786 -110.16516107 78.27701567 -114.64282393 73.77161813 C-116.08292052 72.32332442 -117.52418881 70.87620452 -118.96561623 69.42923546 C-121.64749964 66.73365042 -124.32248263 64.03141469 -126.99536133 61.3269043 C-127.79585403 60.52417587 -128.59634674 59.72144745 -129.4210968 58.89439392 C-130.14583191 58.15823853 -130.87056702 57.42208313 -131.61726379 56.66362 C-132.25011701 56.02481746 -132.88297022 55.38601492 -133.5350008 54.72785473 C-136.96638116 50.68080352 -136.38521349 45.46441645 -136.3515625 40.43359375 C-135.44740316 31.60297083 -129.91240393 24.66285322 -123.6875 18.6875 C-123.15511719 18.17574219 -122.62273437 17.66398437 -122.07421875 17.13671875 C-118.70472949 15.29016249 -116.82919517 15.41794528 -113 16 C-109.54737446 18.4371867 -106.71274883 21.4263578 -103.78515625 24.4609375 C-102.50154457 25.75229111 -102.50154457 25.75229111 -101.19200134 27.06973267 C-99.38956168 28.88929919 -97.59550064 30.71719853 -95.80932617 32.55273438 C-93.06418891 35.3732647 -90.29557754 38.16890892 -87.52148438 40.9609375 C-85.77463035 42.73037864 -84.02913918 44.5011665 -82.28515625 46.2734375 C-81.45403824 47.11619232 -80.62292023 47.95894714 -79.76661682 48.82723999 C-78.62929359 49.99822739 -78.62929359 49.99822739 -77.46899414 51.19287109 C-76.79727676 51.88126068 -76.12555939 52.56965027 -75.43348694 53.27890015 C-74 55 -74 55 -74 57 C-73.39414063 56.855625 -72.78828125 56.71125 -72.1640625 56.5625 C-65.40464428 55.06502889 -58.56213687 54.02239924 -51.703125 55.4921875 C-38.77054798 57.92171786 -24.41148634 56.2269174 -13.125 49.3125 C-3.92071831 42.47356444 1.61340079 34.21924678 4 23 C4.60618786 17.00806616 3.64866431 11.94599293 1.75390625 6.26171875 C1.06236926 4.18710777 0.51732892 2.12314021 0 0 Z " fill="#FECA26" transform="translate(157,51)"/>
<path d="M0 0 C8.99400546 6.53049343 15.23920934 14.90701887 17 26 C18.07620819 36.74251445 14.60828169 45.6305489 8 54 C0.9306505 62.61143799 -9.06150692 67.30793103 -20 69 C-27.35306336 69.48510397 -34.78000469 69.55507591 -42 68 C-48.70781083 67.61669652 -55.34250765 68.20676687 -62 69 C-61.690625 68.0925 -61.38125 67.185 -61.0625 66.25 C-60.711875 65.1775 -60.36125 64.105 -60 63 C-59.74863281 62.33742188 -59.49726562 61.67484375 -59.23828125 60.9921875 C-59.12033203 60.00605469 -59.12033203 60.00605469 -59 59 C-60.25328134 57.32819271 -60.25328134 57.32819271 -62.125 55.875 C-68.50350975 49.98125699 -72.04500669 41.9379011 -72.39379883 33.30004883 C-72.57231185 24.15998252 -71.17370782 17.78543533 -66 10 C-65.278125 8.906875 -64.55625 7.81375 -63.8125 6.6875 C-46.22975133 -10.11379317 -20.68545437 -13.04304512 0 0 Z " fill="#FEFDFC" transform="translate(145,39)"/>
<path d="M0 0 C2.90600586 2.00024414 2.90600586 2.00024414 5.71484375 4.78515625 C6.21544815 5.27906357 6.71605255 5.77297089 7.23182678 6.28184509 C8.2814159 7.32668871 9.32228867 8.3803537 10.35473633 9.44213867 C11.93352145 11.05842694 13.54620743 12.63393177 15.16601562 14.20898438 C16.18454352 15.23213825 17.20089764 16.25746164 18.21484375 17.28515625 C19.13386475 18.21207275 20.05288574 19.13898926 20.99975586 20.09399414 C23.46923948 23.68172311 23.48818054 25.72857936 23 30 C21.79296875 32.14453125 21.79296875 32.14453125 20.1875 33.8125 C19.66542969 34.37582031 19.14335938 34.93914062 18.60546875 35.51953125 C17 37 17 37 14 39 C13.86869484 44.38351171 15.37442294 46.84113273 19.0078125 50.8046875 C20.69778198 52.51055011 22.40417502 54.20026854 24.125 55.875 C25.38957031 57.174375 25.38957031 57.174375 26.6796875 58.5 C31.56174033 63.55578552 31.56174033 63.55578552 37.8359375 66.34765625 C41.926904 65.89815499 42.93022019 64.71239801 45.5 61.5625 C49.14325507 57.11038792 49.14325507 57.11038792 53.29321289 56.57568359 C57.97058732 57.11110326 59.39999486 58.49854336 62.71484375 61.78515625 C63.21544815 62.27906357 63.71605255 62.77297089 64.23182678 63.28184509 C65.2814159 64.32668871 66.32228867 65.3803537 67.35473633 66.44213867 C68.93352145 68.05842694 70.54620743 69.63393177 72.16601562 71.20898438 C73.18454352 72.23213825 74.20089764 73.25746164 75.21484375 74.28515625 C76.13386475 75.21207275 77.05288574 76.13898926 77.99975586 77.09399414 C80.46697656 80.6784355 80.4717854 82.73289233 80 87 C76.48022175 94.08096565 68.28009345 98.14334333 61.6875 101.875 C56.04248935 103.59720664 49.16640165 104.58806779 43.71673584 101.8548584 C40.31651199 99.5333468 37.55909275 96.83845329 34.66503906 93.92382812 C34.05144028 93.31373398 33.43784149 92.70363983 32.8056488 92.07505798 C30.78726105 90.06544342 28.77624236 88.04863662 26.765625 86.03125 C25.36298368 84.62995624 23.96004561 83.22895947 22.55682373 81.82824707 C19.62169527 78.8960636 16.69020614 75.96030181 13.76123047 73.02197266 C10.00289763 69.25222468 6.23562977 65.491554 2.4656105 61.73349762 C-0.43069945 58.84440512 -3.32224077 55.95057789 -6.21234894 53.05528259 C-7.59998937 51.66630644 -8.98912131 50.27881873 -10.37975311 48.89283752 C-12.31891585 46.95874031 -14.25157431 45.01837157 -16.18261719 43.07617188 C-17.04908623 42.21577553 -17.04908623 42.21577553 -17.93305969 41.33799744 C-22.30218373 36.92187146 -23.18525337 34.06047763 -23.375 27.9375 C-23.30991833 18.20778987 -19.0416037 11.26904447 -12.44140625 4.37109375 C-11.57322266 3.53771484 -11.57322266 3.53771484 -10.6875 2.6875 C-9.88892578 1.91986328 -9.88892578 1.91986328 -9.07421875 1.13671875 C-5.90405048 -0.6006051 -3.56839381 -0.35431524 0 0 Z " fill="#FEAB1E" transform="translate(44,67)"/>
<path d="M0 0 C14.67427803 1.2228565 26.72156904 4.73892746 37 16 C43.11238904 24.23274669 46.0781587 32.69759463 45 43 C43.04916436 53.39352767 37.27991201 62.42864126 29 69 C20.20579993 74.54155073 10.39350561 77.58831164 0 77 C0 72.05 0 67.1 0 62 C2.97 62 5.94 62 9 62 C9 57.05 9 52.1 9 47 C13.62 47 18.24 47 23 47 C23 41.39 23 35.78 23 30 C18.38 30 13.76 30 9 30 C9 25.38 9 20.76 9 16 C6.03 16 3.06 16 0 16 C0 10.72 0 5.44 0 0 Z " fill="#03F6FB" transform="translate(117,31)"/>
<path d="M0 0 C3.19063296 1.38330274 5.0349142 2.95876826 7.3125 5.5625 C9.72032042 7.98054471 11.18023836 9.08010594 14.375 10.5 C19.51330991 9.7912676 21.39113001 6.91755567 24.59375 3.00390625 C27 1 27 1 30.29321289 0.57568359 C34.97058732 1.11110326 36.39999486 2.49854336 39.71484375 5.78515625 C40.21544815 6.27906357 40.71605255 6.77297089 41.23182678 7.28184509 C42.2814159 8.32668871 43.32228867 9.3803537 44.35473633 10.44213867 C45.93352145 12.05842694 47.54620743 13.63393177 49.16601562 15.20898438 C50.18454352 16.23213825 51.20089764 17.25746164 52.21484375 18.28515625 C53.13386475 19.21207275 54.05288574 20.13898926 54.99975586 21.09399414 C57.46697656 24.6784355 57.4717854 26.73289233 57 31 C53.48022175 38.08096565 45.28009345 42.14334333 38.6875 45.875 C33.06470066 47.59043031 26.21292471 48.57369886 20.76147461 45.90356445 C17.07275372 43.36082227 14.08440733 40.33105684 10.94921875 37.14453125 C10.29041214 36.48289474 9.63160553 35.82125824 8.95283508 35.13957214 C6.85962961 33.03521451 4.77350459 30.92399352 2.6875 28.8125 C1.26543631 27.38040012 -0.15708479 25.94875428 -1.58007812 24.51757812 C-5.05870572 21.01695601 -8.53100188 17.51016378 -12 14 C-8 9.33333333 -4 4.66666667 0 0 Z " fill="#EF8916" transform="translate(67,123)"/>
<path d="M0 0 C5.61 0 11.22 0 17 0 C17 4.62 17 9.24 17 14 C21.62 14 26.24 14 31 14 C31 19.61 31 25.22 31 31 C26.38 31 21.76 31 17 31 C17 35.95 17 40.9 17 46 C11.39 46 5.78 46 0 46 C0 41.05 0 36.1 0 31 C-4.95 31 -9.9 31 -15 31 C-15 25.39 -15 19.78 -15 14 C-10.05 14 -5.1 14 0 14 C0 9.38 0 4.76 0 0 Z " fill="#BC0B21" transform="translate(109,47)"/>
<path d="M0 0 C2.64 0 5.28 0 8 0 C8 14.85 8 29.7 8 45 C5.36 45 2.72 45 0 45 C0 40.38 0 35.76 0 31 C-4.95 31 -9.9 31 -15 31 C-15 25.39 -15 19.78 -15 14 C-10.05 14 -5.1 14 0 14 C0 9.38 0 4.76 0 0 Z " fill="#E60521" transform="translate(109,47)"/>
<path d="M0 0 C2.90600586 2.00024414 2.90600586 2.00024414 5.71484375 4.78515625 C6.21544815 5.27906357 6.71605255 5.77297089 7.23182678 6.28184509 C8.2814159 7.32668871 9.32228867 8.3803537 10.35473633 9.44213867 C11.93352145 11.05842694 13.54620743 12.63393177 15.16601562 14.20898438 C16.18454352 15.23213825 17.20089764 16.25746164 18.21484375 17.28515625 C19.13386475 18.21207275 20.05288574 19.13898926 20.99975586 20.09399414 C23.46822364 23.68024728 23.49795769 25.73051525 23 30 C21.31656845 32.56021882 19.36461232 33.98022698 17 36 C12.80374091 34.36221955 10.01323215 31.26676818 6.921875 28.1171875 C6.35043762 27.54292023 5.77900024 26.96865295 5.19024658 26.37698364 C3.37207055 24.5476419 1.56098508 22.71145807 -0.25 20.875 C-1.48391329 19.63105226 -2.71828322 18.3875573 -3.953125 17.14453125 C-6.97406743 14.10157633 -9.98867092 11.05246746 -13 8 C-9.89526939 1.54649883 -7.47654555 -0.82253309 0 0 Z " fill="#C00219" transform="translate(101,124)"/>
<path d="M0 0 C2.90600586 2.00024414 2.90600586 2.00024414 5.71484375 4.78515625 C6.21544815 5.27906357 6.71605255 5.77297089 7.23182678 6.28184509 C8.2814159 7.32668871 9.32228867 8.3803537 10.35473633 9.44213867 C11.93352145 11.05842694 13.54620743 12.63393177 15.16601562 14.20898438 C16.18454352 15.23213825 17.20089764 16.25746164 18.21484375 17.28515625 C19.13386475 18.21207275 20.05288574 19.13898926 20.99975586 20.09399414 C23.46822364 23.68024728 23.49795769 25.73051525 23 30 C21.31656845 32.56021882 19.36461232 33.98022698 17 36 C12.80374091 34.36221955 10.01323215 31.26676818 6.921875 28.1171875 C6.35043762 27.54292023 5.77900024 26.96865295 5.19024658 26.37698364 C3.37207055 24.5476419 1.56098508 22.71145807 -0.25 20.875 C-1.48391329 19.63105226 -2.71828322 18.3875573 -3.953125 17.14453125 C-6.97406743 14.10157633 -9.98867092 11.05246746 -13 8 C-9.89526939 1.54649883 -7.47654555 -0.82253309 0 0 Z " fill="#E5031E" transform="translate(44,67)"/>
</svg>
