<?xml version="1.0" encoding="UTF-8"?>
<svg version="1.1" xmlns="http://www.w3.org/2000/svg" width="192" height="192">
<path d="M0 0 C1.04986084 0.00563965 2.09972168 0.0112793 3.18139648 0.01708984 C25.80124277 0.36854042 46.06186106 8.68674694 63.25 23.3125 C64.26513672 24.10914063 64.26513672 24.10914063 65.30078125 24.921875 C82.64656743 38.9653572 93.0707303 61.58805526 96.25 83.3125 C97.82446309 111.11847234 92.85944636 136.58197249 74.25 158.3125 C73.25033203 159.52873047 73.25033203 159.52873047 72.23046875 160.76953125 C57.66945028 177.84921238 35.60392149 189.63217368 13.25 192.3125 C-15.6176327 193.69643293 -40.32121915 188.39762675 -62.75 169.3125 C-63.42675781 168.78140625 -64.10351562 168.2503125 -64.80078125 167.703125 C-81.54010812 154.15064393 -91.48789818 132.83584185 -95.359375 112.0390625 C-98.13455384 85.56385637 -93.61934257 59.33955521 -76.75 38 C-75.42387201 36.43138004 -74.09096793 34.86845277 -72.75 33.3125 C-72.22019531 32.63832031 -71.69039062 31.96414062 -71.14453125 31.26953125 C-54.35893886 10.50513178 -26.07624536 -0.14798031 0 0 Z " fill="#BCBBC0" transform="translate(95.75,-0.3125)"/>
<path d="M0 0 C1.04986084 0.00563965 2.09972168 0.0112793 3.18139648 0.01708984 C25.80124277 0.36854042 46.06186106 8.68674694 63.25 23.3125 C64.26513672 24.10914063 64.26513672 24.10914063 65.30078125 24.921875 C74.36138136 32.25751116 80.75091966 41.87355393 86.1875 52.0625 C86.55286865 52.74683105 86.9182373 53.43116211 87.29467773 54.13623047 C89.76668974 58.95090836 92.12840727 63.99366094 93.25 69.3125 C92.92 70.3025 92.59 71.2925 92.25 72.3125 C91.66863785 71.70893173 91.0872757 71.10536346 90.48829651 70.48350525 C84.99783309 64.79244852 79.48344481 59.12592306 73.94104099 53.48541927 C71.09257903 50.5848256 68.25413295 47.67570584 65.43676758 44.74487305 C62.71602175 41.91525401 59.97136373 39.11097732 57.20863152 36.32235909 C56.1604299 35.25571781 55.12105229 34.18032856 54.09097481 33.09617424 C48.77543536 27.09508295 48.77543536 27.09508295 41.76663208 23.85165405 C39.43698851 24.08142151 37.46589091 24.57203392 35.25 25.3125 C33.60209473 25.61945801 33.60209473 25.61945801 31.92089844 25.93261719 C30.9105957 26.15594727 29.90029297 26.37927734 28.859375 26.609375 C27.73789063 26.84527344 26.61640625 27.08117187 25.4609375 27.32421875 C23.13548315 27.82028068 20.81254788 28.32828828 18.4921875 28.84765625 C17.37585938 29.07839844 16.25953125 29.30914063 15.109375 29.546875 C14.10358398 29.76569336 13.09779297 29.98451172 12.06152344 30.20996094 C8.56233274 30.33757991 7.0781053 29.28100532 4.25 27.3125 C0.10313675 26.44071625 -2.92921274 26.82002764 -6.5625 29 C-8.85208312 31.18561056 -8.85208312 31.18561056 -10.0078125 33.92578125 C-11.75 36.3125 -11.75 36.3125 -14.53515625 36.84375 C-15.61667969 36.8334375 -16.69820313 36.823125 -17.8125 36.8125 C-26.29559904 37.17107371 -32.35535996 39.85075166 -38.625 45.5625 C-45.91303773 53.83150876 -46.18214864 62.08294793 -46.07937622 72.6366272 C-45.96116782 89.19071925 -47.95659747 104.78565761 -51.31176758 120.97338867 C-51.46989929 121.74133759 -51.62803101 122.5092865 -51.79095459 123.30050659 C-52.08740425 124.72145216 -52.39240545 126.1406569 -52.70831299 127.55740356 C-53.72879274 132.34228137 -54.29235297 136.46265383 -53.75 141.3125 C-51.9589316 143.75044895 -50.48442864 145.4130886 -48.28125 147.38671875 C-47.72634888 147.91844193 -47.17144775 148.4501651 -46.59973145 148.9980011 C-44.83451752 150.68570382 -43.0452233 152.34429808 -41.25 154 C-39.45767277 155.66890926 -37.67195852 157.34332206 -35.90026855 159.03413391 C-34.80004232 160.08271341 -33.68747948 161.11853611 -32.56164551 162.13957214 C-30.10538242 164.46726444 -28.81827728 165.74223837 -28.40820312 169.16723633 C-28.52099609 169.87517334 -28.63378906 170.58311035 -28.75 171.3125 C-28.17475586 171.56322266 -27.59951172 171.81394531 -27.00683594 172.07226562 C-24.44558804 173.47978827 -22.70942608 175.09420025 -20.640625 177.15625 C-19.50947266 178.28353516 -19.50947266 178.28353516 -18.35546875 179.43359375 C-17.57816406 180.21863281 -16.80085938 181.00367188 -16 181.8125 C-14.81083984 182.99005859 -14.81083984 182.99005859 -13.59765625 184.19140625 C-12.84871094 184.94292969 -12.09976563 185.69445312 -11.328125 186.46875 C-10.64137695 187.15775391 -9.95462891 187.84675781 -9.24707031 188.55664062 C-7.75 190.3125 -7.75 190.3125 -7.75 192.3125 C-27.44706021 191.85345834 -46.6574069 182.53605383 -61.75 170.3125 C-62.89855469 169.40951172 -62.89855469 169.40951172 -64.0703125 168.48828125 C-81.61336154 153.90982412 -93.38074204 130.91522093 -95.75 108.3125 C-97.11047549 80.06103869 -91.64901631 55.24141873 -72.75 33.3125 C-72.22019531 32.63832031 -71.69039062 31.96414062 -71.14453125 31.26953125 C-54.35893886 10.50513178 -26.07624536 -0.14798031 0 0 Z " fill="#E6E6E7" transform="translate(95.75,-0.3125)"/>
<path d="M0 0 C0.495 3.96 0.495 3.96 1 8 C-3.23534848 8.85694584 -7.47119328 9.71138084 -11.70751953 10.56347656 C-13.14906552 10.85379918 -14.59047278 11.14481156 -16.03173828 11.43652344 C-18.10152818 11.8553247 -20.17180179 12.27165558 -22.2421875 12.6875 C-23.4885498 12.93886719 -24.73491211 13.19023438 -26.01904297 13.44921875 C-29 14 -29 14 -31 14 C-31 14.99 -31 15.98 -31 17 C-29.90429688 17.12375 -28.80859375 17.2475 -27.6796875 17.375 C-22.45236625 18.02927908 -17.29673615 19.00598943 -12.125 20 C-11.17625 20.17789063 -10.2275 20.35578125 -9.25 20.5390625 C-8.34507812 20.71179688 -7.44015625 20.88453125 -6.5078125 21.0625 C-5.68941895 21.21847656 -4.87102539 21.37445313 -4.02783203 21.53515625 C-2 22 -2 22 0 23 C0 25.31 0 27.62 0 30 C-3.06031581 31.5301579 -5.34096361 30.47751795 -8.65234375 29.78515625 C-9.6362484 29.58326942 -9.6362484 29.58326942 -10.64002991 29.37730408 C-12.74055632 28.94537302 -14.83906395 28.50446554 -16.9375 28.0625 C-19.03260261 27.62540955 -21.12807033 27.19026285 -23.22425842 26.75840759 C-25.12944624 26.36527777 -27.03338412 25.96610508 -28.93725586 25.56665039 C-31.9725357 24.90903677 -31.9725357 24.90903677 -35 25 C-35.33 28.63 -35.66 32.26 -36 36 C-35.175 36.04125 -34.35 36.0825 -33.5 36.125 C-25.74136198 38.06465951 -21.28307458 43.39536735 -17.12890625 49.94921875 C-15.08289334 53.66602421 -14.88117964 56.59238998 -14.90234375 60.76171875 C-14.90717773 62.43911133 -14.90717773 62.43911133 -14.91210938 64.15039062 C-14.92467773 65.90125977 -14.92467773 65.90125977 -14.9375 67.6875 C-14.94201172 68.86634766 -14.94652344 70.04519531 -14.95117188 71.25976562 C-14.96296727 74.17322789 -14.9794273 77.08658863 -15 80 C-34.02769639 80.78758409 -52.95420285 81.09767075 -72 81 C-72 94.53 -72 108.06 -72 122 C-53.19 122 -34.38 122 -15 122 C-15 130.58 -15 139.16 -15 148 C-34.14 148 -53.28 148 -73 148 C-73.66 146.02 -74.32 144.04 -75 142 C-76.7733444 139.98792931 -78.47764599 138.23809414 -80.4453125 136.4453125 C-81.53308419 135.40810984 -82.62030737 134.37033169 -83.70703125 133.33203125 C-85.41596397 131.72238079 -87.13058066 130.11985068 -88.85595703 128.52783203 C-90.52862245 126.97645037 -92.17509055 125.40069843 -93.8203125 123.8203125 C-94.33900909 123.35545441 -94.85770569 122.89059631 -95.39212036 122.41165161 C-98.25000285 119.6352477 -98.98668251 118.12373808 -99.41723633 114.12329102 C-99.13719538 110.0881501 -98.38305737 106.14985237 -97.50390625 102.20703125 C-97.18793298 100.6921493 -96.87405992 99.17682815 -96.56201172 97.66113281 C-96.39828064 96.87113892 -96.23454956 96.08114502 -96.06585693 95.26721191 C-92.75469993 79.11975074 -91.18867443 63.59511066 -91.43969727 47.10864258 C-91.53216874 36.64917075 -89.88892265 29.21746724 -82.8125 21.1875 C-76.58014928 15.51807128 -70.55339235 12.85541498 -62.125 12.5625 C-58.8714256 12.50063969 -58.8714256 12.50063969 -56 12 C-53.32428849 9.28016286 -53.32428849 9.28016286 -52 6 C-49.32193804 3.1306479 -48.07490237 3.00713356 -44.0625 2.625 C-41.20310518 2.59089191 -40.13925377 2.90292471 -37.74389648 4.57275391 C-34.29186675 6.36833766 -32.76564273 6.03339732 -29 5.234375 C-27.865625 5.00363281 -26.73125 4.77289062 -25.5625 4.53515625 C-23.7990625 4.14650391 -23.7990625 4.14650391 -22 3.75 C-20.824375 3.50636719 -19.64875 3.26273438 -18.4375 3.01171875 C-16.24819577 2.55644298 -14.06047998 2.0934102 -11.875 1.62011719 C-10.92625 1.41547852 -9.9775 1.21083984 -9 1 C-8.13375 0.80825195 -7.2675 0.61650391 -6.375 0.41894531 C-4 0 -4 0 0 0 Z " fill="#BEB8BC" transform="translate(140,23)"/>
<path d="M0 0 C0.495 3.96 0.495 3.96 1 8 C-3.23534848 8.85694584 -7.47119328 9.71138084 -11.70751953 10.56347656 C-13.14906552 10.85379918 -14.59047278 11.14481156 -16.03173828 11.43652344 C-18.10152818 11.8553247 -20.17180179 12.27165558 -22.2421875 12.6875 C-24.11173096 13.06455078 -24.11173096 13.06455078 -26.01904297 13.44921875 C-29 14 -29 14 -31 14 C-31 14.99 -31 15.98 -31 17 C-29.90429688 17.12375 -28.80859375 17.2475 -27.6796875 17.375 C-22.45236625 18.02927908 -17.29673615 19.00598943 -12.125 20 C-11.17625 20.17789063 -10.2275 20.35578125 -9.25 20.5390625 C-8.34507812 20.71179688 -7.44015625 20.88453125 -6.5078125 21.0625 C-5.68941895 21.21847656 -4.87102539 21.37445313 -4.02783203 21.53515625 C-2 22 -2 22 0 23 C0 25.31 0 27.62 0 30 C-3.06031581 31.5301579 -5.34096361 30.47751795 -8.65234375 29.78515625 C-9.6362484 29.58326942 -9.6362484 29.58326942 -10.64002991 29.37730408 C-12.74055632 28.94537302 -14.83906395 28.50446554 -16.9375 28.0625 C-19.03260261 27.62540955 -21.12807033 27.19026285 -23.22425842 26.75840759 C-25.12944624 26.36527777 -27.03338412 25.96610508 -28.93725586 25.56665039 C-31.9725357 24.90903677 -31.9725357 24.90903677 -35 25 C-35.33 28.63 -35.66 32.26 -36 36 C-35.175 36.04125 -34.35 36.0825 -33.5 36.125 C-25.74136198 38.06465951 -21.28307458 43.39536735 -17.12890625 49.94921875 C-11.87858452 59.48700044 -15 67.22939023 -15 80 C-33.81 80 -52.62 80 -72 80 C-72 50.57728119 -72 50.57728119 -64.90234375 42.66015625 C-64.25394531 42.13292969 -63.60554688 41.60570312 -62.9375 41.0625 C-62.28652344 40.51722656 -61.63554688 39.97195312 -60.96484375 39.41015625 C-57.35742505 36.82113408 -55.55643608 36 -51 36 C-51 32.37 -51 28.74 -51 25 C-48.69 25.66 -46.38 26.32 -44 27 C-44.103125 26.236875 -44.20625 25.47375 -44.3125 24.6875 C-44.209375 23.800625 -44.10625 22.91375 -44 22 C-43.175 21.54625 -42.35 21.0925 -41.5 20.625 C-40.675 20.08875 -39.85 19.5525 -39 19 C-38.16666667 15.5 -38.16666667 15.5 -39 12 C-41.46326712 10.3553326 -41.46326712 10.3553326 -44 9 C-44.3125 6.3125 -44.3125 6.3125 -44 4 C-38.53943381 3.74602018 -38.53943381 3.74602018 -35.71118164 5.07763672 C-32.14344138 6.29140734 -29.96872958 5.70665359 -26.30859375 4.8828125 C-25.03435547 4.60566406 -23.76011719 4.32851563 -22.44726562 4.04296875 C-21.11051308 3.73769642 -19.77392583 3.43169945 -18.4375 3.125 C-15.81250209 2.53814246 -13.18572662 1.96011663 -10.55859375 1.3828125 C-8.81533813 0.98666748 -8.81533813 0.98666748 -7.03686523 0.58251953 C-4 0 -4 0 0 0 Z " fill="#DA3406" transform="translate(140,23)"/>
<path d="M0 0 C18.81 0 37.62 0 57 0 C57 13.53 57 27.06 57 41 C38.19 41 19.38 41 0 41 C0 27.47 0 13.94 0 0 Z " fill="#9CFCFE" transform="translate(68,104)"/>
<path d="M0 0 C18.81 0 37.62 0 57 0 C57 8.25 57 16.5 57 25 C38.19 25 19.38 25 0 25 C0 16.75 0 8.5 0 0 Z " fill="#FC4E1A" transform="translate(68,145)"/>
<path d="M0 0 C9.24 0 18.48 0 28 0 C28 13.53 28 27.06 28 41 C18.76 41 9.52 41 0 41 C0 27.47 0 13.94 0 0 Z " fill="#FFFEFE" transform="translate(68,104)"/>
<path d="M0 0 C0 14.85 0 29.7 0 45 C-9.24 45 -18.48 45 -28 45 C-28.103125 40.895625 -28.20625 36.79125 -28.3125 32.5625 C-28.35802002 31.28705322 -28.40354004 30.01160645 -28.45043945 28.69750977 C-28.55727096 19.85806377 -26.74056294 14.40505416 -21.04296875 7.6953125 C-14.01387608 1.74648039 -9.30755526 0 0 0 Z " fill="#FE4E1A" transform="translate(96,58)"/>
<path d="M0 0 C0 1.65 0 3.3 0 5 C-0.90621094 5.07476562 -1.81242187 5.14953125 -2.74609375 5.2265625 C-10.78330665 6.09407119 -17.07458742 7.23813384 -23 13 C-29.6901343 21.67299339 -29.39947892 29.58086147 -29.5 40.125 C-29.51317261 41.40689713 -29.51317261 41.40689713 -29.52661133 42.71469116 C-29.63141291 61.81988554 -26.50760986 80.06644185 -22.64257812 98.7199707 C-22 102 -22 102 -22 104 C-28.93 104 -35.86 104 -43 104 C-43 98.6860904 -42.62655241 94.37817807 -41.50390625 89.3046875 C-41.18786738 87.7865631 -40.8739981 86.26798583 -40.56201172 84.74902344 C-40.39828064 83.95492065 -40.23454956 83.16081787 -40.06585693 82.34265137 C-36.76664129 66.16861371 -35.18830504 50.61983558 -35.43969727 34.10888672 C-35.53216137 23.64974615 -33.88944593 16.21693913 -26.8125 8.1875 C-18.56907236 0.70636782 -10.9472598 -0.77214215 0 0 Z " fill="#4F4E54" transform="translate(84,36)"/>
<path d="M0 0 C0.495 3.96 0.495 3.96 1 8 C-3.23534848 8.85694584 -7.47119328 9.71138084 -11.70751953 10.56347656 C-13.14906552 10.85379918 -14.59047278 11.14481156 -16.03173828 11.43652344 C-18.10152818 11.8553247 -20.17180179 12.27165558 -22.2421875 12.6875 C-24.11173096 13.06455078 -24.11173096 13.06455078 -26.01904297 13.44921875 C-29 14 -29 14 -31 14 C-31 14.99 -31 15.98 -31 17 C-29.90429688 17.12375 -28.80859375 17.2475 -27.6796875 17.375 C-22.45236625 18.02927908 -17.29673615 19.00598943 -12.125 20 C-11.17625 20.17789063 -10.2275 20.35578125 -9.25 20.5390625 C-8.34507812 20.71179688 -7.44015625 20.88453125 -6.5078125 21.0625 C-5.68941895 21.21847656 -4.87102539 21.37445313 -4.02783203 21.53515625 C-2 22 -2 22 0 23 C0 25.31 0 27.62 0 30 C-3.06031581 31.5301579 -5.34096361 30.47751795 -8.65234375 29.78515625 C-9.6362484 29.58326942 -9.6362484 29.58326942 -10.64002991 29.37730408 C-12.74055632 28.94537302 -14.83906395 28.50446554 -16.9375 28.0625 C-19.03260261 27.62540955 -21.12807033 27.19026285 -23.22425842 26.75840759 C-25.12944624 26.36527777 -27.03338412 25.96610508 -28.93725586 25.56665039 C-31.9725357 24.90903677 -31.9725357 24.90903677 -35 25 C-35.33 28.3 -35.66 31.6 -36 35 C-40.95 35 -45.9 35 -51 35 C-51 31.7 -51 28.4 -51 25 C-48.69 25.66 -46.38 26.32 -44 27 C-44.103125 26.236875 -44.20625 25.47375 -44.3125 24.6875 C-44.1578125 23.3571875 -44.1578125 23.3571875 -44 22 C-43.175 21.54625 -42.35 21.0925 -41.5 20.625 C-40.675 20.08875 -39.85 19.5525 -39 19 C-38.16666667 15.5 -38.16666667 15.5 -39 12 C-41.46326712 10.3553326 -41.46326712 10.3553326 -44 9 C-44.3125 6.3125 -44.3125 6.3125 -44 4 C-38.53943381 3.74602018 -38.53943381 3.74602018 -35.71118164 5.07763672 C-32.14344138 6.29140734 -29.96872958 5.70665359 -26.30859375 4.8828125 C-25.03435547 4.60566406 -23.76011719 4.32851563 -22.44726562 4.04296875 C-21.11051308 3.73769642 -19.77392583 3.43169945 -18.4375 3.125 C-15.81250209 2.53814246 -13.18572662 1.96011663 -10.55859375 1.3828125 C-8.81533813 0.98666748 -8.81533813 0.98666748 -7.03686523 0.58251953 C-4 0 -4 0 0 0 Z " fill="#D7360B" transform="translate(140,23)"/>
<path d="M0 0 C9.24 0 18.48 0 28 0 C28 7.92 28 15.84 28 24 C18.76 24 9.52 24 0 24 C0 16.08 0 8.16 0 0 Z " fill="#DA3305" transform="translate(97,146)"/>
<path d="M0 0 C0 1.65 0 3.3 0 5 C-0.90621094 5.07476562 -1.81242187 5.14953125 -2.74609375 5.2265625 C-10.78330665 6.09407119 -17.07458742 7.23813384 -23 13 C-27.60264936 18.96680809 -29.15548208 23.58731454 -29.31640625 31.0703125 C-29.33718735 31.86654022 -29.35796844 32.66276794 -29.37937927 33.48312378 C-29.44484149 36.03032685 -29.50374415 38.57763425 -29.5625 41.125 C-29.6056884 42.85027127 -29.64930279 44.57553193 -29.69335938 46.30078125 C-29.80051945 50.53374685 -29.90179623 54.76681753 -30 59 C-31.65 59 -33.3 59 -35 59 C-35.12464234 53.91382547 -35.21482392 48.82856144 -35.2746582 43.74121094 C-35.29962938 42.0148162 -35.33361907 40.28852529 -35.37719727 38.5625 C-35.67611533 26.40884318 -35.15354688 17.70293243 -26.8125 8.1875 C-18.56907236 0.70636782 -10.9472598 -0.77214215 0 0 Z " fill="#6B6970" transform="translate(84,36)"/>
<path d="M0 0 C-1.32 0.33 -2.64 0.66 -4 1 C-4 2.65 -4 4.3 -4 6 C-3.38125 6.12375 -2.7625 6.2475 -2.125 6.375 C0 7 0 7 2 9 C2.375 12.4375 2.375 12.4375 2 16 C0.125 17.9375 0.125 17.9375 -2 19 C-2.66 19 -3.32 19 -4 19 C-4 20.65 -4 22.3 -4 24 C-5.66611905 24.042721 -7.33382885 24.04063832 -9 24 C-9.33 23.67 -9.66 23.34 -10 23 C-10.33 26.3 -10.66 29.6 -11 33 C-11.33 33 -11.66 33 -12 33 C-12.03738281 32.20335937 -12.07476562 31.40671875 -12.11328125 30.5859375 C-12.48568172 24.58371814 -13.07977439 20.3325859 -16 15 C-16.58197698 11.00930069 -16.20642575 9.37598975 -14.25 5.8125 C-9.6602016 0.075252 -7.16064321 -0.35803216 0 0 Z " fill="#F95123" transform="translate(100,26)"/>
<path d="M0 0 C0.495 3.96 0.495 3.96 1 8 C-3.23534848 8.85694584 -7.47119328 9.71138084 -11.70751953 10.56347656 C-13.14906552 10.85379918 -14.59047278 11.14481156 -16.03173828 11.43652344 C-18.10152818 11.8553247 -20.17180179 12.27165558 -22.2421875 12.6875 C-24.11173096 13.06455078 -24.11173096 13.06455078 -26.01904297 13.44921875 C-29 14 -29 14 -31 14 C-31.99 11.69 -32.98 9.38 -34 7 C-28.10708129 4.80298849 -22.01776342 3.6403357 -15.875 2.375 C-14.79089844 2.14554688 -13.70679687 1.91609375 -12.58984375 1.6796875 C-11.02556641 1.35484375 -11.02556641 1.35484375 -9.4296875 1.0234375 C-8.48335449 0.82669434 -7.53702148 0.62995117 -6.56201172 0.42724609 C-4 0 -4 0 0 0 Z " fill="#515056" transform="translate(140,23)"/>
<path d="M0 0 C6.35492612 0.71773283 12.59588661 1.79315091 18.875 3 C19.82375 3.17789063 20.7725 3.35578125 21.75 3.5390625 C22.65492188 3.71179687 23.55984375 3.88453125 24.4921875 4.0625 C25.31058105 4.21847656 26.12897461 4.37445313 26.97216797 4.53515625 C29 5 29 5 31 6 C31 8.31 31 10.62 31 13 C27.93718137 14.53140931 25.63110943 13.49348393 22.3125 12.8203125 C21.65419189 12.68809296 20.99588379 12.55587341 20.31762695 12.41964722 C18.92497568 12.13856259 17.53297802 11.85422308 16.14160156 11.56689453 C14.00989486 11.12704169 11.87632016 10.6974411 9.7421875 10.26953125 C-0.69417835 8.15291083 -0.69417835 8.15291083 -3 7 C-1.125 2.25 -1.125 2.25 0 0 Z " fill="#504F54" transform="translate(109,40)"/>
<path d="M0 0 C0.99 0.350625 1.98 0.70125 3 1.0625 C7.26365913 2.30933692 10.66160688 1.7611216 15 1 C15 3.97 15 6.94 15 10 C10.05 10 5.1 10 0 10 C0 6.7 0 3.4 0 0 Z " fill="#B01714" transform="translate(89,48)"/>
<path d="M0 0 C1.8125 1.0625 1.8125 1.0625 3 3 C3.3125 6.5625 3.3125 6.5625 3 10 C1 12 1 12 -2.4375 12.375 C-6 12 -6 12 -8 10.3125 C-9.27800253 7.35711914 -9.08051862 6.01001617 -8 3 C-5.77343916 -0.22851322 -3.81410641 -0.57211596 0 0 Z " fill="#A1F7F8" transform="translate(99,32)"/>
<path d="M0 0 C2.31 0.66 4.62 1.32 7 2 C7 4.64 7 7.28 7 10 C4.69 10 2.38 10 0 10 C0 6.7 0 3.4 0 0 Z " fill="#E7041C" transform="translate(89,48)"/>
<path d="M0 0 C-0.99 0.33 -1.98 0.66 -3 1 C-3 4.63 -3 8.26 -3 12 C-7 11 -7 11 -9 8 C-8.7909311 5.21241468 -8.33997443 3.49296292 -6.75 1.1875 C-4.41988723 -0.39364795 -2.75498245 -0.22337696 0 0 Z " fill="#FBF0EC" transform="translate(99,32)"/>
<path d="M0 0 C-0.99 1.485 -0.99 1.485 -2 3 C-3.32 3 -4.64 3 -6 3 C-6 2.01 -6 1.02 -6 0 C-3.50907189 -1.24546405 -2.58919267 -0.7767578 0 0 Z " fill="#AEAFB5" transform="translate(115,37)"/>
</svg>
