<?xml version="1.0" encoding="UTF-8"?>
<svg version="1.1" xmlns="http://www.w3.org/2000/svg" width="192" height="192">
<path d="M0 0 C1.04986084 0.00563965 2.09972168 0.0112793 3.18139648 0.01708984 C25.80124277 0.36854042 46.06186106 8.68674694 63.25 23.3125 C64.26513672 24.10914063 64.26513672 24.10914063 65.30078125 24.921875 C82.04541384 38.47865169 91.94736182 59.76194198 95.859375 80.55078125 C98.59784984 106.92229395 94.24393472 132.43999107 77.875 154 C76.68037547 155.44891267 75.47148267 156.8861565 74.25 158.3125 C73.25033203 159.52873047 73.25033203 159.52873047 72.23046875 160.76953125 C57.66945028 177.84921238 35.60392149 189.63217368 13.25 192.3125 C-15.6176327 193.69643293 -40.32121915 188.39762675 -62.75 169.3125 C-63.42675781 168.78140625 -64.10351562 168.2503125 -64.80078125 167.703125 C-81.54010812 154.15064393 -91.48789818 132.83584185 -95.359375 112.0390625 C-98.13455384 85.56385637 -93.61934257 59.33955521 -76.75 38 C-75.42387201 36.43138004 -74.09096793 34.86845277 -72.75 33.3125 C-72.22019531 32.63832031 -71.69039062 31.96414062 -71.14453125 31.26953125 C-54.35893886 10.50513178 -26.07624536 -0.14798031 0 0 Z " fill="#E6E6E7" transform="translate(95.75,-0.3125)"/>
<path d="M0 0 C9.46614943 7.802642 17.61106825 17.53658118 19.5 30 C20.50767834 44.49617269 19.3490755 57.44071899 9.44921875 68.97265625 C3.70996182 74.94194352 -1.8098496 79.79577067 -9.5 83 C-10.4075 83.4125 -11.315 83.825 -12.25 84.25 C-14.5 85 -14.5 85 -18.5 85 C-18.5 88.96 -18.5 92.92 -18.5 97 C-2.0028543 92.45700429 12.16969325 86.2526631 21.75 71.25 C25.02231635 65.45489228 27.28267048 59.25954087 29.5 53 C28.84 53 28.18 53 27.5 53 C26.27308933 50.54617866 26.29824069 48.80015897 26.25 46.0625 C26.22421875 45.18722656 26.1984375 44.31195313 26.171875 43.41015625 C26.5 41 26.5 41 27.83203125 39.20703125 C30.42826363 37.32825887 32.38726944 37.61884932 35.5 38 C37.66015625 39.21875 37.66015625 39.21875 39.5 41 C40.03125 43.3046875 40.03125 43.3046875 40 45.875 C40.01546875 47.13957031 40.01546875 47.13957031 40.03125 48.4296875 C39.34072677 51.77060135 37.65611882 53.38555647 35.5 56 C34.21536174 58.95647435 34.21536174 58.95647435 33.1875 62.125 C26.86213747 79.12680778 15.52583369 90.16755426 -0.5 98 C-6.57750009 100.71645837 -11.81100311 102.5945775 -18.5 102 C-18.5 103.65 -18.5 105.3 -18.5 107 C-24.44 107 -30.38 107 -36.5 107 C-36.5 99.74 -36.5 92.48 -36.5 85 C-38.81 84.67 -41.12 84.34 -43.5 84 C-54.03753166 80.34045412 -64.11074715 71.78701111 -69.5 62 C-75.37083666 49.23054095 -77.16520203 35.31244985 -72.375 21.875 C-70.03736215 16.65623988 -67.30818311 12.25353149 -63.5 8 C-62.94957031 7.33484375 -62.39914063 6.6696875 -61.83203125 5.984375 C-46.3775287 -11.28248926 -18.52177355 -13.26420147 0 0 Z " fill="#FE4E1A" transform="translate(123.5,33)"/>
<path d="M0 0 C0.66 0 1.32 0 2 0 C3.36662292 1.38539124 3.36662292 1.38539124 4.98510742 3.35180664 C9.47389163 8.62624924 14.33770735 13.48130184 19.23828125 18.37109375 C20.21012184 19.34360956 21.18181408 20.31627364 22.15336609 21.28907776 C24.17297388 23.31014804 26.19434967 25.329428 28.21704102 27.34741211 C30.81075611 29.93538459 33.39989333 32.52788364 35.98775959 35.12170315 C37.98561979 37.12316918 39.98584582 39.12225709 41.98680687 41.12062263 C43.40737545 42.54020078 44.82593196 43.96179148 46.24446106 45.38340759 C47.10262924 46.23842361 47.96079742 47.09343964 48.8449707 47.97436523 C49.60107132 48.72967026 50.35717194 49.48497528 51.13618469 50.26316833 C52.89286981 52.06418281 52.89286981 52.06418281 55 53 C56.08016454 73.88318101 46.39319483 95.36056705 33 111 C32.00033203 112.21623047 32.00033203 112.21623047 30.98046875 113.45703125 C16.03028326 130.99319477 -5.40757608 141.5313285 -28 145 C-28.63240097 145.10287323 -29.26480194 145.20574646 -29.91636658 145.31173706 C-37.17634154 146.34719209 -44.05866858 146.86229385 -50.18066406 142.29345703 C-54.32863314 138.69234745 -57.9719862 134.65408453 -61.625 130.5625 C-62.93582542 129.16978852 -64.25090992 127.7810729 -65.5703125 126.39648438 C-75 116.4139426 -75 116.4139426 -75 115 C-51.9 115 -28.8 115 -5 115 C-5 108.07 -5 101.14 -5 94 C-20.18 94 -35.36 94 -51 94 C-51.495 87.565 -51.495 87.565 -52 81 C-54.19706999 77.87926386 -55.64595309 76.09669077 -58.4375 73.75 C-59.3356543 72.92048828 -59.3356543 72.92048828 -60.25195312 72.07421875 C-62.39132411 70.12410903 -64.39786282 68.30106859 -67 67 C-67 66.34 -67 65.68 -67 65 C-66.30519531 65.28617187 -65.61039063 65.57234375 -64.89453125 65.8671875 C-61.8535735 67.05730592 -58.78867525 68.10263453 -55.6875 69.125 C-53.810625 69.74375 -51.93375 70.3625 -50 71 C-50 78.26 -50 85.52 -50 93 C-44.06 93 -38.12 93 -32 93 C-32 91.35 -32 89.7 -32 88 C-31.41734375 87.91363281 -30.8346875 87.82726562 -30.234375 87.73828125 C-14.02045981 84.95948132 0.85657971 76.75971064 10.8359375 63.57421875 C14.84604856 57.66412058 17.59522742 51.56769815 19.95947266 44.86303711 C20.56089092 43.21118473 21.27287798 41.60050422 22 40 C22.99 39.67 23.98 39.34 25 39 C25.08082094 37.04233719 25.13910778 35.08373272 25.1875 33.125 C25.22230469 32.03445312 25.25710937 30.94390625 25.29296875 29.8203125 C25.14794922 28.42425781 25.14794922 28.42425781 25 27 C21.54754176 24.69836118 20.05261287 24.65509678 16 25 C13.69939466 26.8628949 13.69939466 26.8628949 13.8046875 29.8203125 C13.82789063 30.91085938 13.85109375 32.00140625 13.875 33.125 C13.89304687 34.22070312 13.91109375 35.31640625 13.9296875 36.4453125 C13.95289063 37.28835937 13.97609375 38.13140625 14 39 C14.66 39 15.32 39 16 39 C13.56902281 53.82896087 4.53572682 65.55140049 -7.4140625 74.3984375 C-14.89585806 79.03217795 -23.13257157 82.64530286 -32 83 C-32 79.04 -32 75.08 -32 71 C-31.09378906 70.72027344 -30.18757813 70.44054687 -29.25390625 70.15234375 C-15.91959948 65.76401634 -5.78493017 58.63226358 0.8125 45.9375 C4.14584655 39.10015777 5.36512051 32.71063821 5.3125 25.1875 C5.30976074 24.39504883 5.30702148 23.60259766 5.30419922 22.78613281 C5.19702635 16.7721337 4.25105051 11.60017445 2 6 C1.4121875 4.205625 1.4121875 4.205625 0.8125 2.375 C0.4103125 1.199375 0.4103125 1.199375 0 0 Z " fill="#BCBABF" transform="translate(137,47)"/>
<path d="M0 0 C14.22836391 0 23.28719739 4.02175002 33.625 13.375 C44.73165484 25.65077641 48.02128517 37.27702669 47.22216797 53.69042969 C45.94258685 66.9924488 38.08018514 76.90147917 28.25390625 85.28125 C25.01667982 87.74984555 21.77231763 89.49543401 18 91 C17.27941406 91.29777344 16.55882813 91.59554687 15.81640625 91.90234375 C9.95641839 94.10618667 6.94531433 94 0 94 C0 83.77 0 73.54 0 63 C3.3 61.68 6.6 60.36 10 59 C13.76129206 55.23870794 15.13957197 51.95725424 15.3125 46.6875 C15.26001105 42.07597111 14.04413444 39.55149017 11 36 C7.58136302 32.81713109 4.60985048 31.97565021 0 30 C0 20.1 0 10.2 0 0 Z " fill="#EC2603" transform="translate(96,25)"/>
<path d="M0 0 C5.67476113 1.96434039 9.31400331 5.62800662 12 11 C12.66129073 16.32284835 12.39509799 20.88733437 9.390625 25.42578125 C6.26509285 28.96395388 2.59308195 31.43693078 -2.05078125 32.4453125 C-7.09944861 32.73940963 -11.22080638 31.25634402 -15 28 C-18.41050763 24.1847099 -20.30193786 20.5254449 -20.5625 15.375 C-20.29059808 10.98680516 -18.89367224 8.36291639 -16 5 C-10.58420856 0.22894564 -7.09115125 -0.64682799 0 0 Z " fill="#FDFAF8" transform="translate(100,56)"/>
<path d="M0 0 C11.88 0 23.76 0 36 0 C36 6.93 36 13.86 36 21 C24.12 21 12.24 21 0 21 C0 14.07 0 7.14 0 0 Z " fill="#9BFBFE" transform="translate(96,141)"/>
<path d="M0 0 C11.88 0 23.76 0 36 0 C36 6.6 36 13.2 36 20 C24.12 20.33 12.24 20.66 0 21 C0 14.07 0 7.14 0 0 Z " fill="#FEFEFE" transform="translate(60,141)"/>
<path d="M0 0 C2.16015625 1.21875 2.16015625 1.21875 4 3 C4.53125 5.3046875 4.53125 5.3046875 4.5 7.875 C4.5103125 8.71804687 4.520625 9.56109375 4.53125 10.4296875 C3.84072677 13.77060135 2.15611882 15.38555647 0 18 C-1.28463826 20.95647435 -1.28463826 20.95647435 -2.3125 24.125 C-8.63786253 41.12680778 -19.97416631 52.16755426 -36 60 C-42.07750009 62.71645837 -47.31100311 64.5945775 -54 64 C-54 62.35 -54 60.7 -54 59 C-52.98421875 58.72027344 -51.9684375 58.44054687 -50.921875 58.15234375 C-34.50959639 53.45225469 -21.01222817 46.11104095 -12.3515625 30.7734375 C-9.86037631 25.66146583 -7.89727876 20.35603473 -6 15 C-6.66 15 -7.32 15 -8 15 C-9.22691067 12.54617866 -9.20175931 10.80015897 -9.25 8.0625 C-9.27578125 7.18722656 -9.3015625 6.31195313 -9.328125 5.41015625 C-9 3 -9 3 -7.66796875 1.20703125 C-5.07173637 -0.67174113 -3.11273056 -0.38115068 0 0 Z " fill="#EB2A0A" transform="translate(159,71)"/>
<path d="M0 0 C7.91317365 1.13045338 7.91317365 1.13045338 10.8125 3.8125 C11.37582031 4.31394531 11.93914062 4.81539062 12.51953125 5.33203125 C15.95301486 9.20036239 16.44484901 12.65823766 16.3125 17.6875 C15.61290491 22.86450365 13.10045438 26.06700607 9.125 29.4375 C6 31 6 31 0 31 C0 20.77 0 10.54 0 0 Z " fill="#9CF9FB" transform="translate(96,56)"/>
<path d="M0 0 C5.94 0 11.88 0 18 0 C18 6.93 18 13.86 18 21 C12.06 21 6.12 21 0 21 C0 14.07 0 7.14 0 0 Z " fill="#FE870A" transform="translate(87,119)"/>
<path d="M0 0 C2.97 0 5.94 0 9 0 C9 6.93 9 13.86 9 21 C6.03 21 3.06 21 0 21 C0 14.07 0 7.14 0 0 Z " fill="#FEA824" transform="translate(87,119)"/>
<path d="M0 0 C2.1640625 1.2109375 2.1640625 1.2109375 4 3 C4.49609375 5.375 4.49609375 5.375 4.4375 8 C4.43621094 8.86625 4.43492187 9.7325 4.43359375 10.625 C3.92070155 13.43435546 3.30552195 14.34939537 1 16 C-5.08695652 16.65217391 -5.08695652 16.65217391 -7.6953125 14.7890625 C-9.41799031 12.42682766 -9.40090841 10.90174224 -9.375 8 C-9.38273438 7.13375 -9.39046875 6.2675 -9.3984375 5.375 C-8.48083976 -0.09460219 -5.00574184 -0.61294798 0 0 Z " fill="#FC890F" transform="translate(159,71)"/>
</svg>
