<?xml version="1.0" encoding="UTF-8"?>
<svg version="1.1" xmlns="http://www.w3.org/2000/svg" width="192" height="192">
<path d="M0 0 C1.04986084 0.00563965 2.09972168 0.0112793 3.18139648 0.01708984 C25.80124277 0.36854042 46.06186106 8.68674694 63.25 23.3125 C64.26513672 24.10914063 64.26513672 24.10914063 65.30078125 24.921875 C82.64656743 38.9653572 93.0707303 61.58805526 96.25 83.3125 C97.82446309 111.11847234 92.85944636 136.58197249 74.25 158.3125 C73.25033203 159.52873047 73.25033203 159.52873047 72.23046875 160.76953125 C57.35116983 178.22254674 35.80259693 188.98920066 13.25 192.3125 C-16.71965936 194.20832087 -41.8011655 187.52087804 -64.90600586 167.83935547 C-81.83301342 152.773538 -93.38253086 130.8981556 -95.75 108.3125 C-97.11047549 80.06103869 -91.64901631 55.24141873 -72.75 33.3125 C-72.22019531 32.63832031 -71.69039062 31.96414062 -71.14453125 31.26953125 C-54.35893886 10.50513178 -26.07624536 -0.14798031 0 0 Z " fill="#00F6FC" transform="translate(95.75,-0.3125)"/>
<path d="M0 0 C0.86032837 -0.0049649 1.72065674 -0.00992981 2.60705566 -0.01504517 C5.4615966 -0.02968522 8.31608194 -0.03647217 11.1706543 -0.04199219 C13.15121971 -0.04774252 15.1317851 -0.05350027 17.11235046 -0.05926514 C21.26940165 -0.06978064 25.42643347 -0.07561958 29.58349609 -0.07910156 C34.91006386 -0.0845847 40.2363758 -0.10860662 45.56286335 -0.13707352 C49.65580492 -0.1556992 53.7486849 -0.16090548 57.84166527 -0.16243744 C59.80526311 -0.16546511 61.76885984 -0.17349746 63.73241615 -0.18662262 C66.48066263 -0.20368012 69.22828454 -0.20180349 71.9765625 -0.1953125 C73.19320839 -0.20913467 73.19320839 -0.20913467 74.43443298 -0.22323608 C80.31884288 -0.17970617 83.55946683 1.03822659 87.68237305 5.16113281 C87.93964195 7.22049427 87.93964195 7.22049427 87.94979858 9.80976868 C87.95832855 10.78974823 87.96685852 11.76972778 87.97564697 12.77940369 C87.9747406 13.85839432 87.97383423 14.93738495 87.97290039 16.04907227 C87.97961761 17.18250061 87.98633484 18.31592896 87.99325562 19.48370361 C88.01232275 23.24731782 88.01616438 27.0107545 88.01831055 30.77441406 C88.024733 33.38274714 88.03146093 35.99107948 88.03848267 38.59941101 C88.05128311 44.07466798 88.05424669 49.54987657 88.05297852 55.02514648 C88.05177782 61.35089402 88.07286191 67.67629994 88.10446584 74.00196105 C88.13378702 80.08778254 88.14095411 86.17344039 88.13975906 92.25932884 C88.14212253 94.8481301 88.1509877 97.43693376 88.1664238 100.02569008 C88.18598538 103.64575253 88.18028323 107.26493359 88.16821289 110.88500977 C88.1794519 111.9579277 88.19069092 113.03084564 88.20227051 114.13627625 C88.14057607 121.40548129 88.14057607 121.40548129 85.77700806 125.3033905 C81.86093171 128.77657828 78.27881004 128.3218493 73.27294922 128.33813477 C71.96782631 128.34799156 71.96782631 128.34799156 70.63633728 128.35804749 C67.74933797 128.37780101 64.86239071 128.38944744 61.9753418 128.39941406 C60.99048609 128.40348959 60.00563038 128.40756512 58.99093056 128.41176414 C53.7786238 128.43263332 48.56634343 128.44693156 43.35400391 128.45629883 C37.9668278 128.46736705 32.58006433 128.50176938 27.19303417 128.54147053 C23.05376918 128.56759982 18.91460305 128.57598737 14.77526283 128.57958031 C12.78932215 128.58445555 10.80338615 128.59609611 8.81752586 128.6146183 C6.03801027 128.63893203 3.25956956 128.638059 0.47998047 128.63110352 C-0.75069153 128.6503186 -0.75069153 128.6503186 -2.00622559 128.66992188 C-5.97734578 128.63369924 -7.87030877 128.44628876 -11.30497742 126.25675964 C-14.20474822 123.23743741 -14.44424443 121.62456896 -14.46479797 117.55046082 C-14.47195328 116.57889542 -14.47910858 115.60733002 -14.48648071 114.60632324 C-14.49051407 113.0018634 -14.49051407 113.0018634 -14.49462891 111.36499023 C-14.5012001 110.24131546 -14.5077713 109.11764069 -14.51454163 107.95991516 C-14.5343073 104.22881001 -14.54594394 100.49774516 -14.5559082 96.76660156 C-14.55998373 95.49489923 -14.56405926 94.22319691 -14.56825829 92.91295815 C-14.58697797 86.87787526 -14.60154121 80.84281691 -14.60987025 74.80771273 C-14.61964234 67.84204702 -14.64596053 60.87669912 -14.68637115 53.91114539 C-14.72017264 47.87766437 -14.73201546 41.84433761 -14.73607445 35.81075478 C-14.74095483 33.24427446 -14.75260976 30.67779789 -14.77111244 28.11137962 C-14.79538023 24.52248005 -14.79456109 20.93441496 -14.78759766 17.34545898 C-14.80040771 16.28189178 -14.81321777 15.21832458 -14.82641602 14.12252808 C-14.7753482 6.91500398 -14.7753482 6.91500398 -12.41325378 3.02461243 C-8.51635954 -0.44059563 -4.98604936 0.00682073 0 0 Z " fill="#FD5520" transform="translate(59.317626953125,31.8388671875)"/>
<path d="M0 0 C0.66 0 1.32 0 2 0 C3.43460083 1.45584106 3.43460083 1.45584106 5.10595703 3.47705078 C8.95952304 8.00601351 13.07769586 12.18849027 17.3046875 16.3671875 C18.06927277 17.12798615 18.83385803 17.88878479 19.62161255 18.67263794 C22.03697383 21.07589013 24.45557398 23.47584041 26.875 25.875 C30.08357538 29.05704779 33.28886664 32.24235115 36.4921875 35.4296875 C37.23064911 36.15985077 37.96911072 36.89001404 38.72994995 37.64230347 C39.4080069 38.31705719 40.08606384 38.99181091 40.78466797 39.68701172 C41.68232376 40.57681229 41.68232376 40.57681229 42.59811401 41.48458862 C47.94120257 47.26036302 45.30290556 60.51285599 45.13623047 67.87451172 C44.3133851 86.7527669 35.15586679 105.80541341 23 120 C22.00033203 121.21623047 22.00033203 121.21623047 20.98046875 122.45703125 C6.08770953 139.92583531 -15.43971686 150.64916792 -38 154 C-42.28925828 154.32758738 -46.57489186 154.41351738 -50.875 154.5 C-52.02097656 154.55414063 -53.16695312 154.60828125 -54.34765625 154.6640625 C-59.69590392 154.75022529 -63.84578291 154.81662546 -68.0390625 151.2421875 C-69.3819196 149.84951645 -70.69921206 148.4320435 -72 147 C-72.94691794 146.05736561 -73.90038679 145.12128471 -74.85888672 144.19042969 C-77.55025241 141.57575618 -80.20933443 138.93139321 -82.85742188 136.27294922 C-84.52098408 134.6039473 -86.18992925 132.94045846 -87.859375 131.27734375 C-88.91698813 130.21907116 -89.97429174 129.16048914 -91.03125 128.1015625 C-91.53112427 127.60371246 -92.03099854 127.10586243 -92.54602051 126.59292603 C-96 123.11500094 -96 123.11500094 -96 122 C-94.3253643 121.99786247 -94.3253643 121.99786247 -92.61689758 121.99568176 C-82.09621188 121.97901309 -71.57591304 121.93624338 -61.05543232 121.86790943 C-55.64668036 121.83361695 -50.23821153 121.80852591 -44.8293457 121.80444336 C-39.60953999 121.80016531 -34.39037323 121.77174317 -29.17076683 121.72656822 C-27.17931019 121.7135775 -25.18777714 121.7092911 -23.19628334 121.71384621 C-20.4066021 121.71874098 -17.61879641 121.69271018 -14.8293457 121.65942383 C-13.59396057 121.67236229 -13.59396057 121.67236229 -12.33361816 121.68556213 C-8.42967633 121.60746014 -6.38337534 121.23433415 -2.98937988 119.15979004 C-0.02235956 114.44718521 -0.29636675 110.2511927 -0.34057617 104.78393555 C-0.33009247 103.65179123 -0.31960876 102.51964691 -0.30880737 101.35319519 C-0.28002484 97.61409203 -0.2863532 93.875913 -0.29296875 90.13671875 C-0.27985578 87.54310443 -0.2645528 84.94950032 -0.24714661 82.35591125 C-0.21131567 76.22904107 -0.19755947 70.10248625 -0.1945222 63.97552377 C-0.18982986 56.9984084 -0.15690104 50.02151517 -0.12162435 43.04449785 C-0.04970972 28.69636645 -0.01317628 14.34829953 0 0 Z " fill="#01D7DE" transform="translate(147,38)"/>
<path d="M0 0 C0.86032837 -0.0049649 1.72065674 -0.00992981 2.60705566 -0.01504517 C5.4615966 -0.02968522 8.31608194 -0.03647217 11.1706543 -0.04199219 C13.15121971 -0.04774252 15.1317851 -0.05350027 17.11235046 -0.05926514 C21.26940165 -0.06978064 25.42643347 -0.07561958 29.58349609 -0.07910156 C34.91006386 -0.0845847 40.2363758 -0.10860662 45.56286335 -0.13707352 C49.65580492 -0.1556992 53.7486849 -0.16090548 57.84166527 -0.16243744 C59.80526311 -0.16546511 61.76885984 -0.17349746 63.73241615 -0.18662262 C66.48066263 -0.20368012 69.22828454 -0.20180349 71.9765625 -0.1953125 C73.19320839 -0.20913467 73.19320839 -0.20913467 74.43443298 -0.22323608 C80.31884288 -0.17970617 83.55946683 1.03822659 87.68237305 5.16113281 C87.93964195 7.22049427 87.93964195 7.22049427 87.94979858 9.80976868 C87.95832855 10.78974823 87.96685852 11.76972778 87.97564697 12.77940369 C87.9747406 13.85839432 87.97383423 14.93738495 87.97290039 16.04907227 C87.97961761 17.18250061 87.98633484 18.31592896 87.99325562 19.48370361 C88.01232275 23.24731782 88.01616438 27.0107545 88.01831055 30.77441406 C88.024733 33.38274714 88.03146093 35.99107948 88.03848267 38.59941101 C88.05128311 44.07466798 88.05424669 49.54987657 88.05297852 55.02514648 C88.05177782 61.35089402 88.07286191 67.67629994 88.10446584 74.00196105 C88.13378702 80.08778254 88.14095411 86.17344039 88.13975906 92.25932884 C88.14212253 94.8481301 88.1509877 97.43693376 88.1664238 100.02569008 C88.18598538 103.64575253 88.18028323 107.26493359 88.16821289 110.88500977 C88.1794519 111.9579277 88.19069092 113.03084564 88.20227051 114.13627625 C88.14057607 121.40548129 88.14057607 121.40548129 85.77700806 125.3033905 C81.86093171 128.77657828 78.27881004 128.3218493 73.27294922 128.33813477 C71.96782631 128.34799156 71.96782631 128.34799156 70.63633728 128.35804749 C67.74933797 128.37780101 64.86239071 128.38944744 61.9753418 128.39941406 C60.99048609 128.40348959 60.00563038 128.40756512 58.99093056 128.41176414 C53.7786238 128.43263332 48.56634343 128.44693156 43.35400391 128.45629883 C37.9668278 128.46736705 32.58006433 128.50176938 27.19303417 128.54147053 C23.05376918 128.56759982 18.91460305 128.57598737 14.77526283 128.57958031 C12.78932215 128.58445555 10.80338615 128.59609611 8.81752586 128.6146183 C6.03801027 128.63893203 3.25956956 128.638059 0.47998047 128.63110352 C-0.75069153 128.6503186 -0.75069153 128.6503186 -2.00622559 128.66992188 C-5.97734578 128.63369924 -7.87030877 128.44628876 -11.30497742 126.25675964 C-14.20474822 123.23743741 -14.44424443 121.62456896 -14.46479797 117.55046082 C-14.47195328 116.57889542 -14.47910858 115.60733002 -14.48648071 114.60632324 C-14.49051407 113.0018634 -14.49051407 113.0018634 -14.49462891 111.36499023 C-14.5012001 110.24131546 -14.5077713 109.11764069 -14.51454163 107.95991516 C-14.5343073 104.22881001 -14.54594394 100.49774516 -14.5559082 96.76660156 C-14.55998373 95.49489923 -14.56405926 94.22319691 -14.56825829 92.91295815 C-14.58697797 86.87787526 -14.60154121 80.84281691 -14.60987025 74.80771273 C-14.61964234 67.84204702 -14.64596053 60.87669912 -14.68637115 53.91114539 C-14.72017264 47.87766437 -14.73201546 41.84433761 -14.73607445 35.81075478 C-14.74095483 33.24427446 -14.75260976 30.67779789 -14.77111244 28.11137962 C-14.79538023 24.52248005 -14.79456109 20.93441496 -14.78759766 17.34545898 C-14.80040771 16.28189178 -14.81321777 15.21832458 -14.82641602 14.12252808 C-14.7753482 6.91500398 -14.7753482 6.91500398 -12.41325378 3.02461243 C-8.51635954 -0.44059563 -4.98604936 0.00682073 0 0 Z M-5.31762695 9.16113281 C-5.31762695 45.46113281 -5.31762695 81.76113281 -5.31762695 119.16113281 C22.40237305 119.16113281 50.12237305 119.16113281 78.68237305 119.16113281 C78.68237305 82.86113281 78.68237305 46.56113281 78.68237305 9.16113281 C50.96237305 9.16113281 23.24237305 9.16113281 -5.31762695 9.16113281 Z " fill="#F8501D" transform="translate(59.317626953125,31.8388671875)"/>
<path d="M0 0 C13.2 0 26.4 0 40 0 C40 34.32 40 68.64 40 104 C26.8 104 13.6 104 0 104 C0 99.71 0 95.42 0 91 C2.31 91 4.62 91 7 91 C7 77.8 7 64.6 7 51 C11.95 50.505 11.95 50.505 17 50 C19.20162356 48.21630633 19.20162356 48.21630633 19.23046875 45.87109375 C19.21628906 45.06800781 19.20210937 44.26492187 19.1875 43.4375 C19.18105469 42.63183594 19.17460938 41.82617188 19.16796875 40.99609375 C19.21630912 39.00120115 19.21630912 39.00120115 18 38 C16.65984779 37.84417697 15.31241097 37.74955858 13.96484375 37.68359375 C12.75151367 37.62075195 12.75151367 37.62075195 11.51367188 37.55664062 C10.2384668 37.49766602 10.2384668 37.49766602 8.9375 37.4375 C7.65649414 37.37272461 7.65649414 37.37272461 6.34960938 37.30664062 C4.23327963 37.20023298 2.11666187 37.09958269 0 37 C0 32.05 0 27.1 0 22 C1.32 22 2.64 22 4 22 C7 26.07142857 7 26.07142857 7 29 C8.65 29 10.3 29 12 29 C11.29875 28.113125 10.5975 27.22625 9.875 26.3125 C9.25625 25.219375 8.6375 24.12625 8 23 C8.8125 20.5625 8.8125 20.5625 10 18 C9.93022926 14.34244606 9.93022926 14.34244606 9 11 C5.81237635 8.87491756 3.73487777 8.4979837 0 8 C0 5.36 0 2.72 0 0 Z " fill="#D93408" transform="translate(96,44)"/>
<path d="M0 0 C6.62014692 -0.10139564 13.24009372 -0.17146336 19.86083984 -0.21972656 C22.11319461 -0.23984556 24.36549713 -0.26714408 26.61767578 -0.30175781 C29.85462331 -0.35026209 33.09088047 -0.37296605 36.328125 -0.390625 C37.83925873 -0.42159271 37.83925873 -0.42159271 39.38092041 -0.45318604 C40.79193024 -0.45363922 40.79193024 -0.45363922 42.23144531 -0.45410156 C43.47054657 -0.46742523 43.47054657 -0.46742523 44.73468018 -0.48101807 C48.13605997 0.241231 49.08366042 1.05385129 51 4 C51.60260054 7.7014662 51.54585503 11.37194044 51.51757812 15.11499023 C51.5245874 16.24871063 51.53159668 17.38243103 51.53881836 18.55050659 C51.55644369 22.30345044 51.54475791 26.05564203 51.53125 29.80859375 C51.53394377 32.41406906 51.53782523 35.01954339 51.54284668 37.62501526 C51.5501221 43.08839076 51.54053948 48.55154993 51.52148438 54.01489258 C51.49972641 60.32594677 51.50675907 66.63648383 51.52879 72.94752544 C51.54915029 79.02377758 51.54696803 85.09980099 51.53526306 91.17607307 C51.532593 93.75927872 51.53587529 96.34249753 51.54518127 98.92568779 C51.5553318 102.53601982 51.53986426 106.14535733 51.51757812 109.75561523 C51.52567505 110.82539108 51.53377197 111.89516693 51.54211426 112.99736023 C51.49160731 117.41049515 51.41113937 120.24915518 49.26568604 124.16729736 C46.65237363 126.28119331 45.55375336 126.61228163 42.23144531 126.56762695 C41.29077209 126.5672493 40.35009888 126.56687164 39.38092041 126.56648254 C38.37349792 126.54067612 37.36607544 126.51486969 36.328125 126.48828125 C35.29057068 126.48120651 34.25301636 126.47413177 33.184021 126.46684265 C29.87194552 126.43886641 26.56156401 126.37611929 23.25 126.3125 C21.00393067 126.28742143 18.75783483 126.26460749 16.51171875 126.24414062 C11.00723508 126.1890294 5.50373855 126.10537061 0 126 C0 123.36 0 120.72 0 118 C13.86 118 27.72 118 42 118 C42 81.7 42 45.4 42 8 C28.14 8 14.28 8 0 8 C0 5.36 0 2.72 0 0 Z " fill="#DB3505" transform="translate(96,33)"/>
<path d="M0 0 C27.72 0 55.44 0 84 0 C84 36.3 84 72.6 84 110 C56.28 110 28.56 110 0 110 C0 73.7 0 37.4 0 0 Z M2 2 C2 36.98 2 71.96 2 108 C28.4 108 54.8 108 82 108 C82 73.02 82 38.04 82 2 C55.6 2 29.2 2 2 2 Z " fill="#FDD418" transform="translate(54,41)"/>
<path d="M0 0 C6.6 0 13.2 0 20 0 C20 10.56 20 21.12 20 32 C13.4 32 6.8 32 0 32 C0 21.44 0 10.88 0 0 Z " fill="#E6021E" transform="translate(69,103)"/>
<path d="M0 0 C6.6 0 13.2 0 20 0 C20 10.23 20 20.46 20 31 C13.4 31 6.8 31 0 31 C0 20.77 0 10.54 0 0 Z " fill="#C00119" transform="translate(103,103)"/>
<path d="M0 0 C1.15628906 0.00607269 1.15628906 0.00607269 2.3359375 0.01226807 C3.12742187 0.01035461 3.91890625 0.00844116 4.734375 0.00646973 C6.4088574 0.00510789 8.08335035 0.00880425 9.7578125 0.01715088 C12.32576131 0.02785067 14.89301053 0.01725582 17.4609375 0.00445557 C19.08593905 0.00577716 20.71094016 0.00833956 22.3359375 0.01226807 C23.10679688 0.0082196 23.87765625 0.00417114 24.671875 0 C30.10601618 0.04797174 30.10601618 0.04797174 32.3359375 2.27789307 C32.63671875 4.33648682 32.63671875 4.33648682 32.6484375 6.71539307 C32.66519531 7.497854 32.68195313 8.28031494 32.69921875 9.08648682 C32.3359375 11.27789307 32.3359375 11.27789307 31.28979492 12.88995361 C28.30888479 15.00746881 25.23496495 14.70610232 21.7109375 14.67633057 C20.595979 14.68063583 20.595979 14.68063583 19.45849609 14.68502808 C17.8883386 14.68706783 16.31815564 14.68154407 14.74804688 14.66900635 C12.34447418 14.65295009 9.94258289 14.66885659 7.5390625 14.68804932 C6.01301712 14.68606687 4.48697279 14.68222315 2.9609375 14.67633057 C2.24212402 14.68240326 1.52331055 14.68847595 0.78271484 14.69473267 C-4.17566222 14.62483241 -4.17566222 14.62483241 -6.61791992 12.88995361 C-8.01373422 10.73906405 -8.0311339 9.26345782 -7.9765625 6.71539307 C-7.97269531 5.930354 -7.96882813 5.14531494 -7.96484375 4.33648682 C-7.27159499 -0.40821573 -4.05308408 0.03577999 0 0 Z " fill="#6B686E" transform="translate(83.6640625,80.72210693359375)"/>
<path d="M0 0 C3.96 0 7.92 0 12 0 C12 12.87 12 25.74 12 39 C8.04 39 4.08 39 0 39 C0 26.13 0 13.26 0 0 Z " fill="#FBFDFD" transform="translate(90,95)"/>
<path d="M0 0 C13.86 0 27.72 0 42 0 C42 0.66 42 1.32 42 2 C28.8 2 15.6 2 2 2 C2 36.98 2 71.96 2 108 C15.2 108 28.4 108 42 108 C42 108.66 42 109.32 42 110 C28.14 110 14.28 110 0 110 C0 73.7 0 37.4 0 0 Z " fill="#FEE370" transform="translate(54,41)"/>
<path d="M0 0 C2.95857409 -0.05379226 5.91617721 -0.09357093 8.875 -0.125 C9.71675781 -0.14175781 10.55851562 -0.15851563 11.42578125 -0.17578125 C12.23144531 -0.18222656 13.03710938 -0.18867187 13.8671875 -0.1953125 C14.98262939 -0.21102295 14.98262939 -0.21102295 16.12060547 -0.22705078 C18 0 18 0 20 2 C20.30078125 4.05859375 20.30078125 4.05859375 20.3125 6.4375 C20.32925781 7.21996094 20.34601563 8.00242187 20.36328125 8.80859375 C20 11 20 11 18.8125 12.76953125 C16.33884614 14.44884368 14.65545389 14.33210108 11.6875 14.25 C10.30111328 14.22679688 10.30111328 14.22679688 8.88671875 14.203125 C5.90482798 13.99330319 2.9485916 13.49143193 0 13 C0 8.71 0 4.42 0 0 Z " fill="#393839" transform="translate(96,81)"/>
<path d="M0 0 C1.918125 -0.0825 3.83625 -0.165 5.8125 -0.25 C7.43091797 -0.31960937 7.43091797 -0.31960937 9.08203125 -0.390625 C12 0 12 0 13.90234375 1.79296875 C15.92377123 5.85740478 14.37168239 9.88495284 13 14 C13.95298777 15.36733028 14.95374591 16.70264493 16 18 C16 18.66 16 19.32 16 20 C13.6875 20.3125 13.6875 20.3125 11 20 C9.18116991 17.6167054 8 16.04181663 8 13 C6.68 13 5.36 13 4 13 C4 15.31 4 17.62 4 20 C2.68 20 1.36 20 0 20 C0 13.4 0 6.8 0 0 Z " fill="#E6E1E0" transform="translate(92,53)"/>
<path d="M0 0 C1.65 0 3.3 0 5 0 C5 12.54 5 25.08 5 38 C3.35 38 1.7 38 0 38 C0 25.46 0 12.92 0 0 Z " fill="#E7E7E8" transform="translate(96,95)"/>
<path d="M0 0 C4.29 0 8.58 0 13 0 C13 0.99 13 1.98 13 3 C9.7 3 6.4 3 3 3 C3 4.65 3 6.3 3 8 C5.97 8 8.94 8 12 8 C12 8.99 12 9.98 12 11 C9.36 11 6.72 11 4 11 C4 12.65 4 14.3 4 16 C7.3 16 10.6 16 14 16 C14 17.32 14 18.64 14 20 C9.38 20 4.76 20 0 20 C0 13.4 0 6.8 0 0 Z " fill="#E7EFF2" transform="translate(111,53)"/>
<path d="M0 0 C4.29 0 8.58 0 13 0 C13 0.99 13 1.98 13 3 C9.7 3 6.4 3 3 3 C3 4.98 3 6.96 3 9 C5.64 9 8.28 9 11 9 C11 9.66 11 10.32 11 11 C8.36 11 5.72 11 3 11 C3 13.97 3 16.94 3 20 C2.01 20 1.02 20 0 20 C0 13.4 0 6.8 0 0 Z " fill="#FFFDFD" transform="translate(68,53)"/>
<path d="M0 0 C2.97 0 5.94 0 9 0 C9.33 0.99 9.66 1.98 10 3 C8.02 3 6.04 3 4 3 C4 8.61 4 14.22 4 20 C2.68 20 1.36 20 0 20 C0 13.4 0 6.8 0 0 Z " fill="#FAF4F2" transform="translate(92,53)"/>
<path d="M0 0 C1.32 0 2.64 0 4 0 C4 6.6 4 13.2 4 20 C2.68 20 1.36 20 0 20 C0 13.4 0 6.8 0 0 Z " fill="#FFECE6" transform="translate(84,53)"/>
<path d="M0 0 C0.66 0 1.32 0 2 0 C2 6.6 2 13.2 2 20 C1.67 20 1.34 20 1 20 C0.67 16.04 0.34 12.08 0 8 C-2.97 8 -5.94 8 -9 8 C-9 6.68 -9 5.36 -9 4 C-6.03 4 -3.06 4 0 4 C0 2.68 0 1.36 0 0 Z " fill="#FF4711" transform="translate(81,53)"/>
<path d="M0 0 C0.33 0 0.66 0 1 0 C1 1.65 1 3.3 1 5 C4.3 5 7.6 5 11 5 C11 5.99 11 6.98 11 8 C8.36 8 5.72 8 3 8 C3 9.65 3 11.3 3 13 C6.3 13 9.6 13 13 13 C12.67 14.32 12.34 15.64 12 17 C12 16.01 12 15.02 12 14 C8.7 14 5.4 14 2 14 C2 12.02 2 10.04 2 8 C1.34 8 0.68 8 0 8 C0 5.36 0 2.72 0 0 Z " fill="#E4C9C2" transform="translate(112,56)"/>
<path d="M0 0 C0.66 0 1.32 0 2 0 C2 1.98 2 3.96 2 6 C5.3 6 8.6 6 12 6 C12 6.99 12 7.98 12 9 C7.71 9 3.42 9 -1 9 C-0.67 6.03 -0.34 3.06 0 0 Z " fill="#E7E5E5" transform="translate(112,64)"/>
<path d="M0 0 C1.98 0 3.96 0 6 0 C6.625 2.375 6.625 2.375 7 5 C5 7 5 7 2.375 7.125 C1.59125 7.08375 0.8075 7.0425 0 7 C0 4.69 0 2.38 0 0 Z " fill="#DB4019" transform="translate(96,56)"/>
<path d="M0 0 C4.67692308 1.47692308 4.67692308 1.47692308 6.3125 4.125 C6.539375 4.74375 6.76625 5.3625 7 6 C5.35 6 3.7 6 2 6 C1.34 4.02 0.68 2.04 0 0 Z " fill="#E6D9D6" transform="translate(101,67)"/>
</svg>
