<?xml version="1.0" encoding="UTF-8"?>
<!DOCTYPE svg PUBLIC "-//W3C//DTD SVG 1.1//EN" "http://www.w3.org/Graphics/SVG/1.1/DTD/svg11.dtd">
<svg xmlns="http://www.w3.org/2000/svg" version="1.1" width="192px" height="193px" style="shape-rendering:geometricPrecision; text-rendering:geometricPrecision; image-rendering:optimizeQuality; fill-rule:evenodd; clip-rule:evenodd" xmlns:xlink="http://www.w3.org/1999/xlink">
<g><path style="opacity:1" fill="#2300b3" d="M 81.5,-0.5 C 90.8333,-0.5 100.167,-0.5 109.5,-0.5C 154.5,9.16667 181.833,36.5 191.5,81.5C 191.5,84.5 191.5,87.5 191.5,90.5C 177.919,78.4223 164.753,65.7556 152,52.5C 151.536,51.9056 151.369,51.2389 151.5,50.5C 144.49,45.6669 138.156,39.8335 132.5,33C 127.23,33.8114 121.897,34.6447 116.5,35.5C 109.389,34.6297 102.723,32.463 96.5,29C 94.9343,28.235 93.6009,28.4017 92.5,29.5C 81.5374,36.2648 70.0374,37.2648 58,32.5C 57.1667,32.8333 56.3333,33.1667 55.5,33.5C 54.3605,36.9473 52.3605,39.7806 49.5,42C 45.6963,44.3045 42.0296,46.8045 38.5,49.5C 43.8354,58.8274 46.8354,68.8274 47.5,79.5C 47.3333,82.1667 47.1667,84.8333 47,87.5C 44.8646,94.9057 42.5313,102.239 40,109.5C 38.8376,119.022 40.5043,128.022 45,136.5C 47.3789,140.38 50.5456,143.38 54.5,145.5C 54.3505,146.552 54.5172,147.552 55,148.5C 67.7785,162.768 79.9452,177.434 91.5,192.5C 91.1667,192.5 90.8333,192.5 90.5,192.5C 40.7685,186.102 10.4352,158.435 -0.5,109.5C -0.5,100.167 -0.5,90.8333 -0.5,81.5C 9.16667,36.5 36.5,9.16667 81.5,-0.5 Z"/></g>
<g><path style="opacity:1" fill="#fcca05" d="M 92.5,29.5 C 93.496,43.9905 93.8293,58.6572 93.5,73.5C 89.5,73.5 85.5,73.5 81.5,73.5C 82.0889,79.325 82.7556,85.1583 83.5,91C 82.7024,96.5195 82.2024,102.019 82,107.5C 86.0659,108.464 90.2325,108.797 94.5,108.5C 94.18,127.576 94.5133,146.576 95.5,165.5C 86.9615,158.902 77.2949,154.402 66.5,152C 62.0805,150.482 58.0805,148.315 54.5,145.5C 50.5456,143.38 47.3789,140.38 45,136.5C 40.5043,128.022 38.8376,119.022 40,109.5C 42.5313,102.239 44.8646,94.9057 47,87.5C 47.1667,84.8333 47.3333,82.1667 47.5,79.5C 46.8354,68.8274 43.8354,58.8274 38.5,49.5C 42.0296,46.8045 45.6963,44.3045 49.5,42C 52.3605,39.7806 54.3605,36.9473 55.5,33.5C 56.3333,33.1667 57.1667,32.8333 58,32.5C 70.0374,37.2648 81.5374,36.2648 92.5,29.5 Z"/></g>
<g><path style="opacity:1" fill="#b2900c" d="M 92.5,29.5 C 93.6009,28.4017 94.9343,28.235 96.5,29C 102.723,32.463 109.389,34.6297 116.5,35.5C 121.897,34.6447 127.23,33.8114 132.5,33C 138.156,39.8335 144.49,45.6669 151.5,50.5C 145.811,59.4082 142.811,69.2415 142.5,80C 144.853,92.2283 147.52,104.395 150.5,116.5C 149.751,128.632 144.751,138.465 135.5,146C 126.404,150.255 117.071,153.921 107.5,157C 102.944,159.106 98.9438,161.939 95.5,165.5C 94.5133,146.576 94.18,127.576 94.5,108.5C 95.1582,107.207 95.4915,105.707 95.5,104C 94.6949,100.834 94.0282,97.6669 93.5,94.5C 94.675,94.281 95.675,94.6143 96.5,95.5C 98.4072,99.7272 100.407,103.894 102.5,108C 105.482,108.498 108.482,108.665 111.5,108.5C 111.817,105.428 111.484,102.428 110.5,99.5C 108.914,97.3295 107.58,94.9962 106.5,92.5C 112.935,79.0623 108.601,72.729 93.5,73.5C 93.8293,58.6572 93.496,43.9905 92.5,29.5 Z"/></g>
<g><path style="opacity:0.989" fill="#15057e" d="M 151.5,50.5 C 151.369,51.2389 151.536,51.9056 152,52.5C 164.753,65.7556 177.919,78.4223 191.5,90.5C 191.5,97.8333 191.5,105.167 191.5,112.5C 184.274,147.908 163.94,172.741 130.5,187C 124.089,189.015 117.756,190.848 111.5,192.5C 104.833,192.5 98.1667,192.5 91.5,192.5C 79.9452,177.434 67.7785,162.768 55,148.5C 54.5172,147.552 54.3505,146.552 54.5,145.5C 58.0805,148.315 62.0805,150.482 66.5,152C 77.2949,154.402 86.9615,158.902 95.5,165.5C 98.9438,161.939 102.944,159.106 107.5,157C 117.071,153.921 126.404,150.255 135.5,146C 144.751,138.465 149.751,128.632 150.5,116.5C 147.52,104.395 144.853,92.2283 142.5,80C 142.811,69.2415 145.811,59.4082 151.5,50.5 Z"/></g>
<g><path style="opacity:1" fill="#51317d" d="M 112.5,74.5 C 120.984,73.507 129.651,73.1736 138.5,73.5C 138.817,77.7016 138.483,81.7016 137.5,85.5C 137.5,81.8333 137.5,78.1667 137.5,74.5C 129.167,74.5 120.833,74.5 112.5,74.5 Z"/></g>
<g><path style="opacity:1" fill="#2e0ab4" d="M 52.5,73.5 C 59.175,73.3337 65.8417,73.5004 72.5,74C 78.3798,75.0469 81.0464,78.5469 80.5,84.5C 81.0373,89.9279 78.7039,93.4279 73.5,95C 70.854,95.4974 68.1873,95.6641 65.5,95.5C 66.8755,99.6975 67.5421,104.031 67.5,108.5C 62.5,108.5 57.5,108.5 52.5,108.5C 53.0889,102.675 53.7556,96.8417 54.5,91C 53.7556,85.1583 53.0889,79.325 52.5,73.5 Z"/></g>
<g><path style="opacity:1" fill="#2a07b5" d="M 93.5,73.5 C 108.601,72.729 112.935,79.0623 106.5,92.5C 107.58,94.9962 108.914,97.3295 110.5,99.5C 111.484,102.428 111.817,105.428 111.5,108.5C 108.482,108.665 105.482,108.498 102.5,108C 100.407,103.894 98.4072,99.7272 96.5,95.5C 95.675,94.6143 94.675,94.281 93.5,94.5C 94.0282,97.6669 94.6949,100.834 95.5,104C 95.4915,105.707 95.1582,107.207 94.5,108.5C 90.2325,108.797 86.0659,108.464 82,107.5C 82.2024,102.019 82.7024,96.5195 83.5,91C 82.7556,85.1583 82.0889,79.325 81.5,73.5C 85.5,73.5 89.5,73.5 93.5,73.5 Z"/></g>
<g><path style="opacity:1" fill="#2404b7" d="M 112.5,74.5 C 120.833,74.5 129.167,74.5 137.5,74.5C 137.5,78.1667 137.5,81.8333 137.5,85.5C 135.167,85.5 132.833,85.5 130.5,85.5C 130.5,84.5 130.5,83.5 130.5,82.5C 129.167,82.5 127.833,82.5 126.5,82.5C 126.5,83.8333 126.5,85.1667 126.5,86.5C 127.5,86.5 128.5,86.5 129.5,86.5C 129.5,89.1667 129.5,91.8333 129.5,94.5C 128.167,94.5 126.833,94.5 125.5,94.5C 125.5,96.1667 125.5,97.8333 125.5,99.5C 126.5,99.5 127.5,99.5 128.5,99.5C 128.5,102.5 128.5,105.5 128.5,108.5C 123.167,108.5 117.833,108.5 112.5,108.5C 111.918,104.685 112.752,101.351 115,98.5C 115.499,93.1771 115.666,87.8437 115.5,82.5C 114.5,82.5 113.5,82.5 112.5,82.5C 112.5,79.8333 112.5,77.1667 112.5,74.5 Z"/></g>
<g><path style="opacity:1" fill="#f6c513" d="M 65.5,82.5 C 66.8333,82.5 68.1667,82.5 69.5,82.5C 69.5,83.8333 69.5,85.1667 69.5,86.5C 68.1667,86.5 66.8333,86.5 65.5,86.5C 65.5,85.1667 65.5,83.8333 65.5,82.5 Z"/></g>
<g><path style="opacity:1" fill="#ab8a13" d="M 94.5,82.5 C 97.5,82.1667 98.8333,83.5 98.5,86.5C 97.1667,86.5 95.8333,86.5 94.5,86.5C 94.5,85.1667 94.5,83.8333 94.5,82.5 Z"/></g>
<g><path style="opacity:0.25" fill="#fecd00" d="M 165.5,168.5 C 167.337,168.639 167.67,169.306 166.5,170.5C 165.702,170.043 165.369,169.376 165.5,168.5 Z"/></g>
</svg>
