<?xml version="1.0" encoding="UTF-8"?>
<!DOCTYPE svg PUBLIC "-//W3C//DTD SVG 1.1//EN" "http://www.w3.org/Graphics/SVG/1.1/DTD/svg11.dtd">
<svg xmlns="http://www.w3.org/2000/svg" version="1.1" width="192px" height="192px" style="shape-rendering:geometricPrecision; text-rendering:geometricPrecision; image-rendering:optimizeQuality; fill-rule:evenodd; clip-rule:evenodd" xmlns:xlink="http://www.w3.org/1999/xlink">
<g><path style="opacity:0.985" fill="#fdac02" d="M 83.5,-0.5 C 91.1667,-0.5 98.8333,-0.5 106.5,-0.5C 154.5,8.16667 182.833,36.5 191.5,84.5C 191.5,89.8333 191.5,95.1667 191.5,100.5C 180.425,90.0916 169.758,79.4249 159.5,68.5C 154.698,60.0916 147.365,55.7583 137.5,55.5C 121.009,57.4585 113.842,66.4585 116,82.5C 123.516,95.2465 134.35,99.2465 148.5,94.5C 150.153,94.6596 151.486,95.3263 152.5,96.5C 149.737,96.7438 147.571,98.0771 146,100.5C 145.667,105.5 145.333,110.5 145,115.5C 140.047,109.759 135.214,103.926 130.5,98C 127.594,96.6815 124.594,96.3482 121.5,97C 119.249,97.7475 117.916,99.2475 117.5,101.5C 116.67,111.325 116.17,121.325 116,131.5C 114.053,129.937 112.886,127.937 112.5,125.5C 116.389,106.21 108.389,96.7102 88.5,97C 77.2992,99.3623 71.2992,106.196 70.5,117.5C 69.5326,118.806 68.1993,119.473 66.5,119.5C 64.1432,119.337 61.8098,119.503 59.5,120C 53.6748,123.447 49.3414,121.947 46.5,115.5C 48.2337,110.818 51.567,109.318 56.5,111C 60.8172,115.718 64.9839,115.551 69,110.5C 69.0459,105.177 66.5459,101.344 61.5,99C 46.4117,93.4607 36.245,98.294 31,113.5C 31.0913,125.007 36.5913,132.674 47.5,136.5C 71.5,153.833 95.5,171.167 119.5,188.5C 116.22,189.712 112.887,190.712 109.5,191.5C 100.167,191.5 90.8333,191.5 81.5,191.5C 46.2178,184.925 21.0512,165.258 6,132.5C 3.07375,124.908 0.907084,117.241 -0.5,109.5C -0.5,100.167 -0.5,90.8333 -0.5,81.5C 9.39251,35.6074 37.3925,8.27406 83.5,-0.5 Z"/></g>
<g><path style="opacity:1" fill="#4f5ca0" d="M 70.5,64.5 C 70.5,67.1667 70.5,69.8333 70.5,72.5C 69.3078,77.1201 66.3078,79.9534 61.5,81C 56.5111,81.4993 51.5111,81.6659 46.5,81.5C 46.6653,85.1817 46.4986,88.8484 46,92.5C 40.6471,97.9655 35.6471,97.6321 31,91.5C 30.3333,81.1667 30.3333,70.8333 31,60.5C 32.2273,58.2739 34.0607,56.7739 36.5,56C 44.1667,55.3333 51.8333,55.3333 59.5,56C 64.7577,56.9425 68.4244,59.7758 70.5,64.5 Z"/></g>
<g><path style="opacity:1" fill="#f8f8fb" d="M 58.5,78.5 C 53.5,78.5 48.5,78.5 43.5,78.5C 43.5,82.8333 43.5,87.1667 43.5,91.5C 40.447,94.1401 37.2803,94.1401 34,91.5C 33.1809,80.9231 33.3476,70.4231 34.5,60C 38.8878,58.8932 43.3878,58.3932 48,58.5C 55.7996,57.105 62.4662,59.105 68,64.5C 70.0386,72.7664 66.8719,77.4331 58.5,78.5 Z"/></g>
<g><path style="opacity:1" fill="#5362aa" d="M 45.5,65.5 C 49.1817,65.3347 52.8484,65.5014 56.5,66C 57.9817,68.5918 57.6483,70.9251 55.5,73C 52.5,73.6667 49.5,73.6667 46.5,73C 44.2854,70.7585 43.9521,68.2585 45.5,65.5 Z"/></g>
<g><path style="opacity:1" fill="#ebedf5" d="M 46.5,67.5 C 49.5,67.5 52.5,67.5 55.5,67.5C 55.7634,70.7343 54.2634,72.0676 51,71.5C 47.7366,72.0676 46.2366,70.7343 46.5,67.5 Z"/></g>
<g><path style="opacity:1" fill="#535fa1" d="M 72.5,91.5 C 72.5,81.1667 72.5,70.8333 72.5,60.5C 73.6728,58.4959 75.3395,56.9959 77.5,56C 87.6529,54.8754 97.6529,55.5421 107.5,58C 113.177,61.6363 115.01,66.803 113,73.5C 112.028,75.3049 110.861,76.9716 109.5,78.5C 110.815,80.3159 112.315,81.9825 114,83.5C 117.184,93.3188 113.684,97.1521 103.5,95C 99.7046,91.0397 95.7046,87.2064 91.5,83.5C 90.914,83.7093 90.414,84.0426 90,84.5C 89.8907,92.9483 85.724,96.7816 77.5,96C 75.3395,95.0041 73.6728,93.5041 72.5,91.5 Z"/></g>
<g><path style="opacity:1" fill="#f7f7fa" d="M 77.5,58.5 C 85.5069,58.3336 93.5069,58.5003 101.5,59C 109.577,60.6453 112.411,65.4786 110,73.5C 108.5,75 107,76.5 105.5,78C 107.293,80.7953 109.46,83.2953 112,85.5C 113.234,92.931 110.4,95.0976 103.5,92C 100.536,88.0342 97.2026,84.3675 93.5,81C 91.5594,80.2571 89.7261,80.4238 88,81.5C 87.273,85.6889 85.773,89.5222 83.5,93C 80.6967,93.755 78.0301,93.4217 75.5,92C 74.348,81.9105 74.1814,71.7438 75,61.5C 76.045,60.6266 76.8783,59.6266 77.5,58.5 Z"/></g>
<g><path style="opacity:1" fill="#515fa9" d="M 86.5,65.5 C 89.8499,65.335 93.1832,65.5017 96.5,66C 99.1667,68.3333 99.1667,70.6667 96.5,73C 93.5,73.6667 90.5,73.6667 87.5,73C 85.2854,70.7585 84.9521,68.2585 86.5,65.5 Z"/></g>
<g><path style="opacity:1" fill="#eaebf5" d="M 87.5,67.5 C 90.1873,67.3359 92.854,67.5026 95.5,68C 96.8333,69 96.8333,70 95.5,71C 92.854,71.4974 90.1873,71.6641 87.5,71.5C 87.5,70.1667 87.5,68.8333 87.5,67.5 Z"/></g>
<g><path style="opacity:1" fill="#b37b0a" d="M 159.5,68.5 C 169.758,79.4249 180.425,90.0916 191.5,100.5C 191.5,103.5 191.5,106.5 191.5,109.5C 185.668,140.844 169.001,164.677 141.5,181C 134.504,184.609 127.171,187.109 119.5,188.5C 95.5,171.167 71.5,153.833 47.5,136.5C 53.6564,136.711 59.323,135.211 64.5,132C 69.9686,128.352 70.6352,124.185 66.5,119.5C 68.1993,119.473 69.5326,118.806 70.5,117.5C 73.9851,133.127 83.6518,139.293 99.5,136C 104.915,133.743 109.249,130.243 112.5,125.5C 112.886,127.937 114.053,129.937 116,131.5C 116.17,121.325 116.67,111.325 117.5,101.5C 117.333,112.172 117.5,122.839 118,133.5C 122.391,138.269 127.057,138.603 132,134.5C 132.333,131.833 132.667,129.167 133,126.5C 135.888,130.721 139.388,134.221 143.5,137C 148.658,137.91 153.658,137.41 158.5,135.5C 159.333,134.5 160.167,133.5 161,132.5C 161.667,122.167 161.667,111.833 161,101.5C 159.009,98.4204 156.175,96.7537 152.5,96.5C 151.486,95.3263 150.153,94.6596 148.5,94.5C 159.193,88.7421 162.86,80.0754 159.5,68.5 Z"/></g>
<g><path style="opacity:1" fill="#545fa0" d="M 159.5,68.5 C 162.86,80.0754 159.193,88.7421 148.5,94.5C 134.35,99.2465 123.516,95.2465 116,82.5C 113.842,66.4585 121.009,57.4585 137.5,55.5C 147.365,55.7583 154.698,60.0916 159.5,68.5 Z"/></g>
<g><path style="opacity:1" fill="#f9fafc" d="M 132.5,58.5 C 144.085,57.0671 152.585,61.4005 158,71.5C 159.105,83.0767 153.938,90.2434 142.5,93C 130.738,94.8714 122.571,90.3714 118,79.5C 116.767,72.127 119.267,66.2937 125.5,62C 127.925,60.7874 130.259,59.6207 132.5,58.5 Z"/></g>
<g><path style="opacity:1" fill="#4d5da8" d="M 135.5,67.5 C 138.695,66.9607 141.195,67.9607 143,70.5C 143.996,75.2288 143.496,79.7288 141.5,84C 138.653,84.9439 136.153,84.4439 134,82.5C 132.955,77.2145 133.455,72.2145 135.5,67.5 Z"/></g>
<g><path style="opacity:1" fill="#f0f1f7" d="M 136.5,70.5 C 137.833,70.5 139.167,70.5 140.5,70.5C 140.5,74.1667 140.5,77.8333 140.5,81.5C 138.856,81.7135 137.356,81.3802 136,80.5C 135.253,77.0764 135.42,73.7431 136.5,70.5 Z"/></g>
<g><path style="opacity:1" fill="#c69334" d="M 72.5,60.5 C 72.5,70.8333 72.5,81.1667 72.5,91.5C 71.8333,85.1667 71.1667,78.8333 70.5,72.5C 70.5,69.8333 70.5,67.1667 70.5,64.5C 71.1667,63.1667 71.8333,61.8333 72.5,60.5 Z"/></g>
<g><path style="opacity:1" fill="#a6add3" d="M 58.5,78.5 C 54.03,79.4861 49.3633,79.8195 44.5,79.5C 44.8168,83.7016 44.4834,87.7016 43.5,91.5C 43.5,87.1667 43.5,82.8333 43.5,78.5C 48.5,78.5 53.5,78.5 58.5,78.5 Z"/></g>
<g><path style="opacity:1" fill="#4e5da3" d="M 66.5,119.5 C 70.6352,124.185 69.9686,128.352 64.5,132C 59.323,135.211 53.6564,136.711 47.5,136.5C 36.5913,132.674 31.0913,125.007 31,113.5C 36.245,98.294 46.4117,93.4607 61.5,99C 66.5459,101.344 69.0459,105.177 69,110.5C 64.9839,115.551 60.8172,115.718 56.5,111C 51.567,109.318 48.2337,110.818 46.5,115.5C 49.3414,121.947 53.6748,123.447 59.5,120C 61.8098,119.503 64.1432,119.337 66.5,119.5 Z"/></g>
<g><path style="opacity:1" fill="#4c5ca4" d="M 112.5,125.5 C 109.249,130.243 104.915,133.743 99.5,136C 83.6518,139.293 73.9851,133.127 70.5,117.5C 71.2992,106.196 77.2992,99.3623 88.5,97C 108.389,96.7102 116.389,106.21 112.5,125.5 Z"/></g>
<g><path style="opacity:1" fill="#4b5ca5" d="M 152.5,96.5 C 156.175,96.7537 159.009,98.4204 161,101.5C 161.667,111.833 161.667,122.167 161,132.5C 160.167,133.5 159.333,134.5 158.5,135.5C 153.658,137.41 148.658,137.91 143.5,137C 139.388,134.221 135.888,130.721 133,126.5C 132.667,129.167 132.333,131.833 132,134.5C 127.057,138.603 122.391,138.269 118,133.5C 117.5,122.839 117.333,112.172 117.5,101.5C 117.916,99.2475 119.249,97.7475 121.5,97C 124.594,96.3482 127.594,96.6815 130.5,98C 135.214,103.926 140.047,109.759 145,115.5C 145.333,110.5 145.667,105.5 146,100.5C 147.571,98.0771 149.737,96.7438 152.5,96.5 Z"/></g>
<g><path style="opacity:1" fill="#eea417" d="M 89.5,107.5 C 92.6852,107.02 95.5185,107.686 98,109.5C 98.6667,114.167 98.6667,118.833 98,123.5C 94.9965,127 91.6631,127.333 88,124.5C 87.3333,119.5 87.3333,114.5 88,109.5C 88.7172,108.956 89.2172,108.289 89.5,107.5 Z"/></g>
</svg>
