<?xml version="1.0" encoding="UTF-8"?>
<!DOCTYPE svg PUBLIC "-//W3C//DTD SVG 1.1//EN" "http://www.w3.org/Graphics/SVG/1.1/DTD/svg11.dtd">
<svg xmlns="http://www.w3.org/2000/svg" version="1.1" width="192px" height="192px" style="shape-rendering:geometricPrecision; text-rendering:geometricPrecision; image-rendering:optimizeQuality; fill-rule:evenodd; clip-rule:evenodd" xmlns:xlink="http://www.w3.org/1999/xlink">
<g><path style="opacity:0.986" fill="#203977" d="M 83.5,-0.5 C 91.1667,-0.5 98.8333,-0.5 106.5,-0.5C 154.5,8.16667 182.833,36.5 191.5,84.5C 191.5,92.1667 191.5,99.8333 191.5,107.5C 190.833,109.5 190.167,111.5 189.5,113.5C 190.218,104.518 190.552,95.5182 190.5,86.5C 183.539,84.9577 176.872,82.6244 170.5,79.5C 161.85,75.1751 153.184,70.8418 144.5,66.5C 138.893,68.6368 133.56,71.3035 128.5,74.5C 128.821,69.0428 128.821,63.5428 128.5,58C 118.566,54.1332 108.566,50.4666 98.5,47C 95.1834,46.2191 92.1834,46.7191 89.5,48.5C 85.6873,49.1596 82.0207,50.3262 78.5,52C 82.8919,54.5198 87.5586,56.3531 92.5,57.5C 92.1583,58.3382 91.4916,58.6716 90.5,58.5C 80.8523,57.5082 71.1857,57.3415 61.5,58C 47.5125,64.9922 33.8458,72.4922 20.5,80.5C 25.4202,84.5408 30.5869,88.2075 36,91.5C 45.2702,86.1638 54.4369,80.9972 63.5,76C 58.8731,84.0863 54.3731,92.253 50,100.5C 49.3333,101.5 49.3333,102.5 50,103.5C 64.07,117.408 78.57,130.741 93.5,143.5C 93.5,144.167 93.8333,144.5 94.5,144.5C 94.5,144.833 94.5,145.167 94.5,145.5C 106.631,158.132 118.965,170.632 131.5,183C 135.521,181.834 139.521,180.334 143.5,178.5C 139.341,181.749 134.674,184.249 129.5,186C 122.792,188.174 116.125,190.007 109.5,191.5C 100.167,191.5 90.8333,191.5 81.5,191.5C 46.2178,184.925 21.0512,165.258 6,132.5C 3.07375,124.908 0.907084,117.241 -0.5,109.5C -0.5,100.167 -0.5,90.8333 -0.5,81.5C 9.39251,35.6074 37.3925,8.27406 83.5,-0.5 Z"/></g>
<g><path style="opacity:1" fill="#f5f6f8" d="M 92.5,57.5 C 87.5586,56.3531 82.8919,54.5198 78.5,52C 82.0207,50.3262 85.6873,49.1596 89.5,48.5C 91.1439,48.7135 92.6439,48.3802 94,47.5C 94.1667,49.1667 94.3333,50.8333 94.5,52.5C 94.4439,54.6397 93.7773,56.3064 92.5,57.5 Z"/></g>
<g><path style="opacity:1" fill="#fbfbfc" d="M 90.5,58.5 C 91.1667,59.1667 91.8333,59.8333 92.5,60.5C 83.2403,64.7973 74.2403,69.6307 65.5,75C 75.0694,82.0851 84.736,88.9184 94.5,95.5C 94.8297,111.675 94.4964,127.675 93.5,143.5C 78.57,130.741 64.07,117.408 50,103.5C 49.3333,102.5 49.3333,101.5 50,100.5C 54.3731,92.253 58.8731,84.0863 63.5,76C 54.4369,80.9972 45.2702,86.1638 36,91.5C 30.5869,88.2075 25.4202,84.5408 20.5,80.5C 33.8458,72.4922 47.5125,64.9922 61.5,58C 71.1857,57.3415 80.8523,57.5082 90.5,58.5 Z"/></g>
<g><path style="opacity:1" fill="#2a407b" d="M 95.5,95.5 C 95.1667,95.5 94.8333,95.5 94.5,95.5C 84.736,88.9184 75.0694,82.0851 65.5,75C 74.2403,69.6307 83.2403,64.7973 92.5,60.5C 94.0683,59.5269 95.735,59.3603 97.5,60C 107.606,64.2193 117.273,69.2193 126.5,75C 116.138,81.8436 105.805,88.677 95.5,95.5 Z"/></g>
<g><path style="opacity:1" fill="#f9f9fa" d="M 89.5,65.5 C 91.5,65.5 93.5,65.5 95.5,65.5C 95.5,72.1667 95.5,78.8333 95.5,85.5C 88.4701,86.0656 82.6368,83.7323 78,78.5C 77.2713,70.3837 81.1046,66.0504 89.5,65.5 Z"/></g>
<g><path style="opacity:1" fill="#b8b7be" d="M 89.5,65.5 C 98.3885,63.0141 106.222,65.0141 113,71.5C 113.893,74.9162 113.393,78.0828 111.5,81C 106.673,84.2192 101.339,85.7192 95.5,85.5C 95.5,78.8333 95.5,72.1667 95.5,65.5C 93.5,65.5 91.5,65.5 89.5,65.5 Z"/></g>
<g><path style="opacity:1" fill="#b9b8be" d="M 170.5,79.5 C 160.733,87.7492 150.733,95.9158 140.5,104C 126.054,102.135 111.721,99.802 97.5,97C 106.668,104.007 115.668,111.174 124.5,118.5C 116.681,125.819 109.014,133.319 101.5,141C 99.2657,142.75 96.9324,144.25 94.5,145.5C 94.5,145.167 94.5,144.833 94.5,144.5C 95.4964,128.342 95.8298,112.009 95.5,95.5C 105.805,88.677 116.138,81.8436 126.5,75C 117.273,69.2193 107.606,64.2193 97.5,60C 95.735,59.3603 94.0683,59.5269 92.5,60.5C 91.8333,59.8333 91.1667,59.1667 90.5,58.5C 91.4916,58.6716 92.1583,58.3382 92.5,57.5C 93.7773,56.3064 94.4439,54.6397 94.5,52.5C 94.3333,50.8333 94.1667,49.1667 94,47.5C 92.6439,48.3802 91.1439,48.7135 89.5,48.5C 92.1834,46.7191 95.1834,46.2191 98.5,47C 108.566,50.4666 118.566,54.1332 128.5,58C 128.821,63.5428 128.821,69.0428 128.5,74.5C 133.56,71.3035 138.893,68.6368 144.5,66.5C 153.184,70.8418 161.85,75.1751 170.5,79.5 Z"/></g>
<g><path style="opacity:1" fill="#101b36" d="M 170.5,79.5 C 176.872,82.6244 183.539,84.9577 190.5,86.5C 190.552,95.5182 190.218,104.518 189.5,113.5C 189.58,116.781 188.913,119.781 187.5,122.5C 185.399,125.797 184.065,129.463 183.5,133.5C 182.868,137.431 181.201,140.765 178.5,143.5C 175.759,145.975 173.759,148.975 172.5,152.5C 171.92,154.749 170.587,156.415 168.5,157.5C 162.106,163.899 155.439,169.899 148.5,175.5C 147.341,177.25 145.674,178.25 143.5,178.5C 139.521,180.334 135.521,181.834 131.5,183C 118.965,170.632 106.631,158.132 94.5,145.5C 96.9324,144.25 99.2657,142.75 101.5,141C 109.014,133.319 116.681,125.819 124.5,118.5C 115.668,111.174 106.668,104.007 97.5,97C 111.721,99.802 126.054,102.135 140.5,104C 150.733,95.9158 160.733,87.7492 170.5,79.5 Z"/></g>
<g><path style="opacity:1" fill="#e1e0e3" d="M 94.5,95.5 C 94.8333,95.5 95.1667,95.5 95.5,95.5C 95.8298,112.009 95.4964,128.342 94.5,144.5C 93.8333,144.5 93.5,144.167 93.5,143.5C 94.4964,127.675 94.8297,111.675 94.5,95.5 Z"/></g>
<g><path style="opacity:0.902" fill="#1d336b" d="M 187.5,122.5 C 186.935,126.537 185.601,130.203 183.5,133.5C 184.065,129.463 185.399,125.797 187.5,122.5 Z"/></g>
<g><path style="opacity:0.314" fill="#1e3671" d="M 178.5,143.5 C 177.277,147.049 175.277,150.049 172.5,152.5C 173.759,148.975 175.759,145.975 178.5,143.5 Z"/></g>
<g><path style="opacity:0.188" fill="#1e3670" d="M 168.5,157.5 C 163.402,165.265 156.736,171.265 148.5,175.5C 155.439,169.899 162.106,163.899 168.5,157.5 Z"/></g>
</svg>
