<?xml version="1.0" encoding="UTF-8"?>
<!DOCTYPE svg PUBLIC "-//W3C//DTD SVG 1.1//EN" "http://www.w3.org/Graphics/SVG/1.1/DTD/svg11.dtd">
<svg xmlns="http://www.w3.org/2000/svg" version="1.1" width="192px" height="192px" style="shape-rendering:geometricPrecision; text-rendering:geometricPrecision; image-rendering:optimizeQuality; fill-rule:evenodd; clip-rule:evenodd" xmlns:xlink="http://www.w3.org/1999/xlink">
<g><path style="opacity:0.983" fill="#05f6fc" d="M 83.5,-0.5 C 91.5,-0.5 99.5,-0.5 107.5,-0.5C 152.771,7.76918 180.438,34.4359 190.5,79.5C 178.368,67.8687 166.368,56.0353 154.5,44C 153.906,43.5357 153.239,43.369 152.5,43.5C 151.974,41.7697 150.974,40.4363 149.5,39.5C 147.598,38.4891 145.598,38.3224 143.5,39C 122.299,60.3683 100.965,81.535 79.5,102.5C 79.1667,102.5 78.8333,102.5 78.5,102.5C 74.1869,98.5219 69.8535,94.5219 65.5,90.5C 55.0716,99.4247 45.905,109.425 38,120.5C 35.7991,130.422 36.6324,140.088 40.5,149.5C 40.5,149.833 40.5,150.167 40.5,150.5C 53.5,163.833 66.5,177.167 79.5,190.5C 34.4359,180.438 7.76918,152.771 -0.5,107.5C -0.5,99.5 -0.5,91.5 -0.5,83.5C 8.5,36.5 36.5,8.5 83.5,-0.5 Z"/></g>
<g><path style="opacity:1" fill="#e4031d" d="M 149.5,39.5 C 149.649,40.552 149.483,41.552 149,42.5C 127.603,64.3985 105.77,85.7318 83.5,106.5C 81.8333,105.5 80.5,104.167 79.5,102.5C 100.965,81.535 122.299,60.3683 143.5,39C 145.598,38.3224 147.598,38.4891 149.5,39.5 Z"/></g>
<g><path style="opacity:1" fill="#b01714" d="M 149.5,39.5 C 150.974,40.4363 151.974,41.7697 152.5,43.5C 152.657,44.8734 152.49,46.2068 152,47.5C 130.632,68.7014 109.465,90.0347 88.5,111.5C 86.8333,110.167 85.1667,108.833 83.5,107.5C 83.5,107.167 83.5,106.833 83.5,106.5C 105.77,85.7318 127.603,64.3985 149,42.5C 149.483,41.552 149.649,40.552 149.5,39.5 Z"/></g>
<g><path style="opacity:1" fill="#04d7de" d="M 152.5,43.5 C 153.239,43.369 153.906,43.5357 154.5,44C 166.368,56.0353 178.368,67.8687 190.5,79.5C 190.263,80.791 190.596,81.791 191.5,82.5C 191.5,91.1667 191.5,99.8333 191.5,108.5C 182.171,154.496 154.504,182.163 108.5,191.5C 99.8333,191.5 91.1667,191.5 82.5,191.5C 81.791,190.596 80.791,190.263 79.5,190.5C 66.5,177.167 53.5,163.833 40.5,150.5C 50.2877,154.295 60.2877,155.128 70.5,153C 81.7691,145.066 91.7691,135.732 100.5,125C 96.9822,120.317 92.9822,116.15 88.5,112.5C 88.5,112.167 88.5,111.833 88.5,111.5C 109.465,90.0347 130.632,68.7014 152,47.5C 152.49,46.2068 152.657,44.8734 152.5,43.5 Z"/></g>
<g><path style="opacity:1" fill="#fdfefe" d="M 78.5,102.5 C 73.931,108.576 68.7644,114.242 63,119.5C 62.8724,122.514 62.8724,125.514 63,128.5C 55.9112,136.094 48.4112,143.094 40.5,149.5C 36.6324,140.088 35.7991,130.422 38,120.5C 45.905,109.425 55.0716,99.4247 65.5,90.5C 69.8535,94.5219 74.1869,98.5219 78.5,102.5 Z"/></g>
<g><path style="opacity:1" fill="#bbbabf" d="M 83.5,107.5 C 85.1667,108.833 86.8333,110.167 88.5,111.5C 88.5,111.833 88.5,112.167 88.5,112.5C 82.4245,117.069 76.7578,122.236 71.5,128C 68.8604,128.839 66.5271,128.339 64.5,126.5C 71.1877,120.479 77.521,114.146 83.5,107.5 Z"/></g>
<g><path style="opacity:1" fill="#e6e6e7" d="M 78.5,102.5 C 78.8333,102.5 79.1667,102.5 79.5,102.5C 80.5,104.167 81.8333,105.5 83.5,106.5C 83.5,106.833 83.5,107.167 83.5,107.5C 77.521,114.146 71.1877,120.479 64.5,126.5C 66.5271,128.339 68.8604,128.839 71.5,128C 76.7578,122.236 82.4245,117.069 88.5,112.5C 92.9822,116.15 96.9822,120.317 100.5,125C 91.7691,135.732 81.7691,145.066 70.5,153C 60.2877,155.128 50.2877,154.295 40.5,150.5C 40.5,150.167 40.5,149.833 40.5,149.5C 48.4112,143.094 55.9112,136.094 63,128.5C 62.8724,125.514 62.8724,122.514 63,119.5C 68.7644,114.242 73.931,108.576 78.5,102.5 Z"/></g>
</svg>
