<?xml version="1.0" encoding="UTF-8"?>
<!DOCTYPE svg PUBLIC "-//W3C//DTD SVG 1.1//EN" "http://www.w3.org/Graphics/SVG/1.1/DTD/svg11.dtd">
<svg xmlns="http://www.w3.org/2000/svg" version="1.1" width="192px" height="192px" style="shape-rendering:geometricPrecision; text-rendering:geometricPrecision; image-rendering:optimizeQuality; fill-rule:evenodd; clip-rule:evenodd" xmlns:xlink="http://www.w3.org/1999/xlink">
<g><path style="opacity:0.979" fill="#e6e6e7" d="M 83.5,-0.5 C 91.5,-0.5 99.5,-0.5 107.5,-0.5C 154.5,8.5 182.5,36.5 191.5,83.5C 191.5,87.5 191.5,91.5 191.5,95.5C 175.368,79.8685 159.368,64.0351 143.5,48C 142.906,47.5357 142.239,47.369 141.5,47.5C 130.52,31.3401 115.186,23.0068 95.5,22.5C 67.4753,24.014 49.642,38.3474 42,65.5C 38.8924,93.6229 49.7257,114.29 74.5,127.5C 81.1511,140.802 87.8178,154.136 94.5,167.5C 101.5,174.833 108.5,182.167 115.5,189.5C 112.72,190.078 110.053,190.745 107.5,191.5C 99.5,191.5 91.5,191.5 83.5,191.5C 36.5,182.5 8.5,154.5 -0.5,107.5C -0.5,99.5 -0.5,91.5 -0.5,83.5C 8.5,36.5 36.5,8.5 83.5,-0.5 Z"/></g>
<g><path style="opacity:1" fill="#e50820" d="M 95.5,22.5 C 95.5,27.8333 95.5,33.1667 95.5,38.5C 73.1923,40.6413 60.5256,52.8079 57.5,75C 57.8522,92.3422 65.8522,104.676 81.5,112C 85.9626,113.975 90.6292,114.808 95.5,114.5C 95.5,119.833 95.5,125.167 95.5,130.5C 88.2623,130.982 81.2623,129.982 74.5,127.5C 49.7257,114.29 38.8924,93.6229 42,65.5C 49.642,38.3474 67.4753,24.014 95.5,22.5 Z"/></g>
<g><path style="opacity:1" fill="#af1a16" d="M 95.5,22.5 C 115.186,23.0068 130.52,31.3401 141.5,47.5C 155.614,74.893 151.281,99.0597 128.5,120C 124.615,122.725 120.615,125.225 116.5,127.5C 109.642,129.404 102.642,130.404 95.5,130.5C 95.5,125.167 95.5,119.833 95.5,114.5C 122.451,111.042 134.951,95.7082 133,68.5C 128.586,53.2517 118.752,43.585 103.5,39.5C 101.052,38.5269 98.3854,38.1936 95.5,38.5C 95.5,33.1667 95.5,27.8333 95.5,22.5 Z"/></g>
<g><path style="opacity:1" fill="#fdf9fa" d="M 95.5,38.5 C 98.3854,38.1936 101.052,38.5269 103.5,39.5C 100.833,39.5 98.1667,39.5 95.5,39.5C 95.5,48.1667 95.5,56.8333 95.5,65.5C 96.791,65.2627 97.791,65.596 98.5,66.5C 97.5,66.5 96.5,66.5 95.5,66.5C 87.1787,67.4403 84.012,72.107 86,80.5C 87.4055,83.4086 89.5722,85.4086 92.5,86.5C 93.209,87.404 94.209,87.7373 95.5,87.5C 95.5,96.5 95.5,105.5 95.5,114.5C 90.6292,114.808 85.9626,113.975 81.5,112C 65.8522,104.676 57.8522,92.3422 57.5,75C 60.5256,52.8079 73.1923,40.6413 95.5,38.5 Z"/></g>
<g><path style="opacity:1" fill="#9bf9fb" d="M 103.5,39.5 C 118.752,43.585 128.586,53.2517 133,68.5C 134.951,95.7082 122.451,111.042 95.5,114.5C 95.5,105.5 95.5,96.5 95.5,87.5C 102.193,86.6439 105.86,82.8105 106.5,76C 105.574,71.2875 102.908,68.1209 98.5,66.5C 97.791,65.596 96.791,65.2627 95.5,65.5C 95.5,56.8333 95.5,48.1667 95.5,39.5C 98.1667,39.5 100.833,39.5 103.5,39.5 Z"/></g>
<g><path style="opacity:1" fill="#bcbbc0" d="M 141.5,47.5 C 142.239,47.369 142.906,47.5357 143.5,48C 159.368,64.0351 175.368,79.8685 191.5,95.5C 191.5,99.8333 191.5,104.167 191.5,108.5C 183.192,151.433 157.859,178.433 115.5,189.5C 108.5,182.167 101.5,174.833 94.5,167.5C 94.8333,167.5 95.1667,167.5 95.5,167.5C 103.006,154.49 110.006,141.157 116.5,127.5C 120.615,125.225 124.615,122.725 128.5,120C 151.281,99.0597 155.614,74.893 141.5,47.5 Z"/></g>
<g><path style="opacity:1" fill="#b1241c" d="M 72.5,65.5 C 76.2196,65.2961 79.553,66.2961 82.5,68.5C 82.1345,69.9019 81.3012,70.9019 80,71.5C 77.5661,70.6777 75.0661,70.3444 72.5,70.5C 72.281,71.675 72.6143,72.675 73.5,73.5C 76.1667,74.5 78.8333,75.5 81.5,76.5C 84.7341,81.1498 83.7341,84.6498 78.5,87C 74.7959,87.8042 71.2959,87.3042 68,85.5C 67.2263,83.597 67.5596,81.9304 69,80.5C 71.9711,82.5669 75.1378,82.9002 78.5,81.5C 75.012,79.6025 71.512,77.6025 68,75.5C 66.5713,70.7833 68.0713,67.45 72.5,65.5 Z"/></g>
<g><path style="opacity:1" fill="#af1d17" d="M 95.5,66.5 C 95.5674,67.9587 95.2341,69.2921 94.5,70.5C 91.2342,71.1138 89.9009,73.1138 90.5,76.5C 90.0777,79.3077 91.0777,81.3077 93.5,82.5C 94.8062,83.4674 95.4729,84.8007 95.5,86.5C 94.5,86.5 93.5,86.5 92.5,86.5C 89.5722,85.4086 87.4055,83.4086 86,80.5C 84.012,72.107 87.1787,67.4403 95.5,66.5 Z"/></g>
<g><path style="opacity:1" fill="#7b2118" d="M 95.5,66.5 C 96.5,66.5 97.5,66.5 98.5,66.5C 102.908,68.1209 105.574,71.2875 106.5,76C 105.86,82.8105 102.193,86.6439 95.5,87.5C 94.209,87.7373 93.209,87.404 92.5,86.5C 93.5,86.5 94.5,86.5 95.5,86.5C 95.4729,84.8007 94.8062,83.4674 93.5,82.5C 94.1667,82.5 94.8333,82.5 95.5,82.5C 99.3047,82.3575 100.971,80.3575 100.5,76.5C 100.971,72.6425 99.3047,70.6425 95.5,70.5C 95.1667,70.5 94.8333,70.5 94.5,70.5C 95.2341,69.2921 95.5674,67.9587 95.5,66.5 Z"/></g>
<g><path style="opacity:1" fill="#771c14" d="M 113.5,65.5 C 117.22,65.2961 120.553,66.2961 123.5,68.5C 123.135,69.9019 122.301,70.9019 121,71.5C 118.566,70.6777 116.066,70.3444 113.5,70.5C 113.281,71.675 113.614,72.675 114.5,73.5C 116.795,74.4318 119.129,75.2652 121.5,76C 125.644,79.9786 125.31,83.6453 120.5,87C 115.768,88.0358 111.434,87.2025 107.5,84.5C 108.083,82.9984 108.916,81.6651 110,80.5C 112.892,82.6729 116.059,83.0063 119.5,81.5C 116.012,79.6025 112.512,77.6025 109,75.5C 107.571,70.7833 109.071,67.45 113.5,65.5 Z"/></g>
<g><path style="opacity:1" fill="#fbf6f5" d="M 94.5,70.5 C 94.8333,70.5 95.1667,70.5 95.5,70.5C 95.5,74.5 95.5,78.5 95.5,82.5C 94.8333,82.5 94.1667,82.5 93.5,82.5C 91.0777,81.3077 90.0777,79.3077 90.5,76.5C 89.9009,73.1138 91.2342,71.1138 94.5,70.5 Z"/></g>
<g><path style="opacity:1" fill="#9cf7f9" d="M 95.5,70.5 C 99.3047,70.6425 100.971,72.6425 100.5,76.5C 100.971,80.3575 99.3047,82.3575 95.5,82.5C 95.5,78.5 95.5,74.5 95.5,70.5 Z"/></g>
<g><path style="opacity:1" fill="#af1a16" d="M 74.5,127.5 C 81.2623,129.982 88.2623,130.982 95.5,130.5C 95.5,142.833 95.5,155.167 95.5,167.5C 95.1667,167.5 94.8333,167.5 94.5,167.5C 87.8178,154.136 81.1511,140.802 74.5,127.5 Z"/></g>
<g><path style="opacity:1" fill="#760e0a" d="M 116.5,127.5 C 110.006,141.157 103.006,154.49 95.5,167.5C 95.5,155.167 95.5,142.833 95.5,130.5C 102.642,130.404 109.642,129.404 116.5,127.5 Z"/></g>
</svg>
