<?xml version="1.0" encoding="UTF-8"?>
<!DOCTYPE svg PUBLIC "-//W3C//DTD SVG 1.1//EN" "http://www.w3.org/Graphics/SVG/1.1/DTD/svg11.dtd">
<svg xmlns="http://www.w3.org/2000/svg" version="1.1" width="192px" height="192px" style="shape-rendering:geometricPrecision; text-rendering:geometricPrecision; image-rendering:optimizeQuality; fill-rule:evenodd; clip-rule:evenodd" xmlns:xlink="http://www.w3.org/1999/xlink">
<g><path style="opacity:0.979" fill="#e5031f" d="M 83.5,-0.5 C 91.5,-0.5 99.5,-0.5 107.5,-0.5C 150.844,7.51343 178.178,32.8468 189.5,75.5C 180.861,68.5284 172.861,60.8617 165.5,52.5C 162.167,52.5 158.833,52.5 155.5,52.5C 155.5,54.5 155.5,56.5 155.5,58.5C 138.83,58.3334 122.163,58.5001 105.5,59C 99.1667,62.1667 92.8333,65.3333 86.5,68.5C 85.513,65.2317 85.1796,61.8984 85.5,58.5C 68.9576,55.5909 54.4576,59.5909 42,70.5C 38.3906,74.7231 35.5572,79.3898 33.5,84.5C 23.0579,84.283 17.3912,89.283 16.5,99.5C 15.9505,105.402 18.2839,109.735 23.5,112.5C 48.7502,138.251 74.2502,163.917 100,189.5C 100.464,190.094 100.631,190.761 100.5,191.5C 94.8333,191.5 89.1667,191.5 83.5,191.5C 36.5,182.5 8.5,154.5 -0.5,107.5C -0.5,99.5 -0.5,91.5 -0.5,83.5C 8.5,36.5 36.5,8.5 83.5,-0.5 Z"/></g>
<g><path style="opacity:1" fill="#fefcfc" d="M 165.5,52.5 C 165.5,61.8333 165.5,71.1667 165.5,80.5C 162.167,80.5 158.833,80.5 155.5,80.5C 155.5,78.8333 155.5,77.1667 155.5,75.5C 155.5,69.8333 155.5,64.1667 155.5,58.5C 155.5,56.5 155.5,54.5 155.5,52.5C 158.833,52.5 162.167,52.5 165.5,52.5 Z"/></g>
<g><path style="opacity:1" fill="#af1916" d="M 165.5,52.5 C 172.861,60.8617 180.861,68.5284 189.5,75.5C 190.065,77.9521 190.732,80.2854 191.5,82.5C 191.5,91.1667 191.5,99.8333 191.5,108.5C 182.171,154.496 154.504,182.163 108.5,191.5C 105.833,191.5 103.167,191.5 100.5,191.5C 100.631,190.761 100.464,190.094 100,189.5C 74.2502,163.917 48.7502,138.251 23.5,112.5C 26.2457,114.126 29.2457,114.793 32.5,114.5C 43.2089,136.351 60.5423,144.518 84.5,139C 105.241,130.66 114.574,115.494 112.5,93.5C 112.534,90.8015 111.867,88.3015 110.5,86C 125.386,82.0736 140.386,78.5736 155.5,75.5C 155.5,77.1667 155.5,78.8333 155.5,80.5C 158.833,80.5 162.167,80.5 165.5,80.5C 165.5,71.1667 165.5,61.8333 165.5,52.5 Z"/></g>
<g><path style="opacity:1" fill="#13f5fb" d="M 155.5,58.5 C 155.5,64.1667 155.5,69.8333 155.5,75.5C 140.386,78.5736 125.386,82.0736 110.5,86C 111.867,88.3015 112.534,90.8015 112.5,93.5C 112.5,95.5 112.5,97.5 112.5,99.5C 106.833,99.5 101.167,99.5 95.5,99.5C 92.7107,81.7608 82.3773,74.2608 64.5,77C 54.2934,81.0392 48.9601,88.5392 48.5,99.5C 42.8333,99.5 37.1667,99.5 31.5,99.5C 31.5,96.8333 31.5,94.1667 31.5,91.5C 31.5,91.1667 31.5,90.8333 31.5,90.5C 31.6036,88.2972 32.2702,86.2972 33.5,84.5C 35.5572,79.3898 38.3906,74.7231 42,70.5C 54.4576,59.5909 68.9576,55.5909 85.5,58.5C 85.1796,61.8984 85.513,65.2317 86.5,68.5C 92.8333,65.3333 99.1667,62.1667 105.5,59C 122.163,58.5001 138.83,58.3334 155.5,58.5 Z"/></g>
<g><path style="opacity:1" fill="#fefefe" d="M 95.5,99.5 C 79.8333,99.5 64.1667,99.5 48.5,99.5C 48.9601,88.5392 54.2934,81.0392 64.5,77C 82.3773,74.2608 92.7107,81.7608 95.5,99.5 Z"/></g>
<g><path style="opacity:1" fill="#fcefef" d="M 33.5,84.5 C 32.2702,86.2972 31.6036,88.2972 31.5,90.5C 25.31,90.3578 21.9767,93.3578 21.5,99.5C 19.8333,99.5 18.1667,99.5 16.5,99.5C 17.3912,89.283 23.0579,84.283 33.5,84.5 Z"/></g>
<g><path style="opacity:1" fill="#b12119" d="M 31.5,90.5 C 31.5,90.8333 31.5,91.1667 31.5,91.5C 30.281,97.357 30.281,103.357 31.5,109.5C 25.1229,109.123 21.7896,105.79 21.5,99.5C 21.9767,93.3578 25.31,90.3578 31.5,90.5 Z"/></g>
<g><path style="opacity:1" fill="#16d6dc" d="M 31.5,91.5 C 31.5,94.1667 31.5,96.8333 31.5,99.5C 37.1667,99.5 42.8333,99.5 48.5,99.5C 50.5803,118.217 60.9136,125.717 79.5,122C 89.6959,117.969 95.0293,110.469 95.5,99.5C 101.167,99.5 106.833,99.5 112.5,99.5C 112.5,97.5 112.5,95.5 112.5,93.5C 114.574,115.494 105.241,130.66 84.5,139C 60.5423,144.518 43.2089,136.351 32.5,114.5C 32.634,112.708 32.3007,111.042 31.5,109.5C 30.281,103.357 30.281,97.357 31.5,91.5 Z"/></g>
<g><path style="opacity:1" fill="#fcefab" d="M 16.5,99.5 C 18.1667,99.5 19.8333,99.5 21.5,99.5C 21.7896,105.79 25.1229,109.123 31.5,109.5C 32.3007,111.042 32.634,112.708 32.5,114.5C 29.2457,114.793 26.2457,114.126 23.5,112.5C 18.2839,109.735 15.9505,105.402 16.5,99.5 Z"/></g>
<g><path style="opacity:1" fill="#fdf0ab" d="M 48.5,99.5 C 64.1667,99.5 79.8333,99.5 95.5,99.5C 95.0293,110.469 89.6959,117.969 79.5,122C 60.9136,125.717 50.5803,118.217 48.5,99.5 Z"/></g>
</svg>
